<svg width="56" height="56" viewBox="0 0 56 56" fill="none" xmlns="http://www.w3.org/2000/svg">
<path d="M49.9662 35.7474H48.5078V15.2396C48.5078 12.4754 46.259 10.2266 43.4948 10.2266H12.5052C9.74105 10.2266 7.49221 12.4754 7.49221 15.2396V35.7474H6.03387C5.27882 35.7474 4.66669 36.3595 4.66669 37.1146V40.7604C4.66669 43.5246 6.91553 45.7734 9.67971 45.7734H46.3203C49.0845 45.7734 51.3334 43.5246 51.3334 40.7604V37.1146C51.3334 36.3595 50.7212 35.7474 49.9662 35.7474ZM10.2266 15.2396C10.2266 13.9831 11.2488 12.9609 12.5052 12.9609H43.4948C44.7513 12.9609 45.7735 13.9831 45.7735 15.2396V35.7474H33.4688C32.9509 35.7474 32.4776 36.04 32.2459 36.5032L31.7123 37.5703H24.2876L23.7541 36.5032C23.5225 36.04 23.0492 35.7474 22.5313 35.7474H10.2266V15.2396ZM48.599 40.7604C48.599 42.0169 47.5768 43.0391 46.3203 43.0391H9.67971C8.42326 43.0391 7.40106 42.0169 7.40106 40.7604V38.4818H21.6863L22.2198 39.5489C22.4515 40.0121 22.9248 40.3047 23.4427 40.3047H32.5573C33.0752 40.3047 33.5485 40.0121 33.7802 39.5489L34.3138 38.4818H48.599V40.7604Z" fill="#C2E978"/>
<path d="M24.3544 32.102C24.5148 32.102 24.678 32.0735 24.8369 32.0136C25.5433 31.747 25.9 30.9581 25.6333 30.2517L20.8854 17.6705C20.8806 17.6579 20.8757 17.6454 20.8706 17.633C20.6141 17.0094 20.013 16.6068 19.3388 16.6068C19.3383 16.6068 19.3376 16.6068 19.3371 16.6068C18.6622 16.6075 18.0611 17.0115 17.8057 17.636C17.8015 17.6463 17.7974 17.6567 17.7934 17.6671L13.0019 30.2478C12.7331 30.9534 13.0873 31.7433 13.793 32.012C14.4986 32.2811 15.2884 31.9266 15.5572 31.221L16.4151 28.9683H22.2264L23.0751 31.217C23.2817 31.7646 23.8019 32.1021 24.3544 32.102ZM17.4566 26.234L19.3341 21.3043L21.1945 26.234H17.4566Z" fill="#C2E978"/>
<path d="M34.7729 32.1016C35.5279 32.1016 36.1401 31.4895 36.1401 30.7344V26.5186L40.6456 31.6378C40.9158 31.9448 41.2932 32.1017 41.6724 32.1017C41.9933 32.1017 42.3155 31.9895 42.5752 31.7608C43.142 31.262 43.197 30.3981 42.6982 29.8313L39.2077 25.8653C41.3955 25.4059 43.039 23.5297 43.039 21.2904C43.0391 18.7078 40.8539 16.6068 38.168 16.6068H34.7771C34.7764 16.6068 34.7757 16.6069 34.775 16.6069C34.7743 16.6069 34.7736 16.6068 34.7729 16.6068C34.0178 16.6068 33.4057 17.2189 33.4057 17.974V30.7344C33.4057 31.4895 34.0178 32.1016 34.7729 32.1016ZM38.168 19.3412C39.3263 19.3412 40.3047 20.2338 40.3047 21.2903C40.3047 22.3468 39.3262 23.2394 38.168 23.2394C37.7052 23.2394 36.8792 23.243 36.16 23.2466C36.1563 22.5411 36.1506 20.0775 36.1485 19.3412H38.168Z" fill="#C2E978"/>
<path d="M26.6328 25.7213H29.3672C30.1222 25.7213 30.7344 25.1092 30.7344 24.3541C30.7344 23.5991 30.1222 22.9869 29.3672 22.9869H26.6328C25.8778 22.9869 25.2656 23.5991 25.2656 24.3541C25.2656 25.1092 25.8778 25.7213 26.6328 25.7213Z" fill="#C2E978"/>
</svg>
