<svg width="56" height="56" viewBox="0 0 56 56" fill="none" xmlns="http://www.w3.org/2000/svg">
<path fill-rule="evenodd" clip-rule="evenodd" d="M29.3847 10.8294C28.1664 12.1083 27.4167 13.9508 27.4167 16.1575C27.4167 18.2218 28.6532 21.0524 30.4228 23.4787C31.2845 24.6601 32.2051 25.6507 33.0367 26.3259C33.4521 26.6633 33.8147 26.897 34.1089 27.0401C34.2539 27.1106 34.3685 27.1524 34.4531 27.1756C34.4946 27.187 34.5259 27.1931 34.5475 27.1963C34.5582 27.1979 34.5662 27.1987 34.5716 27.1991C34.5769 27.1995 34.5795 27.1995 34.5794 27.1995C34.5794 27.1995 34.582 27.1995 34.5873 27.1991C34.5927 27.1987 34.6006 27.1979 34.6114 27.1963C34.633 27.1931 34.6643 27.187 34.7058 27.1756C34.7904 27.1524 34.905 27.1106 35.05 27.0401C35.3442 26.897 35.7068 26.6633 36.1223 26.3259C36.9538 25.6507 37.8745 24.6601 38.7361 23.4787C40.5058 21.0523 41.7424 18.2218 41.7424 16.1575C41.7424 13.9508 40.9926 12.1083 39.7742 10.8294C38.5643 9.55945 36.8036 8.75 34.5794 8.75C32.3553 8.75 30.5946 9.55945 29.3847 10.8294ZM26.8506 8.41526C28.7602 6.41076 31.4559 5.25 34.5794 5.25C37.7029 5.25 40.3987 6.41075 42.3083 8.41524C44.2095 10.4108 45.2424 13.1471 45.2424 16.1575C45.2424 19.3103 43.5079 22.8758 41.5639 25.5412C40.5687 26.9056 39.4468 28.1348 38.3287 29.0429C37.2898 29.8865 35.9564 30.6995 34.5794 30.6995C33.2025 30.6995 31.8691 29.8865 30.8302 29.0429C29.7121 28.1348 28.5902 26.9056 27.5951 25.5411C25.651 22.8758 23.9167 19.3103 23.9167 16.1575C23.9167 13.1471 24.9495 10.4108 26.8506 8.41526Z" fill="#C2E978"/>
<path fill-rule="evenodd" clip-rule="evenodd" d="M34.5231 14.1184C33.9028 14.1184 33.3998 14.6213 33.3998 15.2417C33.3998 15.8621 33.9028 16.365 34.5231 16.365C35.1435 16.365 35.6464 15.8621 35.6464 15.2417C35.6464 14.6213 35.1435 14.1184 34.5231 14.1184ZM31.0665 15.2417C31.0665 13.3326 32.6141 11.785 34.5231 11.785C36.4322 11.785 37.9798 13.3326 37.9798 15.2417C37.9798 17.1507 36.4322 18.6983 34.5231 18.6983C32.6141 18.6983 31.0665 17.1507 31.0665 15.2417Z" fill="#C2E978"/>
<path fill-rule="evenodd" clip-rule="evenodd" d="M23.1506 19.2499C23.2743 19.25 23.3996 19.25 23.5266 19.25H26.5475C27.514 19.25 28.2975 20.0335 28.2975 21C28.2975 21.9665 27.514 22.75 26.5475 22.75H23.5266C19.6409 22.75 18.1551 22.7764 16.963 23.2134C15.2776 23.8314 13.866 25.0271 12.9794 26.588C12.3524 27.692 12.0821 29.1533 11.4433 32.9861C11.0244 35.4994 10.7267 37.2923 10.5949 38.7064C10.4643 40.1086 10.5149 40.9842 10.7068 41.6809C11.2989 43.83 12.8066 45.6097 14.829 46.547C15.4847 46.8509 16.3401 47.0448 17.7447 47.1464C19.1612 47.2489 20.9786 47.25 23.5266 47.25H32.4737C35.0217 47.25 36.8391 47.2489 38.2556 47.1464C39.6602 47.0448 40.5156 46.8509 41.1712 46.547C43.1937 45.6097 44.7014 43.83 45.2934 41.6809C45.4854 40.9842 45.536 40.1086 45.4054 38.7064C45.2736 37.2923 44.9759 35.4994 44.557 32.9861C43.9182 29.1533 43.6479 27.692 43.0208 26.588C42.4216 25.533 41.5825 24.6447 40.581 23.989C39.7724 23.4595 39.5461 22.3748 40.0756 21.5663C40.605 20.7577 41.6897 20.5314 42.4983 21.0608C43.9618 22.0192 45.1883 23.3173 46.0642 24.8594C47.0382 26.5742 47.3933 28.7081 47.9476 32.0398C47.968 32.1618 47.9885 32.2855 48.0094 32.4107L48.0208 32.4789C48.4258 34.9089 48.7454 36.8265 48.8903 38.3817C49.0376 39.9633 49.0223 41.3235 48.6677 42.6105C47.8024 45.7515 45.5989 48.3526 42.6429 49.7225C41.4317 50.2839 40.0925 50.5226 38.5082 50.6373C36.9505 50.75 35.0064 50.75 32.543 50.75H23.4573C20.9938 50.75 19.0498 50.75 17.492 50.6373C15.9078 50.5226 14.5686 50.2839 13.3573 49.7225C10.4014 48.3526 8.1979 45.7515 7.33255 42.6105C6.97795 41.3235 6.96263 39.9633 7.10999 38.3817C7.25489 36.8266 7.57449 34.909 7.97949 32.4791L7.99088 32.4107C8.01176 32.2855 8.03232 32.1619 8.05263 32.0399C8.60701 28.7082 8.9621 26.5742 9.93611 24.8594C11.2319 22.5781 13.2949 20.8304 15.7582 19.9273C17.6098 19.2485 19.7731 19.2491 23.1506 19.2499Z" fill="#C2E978"/>
<path d="M21.5833 28.9495C21.5833 30.5603 20.2775 31.8662 18.6667 31.8662C17.0558 31.8662 15.75 30.5603 15.75 28.9495C15.75 27.3387 17.0558 26.0328 18.6667 26.0328C20.2775 26.0328 21.5833 27.3387 21.5833 28.9495Z" fill="#C2E978"/>
<path fill-rule="evenodd" clip-rule="evenodd" d="M41.4874 31.8474C42.1709 32.5308 42.1709 33.6389 41.4874 34.3223L33.3208 42.4889C32.6742 43.1355 31.6387 43.1753 30.9444 42.5802L24.0082 36.6348L16.9874 43.6556C16.304 44.339 15.196 44.339 14.5126 43.6556C13.8291 42.9722 13.8291 41.8642 14.5126 41.1807L22.6792 33.0141C23.3258 32.3675 24.3613 32.3277 25.0556 32.9228L31.9918 38.8682L39.0126 31.8474C39.696 31.164 40.804 31.164 41.4874 31.8474Z" fill="#C2E978"/>
</svg>
