<svg width="56" height="56" viewBox="0 0 56 56" fill="none" xmlns="http://www.w3.org/2000/svg">
<path fill-rule="evenodd" clip-rule="evenodd" d="M40.3027 6.56763C42.1075 6.8822 43.8258 7.55249 45.0498 8.84092C46.2622 10.1171 46.8824 11.8898 47.1745 13.7463C47.4708 15.6301 47.4612 17.8045 47.2421 20.1029C46.8034 24.7041 45.4975 30.0706 43.7847 35.1556C42.0714 40.242 39.9171 45.1473 37.7299 48.8178C36.6404 50.646 35.5016 52.2383 34.3568 53.3983C33.2871 54.4822 31.8778 55.5334 30.25 55.5334C27.9021 55.5334 26.2034 54.4503 24.9881 52.8814C23.8542 51.4175 23.1097 49.4952 22.4817 47.6589C22.2757 47.0568 22.0813 46.4611 21.8885 45.8704C21.4587 44.5536 21.0367 43.261 20.5125 41.9734C19.7682 40.1453 18.8976 38.5499 17.73 37.3208C16.5667 36.0964 15.0635 35.1885 13.343 34.4124C12.1269 33.8638 10.9106 33.4239 9.66342 32.9728C9.10057 32.7693 8.5314 32.5634 7.9531 32.3443C6.20207 31.6807 4.3546 30.8886 2.94961 29.6827C1.44366 28.3901 0.466675 26.6406 0.466675 24.2808C0.466675 22.6814 1.40791 21.2433 2.45644 20.0967C3.55928 18.8907 5.0759 17.6884 6.81908 16.5374C10.3165 14.2282 14.9886 11.9548 19.8323 10.147C24.6727 8.34048 29.7915 6.9589 34.1912 6.49409C36.389 6.26191 38.4812 6.25018 40.3027 6.56763ZM5.21146 22.6162C4.34054 23.5685 4.20001 24.117 4.20001 24.2808C4.20001 25.4472 4.61885 26.1955 5.38112 26.8498C6.24436 27.5907 7.5375 28.1944 9.27604 28.8532C9.7457 29.0312 10.2522 29.2145 10.7807 29.4058C12.0863 29.8783 13.5264 30.3995 14.8783 31.0093C16.8219 31.8861 18.8082 33.0354 20.4366 34.7495C22.0607 36.459 23.1442 38.5368 23.9702 40.5656C24.5465 41.981 25.0373 43.4836 25.4853 44.8552C25.6677 45.4137 25.843 45.9505 26.0141 46.4508C26.6424 48.2878 27.224 49.6714 27.9395 50.5952C28.5737 51.4139 29.248 51.8001 30.25 51.8001C30.2448 51.8001 30.3675 51.8 30.6459 51.6392C30.9223 51.4796 31.2764 51.2047 31.6995 50.7759C32.5487 49.9155 33.5105 48.6055 34.5228 46.9067C36.539 43.523 38.5925 38.8748 40.2467 33.9639C41.9013 29.0515 43.1224 23.9769 43.5256 19.7485C43.7274 17.6321 43.7174 15.7947 43.4865 14.3264C43.2512 12.8309 42.8173 11.9114 42.3431 11.4122C41.8805 10.9253 41.0412 10.486 39.6617 10.2455C38.2987 10.008 36.5797 9.99587 34.5834 10.2068C30.595 10.6281 25.7947 11.9066 21.1377 13.6447C16.4839 15.3816 12.0802 17.5374 8.87613 19.6529C7.26859 20.7143 6.02807 21.7232 5.21146 22.6162Z" fill="#C2E978"/>
<path fill-rule="evenodd" clip-rule="evenodd" d="M29.32 26.9866L19.9867 36.3199L17.3468 33.6801L26.6801 24.3467C27.4091 23.6177 28.591 23.6177 29.32 24.3467C30.049 25.0757 30.049 26.2576 29.32 26.9866Z" fill="#C2E978"/>
</svg>
