<svg width="48" height="48" viewBox="0 0 48 48" fill="none" xmlns="http://www.w3.org/2000/svg">
<path fill-rule="evenodd" clip-rule="evenodd" d="M0.666626 10.0001C0.666626 7.52473 1.64996 5.15076 3.4003 3.40042C5.15064 1.65008 7.52461 0.666748 9.99996 0.666748H38C40.4753 0.666748 42.8493 1.65008 44.5996 3.40042C46.35 5.15076 47.3333 7.52473 47.3333 10.0001V38.0001C47.3333 40.4754 46.35 42.8494 44.5996 44.5997C42.8493 46.3501 40.4753 47.3334 38 47.3334H9.99996C7.52461 47.3334 5.15064 46.3501 3.4003 44.5997C1.64996 42.8494 0.666626 40.4754 0.666626 38.0001V10.0001ZM9.99996 5.33342C8.76228 5.33342 7.5753 5.82508 6.70013 6.70025C5.82496 7.57542 5.33329 8.76241 5.33329 10.0001V38.0001C5.33329 39.2378 5.82496 40.4247 6.70013 41.2999C7.5753 42.1751 8.76228 42.6668 9.99996 42.6668H24V26.3334H21.6666C21.0478 26.3334 20.4543 26.0876 20.0167 25.65C19.5791 25.2124 19.3333 24.6189 19.3333 24.0001C19.3333 23.3812 19.5791 22.7878 20.0167 22.3502C20.4543 21.9126 21.0478 21.6667 21.6666 21.6667H24V18.1667C24 16.0008 24.8604 13.9236 26.3919 12.392C27.9235 10.8605 30.0007 10.0001 32.1666 10.0001H33.5666C34.1855 10.0001 34.779 10.2459 35.2165 10.6835C35.6541 11.1211 35.9 11.7146 35.9 12.3334C35.9 12.9523 35.6541 13.5457 35.2165 13.9833C34.779 14.4209 34.1855 14.6667 33.5666 14.6667H32.1666C31.707 14.6667 31.2519 14.7573 30.8272 14.9332C30.4026 15.1091 30.0168 15.3669 29.6918 15.6919C29.3667 16.0169 29.1089 16.4027 28.9331 16.8274C28.7572 17.252 28.6666 17.7071 28.6666 18.1667V21.6667H33.5666C34.1855 21.6667 34.779 21.9126 35.2165 22.3502C35.6541 22.7878 35.9 23.3812 35.9 24.0001C35.9 24.6189 35.6541 25.2124 35.2165 25.65C34.779 26.0876 34.1855 26.3334 33.5666 26.3334H28.6666V42.6668H38C39.2376 42.6668 40.4246 42.1751 41.2998 41.2999C42.175 40.4247 42.6666 39.2378 42.6666 38.0001V10.0001C42.6666 8.76241 42.175 7.57542 41.2998 6.70025C40.4246 5.82508 39.2376 5.33342 38 5.33342H9.99996Z" fill="#C2E978"/>
</svg>
