<svg width="48" height="48" viewBox="0 0 48 48" fill="none" xmlns="http://www.w3.org/2000/svg">
<path fill-rule="evenodd" clip-rule="evenodd" d="M0.666687 10.0001C0.666687 7.52473 1.65002 5.15076 3.40036 3.40042C5.1507 1.65008 7.52467 0.666748 10 0.666748H38C40.4754 0.666748 42.8493 1.65008 44.5997 3.40042C46.35 5.15076 47.3334 7.52473 47.3334 10.0001V38.0001C47.3334 40.4754 46.35 42.8494 44.5997 44.5997C42.8493 46.3501 40.4754 47.3334 38 47.3334H10C7.52467 47.3334 5.1507 46.3501 3.40036 44.5997C1.65002 42.8494 0.666687 40.4754 0.666687 38.0001V10.0001ZM10 5.33342C8.76234 5.33342 7.57536 5.82508 6.70019 6.70025C5.82502 7.57542 5.33335 8.76241 5.33335 10.0001V38.0001C5.33335 39.2378 5.82502 40.4247 6.70019 41.2999C7.57536 42.1751 8.76234 42.6668 10 42.6668H38C39.2377 42.6668 40.4247 42.1751 41.2999 41.2999C42.175 40.4247 42.6667 39.2378 42.6667 38.0001V10.0001C42.6667 8.76241 42.175 7.57542 41.2999 6.70025C40.4247 5.82508 39.2377 5.33342 38 5.33342H10ZM24 17.0001C22.1435 17.0001 20.363 17.7376 19.0503 19.0503C17.7375 20.3631 17 22.1436 17 24.0001C17 25.8566 17.7375 27.6371 19.0503 28.9498C20.363 30.2626 22.1435 31.0001 24 31.0001C25.8565 31.0001 27.637 30.2626 28.9498 28.9498C30.2625 27.6371 31 25.8566 31 24.0001C31 22.1436 30.2625 20.3631 28.9498 19.0503C27.637 17.7376 25.8565 17.0001 24 17.0001ZM12.3334 24.0001C12.3334 20.9059 13.5625 17.9384 15.7504 15.7505C17.9384 13.5626 20.9058 12.3334 24 12.3334C27.0942 12.3334 30.0617 13.5626 32.2496 15.7505C34.4375 17.9384 35.6667 20.9059 35.6667 24.0001C35.6667 27.0943 34.4375 30.0617 32.2496 32.2497C30.0617 34.4376 27.0942 35.6668 24 35.6668C20.9058 35.6668 17.9384 34.4376 15.7504 32.2497C13.5625 30.0617 12.3334 27.0943 12.3334 24.0001ZM36.8334 14.6667C37.7616 14.6667 38.6519 14.298 39.3082 13.6416C39.9646 12.9852 40.3334 12.095 40.3334 11.1667C40.3334 10.2385 39.9646 9.34825 39.3082 8.69187C38.6519 8.0355 37.7616 7.66675 36.8334 7.66675C35.9051 7.66675 35.0149 8.0355 34.3585 8.69187C33.7021 9.34825 33.3334 10.2385 33.3334 11.1667C33.3334 12.095 33.7021 12.9852 34.3585 13.6416C35.0149 14.298 35.9051 14.6667 36.8334 14.6667Z" fill="#C2E978"/>
</svg>
