<svg width="50" height="42" viewBox="0 0 50 42" fill="none" xmlns="http://www.w3.org/2000/svg">
<path fill-rule="evenodd" clip-rule="evenodd" d="M31.6476 5.20194C30.5816 5.20149 29.5288 5.43772 28.5653 5.89358C27.6017 6.34943 26.7513 7.01353 26.0756 7.83794C25.3998 8.66236 24.9156 9.62652 24.6577 10.6608C24.3999 11.6951 24.3749 12.7738 24.5846 13.8189C24.6568 14.1811 24.642 14.5552 24.5414 14.9105C24.4409 15.2658 24.2575 15.5921 24.0062 15.8627C23.755 16.1333 23.4431 16.3404 23.0962 16.467C22.7493 16.5936 22.3774 16.6361 22.0109 16.5909C16.9936 15.9746 12.2639 13.9122 8.39823 10.6549C8.47056 12.0596 8.95823 13.5529 10.0152 15.1163L11.5996 17.4589L8.9979 18.5673L8.49623 18.7819C8.86956 19.2089 9.31756 19.6453 9.81923 20.0769C10.4899 20.651 11.1993 21.178 11.9426 21.6543L11.9682 21.6706H11.9706L15.5826 23.8616L11.8026 25.7516C11.6159 25.8449 11.4292 25.9289 11.2426 26.0036C12.0554 26.679 12.9508 27.2482 13.9072 27.6976L17.1506 29.2306L14.4346 31.5733C12.9529 32.8519 11.4619 33.8063 9.52756 34.3103C12.4942 35.8905 15.8053 36.7136 19.1666 36.7066C30.3806 36.7066 39.4106 27.7583 39.4106 16.7939V15.5806L40.4022 14.8829C41.9516 13.7956 43.0459 12.3256 43.8299 10.6433H38.7899L38.1552 9.31327C37.5708 8.08283 36.6494 7.0434 35.4979 6.31566C34.3464 5.58793 33.0121 5.20174 31.6499 5.20194H31.6476ZM5.32756 22.2353C5.10738 22.4874 4.94403 22.784 4.84861 23.1049C4.75319 23.4258 4.72794 23.7634 4.77456 24.0949C5.03823 25.9639 6.1559 27.5739 7.39256 28.8036C7.72856 29.1373 8.0879 29.4569 8.4659 29.7626L8.2909 29.8093C7.16856 30.0893 5.65423 30.1476 3.1319 29.9026C2.65557 29.8559 2.17639 29.9567 1.75932 30.1915C1.34226 30.4263 1.00749 30.7837 0.800402 31.2152C0.593315 31.6467 0.523929 32.1314 0.601653 32.6037C0.679376 33.076 0.900449 33.5129 1.2349 33.8553C3.57003 36.2421 6.35958 38.137 9.43895 39.4282C12.5183 40.7194 15.8251 41.3808 19.1642 41.3733C32.4946 41.3733 43.4286 31.0226 44.0469 17.9606C47.0569 15.4336 48.5619 12.0106 49.3739 8.90027C49.4642 8.55506 49.4741 8.19374 49.4028 7.84409C49.3316 7.49445 49.1811 7.16581 48.963 6.88344C48.7448 6.60106 48.4648 6.37248 48.1445 6.21527C47.8242 6.05806 47.4721 5.97641 47.1152 5.9766H41.6249C40.2819 3.89136 38.3194 2.2793 36.013 1.36695C33.7066 0.4546 31.1723 0.287819 28.7662 0.890042C26.3602 1.49227 24.2033 2.83322 22.5986 4.72449C20.994 6.61575 20.0222 8.96225 19.8199 11.4343C15.5188 10.3146 11.6703 7.88948 8.80423 4.49261C8.55041 4.1925 8.22488 3.96137 7.85787 3.82068C7.49086 3.67998 7.09426 3.63428 6.70487 3.68781C6.31547 3.74135 5.94592 3.89238 5.63049 4.12689C5.31506 4.36141 5.06398 4.6718 4.90056 5.02927C3.48656 8.11394 3.2159 11.6699 4.79323 15.2866L4.24723 15.5199C3.72474 15.7426 3.30138 16.1481 3.05654 16.6606C2.81169 17.1731 2.76216 17.7572 2.91723 18.3036C3.35123 19.8249 4.32656 21.1689 5.32523 22.2353H5.32756Z" fill="#C2E978"/>
</svg>
