<svg width="42" height="61" viewBox="0 0 42 61" fill="none" xmlns="http://www.w3.org/2000/svg">
<mask id="mask0_150_1184" style="mask-type:alpha" maskUnits="userSpaceOnUse" x="0" y="0" width="42" height="61">
<path d="M0.00012207 20.5V45.5L14.0001 61H27.0001L37.5001 52.5L41.5001 36V15.5L32.5001 1.5L14.0001 0L0.00012207 20.5Z" fill="#C4C4C4"/>
</mask>
<g mask="url(#mask0_150_1184)">
<path fill-rule="evenodd" clip-rule="evenodd" d="M69.0001 -13H-27.9999V75H69.0001V-13ZM46.5372 40.2932C47.1364 38.917 47.6864 37.6533 47.7384 35.9641C47.7701 35.332 47.7701 34.7019 47.8081 34.0828L47.9474 33.9402V33.8591H47.8925L47.8397 33.9402V33.689H47.8672L48.0001 33.5569V33.4207L47.8397 33.5825V32.2332V31.9927V30.1047L47.8904 30.0771V29.6833C48.0237 26.0649 46.9224 23.2659 45.6779 20.1033L45.4507 19.5249C45.2164 17.571 43.87 14.2998 42.4517 12.9397C42.4312 12.9197 42.4099 12.8999 42.3883 12.8801C42.3434 12.8391 42.2968 12.7983 42.2512 12.7568V12.7354L42.2006 12.7185C42.0529 12.5894 41.8988 12.4617 41.7384 12.3354L41.7869 12.2693L41.713 12.3184C40.7908 11.6021 39.6979 10.99 38.6492 10.4031C38.0492 10.0671 37.4636 9.73926 36.9329 9.40454C36.4346 9.10327 35.983 8.73999 35.5349 8.37915C35.017 7.9624 34.5035 7.54932 33.9276 7.23999C33.5126 7.00781 33.0739 6.82153 32.6191 6.68457L32.7035 6.66333L32.6254 6.6377L32.6106 6.68237C31.9521 6.47388 31.2684 6.32715 30.6353 6.15674C29.6649 5.88306 28.7573 5.58716 27.8556 5.29346C27.0962 5.0459 26.3408 4.7998 25.5554 4.56909C24.3518 4.22021 23.1079 4.03271 21.8557 4.01147V4.00073H21.7755C19.1887 3.979 16.6179 4.41113 14.1779 5.27783L14.1061 5.20532L13.7463 5.30078C11.3307 5.94189 8.06921 6.80762 6.29736 8.52563L6.36914 8.67041C5.74854 9.53198 4.83887 10.2009 3.92175 10.8752C3.77856 10.9805 3.63513 11.0859 3.49268 11.1924L3.54541 11.1414L3.57275 11.0859L3.70581 10.9243V10.7646L3.78381 10.7114L3.94421 10.7922L4.07727 10.6838L3.97168 10.4963H3.83875L3.78381 10.605H3.67834L3.62561 10.7114L3.54541 10.7371L3.41248 10.605V10.8179L3.35962 10.9243V11.1372L3.30688 11.2434V11.3245H3.32166C3.12537 11.4734 2.93127 11.6267 2.74548 11.7842L2.64209 11.8054V11.8691C2.51099 11.9827 2.38367 12.1006 2.26038 12.2224C2.09924 12.3816 1.94495 12.5479 1.79797 12.7205C1.48376 13.0784 1.23389 13.5042 0.989136 13.9214C0.788452 14.2634 0.591187 14.5996 0.364868 14.8872C0.153076 15.1726 -0.0755615 15.4426 -0.302002 15.71C-0.761353 16.2524 -1.21167 16.7842 -1.49438 17.4114C-2.05127 18.5334 -2.42908 19.6599 -2.81213 20.8022C-3.06775 21.5645 -3.32568 22.3337 -3.64075 23.1133C-4.21265 24.4839 -4.64319 26.8677 -4.71497 28.4531V28.7427L-4.99988 28.6704C-4.40686 29.3494 -4.27173 30.9988 -4.27173 32.6418L-4.30347 32.6099L-4.3562 32.7971L-4.27173 32.7312C-4.27332 33.4614 -4.29932 34.1868 -4.32202 34.8223C-4.32996 35.0425 -4.33752 35.252 -4.34351 35.447L-4.4364 35.3745L-4.56934 35.6428V35.8066H-4.49121V35.8875H-4.38574V35.5662L-4.35828 35.5916V36.1067C-4.37012 36.8687 -4.28577 37.6289 -4.10718 38.3691L-4.13245 38.4648L-4.08398 38.4458C-3.9729 38.8601 -3.82092 39.2625 -3.63025 39.6462C-3.56018 39.7944 -3.48254 39.939 -3.39771 40.0791C-3.36047 40.1406 -3.3219 40.2014 -3.28198 40.2612C-2.68896 41.2722 -1.43738 43.3813 -0.213379 45.2842L-0.187988 45.3757H-0.1521L-0.0411377 45.5469C0.0180664 45.6387 0.0771484 45.73 0.136963 45.8206L0.0230713 45.8586L-0.187988 46.0715H-0.137329L-0.0339355 45.9971H0.0715332L0.179199 45.8906H0.219238C0.590698 46.4463 0.945312 46.9697 1.27454 47.4231L1.47083 47.7146C1.58057 47.853 1.69238 47.9915 1.8064 48.1277C1.98499 48.3608 2.17969 48.5813 2.38879 48.7874C2.5155 48.9214 2.64636 49.0513 2.7793 49.1812C2.8468 49.2002 6.95166 50.3708 7.55737 51.135C7.89294 51.5605 8.76245 51.9585 9.53906 52.2205C9.5686 52.2288 14.2897 53.3101 15.6594 50.7986V50.7859C17.3267 47.7529 19.3126 43.9836 19.8593 42.9365L19.6672 42.9004L17.428 43.7112L17.1262 43.4558L19.5723 42.5706L20.009 42.6536L20.0323 42.2576L19.0868 42.0916L17.3414 42.5706L16.7948 42.9514L16.4803 42.8047L15.5328 43.0642L13.2113 43.3027L13.0636 43.009L15.3112 42.7769L17.0122 42.3108L17.9071 41.6829L20.0808 41.4189L20.1146 40.8062L17.4491 41.6255L13.5574 41.5894L12.3523 42.2065L11.9176 43.3132L11.3456 43.2366L11.5989 42.5981L10.5585 43.1345L10.1364 42.9216L12.1223 41.9001L9.86414 42.0405L9.76074 41.7427L12.7976 41.5552L13.2979 41.2979L17.2634 41.3359L17.9282 41.1233L15.5243 41.0188L12.5106 41.0999L12.4452 40.7998L15.5181 40.7188L18.783 40.8594L20.1357 40.4443V40.374L18.5676 40.8103L16.4973 40.2974L16.6893 40.0229L18.5297 40.4783L20.1547 40.0271V39.8271L19.473 40.0398L15.803 39.6143L13.5953 40.0505L13.4308 39.8525L11.0776 40.9763L10.6555 40.7507L13.3126 39.4736L15.2289 39.1162L13.5912 39.1501L8.99463 40.3782L8.71814 40.2932L7.0719 40.9316L6.70679 40.689L8.15674 40.1357L6.67944 39.6865L6.94739 39.4355L8.98193 40.0505L10.1849 39.7292L8.07446 39.3291L8.24536 39.0481L10.8813 39.5376L13.4139 38.8608L20.2075 38.7161V38.6755L13.207 38.7778L10.7252 39.1418L8.92285 38.9949L8.97986 38.699L10.6534 38.8352L13.1121 38.4778L20.218 38.3755L20.2349 38.0564L17.2676 37.7817L14.6591 38.4202L8.5387 38.0691L8.56824 37.771L14.5366 38.1074L15.803 37.7988L13.8677 37.6135L13.8929 37.6328L12.7238 37.9839L9.89368 37.2729L10.0752 37.0007L12.6267 37.6392L13.4814 37.3838L13.5089 37.2751L16.5099 37.5625L16.493 37.6306L17.1685 37.4668L19.2008 37.6562L18.5043 37.2539L18.7365 37.1262L18.4474 37.0986L18.5065 36.8154L17.2887 37.2156L17.0038 36.9539L18.9771 36.3152H19.0446L20.3468 36.2939L20.37 35.8684L18.3777 36.2024L17.6475 36.0215L17.8247 36.1301L16.7463 36.592L12.9475 36.9197L9.78174 35.9578L10.0752 35.7002L13.0509 36.6025L16.4846 36.3047L17.3287 35.9385L16.8561 35.8215V35.8342L15.4357 36.2366L13.4308 35.3257L11.6602 35.564L11.5441 35.2703L13.5173 35.0042L15.4631 35.9023L16.2356 35.6895L15.1803 35.4299L15.3323 35.1511L18.3735 35.8982L20.3741 35.5618L20.3911 35.2937L18.9686 35.4172L16.225 35.0789L16.2778 34.8999L15.3344 35.0361L15.2141 34.7446L16.014 34.6296L15.0791 34.353L13.663 34.7786L13.3549 34.6978L12.1814 35.1511L10.3833 34.2488L10.6639 34.0146L12.2025 34.7849L12.804 34.553L11.5187 34.2168L11.6812 33.9402L13.6398 34.4531L14.5219 34.1826L12.46 33.5718L12.6436 33.3015L15.0558 34.021L15.1593 33.989L15.2268 34.072L16.0562 34.3169L18.4579 33.9827L19.4603 34.1443L19.281 33.9316L20.4818 33.6313L20.4987 33.3442L19.0593 33.855L17.1937 33.3994L15.2943 33.6719L15.1741 33.3804L17.2212 33.0886L19.015 33.5144L20.5367 32.9739V32.8779L17.1599 32.4822L15.1191 32.9717L14.8469 32.697L17.0228 32.1736L14.946 31.999L13.5363 32.4822L13.1902 32.4141L13.205 32.429L11.8649 32.8547L9.66357 32.6738L9.71631 32.3757L11.7255 32.5417L12.5254 32.2905L9.41455 31.699L9.57703 31.4158L13.4224 32.1609L14.0554 31.948H13.8445L13.7916 31.6479L15.691 31.5989L16.7886 31.3096H16.7379L16.8138 31.0967L16.3369 31.218L14.9819 30.9094L15.0432 31.0286L11.0059 31.4883L10.856 31.1946L14.6548 30.7688L14.7836 30.5559L16.299 30.9028L17.4069 30.6199L14.9694 30.2112L11.5757 30.6113L7.23022 29.0215L7.58264 28.7852L11.6812 30.2856L13.8761 30.0176L12.9834 29.8687L11.5504 29.8962L8.34241 28.3533L8.76453 28.1404L11.7761 29.6047L13.0425 29.5813L18.1519 30.4326L18.3481 30.3835L18.4072 30.4561L20.6865 30.2432L20.6971 30.0303L19.3717 30.1453L15.6742 29.9878L12.1265 29.1257L12.3755 28.8577L15.8092 29.6919L19.3021 29.843L20.7161 29.7195L20.7329 29.396L15.1719 29.5046L11.8416 28.4214L12.1646 28.1765L15.3154 29.2002L20.7499 29.0938V28.9641L17.9176 29.0874L14.752 28.6619L10.7843 27.3955L11.1008 27.1484L14.9799 28.385L17.9344 28.7852L20.7667 28.6619L20.7794 28.4363L18.1625 28.5044L12.9855 27.0974L13.262 26.8379L18.27 28.2L20.8026 28.134L20.8174 27.9084L18.6521 27.9573L14.6063 26.9995L14.8469 26.7314L18.7512 27.655L19.9078 27.6296L19.8466 27.3572L20.8596 27.3103V27.155L19.9817 27.3337L19.7896 27.0505L20.8785 26.8271V26.7036L18.7112 27.1719L18.5106 26.8911L20.906 26.3738L20.925 26.0525L16.5859 26.6611L14.8469 26.2483L15.0875 25.9717L16.6007 26.3313L20.9377 25.7227L20.9546 25.4438H20.8406L18.9285 25.8269L18.7407 25.5417L18.3165 25.7183L15.8303 25.697V25.397L18.1962 25.416L18.8694 25.1394L17.2338 25.1267L16.6471 24.8733L15.1698 25.4458L14.944 25.1841L16.2102 24.6882L14.9946 24.1604L15.0853 24.0603L14.9144 24.0115L15.1973 23.7539L17.3668 24.3604L18.5106 24.3264L15.7439 23.5942L13.4983 23.8752L13.3042 23.5835L14.9355 23.3708L14.4501 23.241L13.0129 23.3665L12.8651 23.0706L14.5155 22.928L18.6331 24.0178L18.8589 23.9966L17.3098 23.4558L17.5588 23.2004L17.62 23.2217L17.7256 22.9429L19.625 23.26L19.7009 23.2302L18.7238 22.9387L18.8273 22.7983L17.8226 22.9216L16.9531 22.5513L15.6299 22.6003L15.5856 22.3003L16.3031 22.2747L16.0477 22.166L16.0773 22.1343L13.3126 22.4746L13.0107 22.3469V22.3767L11.6073 22.428L11.563 22.1279L12.422 22.0979L11.5314 21.717L11.7783 21.4702L13.3885 22.1577L16.1702 21.8149L17.7593 22.1768L17.62 22.4597L17.4891 22.4299L17.8987 22.6045L18.92 22.479L17.7847 22.2661L17.9155 21.981L19.8951 22.3704L20.6824 22.2747L21.1191 22.3726L21.1466 21.8723L19.3295 22.0852L16.6218 21.353L14.3657 21.6277L11.9661 20.5635L12.2405 20.323L14.4607 21.3127L16.6598 21.0466L19.3633 21.7788L21.1656 21.5659L21.1782 21.3318L18.9918 21.532L16.8983 21.0125L17.0608 20.7358L17.4829 20.8381L16.835 20.5273L15.6067 21.0146L14.0111 19.8313L14.3784 19.6462L15.691 20.6189L16.4128 20.3379L15.29 19.8015L15.5792 19.5674L17.8353 20.6465L21.2227 20.5315L21.2352 20.3188L19.0531 20.4868L17.1685 19.8164L17.3794 19.5588L19.127 20.1782L20.026 20.106L18.92 20.01L18.9666 19.7144L20.4734 19.842L21.1213 19.7483L21.0242 19.7185L18.3945 19.6738L17.9578 19.4609L16.1786 19.3865L16.1913 19.0864L17.2465 19.1333L16.8708 18.9565L14.5598 19.1694L14.4691 18.8735L16.3242 18.7075L15.2246 18.1904L15.5117 17.9626L18.1223 19.1802H18.135L18.5571 19.3738L20.0112 19.3972L16.8455 18.0479L17.1093 17.803L20.1526 19.1035L20.7372 19.063L19.2156 18.4692L19.2788 18.4033L18.0358 18.0117L18.2468 17.7456L19.4498 18.1245L20.3214 18.0159L19.8149 17.803L20.0049 17.552L20.849 17.9138L21.3788 17.8625L21.4147 17.1965L20.2053 17.0391V17.0093L15.9844 17.2944L13.9161 16.6069L14.1272 16.3452L16.0583 16.9836L17.3246 16.8984L15.5138 16.4067L15.691 16.1345L18.2764 16.8452L21.4421 16.6326L21.4526 16.4197H17.8163L15.691 15.4705L15.9971 15.2151L17.9873 16.1067H19.0974L18.8525 16.0132L19.0002 15.8557L17.6327 15.9023L15.8621 14.9531L16.1702 14.7405L17.7867 15.6067L19.4244 15.5513L19.1543 15.3811L19.4921 15.1682L20.0555 15.5215L21.3218 15.479L20.6886 15.3596L20.8131 15.0723L21.5328 15.2107L21.5476 14.9214L18.0907 15.2598L15.7692 14.4722L15.9802 14.2126L18.1434 14.9468L18.4052 14.9214L17.9366 14.8042L18.1034 14.5276L19.321 14.8318L21.5476 14.6191V14.4766L19.2599 14.6467L17.3816 14.2104L17.4807 13.9209L19.2874 14.3467L21.5645 14.1785V14.0657L21.3704 14.0295L21.3513 14.0549L19.7009 13.7188L19.1776 13.8677V13.8806L18.6267 14.0359L18.5465 13.7485L18.8187 13.6699L17.8944 13.1272L18.0421 12.8696L19.2177 13.5549L19.722 13.4124L19.7452 13.3804H19.7981L20.1062 13.293L20.1505 13.4526L21.1277 13.6528L21.6003 13.74L21.6215 13.3826L20.6886 13.1079L20.8828 12.8398L21.6405 13.0525L21.651 12.8398L21.3134 12.7952L21.364 12.6143L20.3953 13.0142L18.9834 12.231L19.2979 12.0183L20.4227 12.6418L21.689 12.114V12.0884L18.498 11.9502L16.0225 10.918L16.2841 10.6709L18.6458 11.6584L21.7291 11.7861V11.6799L19.0468 11.4861L16.8961 10.6094L17.1515 10.3623L19.2008 11.1968L21.7333 11.3796L21.7439 11.2136H21.7291H20.9946L18.4811 10.8455L17.1494 9.64087L17.5461 9.479L17.8458 9.74951L18.0948 9.57495L19.7305 10.4709L21.7291 10.3794L19.2979 10.1028L18.5106 9.5791L18.8568 9.37915L19.5321 9.81763L21.7333 10.0686H21.8114V9.9856H21.7291L20.0576 9.77271L18.5529 9.03857L18.8441 8.82568L20.2581 9.50879L21.7355 9.69189L21.8346 9.6792V9.5918L21.7291 9.60254L20.9714 9.52808L19.433 8.82568L19.7136 8.58105L21.1487 9.23657L21.5244 9.2749L20.0619 8.54272L20.3552 8.31274L20.7478 8.50854L20.9103 8.34888L21.5433 8.60645H21.7291H21.8875V8.45752H21.7185L21.2036 8.43628L18.9707 7.26147L19.2767 7.03589L21.3872 8.14453L21.7249 8.15942H21.9084L21.9275 7.85083L21.8473 7.88501L21.7249 7.90845L21.6003 7.88501L19.9099 7.16992L20.1737 6.92505L21.7396 7.58496L21.9507 7.49121L21.9613 7.29321L21.7291 7.40186L20.7119 6.93579L20.9926 6.69727L21.7333 7.03589L22.0477 6.89111L22.2251 6.7229V6.80811L22.4657 6.69727L22.7379 6.93359L22.2356 7.16357L22.2462 7.36133L23.2887 6.9231L23.561 7.17627L22.2736 7.7168L22.2905 8.04468L24.173 7.05273L24.479 7.27832L22.3074 8.41919V8.45752L22.55 8.35962L22.7125 8.51929L23.1051 8.32349L23.4006 8.55322L22.3453 9.08325V9.23218L23.7446 8.59375L24.0232 8.83203L22.4868 9.53442L22.3601 9.54712V9.61963L23.2043 9.51538L24.6119 8.82568L24.9032 9.03857L23.3964 9.78125L22.3771 9.91113V9.99854L23.9219 9.82178L24.6141 9.37915L24.9602 9.5791L24.1646 10.0984L22.4044 10.2986V10.407L23.7256 10.4666L25.3612 9.57056L25.6102 9.74512L25.912 9.47485L26.3109 9.63672L24.9771 10.8413L22.4741 11.2117H22.4551V11.333L24.2743 11.2009L26.3236 10.3667L26.579 10.6135L24.4305 11.4905L22.4698 11.6309V11.7585L24.8062 11.6584L27.1677 10.6709L27.4274 10.918L24.9518 11.9502L22.4846 12.0586L22.5037 12.4204L23.0355 12.6333L24.1582 12.0117L24.4749 12.2246L23.0608 13.0078L22.5226 12.7952V12.844L22.5732 12.8291L22.7675 13.0972L22.5396 13.1653L22.5607 13.6082L23.3057 13.4548L23.35 13.2952L23.6581 13.376H23.7108L23.734 13.408L24.2384 13.5505L25.4139 12.8696L25.5554 13.1292L24.6289 13.6719L24.9011 13.7507L24.8209 14.0381L24.2722 13.8826H24.2595V13.8699L23.734 13.7209L22.5796 13.9678L22.5923 14.2444L24.1561 14.3594L25.9626 13.9338L26.0724 14.2146L24.1941 14.6509L22.6176 14.5339V14.6936L24.1329 14.8425L25.3676 14.5339L25.5321 14.8105L25.0658 14.9277L25.3253 14.9531L27.4885 14.219L27.6996 14.4785L25.3781 15.2661L22.6345 14.9978V15.083H22.6556L22.7886 15.3704L22.6556 15.3938V15.5066L23.428 15.532L23.9916 15.1787L24.3292 15.3916L24.0591 15.562L25.6989 15.6172L27.3134 14.751L27.6215 14.9639L25.8508 15.9131L24.4812 15.8662L24.631 16.0237L24.3862 16.1174H25.4984L27.4885 15.2256L27.7629 15.4683L25.6398 16.4175H22.702L22.7147 16.6665L25.1881 16.8347L27.7629 16.1345L27.9423 16.4067L26.1294 16.8984L27.3958 16.9836L29.3268 16.3452L29.5378 16.6069L27.4696 17.2944L23.2487 17.0093L23.2592 17.0391L22.7336 17.1072L22.7717 17.8457L23.4534 17.552L23.6433 17.8074L23.1368 18.02L24.0063 18.1287L25.2092 17.7498L25.4203 18.0159L24.1877 18.4053L24.2532 18.4714L22.8308 19.0269V19.0715L23.3141 19.1055L26.3573 17.7944L26.6233 18.0393L23.4575 19.3887L24.9117 19.3652L25.3232 19.1716H25.338L27.9486 17.9541L28.2314 18.1904L27.1425 18.7139L28.9976 18.8799L28.9089 19.1758L26.5874 18.9629L26.2117 19.1396L27.267 19.0928L27.2797 19.3928L25.5005 19.4673L25.0636 19.6802L22.8688 19.7122V19.825L22.9849 19.842L24.4917 19.7144L24.5381 20.01L23.4323 20.106L24.344 20.176L26.0682 19.5674L26.2961 19.825L24.4115 20.4954L22.892 20.3718L22.9025 20.5549L25.6187 20.6465L27.8748 19.5674L28.1639 19.8015L27.0411 20.3379L27.7693 20.6274L29.0819 19.6548L29.4492 19.8398L27.8536 21.0232L26.6254 20.5359L25.9774 20.8464L26.3995 20.7444L26.5642 21.021L24.4664 21.5403L22.949 21.4021L22.9637 21.6553L24.097 21.7937L26.8026 21.0615L29.0017 21.3276L31.2198 20.3379L31.4943 20.5784L29.0967 21.6426L26.8385 21.3679L24.1309 22.1001L22.9785 21.9597L22.9954 22.3044L23.5652 22.3748L25.5448 21.9851L25.6757 22.2705L24.5403 22.4832L25.5616 22.6089L25.9712 22.4343L25.8403 22.4641L25.701 22.1809L27.2902 21.8191L30.0718 22.1619L31.6842 21.4744L31.931 21.7212L31.0404 22.1023L31.8973 22.1321L31.853 22.4321L30.4517 22.3811V22.3513L30.152 22.479L27.3851 22.1384L27.4147 22.1704L27.1593 22.2788L27.8748 22.3044L27.8325 22.6045L26.5093 22.5557L25.6418 22.926L24.6353 22.8025L24.7386 22.9429L23.7635 23.2346L23.8396 23.2644L25.739 22.9473L25.8445 23.2261L25.9078 23.2048L26.1548 23.4602L24.6057 24.0007L24.8315 24.022L28.949 22.9324L30.6014 23.075L30.4517 23.3708L29.0165 23.2451L28.5291 23.375L30.1604 23.5879L29.9662 23.8794L27.7207 23.5984L24.9475 24.3286L26.0935 24.3625L28.28 23.7644L28.5607 24.022L28.3898 24.071L28.4805 24.1709L27.267 24.6987L28.5332 25.1948L28.3074 25.4565L26.8301 24.884L26.2434 25.1372L24.6099 25.1501L25.281 25.4268L27.6469 25.4075V25.7078L25.1608 25.729L24.728 25.5544L23.7762 25.1584H23.1431V25.2373L24.728 25.5544L24.5403 25.8396L23.16 25.563V25.8225L26.8575 26.3398L28.3707 25.98L28.6134 26.2483L26.8765 26.6611L23.1896 26.1418L23.2064 26.5122L24.9645 26.8911L24.7661 27.1719L23.2318 26.8335V26.9507L23.6813 27.0422L23.4913 27.3252L23.2487 27.2764V27.3315L23.6306 27.3486L23.5715 27.6211L24.7302 27.6465L28.624 26.7251L28.8646 26.9932L24.8188 27.9509L23.2782 27.9148L23.2887 28.1445L25.1881 28.1936L30.1899 26.8379L30.4644 27.0974L25.2831 28.5063L23.2845 28.4531L23.295 28.6895L25.5089 28.7874L28.4741 28.3872L32.3531 27.1506L32.6697 27.3975L28.702 28.6638L25.5364 29.0896L23.3204 28.9939V29.1086L28.1428 29.2024L31.3085 28.1787L31.6272 28.4233L28.299 29.5068L23.35 29.4089L23.3689 29.7749L24.1688 29.8452L27.6616 29.6941L31.0974 28.8596L31.338 29.1257L27.7904 29.9878L24.0928 30.1453L23.3773 30.0835L23.3879 30.2964L25.0573 30.4497L25.1165 30.3772L25.3126 30.4263L30.4221 29.575L31.6884 29.5984L34.7042 28.1382L35.1263 28.3511L31.9058 29.9175L30.4749 29.8899L29.5822 30.0388L31.7728 30.2986L35.8713 28.7981L36.2258 29.0342L31.8783 30.624L28.4847 30.2241L26.045 30.6326L27.1572 30.9158L28.6704 30.5688L28.7992 30.7817L32.598 31.2073L32.4481 31.501L28.4108 31.0413L28.472 30.9221L27.1193 31.2307L26.6401 31.1094L26.7161 31.3223H26.6655L27.7609 31.5884L29.6603 31.6372L29.6074 31.9373H29.3964L30.0295 32.1501L33.8748 31.4053L34.0374 31.6882L30.9454 32.2864L31.7433 32.5376L33.7524 32.3716L33.8073 32.6694L31.604 32.8503L30.2638 32.4248L30.2806 32.4099L29.9325 32.478L28.5248 31.9949L26.446 32.1692L28.624 32.6887L28.3517 32.9631L26.3109 32.4736L23.5167 32.8015L23.5336 33.176L24.4495 33.4995L26.2434 33.0737L28.2715 33.3569L28.1512 33.6484L26.2518 33.376L24.3862 33.8315L23.542 33.5315L23.5525 33.7571L24.1646 33.9082L23.981 34.1211L24.9877 33.9592L27.3894 34.2935L28.2167 34.0486L28.2821 33.9656L28.3876 33.9976L30.8083 33.2825L30.994 33.5527L28.9301 34.1636L29.8121 34.4338L31.7644 33.9231L31.9269 34.1997L30.6416 34.5361L31.2451 34.7681L32.7816 33.9976L33.0645 34.2317L31.2621 35.134L30.0929 34.6807L29.7826 34.7617L28.3687 34.3359L27.4315 34.6125L28.2335 34.7275L28.1111 35.019L27.1699 34.8828L27.2227 35.0618L24.479 35.4001L23.6349 35.3276L23.6497 35.6428L25.0699 35.8875L28.1111 35.1404L28.2653 35.4192L27.21 35.679L27.9824 35.8918L29.9388 35.0042L31.9374 35.2788L31.8213 35.5725L30.0527 35.3342L28.0479 36.2451L26.6254 35.8428V35.8301L26.1526 35.947L26.9968 36.3132L30.4305 36.6111L33.4062 35.7087L33.6786 35.9641L30.5128 36.9241L26.714 36.5962L25.6356 36.1343L25.8129 36.0259L25.0826 36.2068L23.6665 35.9683L23.6813 36.2983L24.4158 36.311H24.4812L26.4565 36.9495L26.1716 37.2114L24.9561 36.8113L25.0129 37.0942L24.7239 37.1218L24.9561 37.2498L24.2595 37.6519L26.2919 37.4624L26.9652 37.6265L26.9504 37.5583L29.96 37.2922L29.9873 37.4006L30.8442 37.6562L33.3937 37.0176L33.5751 37.29L30.7429 37.9902L29.5715 37.6392L29.599 37.6199L27.6616 37.8052L28.9279 38.1138L34.8962 37.771L34.9153 38.0796L28.7949 38.4309L26.1843 37.7925L23.7699 38.0051L23.7889 38.384L30.3313 38.4778L32.7985 38.8352L34.472 38.699L34.5291 38.9949L32.7267 39.1418L30.2449 38.7778L23.7974 38.6841V38.7288L30.0422 38.8608L32.5747 39.5376L35.2129 39.0396L35.3817 39.3206L33.2712 39.7207L34.4741 40.042L36.5044 39.4207L36.7745 39.676L35.2972 40.125L36.7472 40.6785L36.3842 40.9209L34.7358 40.2825L34.4594 40.3677L29.8628 39.1396L28.2251 39.1055L30.1456 39.4609L32.8005 40.738L32.389 40.9636L30.0253 39.876L29.8586 40.074L27.651 39.6377L23.981 40.0632L23.8522 40.0249L23.8628 40.2102L24.9349 40.5081L26.7773 40.0527L26.9673 40.3271L24.8969 40.8401L23.8796 40.5571V40.6421L24.6837 40.8892L27.9486 40.7485L31.0215 40.8296L30.9581 41.1296L27.9423 41.0488L25.5385 41.1531L26.2032 41.3657L30.1688 41.3276L30.6691 41.585L33.7059 41.7725L33.6025 42.0703L31.3444 41.9299L33.3303 42.9514L32.9082 43.1643L31.8678 42.6279L32.121 43.2664L31.5491 43.343L31.1122 42.2363L29.9093 41.6191L26.0176 41.6553L23.9071 41.0039L23.9324 41.5127L25.568 41.7126L26.465 42.3406L28.166 42.8066L30.4137 43.0388L30.2659 43.3325L27.9445 43.094L26.9968 42.8345L26.6844 42.9812L26.1357 42.6003L24.3925 42.1213L23.9705 42.1958L23.9916 42.6216L26.3531 43.4729L26.0492 43.7283L24.0105 42.9897C24.0105 42.9897 26.3193 47.502 28.4614 50.7368L28.465 50.7397C28.5884 50.8513 31.9591 53.8921 34.6388 52.7397C35.7114 52.2795 36.0896 51.8691 36.452 51.4758C36.6494 51.2617 36.842 51.0525 37.1396 50.8433C37.7032 50.4495 39.0665 49.792 40.1407 49.2959C40.4343 48.9011 40.7745 48.5437 41.1538 48.2319C41.3796 48.0466 41.5907 47.8572 41.8018 47.6636L41.827 47.6892L41.8713 47.6018C43.5597 46.0588 45.056 44.2263 45.8812 42.1108L45.9065 42.1384V42.1641L45.934 42.1108L45.9867 42.0554L46.0923 41.8958H46.2V41.8425H46.0923L45.9192 42.0171C45.9805 41.8533 46.0396 41.6873 46.0923 41.5212V41.7617L46.2 41.7341L46.145 41.6809V41.5212H46.0923L45.8812 41.8809C45.9487 41.6958 46.0205 41.5149 46.0923 41.3359V41.3594L46.145 41.4126L46.2252 41.2786L46.1493 41.2C46.278 40.8889 46.4087 40.5884 46.5372 40.2932ZM19.7009 25.1479L18.749 25.54L20.7097 25.1479H19.7009Z" fill="white"/>
</g>
</svg>
