<svg width="8" height="7" viewBox="0 0 8 7" fill="none" xmlns="http://www.w3.org/2000/svg">
<path d="M2.24961 6.5C2.40961 6.6 2.52961 6.58 2.64961 6.4L3.94961 4.4H4.04961L5.34961 6.4C5.46961 6.58 5.58961 6.6 5.74961 6.5L6.44961 6.02C6.64961 5.88 6.66961 5.78 6.52961 5.58L5.40961 3.9V3.8H7.04961C7.24961 3.8 7.34961 3.7 7.34961 3.5V2.7C7.34961 2.5 7.24961 2.4 7.04961 2.4H4.74961V0.299999C4.74961 0.099999 4.64961 -9.53674e-07 4.44961 -9.53674e-07H3.54961C3.34961 -9.53674e-07 3.24961 0.099999 3.24961 0.299999V2.4H0.949609C0.749609 2.4 0.649609 2.5 0.649609 2.7V3.5C0.649609 3.7 0.749609 3.8 0.949609 3.8H2.58961V3.9L1.46961 5.58C1.32961 5.78 1.34961 5.88 1.54961 6.02L2.24961 6.5Z" fill="#C2E978"/>
</svg>
