<svg width="403" height="395" viewBox="0 0 403 395" fill="none" xmlns="http://www.w3.org/2000/svg">
<path d="M402.86 178.056C402.752 175.819 402.525 173.663 402.23 171.534L402.136 171.734H401.427V173.154H401.788V174.225H401.346L400.73 172.618V171.199H402.136V170.891C402.142 170.819 402.142 170.748 402.136 170.677L400.797 170.342V168.748L401.32 168.038L401.828 168.708L401.628 167.61H401.494L401.614 167.395L401.494 166.887V167.262H400.797V166.9H399.538V166.19L400.436 166.552L400.797 165.48L401.092 165.079C400.931 164.382 400.77 163.739 400.596 162.989H400.262V162.641H400.382C397.945 153.267 394.155 144.629 390.927 135.469H390.726L390.459 135.656L389.655 134.759V134.411H390.017L390.365 134.049H390.432C389.374 130.982 388.396 127.862 387.553 124.675C387.553 124.568 387.553 124.447 387.553 124.34H387.204L387.526 124.193C387.148 120.499 386.114 116.903 384.472 113.573L384.004 114.042H383.642V113.506H384.446C384.084 112.729 383.696 111.939 383.294 111.162V111.966L383.12 111.256L383.24 111.122C381.017 106.823 378.272 102.591 375.768 98.6407H375.66L375.218 98.9085L375.125 98.4666L375.379 98.038C373.852 95.6141 372.419 93.3107 371.362 91.1813C364.224 77.7357 357.528 68.1738 344.135 60.0582C319.762 45.2466 302.084 25.2389 274.39 16.5876C252.855 9.42285 235.178 0.811768 212.251 0.811768H176.896C163.999 0.811768 153.955 5.59273 142.076 9.42285L139.692 9.89158C134.617 14.0163 126.796 15.61 119.457 17.4849H119.363C115.826 18.2957 112.373 19.4391 109.051 20.8998C108.596 21.1141 108.154 21.3552 107.712 21.5694L108.61 21.4221L109.493 20.8998L108.958 21.6096L108.248 22.1453L107.19 23.3774V22.1453L107.485 21.69C99.985 25.4264 93.2221 30.2743 85.6689 34.7338C82.12 36.7828 78.5176 38.9121 75.0357 41.2558V42.0191L74.6741 42.3807L74.5 42.0191V41.6709C73.0536 42.6485 71.6475 43.6797 70.2681 44.7511V45.6216L69.8663 46.3447V47.0679L69.1565 48.4071L68.4468 49.1303V48.0589L69.1565 47.3491L68.6209 46.6394L69.1565 45.5814H69.3306L69.4913 45.2734C66.0798 47.926 63.0038 50.9841 60.3312 54.38C56.2064 59.5627 51.9478 67.3301 46.832 72.8208L46.6981 73.102H46.5776C46.1356 73.5574 45.6803 74.0127 45.2383 74.4413V74.5216L46.1222 73.9859L46.6579 74.8698L45.5865 76.6509L45.9481 77.3607H45.6267L45.091 76.6509L45.6267 75.7537L44.5553 75.2314V75.0305C43.3905 76.0673 42.1098 76.9661 40.7386 77.7089V77.2268C40.6478 77.8217 40.5271 78.4117 40.377 78.9946H40.4842H40.6583V80.7757L40.4842 81.1239L40.136 79.9052C40.002 80.3605 39.8413 80.7891 39.6806 81.2444H39.7878H39.6539C38.8966 83.0606 37.9447 84.7894 36.8147 86.4004H36.9487L37.6584 86.0388L36.9487 87.1101L36.5871 86.936L36.2255 87.4583H36.1184C34.6452 89.5743 33.065 91.65 31.7124 93.9535L31.4981 94.3017L31.6588 95.1052L32.1945 95.4534L32.007 95.9891H30.3999C27.3202 101.02 24.5691 106.245 22.1638 111.631C17.249 121.005 13.5929 131.224 10.0173 141.482L10.6065 141.602L9.89672 142.151H9.80298L9.48157 143.076H9.89672L10.2583 144.843L9.89672 145.031L9.20034 144.495L9.33426 144.107V143.357C9.33426 143.45 9.2673 143.558 9.24051 143.665C8.52851 145.475 7.91163 147.321 7.39241 149.196V149.464L7.19153 150.16L7.45937 149.999V150.803L7.03083 150.629C5.16933 157.874 4.5399 165.172 3.09356 172.752C1.1785 183.265 2.14273 192.84 0.696387 202.844C0.180992 205.941 -0.0253666 209.081 0.0803523 212.219L0.361585 212.406L0 212.661C0.334801 220.133 2.50431 227.057 5.86572 234.476L6.81655 233.512C12.3876 236.083 10.2851 244.386 9.49496 249.877H9.81637L9.38783 250.627C9.33426 250.993 9.29408 251.341 9.2673 251.672C8.78518 259.787 11.169 264.099 14.0349 271.251C18.0525 281.857 22.9004 293.12 29.8509 302.427C31.0428 304.021 32.2748 305.575 33.6007 307.034L33.4266 306.954C39.6539 311.869 48.5328 328.93 53.9566 336.149L54.278 335.841H54.6262L55.51 336.725L55.0681 337.528C55.3714 337.897 55.7027 338.242 56.0591 338.559C60.8267 342.389 66.5719 345.255 71.3394 348.603C77.5534 352.42 81.8522 357.201 88.0661 360.549C100.012 366.75 111.944 373.941 124.372 378.695C129.34 380.517 134.041 382.097 138.648 383.49L138.554 381.708L138.688 381.575L139.425 382.338L139.17 382.592L138.701 383.503C139.652 383.798 140.59 384.079 141.541 384.347V384.012L142.17 383.382L142.478 384.614C144.085 385.083 145.692 385.525 147.286 385.954V385.619L147.446 385.994C148.973 386.396 150.5 386.784 152.04 387.159V386.945L152.549 386.449L152.16 387.186C159.767 389.034 167.468 390.561 175.972 392.087C188.386 394.002 200.814 393.52 213.71 394.002C227.571 394.953 237.12 392.087 250.498 389.221C255.489 388.381 260.43 387.263 265.297 385.873C268.352 384.831 271.487 384.038 274.671 383.503V383.249L275.019 382.9L275.193 383.249V383.382C281.193 382.231 287.085 381.092 292 376.794C300.129 369.629 308.245 364.379 315.41 356.25V357.683C323.525 359.598 339.301 338.573 345.033 332.841C353.068 324.444 359.523 314.936 366.165 305.936H365.898V305.226L367.076 304.731L368.911 302.267C380.856 286.504 391.369 266.43 395.695 247.359L395.213 247.828C394.262 223.923 404.293 201.947 402.86 178.056ZM10.4726 248.94H9.9369L10.2851 248.591H10.4726V248.94ZM10.4726 245.565L10.2851 245.926V245.391H10.4726V245.565ZM395.4 226.923V226.749H395.574L395.4 226.923ZM396.646 224.084L396.284 224.432V223.722L396.646 223.374V224.084ZM396.284 223.013H395.923V222.303H396.646L396.284 223.013ZM398.775 166.94H397.53V166.592H398.775V166.94ZM398.949 167.302L399.471 167.65V167.824H398.775L398.949 167.302ZM398.065 167.65V167.824H397.704L398.065 167.65ZM398.413 170.663L398.775 170.489V169.779H398.413L397.704 169.069L398.413 168.721H398.775L398.413 169.069L399.471 169.605V170.315L398.775 170.663H398.413ZM400.195 167.65L400.73 168.011L399.833 168.534L400.195 167.65ZM399.833 172.618L399.471 172.98H399.123V172.444H399.471L399.833 172.618ZM399.123 162.681V163.03L398.949 162.681H399.123ZM399.123 163.927V164.275L400.195 164.811V165.346H399.833L399.471 165.159L398.949 165.869V164.811L398.413 163.927L398.949 163.565L399.123 163.927ZM398.065 162.494L398.413 162.681H398.065V162.494ZM397.53 161.155H397.704L397.53 161.503V161.155ZM397.342 165.588L397.53 165.413L397.342 164.168H397.704L398.588 165.413L397.704 165.936H397.342V165.588ZM396.646 162.213L396.994 162.561H396.284L396.646 162.213ZM395.574 172.15L396.097 172.685L395.574 173.047V172.15ZM394.865 171.627V171.266H395.213L395.574 171.627H394.865ZM395.923 171.092V170.556H396.284L395.923 171.092ZM395.923 169.324L395.574 170.208L394.503 169.846V169.552H394.865L396.284 168.668L395.923 169.324ZM394.503 165.936L395.213 165.226V165.936H394.503ZM394.69 163.458V163.994H395.213V164.168H394.329L394.69 163.458ZM394.155 167.369H394.503V167.717L394.155 167.891V167.369ZM393.258 160.083V160.177L393.083 160.003L393.258 160.083ZM392.374 162.039H392.735V162.213H392.347L392.374 162.039ZM393.258 165.588L393.083 166.659H392.347L393.258 165.588ZM392.561 200.005H393.083L392.561 201.425V200.005ZM391.851 143.223H392.2V143.571L391.664 143.919L391.851 143.223ZM390.07 198.586V198.224L390.244 197.862L390.954 196.804L391.142 197.34H391.49V197.675L390.954 197.849L390.07 198.586ZM390.954 200.527H390.606L390.244 200.353L390.606 200.005L390.954 200.527ZM389.709 195.907V195.746H390.07L390.244 195.907H391.008L390.124 196.456L389.709 195.907ZM390.606 195.385L390.244 195.211V193.43L390.954 192.72V193.965L391.664 194.313L390.606 195.385ZM390.78 159.025V159.374H390.418L390.78 159.025ZM390.418 144.455L390.78 143.919L390.954 144.991H390.78L390.418 144.455ZM391.49 192.358L390.954 192.01L391.664 191.3L392.2 191.474L391.49 192.358ZM391.316 149.611V149.249L391.664 149.611H391.316ZM389.896 139.125L390.418 138.777L391.316 139.486V140.089H391.008L390.472 139.205H390.124V139.379L389.95 139.741L389.896 139.125ZM389.709 145.352H389.896L389.709 145.7H389.36L389.709 145.352ZM388.825 141.254L388.477 142.138L388.289 141.977L388.477 141.254H388.825ZM388.651 147.12H388.477V146.758L388.651 147.12ZM387.928 139.848L388.289 140.196H387.579L387.928 139.848ZM388.115 190.939V191.662L387.044 192.72L386.695 193.43L386.334 192.72H386.695L387.044 191.474L388.115 190.939ZM386.16 143.571V143.223H386.99L386.816 143.571H386.16ZM386.521 148.191V148.365H386.16L386.521 148.191ZM387.231 135.402V135.576L387.044 135.402H387.231ZM386.521 138.08L386.16 136.473L387.044 137.009L386.521 138.08ZM386.16 134.531H386.521L385.798 134.88L386.16 134.531ZM384.74 122.479L385.45 121.769L385.624 122.117V122.479H384.74ZM385.088 152.303V152.664H384.74V152.142L385.088 152.303ZM384.03 116.8H385.45L384.03 117.497V116.8ZM384.03 119.639H384.218L384.03 120.175V119.639ZM384.03 121.407H384.218V122.117H383.856L384.03 121.407ZM383.856 136.862V137.397H383.147L383.856 136.862ZM382.664 148.044V147.16L382.303 146.798H382.664L383.374 147.508L382.664 148.044ZM383.896 197.38L383.013 198.264L382.664 197.903L383.374 197.019L383.896 197.38ZM383.2 139.353V140.772L382.664 140.236L382.839 139.888L383.2 139.353ZM382.664 114.135V114.483L382.303 114.671L382.664 114.135ZM381.955 115.367L382.303 115.729L381.955 116.091L381.593 115.729L381.955 115.367ZM381.419 118.22V118.568L380.883 118.22H381.419ZM380.656 219.102V219.276L380.482 219.638V219.102H380.656ZM380.482 193.885L380.12 193.711H380.482V193.885ZM378.526 110.854L379.41 111.216L379.236 111.564L378.526 111.216V110.854ZM378.874 123.644L379.236 123.47L379.41 123.644H378.874ZM379.41 148.325L379.236 148.499V148.124L379.41 148.325ZM378.874 122.398V123.108L378.352 122.76L378.874 122.398ZM376.571 197.675L378.352 195.894V196.617L376.571 198.211V197.675ZM376.397 150.133L376.745 149.597L377.107 149.236L376.745 149.772V150.655L376.397 150.133ZM377.816 150.133H377.991V150.655L377.816 150.307V150.133ZM377.107 124.902L376.745 125.09V124.902L377.107 124.554V124.902ZM376.745 104.814V105.002H376.397L376.745 104.814ZM376.035 112.984L376.397 112.635L376.745 111.926V112.635L376.397 113.171H376.035V112.984ZM376.745 119.68L376.397 120.215H375.687L376.745 119.68ZM376.397 156.16V156.521L376.035 156.869V156.16H376.397ZM374.093 151.017H374.616L374.268 151.539H374.093V151.017ZM372.259 145.982L372.607 146.343H372.259V145.982ZM372.794 156.816V157.499H372.607L372.794 156.816ZM372.085 153.093L371.723 153.441L371.375 153.093H372.085ZM368.978 113.586H369.687V114.109H368.978V113.586ZM368.08 87.6592H368.442V88.0074L368.08 87.8333V87.6592ZM367.96 114.644H368.67L368.134 115.528H367.96V114.644ZM366.714 84.6326H367.076L366.714 84.9942V84.6326ZM366.54 90.3242V90.5385L366.179 90.3644L366.54 90.3242ZM359.978 114.109V115.006L359.268 114.109L361.21 111.269L362.456 111.095L361.384 112.153V112.689L359.978 114.109ZM361.384 114.644V115.006L361.036 115.18L360.862 115.006L361.036 114.644H361.384ZM358.197 112.689H357.661V112.515L358.197 111.805L358.559 110.747L359.443 109.676H359.791L358.197 112.689ZM360.876 107.546H361.398L361.05 108.256L360.876 107.546ZM361.746 87.8601V87.686L362.094 87.8601H361.746ZM361.746 77.3875L362.094 77.7357L361.384 78.633L361.746 77.3875ZM361.036 79.6909L361.384 80.0525H361.036V79.6909ZM360.862 77.9232V78.2714L360.675 77.9232H360.862ZM360.862 101.185V102.069L360.675 101.185H360.862ZM359.978 83.2398H360.326V83.6014H359.978V83.2398ZM360.326 108.283V108.631L359.978 108.993L359.617 108.631L360.326 108.283ZM359.081 85.1817L359.443 85.5433L359.081 85.8915V86.6012H358.559L359.081 85.1817ZM358.867 104.533L359.041 104.707L358.519 105.939V106.837L358.157 107.359V106.475L357.983 105.939L358.519 105.055L358.867 104.533ZM358.157 75.0707V76.4902H357.621L358.157 75.0707ZM357.528 107.546L357.702 107.359L358.063 107.895L357.702 108.604H357.528V107.546ZM356.63 73.9859L356.992 73.6243V74.16H356.63V73.9859ZM356.282 81.6194L356.992 80.7355L357.179 81.0837L356.818 82.1551H356.188L356.282 81.6194ZM357.179 88.3154V88.6636H356.992L357.179 88.3154ZM355.746 77.4812V77.8428L355.572 77.4812H355.746ZM355.572 78.5526V79.2624L355.037 79.7847L355.572 78.5526ZM353.081 76.0617L353.443 76.4099H353.081V76.0617ZM351.849 77.1331H352.023L351.849 77.4812L351.662 77.3072L351.849 77.1331ZM350.952 77.3072L350.604 77.4812L350.416 77.3072H350.952ZM342.006 63.3526L342.287 64.1963L341.564 65.2677L341.055 65.0936L342.006 63.3526ZM340.118 65.8837L340.895 65.7766L340.453 67.1158L339.997 67.3435L339.837 66.7274L340.118 65.8837ZM338.779 73.919H338.939L338.658 74.2002L338.779 73.919ZM338.364 61.6251L338.645 61.9063L338.484 62.4018L338.029 62.6295L338.364 61.6251ZM337.466 67.1158L337.359 67.464L336.864 67.2899L337.131 67.0087L337.466 67.1158ZM336.971 64.1428L336.743 64.8258L336.073 65.1606L336.971 64.1428ZM335.056 68.1604L335.176 68.3747H335.002L335.056 68.1604ZM335.123 73.0351L335.35 72.3655L336.02 72.0307L335.632 73.2092L333.958 74.8966L334.172 74.2136L334.734 73.6511L334.627 72.8744L335.123 73.0351ZM332.35 54.2862L334.48 54.621L333.917 55.1835L333.074 54.9156L332.792 55.746L332.913 56.5361L332.23 56.3218L332.565 54.7415L332.35 54.2862ZM333.328 71.0799L332.766 72.2048L332.431 72.0976L332.819 70.9191L333.328 71.0799ZM332.35 63.8348L331.801 65.5221L331.185 64.5713L331.855 64.2365L332.35 63.8348ZM331.614 58.1699H331.453L330.717 59.2547H330.556L330.717 58.7592L330.382 58.0762L332.123 57.9021L331.614 58.1699ZM329.927 51.9962L330.596 51.6614L329.873 52.1569L329.927 51.9962ZM329.927 59.8573L330.275 59.9644L329.819 60.1921L329.927 59.8573ZM329.927 64.3436L330.275 64.4642L329.94 65.4686L329.766 64.8525L329.927 64.3436ZM327.409 65.7632H327.57L327.302 66.0444L327.409 65.7632ZM325.293 48.3535L326.083 48.2464L325.869 48.916L325.186 48.6883L325.293 48.3535ZM324.463 54.246V54.0853L325.32 54.3666L324.53 55.0362L324.181 54.929L324.583 54.313L324.463 54.246ZM325.601 57.6208L325.48 57.9556L325.253 57.5137L325.601 57.6208ZM324.971 50.3623L324.637 50.2418H325.025L324.971 50.3623ZM323.78 49.4115L325.025 49.0633L324.637 49.6927L324.007 49.8534L323.445 50.4159L323.78 49.4115ZM323.351 55.2504L323.686 55.371L323.525 55.8665L323.177 55.7593L323.351 55.2504ZM322.494 47.1081L323.003 47.2688L322.708 47.6839L322.052 47.4563L322.494 47.1081ZM322.494 48.6214L322.253 49.3044L321.757 49.1303L322.494 48.6214ZM320.74 50.4829L321.757 50.8177L321.65 51.1525L320.472 51.3266L320.74 50.4829ZM320.472 50.2016L320.137 50.657L319.789 50.5364L320.016 49.8668L321.021 49.6392L320.914 49.974L320.472 50.2016ZM320.967 48.1259L320.284 47.8982L321.074 47.7911L320.967 48.1259ZM319.28 46.4385H320.231L320.458 46.8804L320.244 47.5634L319.173 47.9518L319.508 46.9474L319.28 46.4385ZM318.691 52.2774L320.257 52.0497L320.15 52.3845V52.7863L319.923 52.8934L318.583 52.4515L318.691 52.2774ZM319.534 54.246H320.097V55.3576L319.655 55.5853L319.307 55.4781L319.588 54.6344L319.534 54.246ZM317.793 56.6566L318.811 56.9914L318.53 57.2726L318.021 57.1119L317.459 57.6744L317.793 56.6566ZM316.842 56.6566L316.615 57.3396H316.441L316.226 56.8843L316.668 56.6566H316.842ZM315.999 55.3174L315.771 54.8755L315.985 54.1925L316.334 54.2996L315.999 55.3174ZM314.981 52.7327L315.142 52.2372L316.106 51.6078L315.878 52.2908H315.49L314.981 52.7327ZM315.102 55.7593L314.981 56.1075L314.673 55.987L315.102 55.7593ZM315.878 48.916L315.423 49.1437L315.53 48.2464L316.159 48.0723L315.878 48.916ZM315.811 44.5904L315.704 44.9252L315.195 44.7645L315.811 44.5904ZM314.794 44.2556V44.4297L314.512 44.1484L314.794 44.2556ZM314.968 45.4341L314.526 45.6617L314.633 45.3269L314.968 45.4341ZM314.673 50.3623L315.851 50.2016L315.343 50.59L315.168 51.0855L314.392 51.206L314.673 50.3623ZM314.338 53.0408L313.669 53.3756L313.99 52.3578L314.218 52.2506L314.338 53.0408ZM314.111 55.3844L314.003 55.7326L313.669 55.612L313.776 55.2772L314.111 55.3844ZM313.816 47.242L313.146 47.0277L313.334 46.3447L314.191 46.626L313.816 47.242ZM313.026 44.0011L313.414 43.9342V44.1083H313.588L313.374 44.7779L312.865 44.6172L313.026 44.0011ZM312.919 48.8223L312.811 49.1571L312.584 48.7151L312.919 48.8223ZM309.785 49.2776L309.437 48.608L309.892 48.3803L311.231 48.8223L311.111 49.1705L309.785 49.2776ZM310.91 49.8401L310.454 50.0543L310.12 49.9472L310.615 49.5588L310.91 49.8401ZM310.334 47.0277L309.745 47.1215L309.383 46.5322L309.718 45.5144L310.388 45.7421L310.066 46.7465L310.334 47.0277ZM310.615 43.9342L310.28 43.827L311.071 43.7199L310.615 43.9342ZM310.08 42.3271L310.977 41.3093L310.696 42.153L309.571 42.7155L309.236 42.6084L310.08 42.3271ZM309.705 50.8043H309.865L309.638 51.4873L308.807 51.7685L308.914 51.4203L309.196 51.1391L309.705 50.8043ZM309.37 53.4827L308.914 53.7104V53.322L309.37 53.4827ZM309.182 43.8806L308.955 44.5636L308.62 44.4431L309.182 43.8806ZM307.615 48.608L308.057 48.3803L308.406 48.4875L307.615 48.608ZM307.977 52.2372L307.24 52.7461L307.468 52.0765L307.977 52.2372ZM306.638 41.5236L307.307 40.6129L307.535 41.0683L308.205 41.2959L306.973 42.7557L306.464 42.5816L306.196 42.8628L306.638 41.5236ZM306.758 45.6751L306.584 46.184L306.357 45.7287V45.5546L306.758 45.6751ZM306.477 51.032L306.142 52.0497H305.017L305.138 51.7149L305.915 51.5944L306.477 51.032ZM305.017 50.9248H305.178L304.91 51.206L305.017 50.9248ZM304.683 49.6927L304.348 49.5722L304.964 48.849L304.683 49.6927ZM305.232 46.3179L305.74 46.492L305.232 46.8804L305.58 46.9876L305.459 47.3357L304.79 47.1081L305.232 46.3179ZM304.334 43.3985L304.616 43.6797L304.281 43.5726L304.334 43.3985ZM300.638 49.4785L301.817 48.7419L301.254 48.1794L301.428 47.6705L301.026 46.6126L302.044 46.3849V49.1571L300.303 50.4963L300.638 49.4785ZM298.335 47.9652L297.986 47.8446L298.268 47.0009L299.286 47.3491L298.335 47.9652ZM298.736 49.5856L298.616 49.9204H298.455L298.736 49.5856ZM300.196 49.1437L299.915 49.9874L299.232 49.7597L300.196 49.1437ZM299.62 44.0815L299.955 44.202L299.835 44.5368L299.5 44.4297L299.62 44.0815ZM299.165 42.0727L299.5 42.1798L299.272 42.8494L299.5 43.3047L297.933 43.519L298.094 43.0235L298.428 43.1306L299.165 42.0727ZM297.263 39.9032L297.612 40.0237L297.156 40.2514L297.263 39.9032ZM296.594 43.0503L297.933 42.3807L298.268 42.4878L296.862 43.3315L296.647 44.0011H296.473L296.594 43.0503ZM294.92 45.8626L295.255 45.9698L295.536 46.251L294.746 46.3715L294.92 45.8626ZM295.429 47.7107L294.866 48.2732L293.848 47.9384H294.973L295.255 47.6572L295.429 47.7107ZM294.089 47.0947L293.581 46.934V46.7599L293.915 46.8804L294.089 47.0947ZM293.246 36.7159L293.982 36.207L293.862 36.5418L293.139 37.0507L293.246 36.7159ZM290.795 45.8091L290.34 46.0367H290.179L290.795 45.8091ZM289.59 34.1981L289.991 34.1312V34.6937L289.71 35.5374L289.094 35.7114L289.59 34.1981ZM286.911 38.7381V39.1398H286.737L286.911 38.7381ZM284.996 37.7336L285.452 37.506L284.889 39.2068L284.38 39.0327L284.996 37.7336ZM283.456 39.6487L283.764 39.7425L283.456 39.9032L283.282 40.0773V39.9032L283.416 39.6353L283.456 39.6487ZM283.135 37.3051V36.9703L283.309 37.3185L283.135 37.3051ZM282.773 35.1758H283.309L282.412 35.8855L282.063 35.7114L282.773 35.1758ZM282.104 37.5194L283.282 37.9077H282.894L282.05 37.6265L282.104 37.5194ZM281.702 38.1354L281.434 38.9791L281.26 38.3631L281.702 38.1354ZM277.898 38.3765L278.113 38.8184L277.724 38.8854L277.898 38.3765ZM276.198 28.2521L276.733 28.6003L276.559 28.9619L276.198 28.6003V28.2521ZM275.314 30.5555H276.198L275.314 30.9171V30.5555ZM274.778 25.0514L275.14 25.2389H274.778V25.0514ZM274.577 33.0866L275.019 32.8589L274.805 33.5285L274.497 33.4884L274.577 33.0866ZM274.43 31.9081V32.2697H274.242L274.43 31.9081ZM274.242 32.8054H274.497L274.309 32.9795L274.242 32.8054ZM274.604 37.7738L273.707 36.8899L274.242 36.5284L274.604 37.7738ZM273.707 22.5069V23.2167H273.358L273.707 22.5069ZM273.358 31.734L274.068 31.3858V31.734L273.358 31.9081V31.734ZM271.403 23.5783L272.649 23.2301V23.7523H271.229L271.403 23.5783ZM272.997 29.9663V30.5019L272.287 30.8635V29.6181L272.649 29.444L272.997 29.9663ZM271.229 34.4124V33.3411L270.158 32.4572L271.229 31.9215V32.9929L271.765 33.8767L271.229 34.4124ZM271.591 35.4838L271.229 35.6579V35.4838L271.403 35.1222L271.591 35.4838ZM270.868 27.4486L271.229 27.087L270.868 27.8101V27.4486ZM271.229 28.1583V28.5065H270.868L271.229 28.1583ZM269.984 29.0422H270.158V29.5779H269.984V29.0422ZM268.564 29.4038H269.1V29.5779H268.39L268.564 29.4038ZM269.448 31.7072L269.1 32.2429H268.926V30.9171L269.1 30.5555L269.448 31.7072ZM267.145 30.4618L267.493 30.1136L267.145 31.359V30.4618ZM267.319 34.5463L266.796 35.082L266.609 34.7204L266.796 33.6625L267.319 34.5463ZM266.796 29.9261H266.609V29.4038L266.796 29.5779V29.9261ZM266.087 18.0339L266.609 18.5696V18.9312H266.087V18.0339ZM265.189 16.2662L265.015 16.6144L264.654 16.2662H265.189ZM262.886 27.8101H263.234V28.1583H262.886V27.8101ZM262.35 27.087V27.5959L262.176 27.2343L262.35 27.087ZM261.466 28.9351H262.35V29.1092L262.176 29.4708V30.3546H261.828V29.993L261.466 29.4708V28.9351ZM259.511 24.3148H260.047V25.7344H259.324L258.975 26.096H258.627L259.511 24.3148ZM254.891 16.1457L255.601 16.6813V17.3911H255.065L254.181 18.6366L253.82 18.4625L254.529 17.3911L254.891 16.6813V16.1457ZM255.601 20.0561V20.4177L254.717 20.5918L254.529 20.4177L255.601 20.0561ZM254.181 9.58356L254.529 9.93175L254.181 10.1058L253.82 10.8156L253.297 10.2933L254.181 9.58356ZM253.11 15.9716L253.297 16.1457L252.762 17.0295H252.4L253.11 15.9716ZM253.297 21.8373V22.3596H253.07V22.0114L253.297 21.8373ZM251.69 22.3596V22.5471L251.342 22.3596H251.69ZM245.476 14.7261H246.548V15.4359L245.664 14.9136H245.476V14.7261ZM245.664 16.6813V17.0295L245.476 16.6813H245.664ZM244.766 17.3911L245.302 17.9268L244.766 18.6366L244.418 18.275L244.766 17.3911ZM240.508 11.0031H241.218V12.2486H240.508V11.0031ZM238.03 6.9855L238.553 8.40506H238.914V9.11484L238.553 8.75325H238.03V6.9855ZM237.669 12.4896H238.03L237.495 12.8378L237.669 12.4896ZM236.785 11.4183V11.954L236.249 11.6058L236.785 11.4183ZM233.758 8.05687H234.655V7.29352L235.004 6.94533L235.178 7.29352V8.36488H234.321L233.972 8.71308H233.785L233.758 8.05687ZM232.874 6.9855V8.05687L232.526 6.9855H232.874ZM233.758 13.0253V13.5476L232.874 14.7931L232.339 13.9092L233.758 13.0253ZM231.816 7.3337L232.339 8.05687L232.165 8.40506L231.816 8.05687V7.3337ZM231.107 12.3155H231.816V13.0253H231.107V12.3155ZM229.5 13.9092L228.616 14.4449V13.9092L228.442 13.3735H228.977L229.5 13.9092ZM227.544 6.9855H228.442V7.86938L227.544 8.40506V6.9855ZM228.442 15.0207V16.4403L228.08 16.7885L227.196 15.7305L227.544 15.3689V14.6591L228.442 15.0207ZM227.544 12.3423H227.022V9.95854H227.544V12.3423ZM226.66 4.17317L227.196 4.34727L227.022 4.52137H226.66V4.17317ZM226.125 15.3555H227.022V16.4269L226.125 17.4849V15.3555ZM224.705 4.34727H224.946L224.772 4.52137L224.705 4.34727ZM225.241 10.0255V10.1862H224.705L225.241 10.0255ZM223.821 13.4003V12.9851L224.17 12.6236L224.879 13.869L224.17 14.9404H223.821L224.17 13.3333L223.821 13.4003ZM221.692 10.0255H221.866V10.1862H221.692V10.0255ZM221.33 11.4451H221.866V11.9807H221.33V11.4451ZM218.853 11.4451L219.027 11.0969V11.4451L218.853 11.6325V11.4451ZM218.143 12.5164H218.853L217.956 13.4003H216.536V12.4495L217.607 12.7977L217.956 12.2754L218.143 12.5164ZM217.246 7.36048H217.607V8.43184H217.246V7.36048ZM215.826 10.1862H216.188L216.71 10.0121L217.072 10.1862L216.536 10.896L215.826 10.5478V10.1862ZM215.478 17.1099L214.233 18.1813V17.4179L215.478 17.1099ZM215.116 16.7617L214.755 16.4135H215.116V16.7617ZM214.755 10.3737V10.896L214.407 11.0835L214.059 10.896L214.755 10.3737ZM213.416 10.1862L213.764 10.5478H213.416V10.1862ZM214.125 13.9226V14.2038L213.764 14.5654L214.125 13.9226ZM213.054 14.9939L213.416 15.3421V16.0519H213.054V14.9939ZM213.416 17.8331V18.891L212.344 19.4267V17.7795L213.416 17.8331ZM211.46 12.4762H211.554V13.0119L211.394 12.8646L211.46 12.4762ZM211.273 13.5342H211.46L211.273 13.8958V13.5342ZM211.983 16.0251V14.7797L212.344 15.3154V16.3867L211.983 16.7349L211.46 18.1545L211.099 16.909L211.983 16.0251ZM207.724 10.8692L208.086 10.521V9.98532L208.434 9.27554L208.97 10.8692L210.389 11.4049L209.492 11.5924H208.608V11.0567H207.724V10.8692ZM209.144 13.8958L208.876 14.2038L208.166 13.6815L208.876 12.8646L209.76 11.9807V12.5164L208.702 13.5744L209.144 13.8958ZM209.853 14.6056H210.028V15.6769L209.853 16.0251L209.144 15.6769L209.853 14.6056ZM210.028 17.4447L210.389 17.0831V17.8063H210.028V17.4447ZM204.671 15.6769H205.019V16.0251H204.671V15.6769ZM202.89 9.44964H203.251L202.89 9.63713H202.541L202.89 9.44964ZM198.095 18.6902V19.0517L198.457 19.2124V19.9356L198.095 20.1097L197.56 19.574L197.211 18.6902L197.747 18.5161L198.095 18.6902ZM196.327 13.5342H196.676L197.56 13.186L197.037 14.9672L196.327 14.6056V13.5342ZM188.065 19.6678L188.239 20.0294L188.065 20.7391H187.542L188.065 19.6678ZM182.386 17.5384H183.096L182.909 18.0875H182.386V17.5384ZM179.708 5.6463H180.418L180.056 6.71766H179.708V5.6463ZM178.998 17.6991L179.346 18.4089L178.195 19.025L177.753 18.2348L178.998 17.6991ZM177.217 15.2082H177.579V16.0921H177.217V15.2082ZM174.378 5.83379H174.726V6.16859H174.378V5.83379ZM172.249 5.83379L172.423 6.19537H173.842V7.57475L174.378 7.21317V7.57475L174.726 9.3559L174.378 10.2398L175.449 9.70409L175.972 10.4139L174.726 11.2977L174.056 11.6593V10.4139L173.159 10.0657L173.695 8.64612L172.985 7.21317L171.74 6.50339L172.249 5.83379ZM170.467 17.2036L170.655 17.5518V18.2214H169.932L170.467 17.2036ZM168.164 12.4093L168.512 13.1191V15.7975H167.454L166.383 17.217H166.021L165.66 17.5652H165.137L166.021 15.543L167.267 14.2976L167.615 12.8646L168.164 12.4093ZM164.615 7.25334H166.021L167.267 6.90515V7.25334L166.369 7.78903L165.847 11.6995H164.95V10.4139L165.847 8.28453L165.311 7.57475L164.602 7.74885L164.615 7.25334ZM165.325 13.1191L165.861 12.4093H166.021V13.1191L165.311 14.1904H164.95L164.602 14.5386H163.892L165.325 13.1191ZM159.084 11.6593L159.981 10.1862V8.99431L160.517 8.64612L162.111 9.16841L162.472 7.74885H163.182V8.45863L162.821 8.99431L162.472 10.4139L162.111 9.3559L161.401 10.588L160.664 10.4139L159.057 13.0923L159.084 11.6593ZM160.169 14.1502V13.4271L161.575 12.0075H162.004L161.642 12.7173L161.053 15.543L160.691 15.7171L160.517 15.1814V14.2976L160.169 14.1502ZM156.781 10.588L156.968 9.87818H157.316L157.678 10.9495L156.781 12.195V13.7887L156.607 14.3243L156.071 11.6459L156.781 10.588ZM156.781 16.0921H156.647V15.7439L156.781 16.0921ZM152.884 8.45863L153.058 8.11043V10.1862L151.986 11.0701L152.884 8.45863ZM150.754 8.847L151.102 9.19519L150.393 10.7888L149.857 10.2666L150.754 8.847ZM150.58 14.5252L150.031 15.235V14.8868L150.393 14.3511L150.58 14.5252ZM144.714 17.2036L145.076 17.0295V15.7841H145.424V17.5518H144.714V17.2036ZM145.772 19.1589V20.0427H145.076L145.424 19.1589H145.772ZM143.817 10.588L144.005 10.4139V10.9495H143.817V10.588ZM141.916 10.9495L142.625 11.6593L142.09 12.3691H141.916L141.38 11.6593L141.916 10.9495ZM141.554 14.3243L142.09 14.86L141.916 16.9894H141.554V15.2082L141.206 14.4984L141.554 14.3243ZM141.38 20.5383L140.483 20.0026L141.018 19.4669L141.38 20.5383ZM139.237 10.588H139.947L140.469 11.6593L139.585 12.195V12.7173L140.121 13.4271L139.585 14.4984H139.237V13.0789L139.063 12.7173L139.237 10.588ZM119.43 18.6232L119.792 18.9848L120.328 19.6946H119.43V18.6232ZM119.082 20.4043L119.792 22.8953V23.4175H120.328V21.9444H120.85V23.5783L120.328 24.288L119.792 23.9398L119.055 23.5783L119.082 20.4043ZM118.908 24.4889L119.256 25.5469L118.721 25.9085V27.5959H118.011L117.301 26.712L117.663 25.2924H118.546L118.908 24.4889ZM117.663 28.7476L118.372 28.2119L118.721 29.2833L118.372 30.1671L118.011 30.5287V29.0422L117.663 28.7476ZM117.475 20.2302L118.372 20.7659V21.1141H116.926L117.475 20.2302ZM116.926 27.5959V27.9575H116.564L116.926 27.5959ZM116.564 33.8232L116.926 33.9973V34.3455L116.39 33.9973L116.564 33.8232ZM115.506 34.5329L115.855 34.3455V34.5329L115.506 34.8811V34.5329ZM114.435 33.9973L114.797 33.8232V34.8811H114.087L114.435 33.9973ZM111.757 34.5329H112.989L112.105 35.4168H111.783L111.757 34.5329ZM110.685 22.1051V22.4533H110.324L110.685 22.1051ZM111.208 26.1227V27.1941H110.176L111.208 26.1227ZM108.931 24.9175L109.815 24.5559L109.105 23.3104L109.989 22.7881L110.525 23.3104L109.641 25.8549L109.293 27.5959L108.931 27.2477V24.9175ZM106.802 25.8013L107.163 25.4397V26.2567H106.802V25.8013ZM106.627 30.06L107.163 29.3502V28.9886H107.685L107.163 30.5957L107.511 30.7698H108.221L108.583 30.4216L109.293 30.5957V32.9527L109.815 33.4884L109.293 35.082L108.583 34.3722L107.511 35.2561L106.802 33.9169L106.44 35.2561H106.092V31.5331L105.73 31.8947H105.02L105.73 31.5331L104.672 30.6493H105.382L105.73 30.4752L104.846 29.7654L105.757 28.3458L106.627 30.06ZM107.86 41.9521V42.3271H107.511V41.9655L107.86 41.9521ZM105.918 40.1844V39.6487L106.092 38.7648V37.1578L106.44 36.9837V37.3453L107.163 37.6935L106.802 38.7648L106.44 40.546L105.918 41.0683V41.9521L105.382 41.4299L105.918 40.1844ZM105.382 39.113V38.4032L105.73 38.0551L105.918 38.4032L105.382 39.113ZM104.498 25.3192H104.672L105.02 25.4933L104.672 25.8549H104.498V25.3192ZM103.601 36.6891L104.311 35.7918L104.846 37.3988L104.137 38.1086L104.672 39.3541L103.962 40.5995L103.601 39.1666H102.891L103.253 38.4568L103.601 36.6891ZM104.498 42.3271V42.8628L103.962 43.0369L103.065 42.5012V42.3271H104.498ZM102.543 28.9351H103.079V29.2967H102.543V28.9351ZM100.762 43.961V42.903L101.646 41.1218L102.543 41.8316L102.181 42.5414L102.007 42.3271V44.4565H101.297V43.9208L100.762 43.961ZM100.588 33.3143H101.123V33.4884L100.588 34.024V33.3143ZM102.007 38.4568L100.762 39.8764L100.226 38.4568H102.007ZM100.588 41.6575V42.0057H100.226L99.8779 41.6575H100.588ZM95.6192 37.2114L96.329 35.9793H96.6772L95.6192 37.3988V37.2114ZM94.0122 39.1666L94.1863 38.8184L94.0122 39.8764V39.1666ZM92.5926 41.1218L92.9542 40.9477L93.1283 41.1218L92.9542 41.6575H92.5926V41.1218ZM92.5926 43.4253L93.1283 42.903L93.664 41.6575H94.0122V42.5414L92.9542 44.8582V46.3447L92.231 45.635L92.5926 43.4253ZM88.6822 35.9793L89.7535 35.2561L90.2758 35.7918L89.0437 36.3275H88.6822V35.9793ZM85.843 35.6311L86.5528 35.9927H85.843V35.6311ZM85.4948 39.5416L86.5528 39.0059V39.6487L86.9144 39.8228L87.6242 39.4746H87.9724L88.334 40.1844H89.0437V38.4568L89.7535 38.8184H90.2758V38.4568H89.7535L90.1151 37.2114H90.6374L90.8249 38.1086H92.0703V39.5282L91.3472 39.1666L90.8249 39.8764L90.1151 41.2959L89.0437 40.9477L87.2626 40.5995L86.9144 43.4253V44.4966L86.3787 45.3805L86.7269 46.2778L86.2046 46.626L85.4948 46.0903L85.1333 46.3447L84.4235 45.8091L85.4948 44.5636V44.3895L86.7269 43.144L86.3787 42.3271V41.4432L85.4948 40.5594L85.843 40.1978L85.4948 39.5416ZM92.0703 42.0191L91.1731 43.6663H90.8249L90.2758 44.0145V43.4788L91.5347 41.7111L92.0703 42.0191ZM87.9724 42.0191L87.6242 42.9164V41.6575L87.9724 42.0191ZM85.4948 62.6161V62.9777L84.9592 63.6874H84.7851V62.6161H85.4948ZM85.4948 41.4834L85.1333 41.6575H84.611V41.1218H85.1333L85.4948 41.4834ZM84.9592 39.8764H84.611V39.6487H84.9592V39.8764ZM84.4235 38.1086L84.611 38.4568H84.0619L84.4235 38.1086ZM83.7137 39.1666H84.0619L84.4235 39.5282H83.7137V39.1666ZM84.0619 42.0057V42.3271L83.7137 42.5012L83.178 42.3271L84.0619 42.0057ZM82.9905 38.8184H83.5262L83.1646 39.1666H82.9905V38.8184ZM82.9905 39.8764H83.7003V41.1218H83.5262L82.9905 40.5995V39.8764ZM82.12 53.0408L83.7137 51.4471H84.0753V52.5185L84.9592 53.8577L84.4235 55.1031L84.0753 54.7549V53.8577L83.178 53.0408H82.6557V56.4156L82.12 57.1253V57.3128H83.178V58.1967L81.6513 59.0672L81.1156 59.6029H80.3121V58.7056L82.2808 55.1567L81.7317 54.6344L82.12 53.0408ZM83.178 59.9644V61.9197L82.4816 62.6295L80.8746 61.2099L82.9905 59.6029L83.178 59.9644ZM79.6425 53.563L80.7005 53.0274V53.563L80.1648 53.9112V54.2728H80.7005V54.8085L79.6425 54.4469V53.563ZM80.1648 62.4152V62.9509L79.2809 63.8348V63.2991L80.1648 62.4152ZM78.9729 57.8217L78.6247 58.7056L78.2631 58.1833V57.4735L77.3793 57.2994L78.9729 55.7192L79.5086 57.5003L78.9729 57.8217ZM78.5712 50.898V51.6078H78.2096V50.898L78.9193 50.0142V50.1883L78.5712 50.898ZM78.9729 53.9112V54.2728H78.5712L78.9729 53.9112ZM77.1918 42.9164L77.9149 42.0191V43.4387H77.1918V42.9164ZM78.6247 45.2198V45.5814H77.9149V45.2198H78.6247ZM77.1918 48.7687L77.5534 48.0589V47.3491H78.2631L78.6247 48.0589V47.0009H78.9729V48.233L78.2631 48.4071L77.5534 49.6526H77.1918V48.7687ZM77.1918 59.0672H78.2631V59.6029L77.5534 60.1385H77.1918V59.0672ZM76.6695 57.4735H75.7856L75.0758 58.5315H74.7142L75.424 56.054H75.9597L76.6695 57.4735ZM76.4954 52.5051H75.9597L75.0758 53.3889V52.6792L76.4954 51.9694V52.5051ZM75.0758 43.8002L75.424 43.4387V43.8002L75.0758 44.1484V43.8002ZM75.0758 47.7107V48.0589L74.7142 48.233V47.6839L75.0758 47.7107ZM74.5401 45.9296H74.7142L74.5401 46.6394V45.9296ZM74.7142 66.165H75.9597V66.5266L75.424 67.2363H74.5401L74.0045 68.6559V69.7273H73.1206V68.6559L73.2947 67.9461V66.8881L74.7142 66.165ZM73.1206 43.3985L73.6429 42.8762V45.1796H73.1206V43.3985ZM73.1206 47.309H73.8304L73.1206 49.6124L72.5849 48.7285L73.1206 47.309ZM72.2367 53.697L72.759 54.2327V54.7683L71.6876 54.9424L72.2367 53.697ZM72.2367 67.1962V67.5444L72.0492 67.1962H72.2367ZM70.6297 48.1928L70.8172 47.6705V46.9608H71.1653L71.3394 48.3V50.9784L70.8172 51.8623L71.5135 52.0364L70.8172 53.2818H70.6297V52.5051L70.2279 50.3623L70.6297 48.1928ZM67.0272 74.3341L67.3888 73.4502L67.737 72.3923L68.0986 72.9146H68.8083L69.3306 72.3923L69.1565 72.0307L69.8663 71.1468V70.9593H69.1565L68.0986 71.3209V70.9593L68.8083 69.7273L70.2279 69.5398L70.5761 68.8434L71.6341 67.9461H72.1831L70.5761 69.7273L70.7636 70.9593L70.5761 71.1468L70.0538 72.7405L68.8083 73.8118L69.3306 74.6957L70.5761 74.3341L70.7636 72.5664L71.1118 72.9146L70.7636 75.4055L69.8663 75.9412L68.0986 75.2314V74.16H67.737L67.0272 75.2314V74.3341ZM68.8083 76.6509V76.825L68.4468 76.6509H68.8083ZM64.2417 75.9412H64.5899V76.2894L64.2417 76.6509V75.9412ZM62.1927 86.4137L62.0186 86.5878L62.1927 86.9494H61.4293L61.965 86.0522L62.1927 86.4137ZM61.2552 79.8249H61.5633V80.0123L61.2017 80.3605L61.2552 79.8249ZM58.9518 86.4004H58.5902L57.8804 86.0388L58.5902 84.4451L59.6482 84.9808L58.9518 85.3424L59.3 85.6906L59.6482 85.3424H60.0098L59.6482 86.0388L60.0098 86.4004L60.7196 84.271H61.0811V85.1817L60.358 85.7174V86.0656H61.0811L61.2552 86.4271L61.0811 86.6012V87.1369H60.0098L58.9518 86.4004ZM59.3 91.5429V91.7304L58.9518 91.5429H59.3ZM60.358 81.0703L61.0811 81.7801L60.0098 82.664L59.6482 82.5033L60.0098 82.1551V81.4453L60.358 81.0703ZM60.224 80.3739L60.3981 80.0257H60.7597L60.3981 80.3739H60.224ZM60.224 83.213L60.5856 83.9228L60.0499 84.6326L59.6884 84.2844V83.9228H58.992V83.213L59.3402 83.5746L60.224 83.213ZM58.9518 82.5033H58.7777L58.9518 82.1551V82.5033ZM60.0098 79.316L60.358 78.0705V78.6062L61.0811 79.316L58.7777 80.0257L58.5902 79.4901L58.7777 79.316L58.2286 78.9544V78.6062H58.9518L59.6482 78.4187V78.6062L60.0098 79.316ZM57.7063 77.7089L58.2286 77.3607L58.5902 77.5348V78.0705H58.2286L57.7063 77.7089ZM57.1707 69.5398H57.3448V70.7852H57.1707V69.5398ZM57.1707 73.8118H57.5456V74.6957L58.2554 75.2314H58.9786L58.8045 75.5796L57.5456 75.9412L57.0233 77.1866L57.7331 78.9544L55.952 80.0257V80.7355L55.7779 81.0837V79.316L56.4877 77.5348L56.0993 77.1464L56.4609 76.6108H57.1707V73.8118ZM56.0993 81.8471V82.2086L55.9252 82.5568V81.8471H56.0993ZM55.9252 74.7493H56.4609V76.1688H55.9252V74.7493ZM55.3895 72.0709L55.7511 72.245V72.4324H55.3895V72.0709ZM55.577 78.6464L54.1574 79.182L53.4477 78.6464L54.5056 78.4589L55.0413 78.1107L55.577 78.6464ZM55.0413 95.1587V95.681L54.8672 96.2167V96.0426L55.0413 95.1587ZM54.6931 89.1189L53.6218 90.0028L52.912 89.1993L53.4477 88.3154L53.6218 89.3868H53.97L54.3315 88.4895L54.6931 89.1189ZM54.5056 76.1554L53.6218 77.0393V76.5036L54.3315 75.6198L54.5056 74.91V76.1554ZM54.3315 73.852V74.468H53.97L53.4477 73.3967L54.3315 73.852ZM52.1888 74.2002L52.7379 73.6645L52.1888 73.4502L52.912 72.7405L53.0861 73.8118L52.912 74.16L53.4477 74.6957L52.5504 75.9412H52.1888L52.5504 74.8698L52.1888 74.2002ZM52.1888 77.9366H52.5504L52.912 78.1107L52.5504 78.4589H52.1888V77.9366ZM52.5504 79.8249V80.0123H52.1888L52.5504 79.8249ZM52.1888 81.7935L52.5504 81.2578V81.7935L52.1888 82.5033V81.7935ZM52.0147 87.8601L51.6665 88.3958H51.4924V88.0342L52.0147 87.8601ZM51.1308 81.4721H50.9568L51.4924 81.2846H51.6665L51.1308 81.4721ZM50.9568 76.1153L51.1308 74.8698L51.4924 75.2314V76.1153H50.9568ZM50.9568 73.2761L50.5952 72.7405L51.1308 72.2048L51.4924 72.5664L50.9568 73.2761ZM50.247 70.9593L51.1308 71.3209L50.5952 72.0307L49.8854 71.3209L50.247 70.9593ZM50.247 74.8698L49.8854 75.5796L50.247 76.1153L49.7113 76.6509L49.3497 75.8072L49.8854 74.5752L50.247 74.8698ZM49.5104 72.3923L49.6845 72.0307V72.3923L49.5104 72.7405V72.3923ZM48.8006 73.8118H49.3229L48.8006 74.6957H48.4524L48.8006 73.8118ZM48.2649 76.1153H48.8006V76.6509L48.4524 76.9991L48.2649 76.6509V76.1153ZM48.1712 77.5348L48.3453 77.8964V78.6062L48.1712 78.9544L47.6355 78.0705L48.1712 77.5348ZM49.0551 80.0257L49.939 78.9544L49.5104 78.6062L49.6845 78.4187H50.93L50.5684 80.0257V80.7355H49.5104L49.8586 80.3739V80.0257L50.2202 79.4901H49.8586L48.9747 80.5614L47.7293 80.0257L47.3811 80.9096L47.0195 80.3739L47.207 79.1419L49.0551 80.0257ZM48.1712 84.2844V85.5299L47.0998 86.2396V85.1817L47.6355 83.9362L48.1712 84.2844ZM47.0998 75.9412V76.1153L46.3901 76.4635L47.0998 75.9412ZM46.6981 89.4403L45.6267 90.3242L44.0331 91.034L44.3812 90.4983V89.4403L45.4526 89.9626V89.4403H46.6981ZM45.4928 92.2795H44.9571L44.5553 91.8777H45.2785L45.4928 92.2795ZM42.6537 96.8863V94.757H43.0153L43.176 95.1186H43.8991L44.0732 94.2213L44.4214 94.757L43.5376 96.5247L43.176 97.422H43.0153V96.8863H42.6537ZM43.859 87.8601H42.9751V86.0522H43.4974L43.1358 87.1235L43.859 87.8601ZM43.4974 91.7706L43.859 92.3062H43.4974L42.9751 91.7706H43.4974ZM43.859 93.3642V93.016L44.3812 93.3642H43.859ZM45.9883 83.9898L45.6267 84.3514V85.0611L45.4526 84.5255L45.6267 83.9898H45.9883ZM45.6267 79.0213V79.557L45.4928 79.316L45.6267 79.0213ZM45.4928 79.8249V81.2444L45.3187 81.4319L44.783 81.2444L45.4928 79.8249ZM43.8991 78.0571H44.0732L43.8991 78.4053V78.0571ZM43.4974 82.5033H43.859V82.1551H45.2785L45.4928 83.5746L44.9571 83.9228L44.5955 84.6326L44.0732 85.1683V83.213H43.8991L43.3635 83.9228H42.8144L43.4974 82.5033ZM37.9932 87.4717V86.9494L39.2387 85.704V84.9942L39.7744 83.213H40.2967L40.6583 85.3558H40.8324L41.7296 85.8781L42.6135 85.3558V86.0522L41.8903 87.1235L41.5421 86.5878H40.6583V87.4717L39.2387 87.8601L39.5869 88.9181L39.0646 89.4671L38.703 88.9181L37.8191 88.2217L38.3548 87.8601V87.4985L37.9932 87.4717ZM41.1939 94.0472L40.8324 93.699L40.4842 94.2213L39.9485 96.0025H39.4128V94.757H39.2387L39.0646 95.1186H38.703V94.0472L39.2387 93.699V94.2213L39.4128 94.0472L40.1226 93.699V91.8777L40.4842 91.5161V89.9626L40.8324 89.7885L41.1939 89.9626L40.8324 90.4983V91.7438L41.7296 92.6277V92.9892L41.5421 93.3374V94.0472H41.1939ZM41.5421 95.6409V96.8863H41.1939L40.8324 96.5247L41.1939 96.1765L41.5421 95.6409ZM37.645 102.337H37.8191L37.2835 103.408L36.7478 103.234L37.645 102.337ZM36.5737 99.9129L37.2835 99.5513H37.8191L37.645 99.9129H36.5737ZM37.4576 107.359L37.8191 107.895L38.3548 107.011V108.43H37.2835L36.9353 107.895L37.4576 107.359ZM38.703 93.3374L37.9932 93.699V92.2795L38.703 93.3374ZM37.9932 91.7438L38.703 91.2081V91.5563L37.9932 91.7438ZM38.3548 103.114V102.752L38.703 103.114H38.3548ZM39.0646 105.27L38.703 105.618V104.734L39.0646 105.27ZM38.703 109.528H39.2387L38.3548 110.412L38.703 109.528ZM39.0646 103.489H39.2387V104.198L39.0646 103.489ZM41.5421 91.2349L41.7296 90.8733V91.2349H41.5421ZM41.5421 89.1055L41.7296 88.9181V89.1055H41.5421ZM37.8191 96.5515V98.1586L36.038 99.0424L36.5737 99.5781L35.8639 100.649V98.4934L37.1094 97.9577L37.8191 96.5515ZM37.645 95.2123L36.9353 95.7346H36.3996L36.038 95.3864L36.3996 94.5025L35.8639 94.3151V94.141L37.645 94.3151V95.2123ZM35.5157 89.5341L37.2835 88.6368L36.3996 90.418H36.5737V90.9403H36.3996V91.3018L36.5737 91.65L36.9353 91.3018H37.2835V91.65L36.5737 92.1857L35.8639 91.8375V91.3018L35.5157 90.5385V89.5341ZM35.3282 103.917H36.3996V104.627L35.3282 104.265V103.917ZM36.3996 107.935V108.47L35.5157 109.368V108.645L36.3996 107.935ZM35.8639 110.064V109.542L36.9353 109.18L35.8639 110.787H35.3282L34.4443 111.497L34.0962 111.31V110.064L34.8059 109.542L35.3282 110.064H35.8639ZM36.5737 111.845V112.917H36.2121L36.3996 111.845H36.5737ZM34.7792 113.934V114.644L34.4176 114.296V113.934H34.7792ZM34.4176 101.681L34.7792 101.332V101.681H34.4176ZM34.4176 89.7885L34.9399 90.4983H34.4176V89.7885ZM33.8819 92.9892H34.4176V93.3374L34.0694 94.0472L33.8819 93.699V92.9892ZM33.8819 109.502V109.85L32.998 110.747V110.024L33.5337 109.502H33.8819ZM33.8819 118.019V120.148H33.5337V118.367L33.8819 118.019ZM33.4399 120.858V121.22L33.0918 121.568L33.4399 120.858ZM33.0918 100.77H33.4399L33.0918 100.944V100.77ZM33.0918 108.939L32.7302 108.578V108.403L33.0918 108.578V108.939ZM32.0204 93.6722L32.2079 93.3107H32.7302L32.0204 93.6722ZM32.5561 121.903L33.0918 122.612H32.1007V122.264L32.5561 121.903ZM32.0204 107.52H32.1007V108.055L31.9133 108.403L32.0204 107.52ZM32.0204 124.032H32.5561V124.742L32.0204 125.103V124.032ZM32.5561 125.452V125.626H32.1007V125.452H32.5561ZM30.0116 124.019H30.1857L30.0116 124.193H29.65L30.0116 124.019ZM29.2884 125.09H29.65L29.2884 125.438V125.09ZM28.9402 126.148V126.496L28.7661 126.858L28.9402 126.148ZM28.2304 107.319L28.592 107.854H28.2304L27.8689 107.319H28.2304ZM27.1591 101.962H27.5207V103.033H27.1591V101.962ZM24.32 132.054L25.0297 131.706L25.5654 132.59L25.0297 133.487L24.8556 133.299L24.2396 133.487L23.9584 133.299L24.8556 132.415L24.32 132.054ZM19.8872 131.344L20.2354 132.054H19.8872V131.344ZM20.0479 206.5V206.688L19.8738 207.036V206.5H20.0479ZM17.3695 131.331L17.7311 130.982V132.054L17.3695 132.415L17.0481 132.054L17.3695 131.331ZM16.7401 138.603V137.719L17.4632 137.009L17.8114 138.254L18.3471 138.964L19.0569 138.603L18.6953 139.674H18.173L17.8114 139.312L16.9276 140.036L16.7401 140.745H16.3919L16.0303 140.089L16.7401 138.603ZM12.5082 159.2L13.4054 157.78L13.0439 157.499H12.3341V158.838H11.6243V157.499L13.0439 156.079L13.4054 157.137L14.2893 157.499L13.7536 158.209L13.0439 159.266L12.5082 159.2ZM12.8698 170.395L12.5082 171.989H12.0127V171.453L12.5483 170.395H12.8698ZM12.16 147.843L13.4054 145.526L13.7536 145.352V144.816H13.0439L11.6243 145.526V144.468L12.6957 142.165H13.3519L13.7001 142.875V143.049H14.0617L14.7714 142.513L15.1196 141.616V142.165L16.191 143.049V144.107L15.8294 144.468L15.1196 146.062L15.8294 146.772L15.4812 147.656V148.727L15.1196 150.147L14.4098 149.437V148.017H13.218L12.5082 150.508V150.803L11.6243 150.267L12.6957 148.325L12.16 147.843ZM14.4634 159.735L15.1732 159.2V159.561L14.4634 159.909V159.735ZM14.1152 151.204V150.803H14.4634V151.151L14.1152 151.204ZM12.3341 155.825V156.012L12.0127 155.825H12.3341ZM13.4054 164.53L14.1152 162.588H15.1732V162.936L14.825 163.11L14.4634 164.007L14.1152 164.355L13.7536 166.297H13.3519L13.4054 164.53ZM15.1732 166.123L15.7089 166.297L15.1732 166.833V167.556L14.825 168.614L14.1152 166.873L15.1732 166.123ZM15.0928 203.835L16.1508 202.777V203.661L15.2669 204.545H15.0928V203.835ZM15.1732 165.775L16.7668 163.472V164.007L15.1732 165.775ZM16.7668 170.034H16.9543L17.49 171.989L16.7668 173.409V170.034ZM17.3695 153.883L17.0213 152.637H16.3115V151.74L17.0213 152.102L17.9052 151.204L18.2668 150.682H18.6149L17.7311 152.637V153.347L17.3695 153.883ZM16.8338 148.017V146.946L17.1954 146.772L16.8338 148.017ZM11.6913 140.21L12.0395 139.312V137.719L12.9367 136.647L14.0081 137.183L14.5304 135.938H14.892L15.2402 136.473L13.8206 137.719H13.0439L12.5082 138.254L13.0439 138.603L12.5082 138.964L13.0439 139.312L13.7536 140.036H14.825V141.428H13.7536L13.4054 140.732H12.6957L11.2761 142.861L11.0886 141.964L12.3341 140.732L11.6913 140.21ZM14.892 138.254L14.5304 138.603L14.1822 138.254H14.892ZM14.1822 138.964V139.312H13.7536L14.1822 138.964ZM11.1556 148.339L11.3431 147.977V148.339L11.1556 148.687V148.339ZM10.5529 157.499H10.7404L10.5529 157.847V157.499ZM10.5529 165.132L9.33426 167.556V166.297L10.5529 165.132ZM9.33426 153.347L9.69584 152.637L10.0574 153.695L9.33426 154.057V153.347ZM9.17355 151.566V151.204H9.33426V151.566H9.17355ZM9.69584 149.798L9.17355 150.508V149.089H10.2315V149.798H9.69584ZM9.17355 146.249L9.86994 145.526L10.2315 145.888V147.656H9.84316L9.66906 147.307L9.14677 146.946L9.17355 146.249ZM8.81197 147.656L9.17355 148.017H8.78518L8.81197 147.656ZM8.81197 159.561L9.69584 158.503L10.2315 158.851L8.81197 160.271H8.59769L8.81197 159.561ZM8.62448 162.936H8.81197L8.62448 163.11V162.936ZM8.81197 168.976H8.59769L8.2495 168.614L8.59769 168.266L8.81197 168.976ZM8.62448 183.171V183.533L8.27629 183.171H8.62448ZM7.7406 164.422L8.27629 163.713V164.597H7.7406V164.422ZM6.12017 159.2L6.82994 158.142L7.36563 159.025L6.12017 159.909V159.2ZM7.36563 178.029V178.377H7.17814L7.36563 178.029ZM6.12017 162.4H6.46836V164.53H5.94607L5.0488 164.195L6.12017 162.4ZM6.12017 167.556V169.672H5.77197V167.556H6.12017ZM5.41039 173.944V174.118H5.0488L5.41039 173.944ZM4.70061 168.212H5.0488L4.70061 168.561H4.33902L4.70061 168.212ZM5.0488 174.908V175.444L4.70061 176.154V174.908H5.0488ZM0.883875 212.714L2.12934 211.469L1.41956 210.946L1.76775 210.049V208.455L2.66502 207.398L3.72299 207.92L4.25867 206.688H4.60686L4.96845 207.21L3.54889 208.455H2.83911L2.30343 208.991L2.83911 209.339L2.30343 209.701L2.83911 210.049L3.54889 210.759H4.60686V212.192H3.54889L3.18731 211.469H2.47753L1.05797 213.598L0.883875 212.714ZM4.60686 208.991L4.25867 209.339L3.97744 208.991H4.60686ZM3.97744 209.728V210.076H3.54889L3.97744 209.728ZM6.10677 214.87L5.74519 215.232L5.03541 216.826L5.74519 217.535L5.3836 218.419V219.491L5.03541 220.91L4.32563 220.2V218.781H3.01321L2.30343 221.272V221.62L1.41956 221.084L2.47753 219.102L1.94185 218.566L3.18731 216.25L3.54889 216.076V215.553H2.83911L1.41956 216.25V215.192L2.47753 212.888H3.18731L3.54889 213.585V213.745H3.97744L4.67383 213.21L5.03541 212.326V212.861L6.10677 213.745V214.87ZM8.5843 210.438H7.99505L7.64686 210.076L6.74959 210.786L6.5755 211.495H6.21391L5.85233 210.786L6.5621 209.366V208.482L7.27188 207.772L7.63347 209.018L8.16915 209.728L8.87893 209.366L8.5843 210.438ZM9.64228 208.482L9.46818 208.67V208.308H9.64228V208.482ZM9.33426 180.158H9.14677L9.66906 179.261L9.84316 179.448L9.33426 180.158ZM9.33426 175.364L8.98606 175.002L9.86994 174.118L9.33426 175.364ZM10.2315 170.395L10.5797 169.672L10.9413 169.15L10.5797 170.395H10.2315ZM12.4144 251.779V252.502L12.0662 253.024L11.718 252.676V251.605L10.8342 249.649L11.718 248.591V247.52L12.0127 247.225V245.886L12.3609 245.351L12.8965 247.306L12.0127 248.766V251.243L12.4144 251.779ZM13.0439 169.672V167.556H13.3519V167.904L13.7001 169.324L13.3519 169.672H13.0439ZM13.7536 172.525L14.4634 171.989L14.1152 172.886H13.7536V172.525ZM14.825 181.578V181.926H14.4634L14.825 181.578ZM14.5572 244.681L14.1956 245.043L13.8474 244.681L14.5572 243.436V244.681ZM15.0928 206.152L15.441 205.616H15.8026V206.152L14.7313 207.21L15.0928 206.152ZM16.5124 207.92L17.0481 206.5L17.7579 205.79L17.0481 208.643L15.8026 209.339L15.441 208.991L16.5124 207.92ZM16.0303 248.565H15.6285V247.225L15.9767 246.516L16.0303 248.565ZM17.2757 212.687H16.566V210.009H17.2757V212.687ZM17.8114 250.185L18.1596 248.94L18.6953 249.475L17.8114 250.185ZM17.9855 213.437L17.6239 212.902L18.1596 212.366L18.8694 210.946H19.4051L17.9855 213.437ZM19.8872 209.728H20.0479V210.076H19.5122L19.8872 209.728ZM22.5656 248.966H21.1193L19.8872 247.908L21.3067 246.127V246.489L21.1193 247.373L21.3067 247.908H22.5522L22.5656 248.966ZM21.6683 209.902V212.406L22.0299 212.942V213.638L21.6683 214.187L21.3201 213.826V212.754L20.4363 210.799L21.3201 209.741V208.683L21.6683 208.322V207.049L22.0299 206.514L22.5656 208.469L21.6683 209.902ZM23.4495 205.817L24.1593 204.572V205.817L23.7977 206.179L23.4495 205.817ZM25.0431 242.23L24.6949 243.636H23.9718L23.7977 242.94L25.0431 242.23ZM24.6949 230.86V230.673H25.0431V230.86H24.6949ZM26.4627 250.386L26.1011 250.748V250.038L26.4627 249.676V250.386ZM26.1011 249.328H25.7529V248.565H26.4627L26.1011 249.328ZM27.1725 247.199H26.4627L25.7529 247.908H25.0431L24.3334 248.257H23.9718L25.4047 246.81L26.4627 246.462L26.9984 245.926H27.1725V247.199ZM27.1725 225.704L25.9136 227.137L25.4047 225.678L27.1725 225.704ZM25.7529 221.272V220.562H26.2886V220.736L25.7529 221.272ZM25.5654 209.728H25.2172V208.308L25.5654 207.598V209.728ZM25.7395 228.905V229.253H25.4047L25.0431 228.905H25.7395ZM29.3018 301.53L28.9402 300.82H29.3018V301.53ZM30.3598 296.776V296.602L30.7214 296.24L30.3598 296.776ZM31.6052 294.821V294.285L31.7793 293.937L31.9534 293.401V294.647L31.7793 295.182L31.6052 294.821ZM32.6632 301.932L31.9534 301.035L32.6632 300.499V301.932ZM32.1007 285.339L31.7392 284.804H32.623L32.1007 285.339ZM34.056 302.923L33.6944 303.285V302.387H34.056V302.923ZM37.2433 277.706H36.8951V277.532H37.2433V277.706ZM37.2433 272.563H36.5335L37.4174 271.853L37.2433 272.563ZM37.779 280.598L38.3147 279.54V280.25L37.779 280.598ZM38.3147 302.441V302.802L37.9531 302.441H38.3147ZM38.8369 304.396H38.5289L38.3548 303.86H38.8771L38.8369 304.396ZM39.3726 286.277H38.8369V285.393H39.3726V286.277ZM39.9083 271.907L39.1985 272.617V272.443L39.7342 271.545L39.9083 270.836H40.2565L39.9083 271.907ZM41.6894 279.942L41.1538 279.581L40.7922 279.045H41.1538L41.6894 279.581V279.942ZM42.3992 277.264H42.0376L41.502 277.625L41.1538 277.264L42.0376 276.38L42.3992 277.09V277.264ZM54.211 319.422V319.074H54.5592V319.422H54.211ZM54.211 310.048V308.829H55.269V309.887L54.211 310.048ZM56.0189 334.274H55.3092L54.5994 332.493V331.957L55.1217 331.247L55.6574 331.783L55.1217 332.667L56.0189 333.202V334.274ZM56.7287 337.1H56.3671V336.952L56.7287 336.604V337.1ZM57.7867 339.055L57.6126 339.59L57.2644 339.055L57.7867 338.345V339.055ZM57.2644 334.796L57.0903 334.448V333.912H56.7287V332.841H57.0903L57.7867 334.448L57.2644 334.796ZM57.2644 300.164H56.9028V299.454H57.6126L57.2644 300.164ZM57.6126 300.526V301.236L57.2644 301.597V300.887L57.6126 300.526ZM57.9742 335.345L59.3937 334.809L58.1483 338.291V337.582L58.4965 336.524L57.9742 335.345ZM58.4965 312.431V311.507H59.7419L58.8581 312.391L58.4965 312.431ZM61.5633 339.751L60.666 339.403V338.693L61.9114 338.332L61.5633 339.751ZM63.3444 337.622H62.6346L61.6972 335.613H60.9874L60.4651 336.858L61.1615 336.149V337.033L61.6972 337.394L61.1615 338.104L60.4651 337.22H59.9294L59.5678 337.568H59.2063L60.8133 334.381H61.1615L61.5231 334.729L61.8713 333.845L62.2329 333.658V333.845L62.9426 334.381L62.407 335.091V335.613L62.9426 335.265L63.6524 337.033L63.3444 337.622ZM60.8535 311.882L61.2017 310.998L61.5633 310.811V311.882H60.8535ZM62.273 311.882V311.507L62.6346 311.333V311.507L62.273 311.882ZM63.6926 311.347L63.1569 310.998L63.3444 310.811L63.6926 310.998V311.347ZM79.4952 342.309L78.9863 343.233L75.1696 344.974L76.5088 342.497L77.9149 343.273L78.7988 342.751L79.4952 342.309ZM79.147 339.269L79.2408 339.108L79.4015 339.202L79.3077 339.349L79.147 339.269ZM76.4686 346.943L75.9865 347.09L76.107 346.139L76.5891 345.992L76.7231 346.487L76.4686 346.943ZM79.9505 350.96L78.8658 350.344L79.8434 349.675L80.4728 350.023L79.9505 350.96ZM80.8076 349.407L81.3835 349.099L81.1156 349.568L80.8076 349.407ZM82.7361 352.889L82.4013 353.13L82.1736 352.795L82.9102 352.581L82.7361 352.889ZM84.0753 350.572L83.9146 350.478L84.0887 350.17L84.3297 350.103L84.0753 350.572ZM88.5214 356.089H88.1331L88.5616 355.313L88.8696 355.473L88.5214 356.089ZM89.4857 350.331L89.6999 351.054L88.575 353.063L88.883 353.237L88.1465 353.84H87.5037L86.2984 354.188L86.0975 353.465L86.7001 352.38H85.6689L86.3519 351.148L85.6957 351.59L84.7449 351.469L84.4369 351.295L84.919 351.161L85.0127 351L84.7181 350.438L87.209 347.76L86.593 347.411L85.4681 347.612L84.5172 347.492L84.6645 347.974L82.5084 351.858L82.0263 351.991L81.6781 352.608L81.3701 352.447L81.9058 351.108V350.317L82.562 349.862L83.5932 348.001L83.4592 347.519L82.562 348.041L81.6112 347.92L80.9549 348.362L80.6469 348.202H79.8568L80.1112 347.733L80.9951 347.612L81.5978 346.528V345.885L79.9639 347.01L80.9951 345.148L81.7183 344.934L82.6423 345.456L82.9102 344.987L83.0977 344.291L83.4459 343.662L84.169 343.461L83.6735 344.987L82.6423 346.849L83.2718 347.197L83.9548 345.952L84.5708 346.3L85.1065 346.795H85.5082L86.0171 345.871L87.1019 346.474L88.1733 345.644L89.0437 345.925L89.5526 344.987L90.0348 344.854L90.2222 344.144L90.691 344.398L91.1731 344.264L91.6418 344.519L90.008 345.644L89.6999 345.47V346.661L90.316 347.01L89.1643 347.987L89.2982 348.469L89.633 348.255L90.4097 348.684L89.9678 349.447H89.1777L88.9232 349.916L89.4857 350.331ZM80.1112 343.876L80.4326 343.662L80.2719 343.97L80.1112 343.876ZM84.7047 344.398L84.8654 344.09L85.0261 344.171L84.852 344.479L84.7047 344.398ZM85.2002 343.863L85.535 342.309L86.1644 342.657L85.6689 343.648L85.2002 343.863ZM88.0393 344.224L88.5616 343.287L88.9768 344.746L88.0393 344.224ZM91.4543 350.17H91.1999L90.5838 349.822H90.9722L91.4543 350.17ZM91.6686 354.188L91.3606 354.014L91.5347 353.706H91.9364L91.6686 354.188ZM93.3158 351.228L93.1149 351.938L92.365 352.929L92.7399 353.344L92.5658 353.665L92.0971 353.398H91.307L89.9678 351.67L90.2222 351.201L90.999 351.63L90.9052 352.192L92.7935 350.599L93.4765 349.353L94.1059 349.701L93.3158 351.228ZM95.0434 349.42L94.8961 349.34L94.6684 349.005L95.1371 349.259L95.0434 349.42ZM96.3826 354.643L96.9049 353.719L97.9896 354.322L96.3826 354.643ZM97.5075 350.8H97.8959L97.8155 350.96L97.5075 350.8ZM99.3958 353.264H98.753L98.5923 353.17L99.1012 352.634L99.9047 352.286L99.3958 353.264ZM98.4851 348.295H98.8869L99.1949 348.469H98.7932L98.4851 348.295ZM100.4 346.327L100.092 346.166L100.574 346.019L100.4 346.327ZM104.096 358.379L103.614 358.513L103.788 358.205L104.27 358.071L104.096 358.379ZM104.096 348.456H103.708L103.48 348.121L103.829 347.492H104.23L104.445 347.827L104.096 348.456ZM109.56 360.201L108.221 361.111L108.904 359.866L110.056 359.277L109.56 360.201ZM112.44 356.183L112.52 356.009L112.828 356.197L112.44 356.183ZM113.243 355.808V355.42L113.498 355.339L113.243 355.808ZM115.332 355.339L114.756 355.634L115.198 354.857H115.587L115.332 355.339ZM115.975 353.465H115.573L116.002 352.701L116.484 352.567L115.975 353.465ZM116.792 358.58L116.631 358.5L116.886 358.031L116.792 358.58ZM116.551 350.96L117.047 350.8L116.698 351.429L116.551 350.96ZM117.127 354.308L116.899 353.973L117.207 354.148L117.127 354.308ZM118.064 352.969L118.399 352.353L118.868 352.608L118.064 352.969ZM121.332 364.339H120.823L121.078 364.098H121.586L121.332 364.339ZM121.104 356.304L121.426 356.089L121.252 356.397L121.104 356.304ZM121.814 364.888L122.082 364.634L122.189 365.263L121.814 364.888ZM123.327 358.192L122.859 357.938L123.019 357.616L123.582 357.723L123.327 358.192ZM125.216 364.888L124.948 365.892L124.318 366L124.452 365.638L124.198 365.384L123.957 364.875H124.506L125.269 364.125L125.631 364.5L125.216 364.888ZM123.876 361.486L124.01 361.353L124.131 361.727L123.876 361.486ZM125.028 357.348V356.96L125.175 357.04L125.028 357.348ZM125.966 364.901V364.406L126.207 364.66L126.327 365.276L125.966 364.901ZM126.233 363.897L125.617 363.268L125.256 362.129L126.595 363.535L126.233 363.897ZM127.385 362.29L127.01 362.41L127.278 361.661L127.519 361.915L127.385 362.29ZM127.827 358.152V358.647L127.305 359.143L126.073 357.871L126.97 357.014L125.711 356.732L126.729 356.505L127.84 357.147L127.827 358.152ZM127.332 355.393L127.506 355.072L127.814 355.246L127.332 355.393ZM128.577 358.406L128.336 358.152L128.577 357.911V358.406ZM128.724 373.606L128.979 373.365L129.086 373.995L128.724 373.606ZM129.327 358.165L129.086 357.911L129.34 357.67L129.327 358.165ZM130.01 363.696L130.372 364.085L130.251 364.218L130.01 363.696ZM130.867 373.258L130.626 373.004L130.881 372.763L130.867 373.258ZM130.412 369.99L130.318 368.357L131.162 370.004L130.412 369.99ZM131.148 363.093L130.894 362.839L130.787 361.714L131.041 361.46L131.282 361.714L131.148 363.093ZM131.148 357.938L131.229 357.777L131.456 358.098L131.148 357.938ZM131.63 360.616V359.357L131.764 359.237L132.246 360.254L131.858 361.379L131.63 360.616ZM132.327 372.816L132.206 372.682L132.581 372.562L132.327 372.816ZM136.344 378.521L135.206 378.374L135.353 377.503L136.693 378.146L136.344 378.521ZM134.858 368.075V367.58L135.728 367.968L136.344 368.598L135.474 368.718L134.858 368.075ZM136.385 376.258L136.264 375.628H136.76L137.001 376.392L136.385 376.258ZM137.175 365.102L136.947 363.589H137.202L137.295 364.928L137.175 365.102ZM137.938 364.607V364.352L138.434 364.861L137.938 364.607ZM138.514 367.499L139.036 367.017L139.652 367.647L139.398 367.901L138.514 367.499ZM139.331 363.241V362.491L139.585 362.745V363.509L139.331 363.241ZM138.889 376.298V375.053L139.518 375.682L138.889 376.298ZM139.465 379.7L139.599 379.325L139.96 379.7H139.465ZM139.987 369.789L140.242 369.535L140.509 369.04L140.63 369.415L140.108 369.923L139.987 369.789ZM140.576 383.824V383.57L140.831 383.329L140.576 383.824ZM141.715 375.294L141.46 375.039L141.715 374.798V375.294ZM143.054 379.472L142.692 379.084L143.067 378.709L143.054 379.472ZM143.482 376.579L142.974 376.07L143.75 375.334L143.857 375.963L143.482 376.579ZM143.174 371.932L142.291 372.039L142.398 372.923L142.773 373.807L142.505 374.062L141.889 373.914L142.049 371.53L141.286 371.276L141.045 371.022L141.313 370.781L141.554 371.035H142.558L142.799 371.289L143.174 371.423L144.42 372.763V373.512L143.911 374.008L143.174 371.932ZM142.853 368.29H143.255V368.798L142.853 368.29ZM144.326 378.481V378.227L144.447 378.347L144.326 378.481ZM146.429 380.396L145.799 380.517L145.317 380.008V379.499L144.835 378.481L145.719 378.119L145.826 379.003L146.563 379.767L146.429 380.396ZM147.138 383.664L146.643 383.155L147.286 382.539L147.138 383.664ZM147.353 378.026L146.844 378.521L146.469 378.133L146.978 377.637L147.353 377.53V378.026ZM147.42 373.245L147.688 372.254L148.049 373.138L147.42 373.245ZM149.161 382.94L149.04 382.82V381.816L148.049 380.798L147.929 380.168L148.183 379.927L148.304 380.048V380.543L149.415 381.695L149.161 382.94ZM150.5 384.601L150.888 383.731L151.384 384.24L150.754 384.856L150.5 384.601ZM151.29 379.807V380.155H151.102V379.807H151.29ZM151.102 368.263V367.915H151.29L151.102 368.263ZM151.504 385.94H150.995L151.129 385.324L151.759 385.699L151.504 385.94ZM152.843 378.909L152.482 379.271V378.735L152.843 378.387V378.909ZM153.915 381.588V380.704H154.611L153.915 381.588ZM156.044 381.588H155.683V381.24L156.044 380.704L156.392 380.878L156.044 381.588ZM156.392 380.168L156.044 379.82H156.392V380.168ZM156.754 379.284H156.392L155.87 378.749L155.147 380.356L154.089 379.82L153.553 380.704H153.192V380.168L153.031 379.82L153.553 379.459L154.263 378.923L154.611 379.459V378.749L155.147 377.503H154.263L153.553 378.923L153.192 378.749V377.865L154.263 376.981H155.683V377.503L156.754 378.749V379.284ZM155.683 375.548L156.044 375.026L156.392 375.374L156.928 375.548L156.754 375.91L157.102 376.794L156.392 377.503V377.329H156.044L155.683 375.91L154.437 376.619V376.097L154.973 375.548H155.683ZM155.334 374.303V374.129L155.683 373.606V373.954L155.334 374.303ZM156.754 374.678V374.303H157.464L157.102 374.678H156.754ZM157.812 380.168H157.102V378.401L157.812 378.923V380.168ZM157.812 375.548V375.026L158.173 375.374L157.812 375.548ZM161.722 377.503L161.361 378.923H160.839V378.749H161.187V377.865L160.839 377.329L161.548 376.794L162.071 376.981L161.722 377.503ZM161.187 374.678V374.129H161.722L161.548 374.678H161.187ZM161.722 370.406V370.231L162.071 369.87L161.722 370.406ZM162.245 376.097L162.071 374.303H162.245L163.316 375.374L162.245 376.097ZM165.445 379.284V378.923H165.807L165.445 379.284ZM166.155 374.678L166.517 374.129H166.878L166.155 374.678ZM167.401 372.896H167.36L167.535 371.825H167.896L167.401 372.896ZM168.646 380.168V379.459L168.82 379.284L169.182 379.459L168.646 380.168ZM172.021 381.588L171.659 381.24H172.021V381.588ZM172.021 372.896H171.378L171.726 372.187H172.088L172.021 372.896ZM172.731 380.168L172.543 379.82H172.731L173.092 380.168H172.731ZM172.369 374.129L172.543 373.606L172.731 373.954L172.369 374.129ZM173.963 380.825V380.65L174.15 380.476L173.963 380.825ZM175.222 379.405V379.231H175.57L175.222 379.405ZM176.28 374.249L175.931 374.075H176.28V374.249ZM176.989 381.896H176.735V380.825H177.445L176.989 381.896ZM176.989 371.597V371.062H177.351L176.989 371.597ZM178.235 381.896L177.873 381.534H178.235V381.896ZM179.119 381.896V381.534L179.306 381.186L179.119 381.896ZM179.306 379.218L179.119 379.392V378.856H179.413L179.306 379.218ZM183.029 379.218L182.145 379.753L182.855 378.682H183.029V379.218ZM182.855 376.03V375.843L183.029 376.03H182.855ZM182.145 374.611V374.236L181.784 374.062L181.248 374.236L181.784 373.887H182.681L183.029 375.133L182.145 374.611ZM183.029 373.539L182.855 373.178L183.029 372.83H183.203L183.565 373.178L183.029 373.539ZM184.636 374.959V374.611L184.984 374.236V373.178H186.109V374.611L185.761 374.959L186.109 375.307L185.051 376.03V375.481L185.413 375.307V374.959H184.636ZM186.042 380.637L185.694 380.811V379.807L186.766 378.909L186.404 379.445L186.042 380.637ZM188.172 379.753V380.637H187.288V380.463L186.766 380.101L186.94 379.753L187.288 379.218H188.359L188.172 379.753ZM187.462 374.959H186.94L186.766 372.83H187.462L187.288 373.178H188.172L188.359 373.887L187.462 374.959ZM188.721 381.173V380.463H189.243L188.721 381.173ZM189.779 380.101L189.605 379.753L189.779 379.218V380.101ZM189.605 375.481L188.895 375.307L190.314 374.423V374.959L190.127 375.307L189.779 375.843L189.605 375.481ZM189.243 374.236V374.062H189.605V374.236H189.243ZM190.462 386.771L190.127 386.503V386.155H190.489L190.462 386.771ZM192.256 375.843H191.734L192.256 374.236V375.843ZM193.301 387.119H193.127V386.771H193.301V387.119ZM195.069 387.119V386.771L195.256 386.409L195.604 386.771L195.256 387.119H195.069ZM195.966 387.467H195.604L196.314 386.222L196.676 386.771L195.966 387.467ZM197.56 376.646H197.734V376.82L197.385 376.994L197.56 376.646ZM197.385 375.401H197.56L197.734 375.575H197.56L197.385 375.401ZM198.443 378.079V379.311L197.734 379.499V378.079H198.443ZM199.876 380.209L198.979 380.557L197.734 381.092H197.56L198.443 380.209L199.876 379.499V380.209ZM199.153 375.053V374.878L199.515 375.053H199.153ZM201.283 383.222L200.225 383.757V383.222L200.573 383.048L200.934 382.164H201.283V383.222ZM202.715 384.467L202.006 385.003H201.644L202.715 383.931V384.467ZM214.768 378.36V377.999H214.942L214.768 378.36ZM214.768 377.289V376.753H214.942L214.768 377.289ZM218.491 377.999L217.781 378.709L217.607 379.418H217.42V378.709L217.781 377.651H218.491V377.999ZM217.607 377.289V376.579L217.781 376.753L217.607 377.289ZM218.853 376.579H218.491L218.143 375.869L218.491 375.508L218.853 375.869V376.579ZM220.982 375.334H220.621L220.982 374.986V375.334ZM223.46 380.128V378.36L223.995 378.709L223.46 380.128ZM223.995 376.579L223.46 375.869L223.995 375.508L224.357 376.231L223.995 376.579ZM227.906 380.49V378.735H228.254L227.906 380.49ZM229.325 376.927H228.616L228.254 376.231L227.544 376.927V375.869H229.325V376.927ZM229.5 380.49L230.035 379.418L230.383 380.128L230.035 380.49H229.5ZM230.919 382.967H230.383V382.485H230.919V382.967ZM233.758 381.012H233.223V380.128L233.41 379.767V380.49L233.758 380.664V381.012ZM234.468 381.909L234.294 381.548H234.468V381.909ZM233.946 376.753V378.709H233.223V375.334H233.946L233.758 375.508V376.044L234.468 375.508L233.946 376.753ZM237.133 376.927L236.959 377.651V378.709L237.133 379.057L236.785 379.606L236.249 378.709L235.888 378.36L236.249 377.999L236.597 376.927L237.133 376.579V376.927ZM236.959 375.508V374.798H237.669L238.03 375.334L236.959 375.508ZM238.378 376.753H238.03L238.378 376.579V376.753ZM239.436 382.967H239.088V382.619L239.436 382.432V382.967ZM238.727 378.36V377.999H239.088L238.727 378.36ZM240.16 379.418H239.798V378.709L239.624 378.36L240.16 377.999L240.508 379.057L240.16 379.418ZM240.508 375.869V374.986H240.856L241.043 375.869H240.508ZM241.579 377.651L241.392 377.289L241.579 376.927V377.651ZM241.043 371.075H240.16L241.392 370.017H241.579L241.043 371.075ZM242.289 370.191V370.017H242.999L242.289 370.191ZM243.347 378.36V377.999L243.534 378.36H243.347ZM244.418 373.553L243.709 374.088L244.231 372.843L244.418 373.03V373.553ZM245.664 377.289L245.128 376.405L246.186 376.753L245.664 377.289ZM246.374 374.088V373.111H247.431L246.374 374.088ZM247.793 377.999V377.651L248.141 377.999H247.793ZM248.141 375.508H248.851V376.927H248.503V376.231L248.141 375.508ZM249.213 381.548H248.851V380.128L249.561 378.883L250.458 379.418L249.735 379.606L249.213 381.548ZM250.458 380.302L250.98 379.767L251.878 378.534V379.057L250.98 380.664L250.458 380.302ZM250.98 382.619H250.632L251.342 382.083L251.516 382.432L250.98 382.619ZM252.052 380.128L251.878 380.664V379.606L252.762 378.173L253.297 378.709V379.418H252.762L252.052 380.128ZM252.226 374.986H253.297V376.753L252.936 376.927L252.762 376.753V375.869L252.226 374.986ZM255.775 381.909H255.427L255.065 382.432H254.409L254.061 382.967L253.873 382.619L254.061 382.083L255.119 381.722L254.583 381.2L253.873 381.548L253.351 381.012L255.306 380.664L255.828 381.012L255.775 381.909ZM253.82 372.133V371.959L254.007 371.597V371.959L253.82 372.133ZM254.355 377.289L254.717 376.927V377.289H254.355ZM257.917 382.432L256.846 382.083L257.556 381.909L257.917 382.083V382.432ZM257.917 380.664L257.556 380.49V380.128L257.917 380.49V380.664ZM257.194 379.954L255.427 379.418V378.36L256.136 377.999H256.846V379.057H257.556L257.917 379.418L257.194 379.954ZM256.672 376.579V376.231H256.846V376.753L256.672 376.579ZM259.35 376.231L258.641 376.927L257.395 376.231L258.641 375.508V372.495H259.176V375.508L258.989 375.869V376.231H259.35ZM258.279 378.36L259.35 377.289L259.699 376.753V379.057H258.279V378.36ZM260.582 380.128L260.06 380.664H259.699L260.582 379.418V380.128ZM261.841 380.664L261.48 380.128H261.105V379.807H262.176L261.841 380.664ZM262.538 373.379L262.364 373.03V372.843H262.538V373.379ZM262.899 380.302L263.248 379.606L264.145 380.49L263.073 381.012L262.899 380.302ZM262.899 377.999L263.957 377.289V378.36L263.783 378.709V378.36L262.899 377.999ZM264.319 382.619H263.783L264.319 382.083L264.855 382.432L264.319 382.619ZM266.274 377.999L265.913 377.651V376.579L266.274 376.927V377.999ZM266.274 372.843H265.738L266.274 371.959V372.843ZM269.019 373.821L268.671 373.633V371.865H269.019L269.381 372.575L269.019 373.821ZM277.055 377.369L276.519 377.718V376.66L277.055 376.298H277.403L277.055 377.369ZM276.693 366.897V366.535L277.055 366V366.535L276.693 366.897ZM278.474 375.053H277.403L278.474 373.821V375.053ZM279.184 380.744V380.396H279.546L279.184 380.744ZM280.429 370.446L279.894 369.91L280.255 368.665L280.429 369.736L280.778 370.446H280.429ZM283.269 372.575L283.095 372.749V372.227H283.269V372.575ZM285.572 375.588H285.036L285.398 375.24H285.746L285.572 375.588ZM316.682 347.666H316.508L316.682 347.13V347.666ZM321.664 335.774L320.94 336.483L320.592 337.019L320.418 336.483L320.766 335.238H321.664V335.774ZM323.07 347.492L322.722 346.782H323.07V347.492ZM323.07 343.769H322.708V343.407L323.056 343.046L323.07 343.769ZM323.07 335.064L323.431 334.341H324.851V335.426L323.431 336.135L323.07 335.064ZM325.561 344.653V346.072H324.329L325.199 344.304V343.046H325.561L325.735 343.769L325.561 344.653ZM326.27 338.974L325.199 340.206V339.51L325.735 338.439H326.27V338.974ZM327.516 337.193H327.154V337.019H327.516V337.193ZM327.154 334.341L327.69 333.644V334.341L328.226 334.18V334.341L328.052 334.702V336.483H327.516V335.064L327.154 334.341ZM328.574 338.974H328.226L327.864 339.055L327.69 338.974L328.052 338.091L328.574 338.439V338.974ZM329.993 336.483H329.645L329.377 336.658L328.936 336.483L329.645 336.135L329.993 335.238H330.355L329.993 336.483ZM329.645 333.283V333.644L329.297 334.18L328.936 333.832V333.644H329.297L329.645 333.283ZM329.471 332.573V332.225H329.645V332.573H329.471ZM330.717 334.341L330.355 334.18L330.717 333.832H330.891L330.717 334.341ZM333.904 332.399L333.368 331.877L333.904 330.979L333.368 330.444H331.775L331.426 329.024L331.775 328.314L332.31 329.734H333.194L333.368 329.908L333.904 329.734L334.266 330.095L333.904 332.399ZM331.426 324.23L331.775 323.172L332.31 324.94L332.136 325.301V326.011L331.775 326.185L331.426 326.011L331.775 324.765L331.426 324.23ZM333.904 326.707H334.627L335.149 327.417L334.788 328.488H333.904V327.966L334.266 327.243L333.904 326.707ZM334.627 323.172L333.904 323.52V323.172H334.627ZM333.904 316.061V314.815L334.266 315.525V316.061H333.904ZM334.627 323.52V323.868L334.266 324.23V323.868L334.627 323.52ZM335.685 317.132L336.033 317.48V318.016L334.788 318.552L335.324 318.016V317.48L335.685 317.132ZM335.324 310.556V310.369H335.685L336.221 310.208V310.556H335.324ZM335.685 323.52L335.149 323.868L335.324 323.346L335.685 323.52ZM335.324 319.074L335.149 319.435V319.074H335.324ZM335.324 322.1L335.149 322.449H334.627V321.752L335.324 322.1ZM336.569 333.644L336.033 334.18L335.324 335.064L334.627 335.774V335.238L334.788 334.702V334.18L335.324 333.832L336.569 332.573V333.644ZM338.163 329.734V329.386L338.524 329.734H338.163ZM338.524 318.016L337.989 317.654V316.596H338.524V318.016ZM338.163 309.847V308.963L338.698 309.847H338.163ZM338.872 327.256L339.408 326.198L339.77 327.256H338.872ZM341.189 327.082L340.841 326.547H341.189V327.082ZM341.189 323.533H340.479V322.824L341.189 323.359V323.533ZM340.118 316.074V315.712H340.479L340.118 316.074ZM341.551 313.771V312.699L342.247 313.771H341.551ZM342.97 321.042L343.319 319.984L343.68 320.333L343.319 321.042H342.97ZM343.68 321.766V321.404L343.854 321.766H343.68ZM344.738 318.565L344.202 318.913L344.39 318.203H344.738V318.565ZM345.1 311.293H344.738L345.1 310.931V311.293ZM347.229 323.346V323.56L346.519 323.386H346.158V322.489L346.693 322.141H347.229L346.693 322.85L347.229 323.346ZM347.577 321.029H347.229V320.681H347.765L347.577 321.029ZM348.823 317.48H348.474L348.823 317.132V317.48ZM349.532 318.9L349.171 319.074V318.552H349.492L349.532 318.9ZM350.952 309.137L350.416 310.369H350.242V309.485L351.314 308.427L351.662 308.601L350.952 309.137ZM355.09 303.994L354.729 303.633V302.561L355.09 303.633V303.994ZM355.452 304.517L356.336 303.633L356.858 304.168L356.336 305.052V305.588H355.8L355.452 304.517ZM355.09 294.928V294.392L355.452 294.928H355.09ZM356.51 306.981L356.336 306.807L356.51 306.271H357.045L356.51 306.981ZM357.581 303.07L356.858 303.432L356.336 302.896L356.51 302.535H357.581V303.07ZM358.277 306.445L358.103 306.271H358.277V306.445ZM359.175 305.561L358.987 305.909L358.465 305.561L358.987 305.026H359.175V305.561ZM359.523 303.606H358.987V303.07H359.523V303.606ZM358.987 300.405V301.838H357.648V301.477L358.344 300.405L358.706 299.347L359.242 298.986L360.126 299.16L358.987 300.405ZM363.795 303.432L363.072 302.896H363.795V303.432ZM362.188 303.07L362.898 304.316L362.014 303.968H360.942V301.865L362.188 301.142L360.768 300.794L361.304 299.736L362.898 300.432V301.678L363.795 301.865L362.188 303.07ZM362.014 287.803L362.375 287.442H362.724L362.014 287.803ZM364.143 306.807V306.445L364.491 306.807H364.143ZM364.853 298.276V297.928H365.215L364.853 298.276ZM367.344 274.84H366.808L366.634 274.492L367.344 273.059V274.84ZM368.054 300.767L368.228 300.405H368.576L368.054 300.767ZM368.75 298.276L368.576 298.638V298.276L368.75 297.74V298.276ZM369.112 260.992H368.75L369.112 260.631H369.473L369.112 260.992ZM369.996 294.365H369.647V294.098L369.996 293.924V294.365ZM369.996 280.518H369.647L369.996 280.17V280.518ZM370.531 274.84H370.183L370.531 274.492H370.705L370.531 274.84ZM371.067 275.724V275.014L371.428 275.376L371.067 275.724ZM370.705 273.956V273.594H371.067V274.01L370.705 273.956ZM372.138 269.336H371.964V269.162H372.138V269.336ZM374.268 269.336H373.906L374.268 269.162H374.616L374.268 269.336ZM375.125 232.2C374.71 245.779 369.38 255.221 364.518 266.872L365.027 267.381L364.491 268.278L364.143 267.916V267.769C363.661 268.947 363.179 270.139 362.71 271.371L364.143 268.988H364.491V270.046L364.853 270.407L364.143 270.581V268.988C363.782 270.086 363.393 271.184 362.978 272.269L364.143 271.117H364.853V271.465H364.143L363.433 272.523L363.072 272.885L362.898 273.246V273.059L362.724 272.885C357.233 286.893 347.296 299.026 335.94 309.257L335.658 309.82L335.498 309.646C334.069 310.931 332.623 312.186 331.159 313.409C325.413 318.19 322.548 322.489 319.213 329.171C314.914 337.3 308.218 337.769 301.535 343.032C290.203 351.846 277.437 358.642 263.797 363.12C255.641 365.491 247.726 367.995 239.811 370.245L239.945 370.392L239.41 371.102V370.432L237.079 371.089V372.24H236.999V371.129C232.339 372.468 227.625 373.566 222.777 374.557L222.951 374.905L222.777 375.093V374.45C221.813 374.651 220.862 374.865 219.897 375.039C210.362 376.807 199.809 374.919 189.497 373.03L189.337 373.191H188.989V372.937L186.19 372.441L185.788 372.843V372.481H185.44L185.533 372.321C183.578 371.972 181.663 371.651 179.748 371.356V371.423H178.864L179.065 371.249C178.981 371.262 178.895 371.262 178.811 371.249C151.585 366.964 128.644 355.969 104.766 342.122C92.754 335.449 81.7816 327.058 72.1965 317.212V317.212C70.7816 315.853 69.4658 314.394 68.2593 312.847C67.4959 311.949 66.7594 311.039 66.0362 310.101C65.5943 309.472 65.1657 308.762 64.697 308.186C62.5007 305.173 60.1303 301.718 57.6796 298.048H57.5858L56.876 298.745H56.2064L55.4967 299.106H55.1351L56.5546 297.687L57.3046 297.432L55.3761 294.486H55.1351L54.9744 293.883C46.832 281.281 38.4352 267.314 34.4845 260.618C33.5894 259.341 32.7925 257.998 32.1007 256.6C30.832 254.059 29.8181 251.399 29.0741 248.658L28.7527 248.779L28.9268 248.15C27.7603 243.252 27.2247 238.224 27.3332 233.191C27.3332 232.146 27.3332 230.954 27.3332 229.668V229.776L27.1457 229.602V231.731H26.4359V231.155H25.9002V230.097L26.7975 228.316L27.4001 228.811C27.5608 223.789 27.8822 217.334 27.8956 210.812L27.3332 211.268L27.6814 210.022L27.8956 210.237C27.8956 199.349 26.985 188.434 23.0209 183.948L24.936 184.417V182.542C25.4181 172.029 28.284 156.253 32.1007 147.187C37.3638 134.277 40.2297 121.863 46.4436 109.448C49.2961 103.234 54.5592 98.4532 58.8581 92.7214C62.2061 88.4225 64.5899 82.6774 68.4066 78.3919C70.1646 76.3845 72.0765 74.5174 74.125 72.8074V72.3923L74.808 72.2316C76.0534 71.2004 77.3525 70.1826 78.6515 69.1916H78.5712V68.6559L78.9193 67.9461V66.5266L79.2809 65.8168V64.3972L80.1648 65.2811L80.7005 65.107L81.0487 64.3972H81.7585L82.12 63.6874H82.9905L83.7003 64.9329L82.8164 65.6293L81.7451 65.107L81.2228 65.4686V66.5266L80.3255 67.5845L80.1514 67.9461L79.7898 68.2943C86.7939 63.125 94.2131 58.2235 99.061 51.7016L98.5789 50.7507C110.993 38.805 134.403 33.0732 150.647 28.7744L151.129 29.2565C167.416 23.491 184.582 20.6088 201.858 20.7391V20.7391H202.381V20.8061C210.736 20.9521 219.035 22.204 227.062 24.5291C238.526 27.8771 249.039 31.6938 260.984 35.0285C265.216 36.1668 269.769 37.131 274.175 38.5238L274.269 38.2024L274.778 38.3765L274.216 38.5372C277.256 39.4374 280.188 40.6679 282.961 42.2066C290.125 46.0233 295.857 52.2372 303.049 56.5361C312.785 62.6295 325.279 68.3747 334.962 75.8206L335.457 75.4992L335.123 75.9412C336.194 76.7715 337.225 77.6152 338.216 78.4723L338.551 78.5928V78.7401C339.006 79.1419 339.462 79.5302 339.89 79.9454C349.358 88.9448 358.344 110.586 359.898 123.537C368.817 146.008 377.133 165.387 376.196 190.778C376.196 191.648 376.196 192.519 376.129 193.456L375.794 193.644V206.125C375.794 206.648 375.794 207.183 375.794 207.719V216.424L376.852 215.352V216.25L375.968 217.134H375.794V218.727L376.142 218.192H376.504V218.727L375.567 219.665C375.415 223.861 375.268 228.048 375.125 232.226V232.2ZM376.035 221.566L377.107 220.508L377.616 219.102L378.325 218.379L377.616 221.245L376.37 221.955L376.035 221.566ZM377.816 225.303H377.107V222.624H377.816V225.303ZM378.526 226.012L378.165 225.477L378.7 224.941L379.41 223.522H379.946L378.526 226.012ZM379.584 113.814H380.294V114.001H379.932L379.584 113.814ZM380.482 222.289H380.656V222.651H380.12L380.482 222.289ZM381.004 226.736H380.482V226.374H381.004V226.736ZM382.611 225.49V226.2L382.249 226.736L381.901 226.374V225.316L381.004 223.361L381.901 222.289V221.231L382.249 220.87V219.638L382.611 219.102L383.147 221.044L382.249 222.477V224.954L382.611 225.49ZM384.74 218.379L384.379 218.741L384.03 218.379L384.74 217.147V218.379ZM383.495 200.353H384.205L384.379 200.701H384.205L383.495 200.353ZM385.276 198.76L384.914 199.295H384.566V198.76L384.205 199.644L383.669 199.295L384.379 198.586H385.651L385.276 198.76ZM384.379 193.965H384.205V193.43L383.495 193.081L384.205 192.72L384.379 192.358L384.205 191.662L384.914 191.3V192.318H385.276L385.624 191.622L385.986 191.434L386.695 191.97L385.798 192.318L385.624 192.68L384.379 193.965ZM386.16 222.37H385.798V220.95L386.16 220.24V222.37ZM387.044 194.488V195.385L386.334 194.849L387.044 194.488ZM388.115 225.919H387.753L388.115 225.396V225.919ZM387.928 223.977L388.289 222.731L388.825 223.267L387.928 223.977ZM388.825 201.425H388.115L388.825 200.701V201.425ZM387.753 200.005H388.477L387.405 200.527L387.044 201.063L386.521 200.701L387.405 199.644L388.289 198.398L388.825 198.76L387.753 200.005ZM388.825 197.862H388.329L388.691 196.63L388.155 196.269V196.63L388.329 196.804L388.155 197.153L386.91 196.63L387.084 195.907H387.794L388.329 194.849L388.517 195.385V195.907L388.865 196.269L388.825 197.862ZM389.36 149.249V149.611L388.999 149.249H389.36ZM389.709 226.28V226.816L389.173 226.28L389.709 225.571H390.244L389.709 226.28ZM392.735 222.731H391.316L390.07 221.66L391.49 219.879V220.24L391.316 221.124L391.49 221.66H392.735V222.731ZM393.083 202.121V201.693H393.445L393.083 202.121ZM393.445 196.764H392.909V196.59H393.445V196.764ZM395.213 215.942L394.865 217.361H394.155L393.967 216.651L395.213 215.942ZM394.155 221.981L395.574 220.562L396.646 220.2L397.168 219.678H397.342V220.91H396.646L395.923 221.62H395.213L394.503 221.981H394.155Z" fill="#C2E978"/>
<path d="M368.041 231.838C367.639 244.748 362.577 253.707 357.956 264.783L358.438 265.278L357.929 266.122L357.595 265.787V265.64C357.139 266.765 356.684 267.903 356.255 269.068L357.595 266.805H357.929V267.809L358.278 268.144L357.595 268.318V266.805C357.26 267.849 356.885 268.894 356.497 269.925L357.595 268.827H358.278V269.162H357.595L356.925 270.166L356.59 270.514L356.416 270.849V270.688L356.255 270.514C351.019 283.826 341.524 295.357 330.811 305.066L330.529 305.615L330.369 305.454C329.029 306.673 327.69 307.865 326.257 309.03C323.85 310.992 321.692 313.241 319.829 315.726C313.013 318.846 304.361 322.984 300.786 325.462C295.429 329.198 295.429 332.921 284.916 337.394C267.614 344.773 245.771 324.832 245.717 324.792C232.125 304.436 217.474 276.045 217.474 276.045L230.41 280.692L232.339 279.085L217.353 273.728L217.219 271.05L219.898 270.581L230.959 273.595L234.441 275.992L236.423 275.068L242.436 276.701L257.168 278.201L258.105 276.353L243.843 274.894L233.049 271.961L227.357 268.01L216.978 266.751L216.817 263.55L230.21 267.648L254.904 267.421L262.538 271.304L265.31 278.268L268.939 277.786L267.332 273.769L273.935 277.143L276.613 275.804L264.011 269.376L278.341 270.26L278.997 268.385L259.726 267.206L256.552 265.586L231.388 265.827L227.17 264.488L242.423 263.832L261.56 264.341L261.962 262.452L242.463 261.943L221.746 262.827L216.643 261.274V260.738L223.098 262.519L236.236 259.292L235.031 257.564L223.339 260.43L216.536 258.555L216.469 257.39L217.286 257.631L240.575 254.953L254.583 257.698L255.641 256.453L270.64 263.296L273.252 261.876L256.404 253.841L244.218 251.605L254.61 251.819L283.778 259.546L285.532 259.011L295.991 263.028L298.295 261.501L289.094 258.02L298.469 255.194L296.755 253.587L283.871 257.497L276.238 255.475L289.63 252.957L288.559 251.19L271.819 254.323L255.748 250.065L216.121 249.234V248.953L257.034 249.542L272.783 251.832L284.22 250.908L283.858 249.047L273.238 249.904L257.583 247.654L216.068 247.065L215.947 244.681L231.268 243.342L247.833 247.359L286.67 245.15L286.55 243.208L248.677 245.364L240.642 243.422L252.936 242.257L252.762 242.378L260.194 244.587L278.166 240.181L277.015 238.467L260.837 242.485L255.4 240.878L255.226 240.195L236.129 241.869L236.223 242.297L231.95 241.266L219.054 242.458L223.473 239.927L222 239.123L223.835 238.949L223.473 237.168L231.187 239.686L232.995 238.039L220.46 234.021H220.045L215.385 233.941L215.291 231.865L224.277 233.365L228.91 232.226L227.786 232.909L234.629 235.816L258.735 237.878L278.823 231.838L277.095 230.231L258.212 235.909L236.423 234.034L231.067 231.731L234.066 230.994V231.075L243.093 233.606L255.815 227.874L267.038 229.374L267.774 227.526L255.092 225.798L242.678 231.383L237.776 230.044L244.472 228.41L243.494 226.655L224.197 231.356L215.184 229.816L215.09 227.834L220.447 228.289L237.856 226.16L237.522 225.035L243.494 225.892L244.271 224.057L239.182 223.334L245.128 221.593L254.101 224.272L256.07 223.763L263.489 226.615L274.926 220.937L273.131 219.464L263.382 224.312L259.552 222.852L267.707 220.736L266.676 218.995L254.288 222.209L248.691 220.508L261.788 216.665L260.609 214.964L245.249 219.464L244.579 219.263L244.164 219.785L238.914 221.325L223.674 219.223L217.286 220.241L218.451 218.901L214.568 217.951L214.501 216.531L219.857 218.419L231.696 215.553L243.749 217.268L244.512 215.433L231.642 213.652L220.259 216.33L214.447 214.295L214.34 211.938L232.071 209.875L245.021 212.955L246.749 211.228L232.928 207.96L246.119 206.862L255.052 209.902L257.261 209.473L257.154 209.567L265.658 212.246L279.64 211.107L279.291 209.232L266.542 210.277L261.48 208.697L281.099 204.933L280.068 203.152L255.668 207.84L251.65 206.5H252.989L253.324 204.612L241.271 204.304L234.321 202.63H234.642L234.16 201.291L237.2 202.054L245.784 200.112L245.396 200.862L271.015 203.755L271.966 201.907L247.86 199.228L247.043 197.889L237.441 200.072L230.384 198.291L245.865 195.72L267.399 198.237L294.987 188.234L292.737 186.747L266.73 196.188L252.829 194.555L258.494 193.617L267.573 193.791L288.01 183.935L285.331 182.596L266.194 191.782L258.159 191.635L225.737 196.992L224.491 196.684L224.116 197.139L213.523 196.175L213.456 194.836L217.996 195.224L241.459 194.233L263.971 188.809L262.444 187.135L240.642 192.385L218.478 193.336L213.403 192.894L213.282 190.591L244.686 191.207L265.806 184.39L263.783 182.85L243.695 189.292L213.094 188.702V187.979L227.156 188.582L247.244 185.903L272.421 177.935L270.412 176.382L245.798 184.162L226.982 186.68L212.934 186.064L212.867 184.578L225.549 184.912L258.427 176.047L256.686 174.413L224.946 182.944L212.894 182.636L212.827 181.189L222.603 181.417L248.275 175.391L246.749 173.703L222.04 179.502L214.688 179.341L215.063 177.627L212.639 177.52V177.172L214.179 177.48L215.385 175.699L212.532 175.123V174.386L222.268 176.516L223.527 174.748L212.371 172.364L212.264 170.034L235.66 173.301L246.682 170.703L245.142 169.016L235.54 171.279L212.077 168.025V166.391L220.835 168.132L222.027 166.338L211.97 164.342V163.847H215.987L224.772 167.436L240.548 167.302V165.414L225.536 165.534L221.277 163.793L231.642 163.713L235.365 162.119L244.74 165.722L246.173 164.074L238.138 160.954L245.838 157.633L245.262 157.003L246.347 156.695L244.566 155.075L230.692 158.838L223.42 158.624L241.017 154.03L255.266 155.798L256.498 153.963L246.146 152.624L249.24 151.807L258.346 152.597L259.297 150.736L248.811 149.839L222.683 156.695L221.25 156.561L231.08 153.16L229.513 151.553L229.111 151.687L228.442 149.932L216.389 151.928L215.907 151.74L222.094 149.906L221.438 149.022L227.826 149.798L233.33 147.468L241.727 147.776L241.995 145.888L237.455 145.727L239.075 145.044L238.888 144.843L256.445 146.986L258.346 146.183V146.37L267.239 146.691L267.52 144.803L262.083 144.616L267.734 142.219L266.167 140.665L255.936 144.991L238.285 142.835L228.201 145.111L229.085 146.892L229.915 146.705L227.317 147.803L220.835 147.013L228.04 145.674L227.21 143.879L214.648 146.33L211.032 145.888L210.925 143.718L218.237 144.602L235.419 139.995L249.749 141.723L264.962 135.027L263.221 133.514L249.146 139.741L235.191 138.067L218.023 142.674L210.831 141.803L210.737 140.21L220.366 141.08L233.678 137.813L232.633 136.072L229.955 136.714L234.066 134.759L241.861 137.826L251.985 130.38L249.655 129.215L241.325 135.335L236.705 133.514L243.829 130.139L241.995 128.666L227.678 135.456L210.443 134.88L210.376 133.728L220.018 134.505L231.977 130.286L230.531 128.666L219.59 132.496L213.804 132.054L220.822 131.451L220.527 129.59L210.965 130.393L210.229 130.286V129.576L224.156 129.376L226.928 128.036L238.218 127.568L238.138 125.679L231.442 125.974L233.825 124.862L248.557 126.202L249.119 124.34L237.347 123.296L244.258 120.001L242.463 118.515L225.897 126.175H225.804L223.192 127.394L213.965 127.541L234.053 119.05L232.366 117.51L213.054 125.76L209.988 125.545V125.264L219.014 121.769L218.599 121.354L226.42 118.903L225.08 117.229L217.447 119.613L211.929 118.93L215.143 117.591L213.938 115.983L209.613 117.832L209.372 113.185L212.706 112.756L212.639 112.569L239.423 114.363L252.547 110.037L251.208 108.39L238.955 112.408L230.919 111.872L242.423 108.779L241.285 107.064L224.946 111.47L209.251 110.412L209.171 108.846H227.812L241.285 102.873L239.544 101.346L226.915 106.957H219.857L221.411 106.368L220.46 105.377L229.152 105.672L240.387 99.6988L238.432 98.3595L228.187 103.81L217.782 103.462L219.496 102.391L217.353 101.051L213.777 103.274L208.876 103.114V102.404L209.72 102.257L208.876 100.449H208.742V99.913L226.152 101.6L240.883 96.6454L239.544 95.0115L225.817 99.6318L224.17 99.4711L227.129 98.7345L226.085 96.9936L218.25 98.9354L208.635 97.998V96.9936L218.639 97.7301L230.558 94.9848L229.861 93.217L218.398 95.8954L208.474 95.1722L208.394 93.4313L215.719 91.8778L219.054 92.8152V92.8956H219.134L222.616 93.8732L223.125 92.0653L221.398 91.5698L227.277 88.1548L226.379 86.521L218.92 90.8064L215.719 89.9092L215.572 89.7083H215.237L213.282 89.1994L213.001 90.2038L208.273 91.168L208.139 88.3825L209.586 87.9539L208.354 86.2665L208.032 86.3603V86.0523L211.447 87.3915L220.42 82.4632L218.411 81.124L211.287 85.0345L207.912 83.6953L207.791 81.4186L223.447 80.7356L239.155 74.2405L237.508 72.687L222.523 78.9009L207.697 79.5303V78.7268L220.139 77.8429L233.772 72.3254L232.151 70.7719L219.148 76.0216L207.604 76.8519V76.0886H207.724L223.607 73.7584L232.071 66.1785L229.54 65.1607L227.625 66.8615L226.045 65.7633L215.666 71.4014L207.282 71.0264V70.3434L218.451 69.0845L223.5 65.8169L221.304 64.558L216.911 67.3436L207.108 68.4551V67.906L213.577 67.0891L223.139 62.4153L221.29 61.0761L212.358 65.4151L207.001 66.0713V65.616L207.805 65.5356L217.554 61.1163L215.786 59.6164L206.907 63.634V62.6965L213.603 59.3619L211.729 57.9156L209.238 59.1476L208.206 58.1432L206.666 58.7593V58.5182L220.447 51.3401L218.505 49.9205L206.559 56.1612L206.452 54.0988L214.621 50.6973L212.894 49.1036L206.278 51.8624L206.211 50.6169L209.398 49.1706L207.671 47.684L206.144 48.3804V47.8447L205.019 48.9027L203.024 49.8134L198.323 47.684L196.542 49.184L202.997 52.1168L204.47 51.4338L204.403 52.6793L203.064 53.2685L193.127 49.117L191.453 50.6571L202.18 55.1568L202.97 55.3041L203.747 55.1568L204.256 54.9425L204.135 56.8844H202.97L200.827 56.7906L187.435 49.8134L185.493 51.2329L199.662 58.6253L202.93 58.7593H204.001V59.6967H202.997H201.818L197.801 58.0763L196.77 59.0807L194.279 57.8486L192.417 59.2949L201.698 63.9018L199.314 63.6608L190.207 59.536L188.426 61.0761L198.189 65.4955L202.997 65.9642L203.666 65.8972V66.4463L203.037 66.5267L193.663 65.3749L184.69 61.0761L182.842 62.4153L192.39 67.0356L202.997 68.3748H203.519V68.897H203.024L189.056 67.3168L184.77 64.558L182.574 65.8169L187.569 69.1113L202.997 70.8523H203.385H202.997L190.315 71.4281L179.936 65.7901L178.356 66.8882L176.454 65.1875L173.936 66.2052L182.387 73.7851L198.336 76.102H202.997H203.091L203.024 77.1465L186.953 75.9948L173.95 70.7452L172.329 72.2986L185.976 77.8161L202.997 79.0348V79.7044L183.431 78.9009L168.445 72.687L166.785 74.2405L182.494 80.7356L202.742 81.6061V81.7668L194.707 85.088L187.569 81.1642L185.574 82.5034L194.533 87.4316L200.68 84.9139L200.359 86.0523L202.501 86.3335L202.434 87.6727L197.627 86.3335L196.395 88.0209L202.314 89.7485L202.18 91.9983L199.18 91.4493L192.98 90.1904L192.698 89.186L190.743 89.7351H190.408L190.261 89.936L187.06 90.8332L179.601 86.521L178.664 88.1414L184.529 91.5564L182.802 92.0519L183.311 93.8598L186.806 92.8822V92.8019L190.127 91.8644L200.6 93.9804L200.72 93.8196L201.952 94.0473V94.7571L187.502 95.8151L176.039 93.1367L175.409 94.958L187.328 97.7033L201.845 96.632V97.5292L187.717 98.8685L179.989 96.9534L178.931 98.6943L181.904 99.4309L180.244 99.5916L166.517 94.9714L165.178 96.6052L179.909 101.56L201.845 99.4309L201.751 101.252L197.185 100.382L196.395 102.19L200.412 102.94L192.377 103.207L188.801 100.984L186.659 102.324L188.373 103.395L177.981 103.743L167.722 98.2926L165.767 99.6318L177.003 105.605L185.681 105.31L184.744 106.301L186.297 106.89H179.253L166.624 101.279L164.682 102.886L178.168 108.859H201.243L201.176 110.198L181.087 111.537L164.682 107.064L163.557 108.779L175.048 111.872L167.012 112.408L154.759 108.39L153.42 110.037L166.544 114.363L193.328 112.569V112.756L201.001 113.747L200.774 117.939L197.412 118.26L192.056 115.983L190.85 117.564L194.064 118.903L188.533 119.586L180.9 117.202L179.561 118.876L187.449 121.34L187.047 121.755L196.703 125.492L192.993 125.746L173.682 117.564L172.008 119.104L192.096 127.594L182.869 127.447L180.19 126.228H180.11L163.544 118.568L161.723 120.001L168.7 123.255L156.928 124.3L157.504 126.161L172.168 124.822L174.552 125.934L167.856 125.639L167.776 127.527L179.065 127.996L181.837 129.335L198.524 129.617L199.14 129.804L195.029 130.393L185.467 129.59L185.172 131.451L192.189 132.054L186.484 132.509L175.396 128.612L174.057 130.233L186.016 134.451L199.863 133.393L199.783 134.732L178.289 135.456L163.972 128.666L162.138 130.139L169.262 133.514L164.682 135.281L156.352 129.161L154.022 130.326L164.147 137.772L171.941 134.706L176.052 136.661L173.374 136.018L172.342 137.759L185.627 141.027L199.502 139.768L199.421 141.241L187.984 142.58L170.829 137.973L156.875 139.647L142.786 133.42L141.045 134.933L156.272 141.629L170.588 139.902L187.77 144.509L199.301 143.169L199.127 146.316L196.354 145.7L191.359 146.303L178.797 143.852L177.967 145.647L185.172 146.986L178.69 147.776L176.092 146.678L176.923 146.866L177.806 145.084L167.722 142.808L150.072 144.964L139.853 140.638L138.287 142.192L143.938 144.589L138.487 144.776L138.769 146.665L147.674 146.343V146.156L149.589 146.959L167.133 144.817L166.945 145.017L168.566 145.7L164.013 145.861L164.294 147.749L172.691 147.441L178.208 149.772L184.583 148.995L183.927 149.879L190.127 151.713L189.645 151.901L177.592 149.906L176.923 151.66L176.534 151.526L174.954 153.133L184.784 156.535L183.351 156.669L157.223 149.812L146.75 150.709L147.688 152.571L156.808 151.78L159.888 152.597L149.536 153.937L150.768 155.771L165.017 154.004L182.574 158.61L175.316 158.825L161.549 155.008L159.754 156.628L160.839 156.936L160.263 157.566L167.977 160.887L159.941 164.007L161.374 165.655L170.749 162.052L174.472 163.646L184.851 163.726L180.579 165.467L165.566 165.347V167.235L181.342 167.369L190.127 163.78H196.529L184.034 166.257L185.226 168.052L197.359 165.641H198.082L197.975 167.396L170.454 171.226L160.852 168.962L159.325 170.703L170.36 173.301L197.895 169.471L197.774 171.494L182.574 174.748L183.846 176.516L197.6 173.569V174.346L190.69 175.752L191.908 177.533L197.479 176.408V177.386L191.051 177.681L191.44 179.395L184.101 179.556L159.325 173.743L157.799 175.431L183.471 181.457L197.212 181.149L197.118 182.569L181.047 182.984L149.268 174.413L147.514 176.047L180.364 184.899L196.97 184.47L196.89 185.89L178.918 186.667L160.169 184.149L135.555 176.368L133.546 177.922L158.723 185.89L178.811 188.568L196.783 187.792V188.609L162.298 189.278L142.304 182.837L140.255 184.377L161.388 191.193L196.676 190.51L196.569 192.546L187.596 193.323L165.432 192.372L143.643 187.122L142.063 188.809L164.575 194.233L188.038 195.224L196.448 194.501L196.381 195.84L181.918 197.179L181.543 196.724L180.297 197.032L147.875 191.675L139.84 191.823L120.73 182.609L118.051 183.948L138.407 193.657L147.5 193.483L153.165 194.421L139.237 196.108L113.23 186.667L110.994 188.153L138.568 198.157L160.102 195.639L175.57 198.211L168.539 199.992L158.924 197.809L158.107 199.148L134.001 201.827L134.952 203.675L160.571 200.782L160.183 200.032L168.78 201.974L171.807 201.21L171.325 202.55H171.646L164.682 204.371L152.629 204.679L152.964 206.567H154.303L150.286 207.907L125.885 203.219L124.854 205L144.594 208.723L139.519 210.304L126.769 209.259L126.435 211.134L140.402 212.272L148.906 209.594L148.813 209.5L151.009 209.929L159.955 206.889L173.133 207.987L159.325 211.281L161.053 213.009L174.003 209.929L195.43 212.42V213.022L185.775 216.424L174.391 213.745L161.401 215.58L162.165 217.415L174.217 215.701L186.056 218.567L195.189 215.352L195.082 217.16L187.462 219.049L188.6 220.388L182.239 219.37L166.999 221.473L161.736 219.933L161.307 219.41L160.651 219.611L145.344 215.085L144.179 216.785L157.263 220.629L151.665 222.33L139.237 219.102L138.206 220.843L146.362 222.959L142.545 224.419L132.782 219.571L131.001 221.044L142.411 226.722L149.857 223.87L151.812 224.379L160.799 221.7L166.731 223.441L161.656 224.164L162.419 225.999L168.405 225.142L168.07 226.267L185.48 228.396L194.506 227.62L194.399 229.307L181.704 231.423L162.406 226.722L161.441 228.477L168.137 230.111L163.236 231.45L150.888 225.798L138.367 227.472L139.103 229.32L150.339 227.82L163.062 233.552L172.075 231.021V230.941L175.074 231.677L169.718 233.981L147.929 235.856L129.046 230.177L127.185 231.798L147.273 237.851L171.378 235.789L178.222 232.883L177.097 232.2L181.73 233.338L194.372 231.235L194.225 233.914L185.962 234.048H185.534L173.012 238.065L174.82 239.713L182.547 237.195L182.172 238.976L184.007 239.15L182.534 239.954L186.953 242.485L174.057 241.293L169.771 242.324L169.878 241.896L150.835 240.088L150.661 240.771L145.237 242.378L129.046 238.36L127.894 240.074L145.853 244.547L153.272 242.337L153.112 242.217L165.392 243.382L157.357 245.324L119.484 243.208L119.297 245.083L158.134 247.293L174.686 243.275L193.515 245.002L193.408 247.011L148.317 247.654L132.715 249.904L122.096 249.047L121.734 250.908L133.171 251.832L148.92 249.542L193.341 248.9V249.154L150.232 250.065L134.162 254.323L117.435 251.243L116.35 253.011L129.742 255.529L122.109 257.551L109.199 253.681L107.498 255.261L116.873 258.087L107.672 261.568L109.989 263.095L120.435 259.078L122.189 259.613L151.357 251.886L161.749 251.672L149.589 253.922L132.729 261.957L135.407 263.376L150.339 256.305L151.384 257.551L165.392 254.805L188.681 257.484L193.006 256.145V257.404L182.695 260.243L171.017 257.377L169.798 259.104L182.936 262.332L192.886 259.586V260.028L184.302 262.64L163.584 261.756L144.085 262.265L144.5 264.153L163.624 263.644L178.878 264.3L174.659 265.64L149.496 265.399L146.322 267.019L127.051 268.198L127.707 270.072L142.036 269.189L129.434 275.617L132.113 276.956L138.715 273.581L137.108 277.599L140.737 278.081L143.496 271.117L151.143 267.233L175.838 267.461L192.752 262.305L192.538 266.162L178.744 267.823L173.066 271.773L162.272 274.706L148.009 276.166L148.947 278.014L163.678 276.514L169.691 274.88L171.686 275.804L175.155 273.407L186.23 270.394L192.23 271.438L192.082 273.929L189.31 273.407L173.789 278.978L175.704 280.585L189.913 275.483L191.132 275.71C187.663 282.299 175.061 306.017 164.481 325.1V325.181C155.79 340.983 125.832 334.18 125.644 334.127C120.716 332.479 115.199 329.975 113.069 327.297C109.226 322.489 83.1782 315.123 82.7497 315.003C81.906 314.186 81.0757 313.369 80.2722 312.525C78.9447 311.229 77.7096 309.842 76.576 308.374C75.8528 307.517 75.143 306.646 74.4466 305.776L73.2012 303.941C71.112 301.088 68.8621 297.794 66.5051 294.299H66.2507L65.5677 294.968H64.8981L64.2419 295.437H63.9205L65.2597 294.098L65.9828 293.857C65.3668 292.933 64.7642 291.995 64.1481 291.058H63.9205L63.7598 290.482C55.9924 278.509 48.0509 265.238 44.2877 258.877C43.4563 257.643 42.7177 256.349 42.078 255.006C40.8678 252.591 39.9032 250.061 39.1987 247.453L38.8907 247.574L39.0514 246.971C37.918 242.313 37.3824 237.529 37.4578 232.735C37.4578 231.744 37.4578 230.619 37.4578 229.387V229.494L37.2837 229.334V231.356H36.6141V230.847H36.1186V229.816L36.9623 228.129L37.5515 228.584C37.6988 223.816 37.9935 217.683 38.0069 211.496L37.4712 211.911L37.806 210.732L38.0069 210.933C38.0069 200.594 37.1498 190.216 33.3866 185.944L35.1945 186.399V184.578C35.6499 174.6 38.3818 159.601 42.0111 150.977C47.0063 138.723 49.7383 126.871 55.6308 115.1C58.3092 109.207 63.358 104.654 67.4292 99.2166C70.6165 95.199 72.8931 89.6815 76.5224 85.5835C78.1687 83.6638 79.9595 81.873 81.8792 80.2267V79.825L82.5354 79.691C83.7139 78.7 84.946 77.7358 86.1914 76.7984H86.0977V76.2895L86.4325 75.6199V74.2807L86.7673 73.611V72.2718L87.611 73.1022L88.1199 72.9414L88.4547 72.2718H89.1243L89.4725 71.5888H90.3162L90.9858 72.7673L90.1421 73.4503L89.1243 72.9414L88.6288 73.2762V74.2807L87.7851 75.2984L87.611 75.6466L87.2762 75.968C93.9722 71.013 100.976 66.366 105.53 60.0985L105.074 59.1878C116.886 47.8314 139.13 42.3942 154.625 38.2962L155.08 38.7515C170.563 33.2988 186.877 30.5799 203.292 30.7163V30.7163H203.8V30.7833C211.746 30.9173 219.639 32.097 227.277 34.292C238.178 37.4659 248.168 41.1085 259.511 44.2825C263.529 45.3538 267.868 46.2779 272.046 47.5903L272.14 47.3091L272.636 47.4698L272.1 47.6037C274.986 48.4658 277.769 49.6377 280.403 51.099C287.219 54.7283 292.657 60.6342 299.473 64.7187C308.727 70.5041 320.606 75.968 329.806 83.0524L330.275 82.7444L329.967 83.1596C330.985 83.9542 331.962 84.7577 332.9 85.5701L333.221 85.6773V85.8112C333.65 86.1996 334.092 86.5746 334.493 86.9629C343.493 95.5204 352.037 116.104 353.524 128.398C361.987 149.825 369.902 168.172 369.005 192.318C369.005 193.135 369.005 193.979 369.005 194.796L368.683 194.97V206.849C368.683 207.357 368.683 207.866 368.683 208.362V216.852L369.701 215.835V216.692L368.857 217.522H368.683V219.102L369.018 218.593H369.366V219.102L368.482 220C368.241 223.897 368.241 227.861 368.041 231.838Z" fill="#C2E978"/>
</svg>
