<svg width="200" height="215" viewBox="0 0 200 215" fill="none" xmlns="http://www.w3.org/2000/svg">
<mask id="mask0_150_1367" style="mask-type:alpha" maskUnits="userSpaceOnUse" x="0" y="0" width="200" height="215">
<path fill-rule="evenodd" clip-rule="evenodd" d="M200 0H0V124.283V127.911H0.0785383C2.17816 176.331 46.1112 215 100 215C153.889 215 197.822 176.331 199.921 127.911H200V124.283V0Z" fill="#C4C4C4"/>
</mask>
<g mask="url(#mask0_150_1367)">
<ellipse cx="100" cy="113.5" rx="100" ry="101.5" fill="url(#paint0_linear_150_1367)"/>
<path d="M127.398 155.201C128.576 162.073 129.037 169.058 128.421 176.004C128.004 181.034 127.166 186.011 126.041 190.94C125.295 192.508 124.489 194.048 123.554 195.528C122.215 190.326 118.013 186.054 113.075 183.373C115.355 179.547 116.456 175.375 118.53 171.486C121.592 166.242 124.297 161.08 123.998 154.965C124.003 154.041 123.988 153.116 123.962 152.19C124.92 153.361 126.102 154.338 127.398 155.201Z" fill="#E3E8F1"/>
<path d="M85.9451 171.485C88.0169 175.375 89.1184 179.55 91.3997 183.373C86.4615 186.054 82.2585 190.328 80.9204 195.528C79.9849 194.048 79.1795 192.508 78.4342 190.94C76.4613 182.346 75.3846 173.529 75.9203 164.739C76.0969 161.53 76.6026 158.373 77.0766 155.202C78.3718 154.34 79.5563 153.362 80.513 152.191C80.0161 160.386 81.8235 164.433 85.9451 171.485Z" fill="#E3E8F1"/>
<path d="M100.994 191.392V249.256C91.6302 232.916 85.4215 215.189 80.077 197.436C80.4685 197.608 80.9572 197.471 81.2451 197.183C81.2914 197.182 81.3371 197.172 81.3791 197.155C81.4211 197.137 81.4585 197.111 81.4888 197.079C82.5067 196.045 83.1237 194.762 83.9667 193.608C86.3281 190.446 89.2594 187.561 92.9537 185.698C94.9548 188.337 97.5593 190.515 100.994 191.392Z" fill="#E3E8F1"/>
<path d="M123.228 197.183C123.517 197.471 124.005 197.608 124.396 197.436C118.909 215.607 112.577 233.783 102.781 250.422V191.631C106.459 190.71 109.407 188.586 111.52 185.698C115.214 187.561 118.145 190.446 120.507 193.608C121.35 194.761 121.969 196.045 122.986 197.079C123.016 197.111 123.053 197.137 123.095 197.155C123.137 197.173 123.182 197.182 123.228 197.183V197.183Z" fill="#E3E8F1"/>
<path d="M97.4888 253.787H36.4679C36.0145 241.23 36.3501 228.657 36.0081 216.105C35.9904 215.877 35.5895 215.791 35.5441 216.047C34.6781 220.933 34.5433 225.965 34.3243 230.906C34.0013 238.529 33.9391 246.156 34.1377 253.787H7.32117C11.9509 229.241 16.2887 201.139 22.422 176.977C22.7111 176.211 23.3398 175.891 24.1552 175.649C36.4714 172.425 48.5503 168.428 60.1582 163.457C58.0747 171.159 56.2461 178.913 54.3381 186.65C53.3019 189.801 53.8771 190.887 57.3588 191.82L60.2819 192.805C58.8042 195.029 57.3447 197.263 55.9035 199.507C53.9854 202.166 53.0959 204.687 54.5771 207.743C64.2198 226.111 79.4072 241.964 97.4888 253.787Z" fill="#11395B"/>
<path d="M82.3397 214.252C86.7993 226.854 91.6092 239.449 98.5567 251.108C90.9074 246.148 83.8809 240.415 77.5686 234.064C69.3429 225.521 61.6129 216.115 56.7736 205.577C56.3851 204.072 57.068 202.811 57.8775 201.536C59.729 198.621 61.6082 195.722 63.4221 192.789C63.8619 192.075 63.4445 191.238 62.6214 190.99C60.9879 190.498 59.353 190.006 57.7167 189.516C57.4118 189.424 56.3739 189.22 56.2897 189.068C58.1395 180.244 60.4926 171.421 62.2658 162.551C66.5482 160.692 70.7588 158.728 74.8499 156.534C70.249 175.919 75.9008 195.775 82.3397 214.252Z" fill="#11395B"/>
<path d="M148.183 189.072C148.099 189.223 147.065 189.427 146.757 189.519C145.122 190.011 143.486 190.503 141.851 190.994C141.027 191.242 140.61 192.079 141.052 192.792C142.866 195.726 144.744 198.624 146.595 201.539C148.841 204.589 147.483 206.694 145.761 209.564C136.223 225.979 122.484 240.351 105.918 251.108C109.261 245.501 112.115 239.66 114.665 233.712C124.246 209.223 135.481 182.889 129.623 156.537C133.713 158.731 137.924 160.695 142.209 162.554C143.98 171.423 146.335 180.248 148.183 189.072Z" fill="#11395B"/>
<path d="M196.51 253.787H169.743C169.943 246.16 169.881 238.532 169.555 230.905C169.341 225.965 169.202 220.932 168.336 216.047C168.29 215.791 167.889 215.877 167.873 216.104C167.531 228.659 167.865 241.229 167.411 253.787H106.987C125.066 241.964 140.254 226.109 149.897 207.742C151.376 204.703 150.485 202.153 148.57 199.507C147.123 197.267 145.664 195.034 144.194 192.807C145.168 192.478 146.142 192.15 147.115 191.821C150.6 190.882 151.172 189.81 150.137 186.652C148.229 178.914 146.399 171.16 144.317 163.458C155.925 168.431 168.002 172.426 180.319 175.65C181.134 175.892 181.763 176.212 182.053 176.979C188.219 200.754 192.067 228.77 196.51 253.787Z" fill="#11395B"/>
<path d="M119.98 135.28C120.703 142.597 121.444 149.968 121.15 157.321C120.934 162.811 117.441 167.392 115.099 172.263C112.236 178.449 110.33 187.027 102.237 188.993C97.3992 187.947 94.4373 183.801 92.5858 179.824C91.4278 177.335 90.5317 174.752 89.3754 172.263C88.2192 169.774 86.7344 167.433 85.4969 164.98C82.7493 159.906 83.1296 154.152 83.4264 148.653C83.5677 145.708 83.7708 142.766 84.0357 139.828C84.3889 137.171 84.2777 134.394 85.2455 131.845C86.3935 129.267 89.7098 128.83 92.3291 128.252C95.5983 127.398 99.0264 127.035 102.237 126.032C105.448 127.033 108.876 127.398 112.145 128.252C117.177 129.198 119.708 130.126 119.98 135.28Z" fill="#F3D7C7"/>
<path d="M200 255.823H4.28364C3.87153 255.369 3.91509 254.598 4.37136 254.186C7.60288 229.42 13.008 203.429 18.7551 179.06C19.3574 175.445 20.2505 173.618 24.3545 172.66C36.9693 169.356 49.2763 165.136 61.1588 160.043C61.2285 159.959 61.3191 159.892 61.4231 159.846C61.527 159.801 61.6413 159.779 61.7563 159.782C66.5127 157.644 71.362 155.63 75.9446 153.185C76.0489 152.849 76.4351 152.673 76.7795 152.697C78.1712 151.86 79.5536 150.919 80.6062 149.742C80.8305 145.157 81.1684 140.582 81.67 136.013C81.9526 133.423 82.1846 130.497 84.3982 128.601C87.9464 125.83 93.0848 125.78 97.465 124.996C102.304 124.261 107.16 124.9 111.936 125.746C119.284 126.786 122.502 128.916 122.808 136.013C123.31 140.581 123.648 145.157 123.872 149.742C124.924 150.919 126.308 151.86 127.699 152.697C128.042 152.673 128.428 152.849 128.534 153.185C133.114 155.63 137.963 157.644 142.719 159.782C142.835 159.779 142.949 159.801 143.053 159.846C143.157 159.892 143.248 159.959 143.319 160.043C155.201 165.137 167.507 169.356 180.121 172.661C184.219 173.61 185.125 175.451 185.72 179.06C188.598 191.535 191.353 204.033 193.985 216.555C196.067 226.468 198.071 245.362 200 255.823ZM169.744 253.788H196.51C192.067 228.77 188.22 200.754 182.053 176.977C181.763 176.211 181.134 175.891 180.319 175.649C168.003 172.425 155.926 168.428 144.317 163.457C146.399 171.159 148.229 178.913 150.138 186.65C151.172 189.809 150.601 190.881 147.115 191.82C146.143 192.149 145.169 192.477 144.194 192.805C145.67 195.029 147.129 197.263 148.571 199.507C150.487 202.153 151.376 204.703 149.897 207.743C140.254 226.11 125.067 241.964 106.987 253.788H167.412C167.865 241.23 167.529 228.657 167.873 216.105C167.889 215.877 168.29 215.791 168.336 216.047C169.203 220.933 169.341 225.965 169.555 230.906C169.878 238.529 169.941 246.156 169.744 253.788ZM146.758 189.52C147.063 189.428 148.1 189.224 148.184 189.073C146.336 180.249 143.981 171.424 142.209 162.555C137.925 160.696 133.714 158.733 129.624 156.539C135.481 182.891 124.247 209.225 114.665 233.713C112.115 239.661 109.262 245.503 105.919 251.109C122.485 240.353 136.227 225.98 145.761 209.566C147.484 206.695 148.841 204.591 146.595 201.541C144.744 198.626 142.867 195.728 141.053 192.794C140.611 192.08 141.028 191.243 141.852 190.996C143.488 190.502 145.123 190.01 146.758 189.52ZM128.422 176.004C129.037 169.058 128.576 162.073 127.399 155.201C126.104 154.339 124.92 153.361 123.962 152.19C123.988 153.116 124.003 154.041 123.998 154.965C124.297 161.08 121.595 166.242 118.53 171.486C116.456 175.376 115.355 179.55 113.075 183.373C118.014 186.055 122.215 190.324 123.554 195.529C124.489 194.048 125.295 192.508 126.041 190.94C127.166 186.011 128.005 181.034 128.422 176.004ZM124.396 197.437C124.005 197.608 123.517 197.471 123.228 197.183C123.182 197.182 123.137 197.173 123.095 197.155C123.053 197.137 123.016 197.111 122.986 197.079C121.968 196.045 121.35 194.762 120.507 193.608C118.145 190.446 115.214 187.562 111.52 185.698C109.407 188.586 106.457 190.709 102.781 191.631V250.423C112.576 233.783 118.909 215.607 124.396 197.437V197.437ZM121.149 157.321C121.444 149.968 120.703 142.598 119.98 135.28C119.708 130.126 117.177 129.198 112.145 128.255C108.876 127.4 105.448 127.036 102.237 126.034C99.0263 127.037 95.5981 127.4 92.3289 128.255C89.7097 128.833 86.3934 129.27 85.2454 131.847C84.2775 134.396 84.3864 137.174 84.0355 139.83C83.7706 142.769 83.5675 145.71 83.4262 148.656C83.1318 154.152 82.7492 159.906 85.4967 164.982C86.7331 167.436 88.219 169.778 89.3753 172.265C90.5315 174.753 91.4276 177.338 92.5856 179.826C94.4372 183.803 97.399 187.949 102.237 188.995C110.331 187.027 112.236 178.451 115.099 172.265C117.442 167.392 120.933 162.812 121.149 157.321V157.321ZM100.994 249.256V191.392C97.5598 190.515 94.9552 188.338 92.9542 185.698C89.2599 187.562 86.3286 190.446 83.9672 193.608C83.1242 194.761 82.5072 196.045 81.4893 197.079C81.459 197.111 81.4216 197.137 81.3796 197.155C81.3376 197.173 81.2919 197.182 81.2455 197.183C80.9577 197.471 80.469 197.608 80.0775 197.437C85.422 215.189 91.6307 232.917 100.994 249.256ZM36.4699 253.788H97.4885C79.407 241.964 64.2196 226.111 54.5768 207.743C53.0956 204.687 53.9881 202.167 55.9032 199.507C57.3503 197.266 58.8098 195.032 60.2816 192.805L57.3585 191.82C53.8768 190.887 53.3016 189.802 54.3378 186.65C56.2459 178.913 58.0744 171.159 60.1579 163.457C48.55 168.43 36.4711 172.425 24.1549 175.649C23.3395 175.891 22.7108 176.211 22.4217 176.977C16.2884 201.139 11.9506 229.244 7.32088 253.788H34.1374C33.936 246.16 33.9983 238.533 34.324 230.906C34.5401 225.965 34.6772 220.933 35.5439 216.047C35.5892 215.791 35.9901 215.877 36.0078 216.105C36.3475 228.657 36.0142 241.23 36.4676 253.788H36.4699ZM98.5571 251.108C91.6101 239.449 86.7996 226.854 82.34 214.252C75.9011 195.774 70.2493 175.919 74.8502 156.537C70.7591 158.731 66.5492 160.695 62.2662 162.554C60.4929 171.424 58.1398 180.247 56.29 189.071C56.3742 189.223 57.4121 189.426 57.7171 189.519C59.3526 190.011 60.9875 190.502 62.6218 190.993C63.446 191.241 63.8622 192.078 63.4224 192.791C61.6086 195.725 59.7293 198.624 57.8778 201.539C57.0677 202.813 56.3854 204.071 56.7739 205.58C61.615 216.117 69.3433 225.522 77.5689 234.066C83.8813 240.416 90.9077 246.151 98.5571 251.108ZM91.4029 183.373C89.1215 179.548 88.02 175.376 85.9483 171.486C81.8272 164.433 80.0192 160.386 80.5144 152.19C79.5577 153.361 78.3755 154.338 77.0779 155.201C76.604 158.373 76.0989 161.53 75.9217 164.739C75.386 173.529 76.4627 182.346 78.4356 190.94C79.1809 192.508 79.9863 194.047 80.9217 195.528C82.2587 190.328 86.4617 186.055 91.4029 183.373Z" fill="black"/>
<path d="M112.489 81.9422C112.865 82.1831 113.356 81.9708 113.588 81.6954C113.959 81.2644 113.721 80.8155 113.937 80.3446C114.01 80.2094 114.079 80.0709 114.152 79.9346C114.639 79.2018 115.506 78.6786 116.434 78.4318C115.534 82.8642 122.233 84.8363 124.453 80.7714C124.787 80.0639 124.851 79.2163 124.552 78.5083C125.346 78.6926 126.076 79.0072 126.851 79.5067C127.44 79.8871 127.994 80.3451 128.388 80.8845C128.787 81.433 128.954 82.0365 129.592 82.432C129.781 82.5495 130.144 82.5091 130.291 82.3544C131.551 81.0198 129.828 78.4975 128.665 77.4915C127.829 76.7673 126.821 76.298 125.737 76.0259C122.293 74.9601 117.468 74.6287 114.488 76.4839C113.552 77.0766 113.153 77.7771 112.703 78.6683C111.991 79.5838 111.282 81.1324 112.489 81.9422ZM111.972 68.3751C112.55 69.0993 113.539 69.3267 114.498 69.4409C121.746 70.2034 126.352 68.1569 132.741 72.592C132.764 72.7004 132.821 72.8001 132.906 72.8787C132.991 72.9573 133.099 73.0111 133.217 73.0333C133.672 73.1373 133.961 73.6222 134.476 73.6594C134.551 73.7036 134.625 73.7483 134.702 73.7914C134.863 73.8835 135.043 73.7499 135.038 73.6098C136.373 73.1788 135.689 71.6162 135.434 70.7621C134.534 67.2102 132.771 63.2994 128.605 61.767C126.576 60.9959 124.329 60.7432 122.135 60.5886C119.572 60.4086 116.86 60.171 114.311 60.5826C111.725 61.0002 112.086 63.5241 111.703 65.2494C111.478 66.2371 111.268 67.4893 111.972 68.3751ZM111.026 76.88C111.118 77.1192 111.507 77.1817 111.664 76.9511C111.899 76.6095 111.909 76.2129 112.057 75.8379C112.534 74.6401 113.584 73.6529 114.835 73.0053C116.628 72.0688 118.793 71.7746 120.866 71.7999C124.727 71.8489 128.066 73.1168 130.711 75.5178C130.719 75.5271 130.731 75.5332 130.743 75.5347C130.756 75.5362 130.769 75.533 130.779 75.5259C130.789 75.5187 130.796 75.5082 130.798 75.4966C130.799 75.485 130.796 75.4732 130.788 75.4639C128.893 72.3705 124.187 71.1059 120.359 71.1027C117.104 71.0596 113.475 71.9993 111.751 74.5436C111.319 75.1708 110.745 76.1547 111.026 76.88ZM107.88 95.5406C107.912 96.094 108.91 96.0983 108.887 95.5406C108.698 91.1222 108.533 86.6731 107.874 82.2855C107.846 82.1023 107.542 82.092 107.533 82.2855C107.32 86.6984 107.615 91.1308 107.88 95.5406ZM95.2177 95.5406C95.1953 96.0983 96.192 96.094 96.2262 95.5406C96.4893 91.1308 96.7849 86.6984 96.5723 82.2855C96.5623 82.092 96.2591 82.1023 96.2315 82.2855C95.5686 86.6731 95.4061 91.1206 95.2177 95.5406ZM83.2394 71.7999C86.6794 71.7062 90.804 72.8 92.048 75.8379C92.1957 76.2151 92.2069 76.6095 92.4406 76.9511C92.5984 77.1817 92.9864 77.1192 93.0794 76.88C93.3602 76.1547 92.785 75.1708 92.3535 74.5479C91.8384 73.8194 91.1712 73.1911 90.3901 72.6992C85.6397 69.7949 76.2112 70.8753 73.317 75.4682C73.3092 75.4775 73.3058 75.4893 73.3074 75.5009C73.3091 75.5125 73.3157 75.5231 73.3259 75.5302C73.336 75.5373 73.3488 75.5405 73.3615 75.539C73.3742 75.5375 73.3858 75.5314 73.3936 75.5221C76.0369 73.1168 79.378 71.8489 83.2394 71.7999V71.7999ZM75.8144 115.63C76.505 116.991 78.3365 117.066 79.7983 116.793C80.7562 116.617 81.7082 116.431 82.6613 116.255C81.9013 116.983 81.3573 118.109 81.6905 119.087C81.9678 119.896 83.5709 120.029 83.7546 119.087C83.8276 118.716 83.85 118.374 83.9477 118.04C83.993 118.04 84.0383 118.04 84.0843 118.044C86.8189 118.123 89.1768 119.13 91.627 120.088C92.8174 120.55 94.1268 120.74 95.4143 120.877C96.7366 121.002 98.5063 121.348 99.6614 120.647C100.377 120.911 101.259 121.234 102.053 121.198C102.846 121.234 103.728 120.911 104.444 120.647C105.598 121.347 107.368 121.002 108.69 120.877C109.978 120.74 111.287 120.55 112.477 120.088C114.928 119.13 117.286 118.123 120.022 118.044C120.068 118.041 120.112 118.041 120.157 118.04C120.254 118.374 120.275 118.716 120.35 119.087C120.534 120.029 122.137 119.896 122.415 119.087C122.748 118.109 122.204 116.986 121.444 116.255C122.397 116.43 123.348 116.616 124.307 116.793C125.768 117.066 127.6 116.991 128.29 115.63C128.938 114.355 127.692 113.434 126.538 112.85C122.023 110.582 117.379 108.503 112.578 106.712C113.52 105.958 114.132 104.833 114.616 103.856C115.334 102.401 115.427 100.537 113.827 99.4789C112.708 98.7374 110.353 98.3834 109.22 99.2725C108.953 99.4821 109.038 99.8652 109.332 100.017C110.327 100.525 111.659 100.03 112.637 100.632C113.847 101.376 113.241 102.877 112.718 103.789C111.79 105.554 110.808 106.667 108.4 105.783C108.861 105.569 109.308 105.332 109.739 105.071C109.931 104.954 109.895 104.617 109.603 104.64C108.158 104.766 106.82 105.071 105.402 105.328C104.283 105.534 103.171 105.657 102.053 105.905C100.935 105.657 99.8233 105.534 98.7029 105.328C97.2853 105.07 95.9471 104.766 94.5018 104.64C94.2074 104.615 94.1739 104.952 94.3652 105.071C94.7967 105.332 95.244 105.569 95.7051 105.783C93.2949 106.666 92.3176 105.556 91.3868 103.789C90.864 102.877 90.2582 101.376 91.4681 100.632C92.446 100.03 93.7788 100.525 94.7732 100.017C95.0675 99.8668 95.1511 99.4821 94.885 99.2725C93.7529 98.3834 91.3986 98.7374 90.2777 99.4789C88.6781 100.537 88.7705 102.403 89.4888 103.856C89.9727 104.831 90.585 105.953 91.5264 106.712C86.7259 108.503 82.0814 110.582 77.5671 112.85C76.4126 113.434 75.1668 114.354 75.8144 115.63V115.63ZM73.3217 39.3497C74.8524 38.8426 76.6481 38.4784 77.6418 37.3312C82.4988 41.8838 89.1185 42.1268 95.7617 41.0723C103.641 39.9558 111.325 37.7531 118.365 34.5132C122.686 33.7981 127.091 33.144 131.307 34.6274C135.492 36.1005 138.651 39.1622 139.927 42.8677C141.399 47.147 140.913 51.7976 140.824 56.1987C140.7 63.9142 140.428 71.6296 140.405 79.3451C140.418 80.7703 140.484 82.1912 140.574 83.611C139.966 88.2659 139.559 92.9418 139.057 97.6059C138.604 102.075 138.636 106.817 136.891 111.099C133.75 118.929 126.525 116.897 122.455 122.078C121.211 123.86 121.318 126.044 120.193 127.852C118.985 129.797 116.329 130.226 113.975 130.331C113.273 130.361 112.537 130.439 112.174 129.81C111.891 129.326 111.794 128.727 111.683 128.194C111.437 127.009 111.437 125.811 111.521 124.615C112.685 124.019 113.751 123.295 114.517 122.394C114.608 122.286 114.439 122.189 114.329 122.232C113.156 122.681 112.062 123.279 110.855 123.674C110.589 123.644 110.314 123.711 110.159 123.889C108.216 124.443 106.182 124.674 104.15 124.763C103.79 124.775 100.31 124.775 99.9487 124.763C97.917 124.674 95.8806 124.44 93.9401 123.889C93.7841 123.711 93.5098 123.644 93.2437 123.674C92.0403 123.279 90.9476 122.681 89.7702 122.232C89.6595 122.189 89.4905 122.286 89.5818 122.394C90.3471 123.295 91.4133 124.019 92.5778 124.615C92.6626 125.811 92.6626 127.008 92.4153 128.194C92.3052 128.726 92.2075 129.322 91.9249 129.81C91.5611 130.438 90.8258 130.361 90.124 130.331C87.7691 130.227 85.1157 129.798 83.9059 127.852C82.7808 126.044 82.888 123.86 81.644 122.078C77.5818 116.906 70.3404 118.921 67.2084 111.099C65.4622 106.817 65.4952 102.075 65.0419 97.6059C64.6716 93.8945 64.2642 90.1863 63.8792 86.4764C63.5848 75.7048 63.2522 64.9067 64.5073 54.1668C64.7611 51.8062 65.0095 49.4252 65.4187 47.0829C65.7254 45.3188 66.184 43.351 67.554 41.942C68.994 40.4607 71.3165 40.0119 73.3217 39.3497ZM73.8139 82.356C73.9599 82.5107 74.3238 82.5511 74.5139 82.4336C75.1503 82.0381 75.3175 81.4347 75.7173 80.8861C76.1105 80.3473 76.6657 79.8888 77.2533 79.5084C78.028 79.0089 78.7592 78.6942 79.5528 78.5099C79.2543 79.2185 79.3173 80.066 79.6523 80.773C81.8736 84.8411 88.5727 82.8625 87.6714 78.4334C88.5986 78.6802 89.4658 79.2034 89.9533 79.9362C90.0263 80.0725 90.0946 80.211 90.1676 80.3462C90.3836 80.8188 90.1464 81.2665 90.5167 81.6971C90.7522 81.9724 91.2391 82.182 91.6158 81.9438C92.8227 81.1324 92.1145 79.5865 91.4015 78.6694C90.9518 77.7793 90.552 77.0793 89.6171 76.485C86.6464 74.6331 81.8053 74.9612 78.3677 76.027C77.2845 76.2964 76.276 76.7684 75.4394 77.4926C74.2767 78.497 72.554 81.0192 73.8139 82.3539V82.356ZM69.067 73.612C69.0623 73.7521 69.2436 73.8857 69.4032 73.7936C69.4797 73.7505 69.5545 73.7057 69.6292 73.6616C70.1438 73.6244 70.4329 73.1394 70.8874 73.0354C71.0056 73.0133 71.1139 72.9596 71.1987 72.881C71.2835 72.8024 71.3409 72.7026 71.3636 72.5941C77.7584 68.1574 82.3611 70.2071 89.6071 69.4431C90.565 69.3289 91.5558 69.1015 92.1321 68.3773C92.8386 67.4915 92.6243 66.2403 92.4053 65.2521C92.0221 63.5279 92.3824 61.0029 89.7984 60.5853C87.2475 60.1737 84.5352 60.4113 81.9731 60.5913C79.7789 60.7443 77.5329 60.9986 75.503 61.7697C71.3342 63.3037 69.5721 67.2118 68.6737 70.7681C68.4177 71.6183 67.7306 73.1777 69.067 73.6098V73.612Z" fill="#F3D7C7"/>
<path d="M77.1154 82.2909C79.8382 83.3486 84.5398 84.4554 89.3279 82.2403C89.6256 82.1031 89.8884 81.9104 90.0996 81.6744C90.3107 81.4385 90.4654 81.1647 90.5537 80.8706C90.642 80.5765 90.6619 80.2687 90.6121 79.9672C90.5623 79.6656 90.4439 79.377 90.2646 79.1199C89.4145 77.9076 87.9403 76.6025 85.5342 76.6025C82.663 76.6025 79.0499 77.1742 76.8163 78.4092C75.1431 79.3339 75.3162 81.5937 77.1154 82.2909Z" fill="white"/>
<path d="M127.031 82.2907C124.309 83.3484 119.607 84.4552 114.819 82.24C114.522 82.1029 114.259 81.9101 114.048 81.6742C113.837 81.4383 113.682 81.1644 113.594 80.8703C113.505 80.5763 113.485 80.2685 113.535 79.9669C113.585 79.6654 113.703 79.3768 113.883 79.1197C114.733 77.9073 116.207 76.6023 118.613 76.6023C121.484 76.6023 125.097 77.174 127.331 78.409C129.004 79.3336 128.83 81.5934 127.031 82.2907Z" fill="white"/>
<path d="M143.779 60.8782C143.419 60.9224 143.284 60.5242 143.628 60.4067C144.776 60.0204 146.003 59.8286 147.219 59.6906C148.293 59.5683 149.656 59.3383 150.701 59.6416C151.086 59.7494 151.133 60.2613 150.701 60.3534C149.675 60.5689 148.504 60.3949 147.446 60.4531C146.21 60.5215 145.003 60.7279 143.779 60.8782Z" fill="black"/>
<path d="M143.777 65.2164C143.449 65.3112 143.255 64.8845 143.546 64.7449C145.091 63.9986 146.741 63.5794 148.524 63.6452C149.163 63.6673 149.159 64.4658 148.524 64.4954C146.912 64.5698 145.308 64.7659 143.777 65.2164Z" fill="black"/>
<path d="M144.478 67.9905C144.148 68.0982 143.93 67.6381 144.239 67.5055C145.513 66.9667 146.871 66.6628 148.294 66.7921C148.844 66.8411 148.868 67.5637 148.294 67.5465C146.983 67.5044 145.713 67.5993 144.478 67.9905Z" fill="black"/>
<path d="M144.477 67.9902C145.713 67.599 146.983 67.5052 148.293 67.5456C148.868 67.565 148.844 66.8452 148.293 66.7913C146.871 66.662 145.513 66.9637 144.238 67.5047C143.93 67.6378 144.147 68.0958 144.477 67.9902ZM147.45 60.4531C148.51 60.3949 149.68 60.5716 150.706 60.3534C151.138 60.2612 151.091 59.7515 150.706 59.6416C149.66 59.3382 148.298 59.5683 147.224 59.6906C146.005 59.8286 144.778 60.0204 143.633 60.4067C143.288 60.5242 143.423 60.9224 143.784 60.8782C145.003 60.7279 146.21 60.5215 147.45 60.4531ZM143.721 39.8985C146.406 40.1544 148.181 41.6303 149.646 43.4434C149.959 43.8346 150.719 43.6051 150.565 43.112C149.803 40.6372 146.531 39.2012 143.721 39.2998C143.261 39.316 143.28 39.857 143.718 39.8985H143.721ZM144.181 71.8509C145.11 71.8406 146.128 71.8568 147.022 71.6149C147.094 71.5976 147.157 71.5565 147.198 71.4995C147.239 71.4426 147.256 71.3737 147.245 71.306C147.235 71.2383 147.197 71.1766 147.14 71.1327C147.083 71.0888 147.01 71.0657 146.935 71.0679C145.993 71.0604 145.029 71.3277 144.134 71.5529C144.096 71.5633 144.063 71.5858 144.042 71.6163C144.02 71.6469 144.011 71.6834 144.017 71.7194C144.022 71.7554 144.041 71.7885 144.071 71.8126C144.1 71.8368 144.138 71.8506 144.178 71.8514L144.181 71.8509ZM141.691 34.8626C143.119 34.605 144.717 34.9235 145.982 35.534C147.206 36.1267 148.025 37.0368 148.898 37.9555C149.153 38.2249 149.59 37.9258 149.522 37.6435C149.191 36.2425 147.744 35.2371 146.281 34.6913C144.744 34.1179 143.174 34.1072 141.579 34.5129C141.313 34.5803 141.424 34.9106 141.688 34.8631L141.691 34.8626ZM101.753 27.1962C101.954 27.0626 101.735 26.7414 101.5 26.8233C96.1914 28.7345 91.2856 32.849 88.5603 37.1941C88.0782 35.4435 89.1126 33.3625 89.7814 31.7347C92.3311 25.8297 97.5408 20.6645 104.105 17.7991C104.306 17.7112 104.164 17.4095 103.947 17.4812C95.5285 20.0778 88.8983 26.4526 86.5334 33.8275C86.186 34.9332 85.8675 36.2194 86.0818 37.3962C82.636 30.9841 86.9331 23.8603 91.9073 18.9899C92.0044 18.8945 91.8602 18.7743 91.7465 18.853C85.4083 23.2585 80.5248 31.8387 84.3739 38.615C79.0518 36.6634 75.5489 31.6604 75.4871 26.6665C75.6578 12.7955 94.1703 3.59238 108.913 7.12762C107.229 7.51665 105.607 8.06518 104.145 8.83085C103.977 8.91868 104.033 9.18432 104.25 9.16815C107.435 8.9273 110.582 8.45313 113.783 8.32866C123.394 7.90945 133.42 10.1477 140.989 15.3749C143.117 16.848 145.086 18.6359 146.093 20.8521C144.711 20.3084 143.18 20.0977 141.767 20.7583C141.455 20.9043 141.574 21.4108 141.96 21.3677C145.754 20.949 148.741 24.4266 150.782 26.6962C155.379 31.7692 157.458 38.3445 156.714 44.721C156.497 46.8019 156.008 48.8322 155.457 50.8533C155.426 50.8641 155.443 50.9191 155.433 50.9455C154.483 54.269 153.552 57.5984 153.011 60.9935C152.776 62.3664 152.473 63.755 152.451 65.1425C151.49 68.9579 150.23 72.7141 148.765 76.4072C148.525 77.0275 148.277 77.6454 148.021 78.2607C147.876 78.6088 147.74 78.9014 147.719 79.2048C146.751 79.8406 145.738 80.5604 145.062 81.4139C144.749 81.6015 144.406 81.8051 144.031 81.8612C143.935 81.8956 143.838 81.9253 143.741 81.9533C143.211 82.1855 142.665 82.4038 142.121 82.6134C142.732 73.8709 142.551 65.1015 142.803 56.344C143.196 47.6921 143.628 37.8423 132.954 33.5619C129.526 32.183 125.549 31.9136 121.908 32.7757C124.453 31.4632 126.834 29.9517 129.239 28.4651C131.264 27.2156 133.637 25.8093 136.245 25.9774C136.457 25.9908 136.492 25.708 136.294 25.6622C132.067 24.6502 128.635 27.5157 125.368 29.3262C121.711 31.3527 117.872 33.0897 113.893 34.5183C106.424 37.116 98.5546 39.1985 90.4343 39.5003C90.4684 38.9426 90.4101 38.4135 90.6698 37.8547C90.9718 37.2038 91.4351 36.5928 91.8649 36.0001C94.3711 32.4821 97.9582 29.6759 101.753 27.1962ZM148.524 64.4959C149.159 64.4662 149.163 63.6677 148.524 63.6456C146.741 63.5799 145.091 63.9991 143.546 64.7454C143.255 64.8849 143.449 65.3117 143.777 65.2168C145.308 64.7664 146.911 64.5702 148.524 64.4959V64.4959Z" fill="#3A1F14"/>
<path d="M145.668 90.6294C145.668 89.7054 145.652 88.7791 145.609 87.8545C145.613 87.8297 145.622 87.8044 145.626 87.7774C145.739 87.1756 145.815 86.5645 145.921 85.9611C146.091 84.9982 146.094 83.781 146.615 82.8951C147.583 82.4102 148.449 81.6435 149.298 81.0427C149.867 80.6418 150.463 80.2673 151.075 79.9111C152.308 86.1168 152.208 92.5196 150.651 98.679C150.331 99.9587 150.036 101.334 149.384 102.526C148.53 104.158 146.637 105.238 144.584 105.311C144.798 103.719 144.982 102.124 145.135 100.525C145.518 100.549 145.898 100.442 146.2 100.223C147.52 99.3002 148.754 98.0545 149.427 96.7052C151.125 93.1646 147.643 92.1392 148.632 89.1294C149.004 87.9978 149.886 87.1228 150.945 86.4094C151.559 85.9961 150.89 85.155 150.21 85.3258C147.63 85.9767 145.981 88.3712 145.981 90.6289L145.668 90.6294Z" fill="#F3D7C7"/>
<path d="M145.668 90.6299H145.982C145.982 90.8171 145.993 91.0042 146.016 91.1903C146.108 91.9263 146.363 92.5966 146.687 93.2804C146.987 93.9146 147.286 94.4987 147.112 95.1916C146.88 96.1205 146.157 96.8517 145.376 97.522C145.543 95.2304 145.665 92.9296 145.668 90.6299Z" fill="#F3D7C7"/>
<path d="M144.176 71.8514C144.135 71.8527 144.095 71.8401 144.064 71.8159C144.032 71.7918 144.011 71.7579 144.006 71.7207C144 71.6834 144.009 71.6456 144.032 71.6143C144.055 71.583 144.089 71.5606 144.129 71.5513C145.024 71.3282 145.99 71.0609 146.93 71.0663C147.005 71.0641 147.078 71.0872 147.135 71.1311C147.193 71.175 147.23 71.2367 147.241 71.3043C147.252 71.372 147.235 71.4409 147.193 71.4979C147.152 71.5549 147.089 71.596 147.017 71.6132C146.123 71.8573 145.105 71.8406 144.176 71.8514Z" fill="black"/>
<path d="M143.718 39.2999C146.528 39.2013 149.8 40.6373 150.562 43.1121C150.716 43.6068 149.956 43.8347 149.643 43.4435C148.178 41.6304 146.405 40.1567 143.718 39.8986C143.28 39.8571 143.261 39.3161 143.718 39.2999Z" fill="black"/>
<path d="M145.98 35.5347C144.715 34.9242 143.117 34.6057 141.689 34.8633C141.425 34.9107 141.314 34.5804 141.577 34.5136C143.172 34.1079 144.742 34.1186 146.279 34.6919C147.742 35.2378 149.189 36.2438 149.52 37.6442C149.588 37.9265 149.151 38.225 148.896 37.9562C148.023 37.0375 147.205 36.1263 145.98 35.5347Z" fill="black"/>
<path d="M122.136 60.5884C124.33 60.7415 126.578 60.9958 128.606 61.7669C132.775 63.2993 134.538 67.209 135.436 70.762C135.69 71.6182 136.374 73.176 135.039 73.6097C135.044 73.7498 134.863 73.8834 134.703 73.7913C134.627 73.7482 134.552 73.7035 134.477 73.6593C133.963 73.6221 133.673 73.1372 133.218 73.0332C133.1 73.0109 132.992 72.9572 132.907 72.8786C132.823 72.8 132.765 72.7003 132.743 72.5919C126.354 68.1568 121.747 70.2033 114.499 69.4408C113.541 69.3266 112.552 69.0992 111.974 68.375C111.267 67.4892 111.481 66.238 111.701 65.2498C112.084 63.5256 111.723 61.0006 114.309 60.583C116.859 60.1708 119.571 60.4085 122.136 60.5884ZM113.717 66.6007C113.768 66.8992 113.771 67.1858 114.101 67.3496C114.445 67.5204 115.021 67.5366 115.396 67.5797C116.361 67.6913 117.339 67.7284 118.311 67.7511C124.084 67.7791 130.052 67.3539 133.795 71.9173C133.939 71.9469 134.079 71.9933 134.21 72.0552C133.393 68.4451 131.945 64.1646 127.499 62.7836C125.694 62.2022 123.754 62.0939 121.851 61.9587C119.546 61.797 117.217 61.6392 114.907 61.7879C113.453 61.7803 113.525 62.476 113.455 63.4776C113.358 64.5375 113.545 65.551 113.717 66.6007Z" fill="black"/>
<path d="M126.774 67.3647C127.552 66.8485 128.481 66.5365 129.47 66.7181C129.78 66.7757 129.89 66.4088 129.599 66.315C128.416 65.9379 127.068 66.1647 126.288 67.0446C126.055 67.3081 126.527 67.5301 126.774 67.3647ZM121.85 61.9586C123.753 62.0939 125.694 62.2022 127.498 62.7836C131.945 64.1646 133.393 68.4477 134.21 72.0551C134.078 71.9932 133.938 71.9469 133.794 71.9172C130.05 67.3539 124.08 67.779 118.311 67.751C117.339 67.7284 116.36 67.6912 115.395 67.5797C115.02 67.5366 114.444 67.5204 114.1 67.3496C113.77 67.1879 113.767 66.8991 113.717 66.6006C113.545 65.551 113.358 64.5375 113.455 63.4754C113.525 62.4738 113.455 61.7781 114.907 61.7857C117.217 61.6391 119.545 61.7954 121.85 61.9586V61.9586ZM124.989 64.9491C125.042 64.9368 125.088 64.907 125.118 64.8656C125.148 64.8243 125.16 64.7741 125.152 64.7249C125.144 64.6757 125.117 64.6309 125.075 64.5991C125.034 64.5672 124.98 64.5507 124.926 64.5525C123.521 64.5762 121.753 65.0375 120.801 65.9793C120.517 66.2617 120.873 66.6658 121.264 66.4934C121.856 66.2321 122.378 65.8678 122.979 65.6119C123.619 65.3398 124.309 65.1334 124.989 64.9491V64.9491ZM120.449 63.9577C120.648 63.8817 120.502 63.622 120.306 63.6651C119.064 63.9431 117.741 64.6075 117.014 65.5407C116.843 65.7606 117.216 65.9761 117.423 65.8102C117.904 65.4281 118.318 65.0192 118.867 64.6996C119.371 64.4122 119.9 64.164 120.449 63.9577V63.9577Z" fill="#2B1710"/>
<path d="M130.926 121.917C130.874 121.796 131.09 121.752 131.145 121.863C131.832 123.27 132.423 125.086 131.278 126.45C131.053 126.72 130.609 126.551 130.671 126.23C130.949 124.763 131.564 123.401 130.926 121.917Z" fill="black"/>
<path d="M113.59 81.6954C113.355 81.9707 112.867 82.1803 112.49 81.9422C111.284 81.1339 111.992 79.5837 112.705 78.6677C113.155 77.7776 113.554 77.0777 114.49 76.4833C117.47 74.6282 122.294 74.9595 125.739 76.0253C126.822 76.2947 127.831 76.7667 128.667 77.4909C129.83 78.4969 131.552 81.0191 130.293 82.3538C130.146 82.5085 129.783 82.5489 129.594 82.4314C128.956 82.0359 128.789 81.4324 128.39 80.8839C127.996 80.3451 127.441 79.8865 126.853 79.5061C126.078 79.0066 125.348 78.692 124.553 78.5077C124.853 79.2162 124.789 80.0638 124.455 80.7707C122.234 84.8356 115.536 82.8635 116.435 78.4312C115.508 78.678 114.641 79.2012 114.154 79.934C114.081 80.0703 114.012 80.2088 113.939 80.344C113.723 80.8155 113.96 81.2649 113.59 81.6954ZM121.067 79.3919C121.204 79.1096 120.861 78.6068 120.682 78.3854C120.644 78.3366 120.619 78.28 120.611 78.2205C120.344 78.2059 120.078 78.1909 119.81 78.179C119.575 78.7604 119.115 79.4496 119.506 80.0902C119.589 79.9772 119.695 79.8799 119.818 79.8036C120.138 79.5999 120.893 79.7486 121.067 79.3919Z" fill="black"/>
<path d="M126.774 67.3649C126.527 67.5266 126.055 67.3111 126.289 67.0449C127.066 66.165 128.416 65.9376 129.6 66.3153C129.89 66.4091 129.78 66.776 129.47 66.7184C128.481 66.5368 127.551 66.8487 126.774 67.3649Z" fill="black"/>
<path d="M127.839 123.73C127.78 123.391 128.335 123.241 128.449 123.584C129.003 125.236 129.505 127.771 128.227 129.271C128.016 129.519 127.566 129.438 127.545 129.109C127.493 128.253 127.821 127.379 127.915 126.526C128.026 125.595 128.001 124.654 127.839 123.73V123.73Z" fill="black"/>
<path d="M111.665 76.9512C111.508 77.1818 111.119 77.1193 111.027 76.8801C110.746 76.1548 111.321 75.1709 111.753 74.5481C113.476 72.0037 117.106 71.064 120.36 71.1071C124.187 71.1104 128.897 72.375 130.789 75.4684C130.793 75.473 130.796 75.4782 130.798 75.4838C130.799 75.4894 130.8 75.4953 130.799 75.501C130.798 75.5068 130.796 75.5123 130.793 75.5174C130.79 75.5224 130.786 75.5268 130.78 75.5303C130.775 75.5339 130.77 75.5365 130.764 75.538C130.757 75.5395 130.751 75.5399 130.745 75.5391C130.739 75.5384 130.732 75.5365 130.727 75.5336C130.721 75.5307 130.717 75.5269 130.713 75.5223C128.068 73.1191 124.728 71.8512 120.867 71.8044C118.795 71.779 116.628 72.0738 114.837 73.0097C113.585 73.6563 112.536 74.6445 112.058 75.8423C111.911 76.213 111.899 76.6096 111.665 76.9512Z" fill="black"/>
<path d="M124.484 132.229C124.276 132.459 123.864 132.206 123.941 131.96C124.236 131.015 124.716 130.151 124.856 129.164C124.999 128.188 124.965 127.197 124.755 126.232C124.696 125.977 125.115 125.875 125.21 126.124C125.922 128.017 125.981 130.578 124.484 132.229Z" fill="black"/>
<path d="M121.262 66.4932C120.871 66.6657 120.515 66.2615 120.8 65.9792C121.752 65.0352 123.52 64.5783 124.925 64.5524C124.979 64.5505 125.032 64.5671 125.074 64.5989C125.116 64.6307 125.143 64.6756 125.151 64.7248C125.159 64.774 125.147 64.8241 125.116 64.8655C125.086 64.9069 125.041 64.9366 124.988 64.949C124.307 65.1332 123.617 65.3396 122.977 65.6117C122.377 65.8677 121.855 66.2319 121.262 66.4932Z" fill="black"/>
<path d="M119.679 112.269C120.107 112.924 120.807 113.498 121.53 113.925C121.648 113.996 121.828 113.877 121.78 113.76C121.475 112.996 120.746 112.317 119.844 112.085C119.818 112.078 119.789 112.078 119.762 112.085C119.736 112.093 119.712 112.107 119.695 112.127C119.677 112.146 119.666 112.17 119.663 112.196C119.66 112.221 119.666 112.247 119.679 112.269V112.269ZM115.387 110.599C116.27 111.573 117.415 112.333 118.501 113.131C118.644 113.239 118.913 113.091 118.782 112.946C117.884 111.935 116.976 110.924 115.76 110.181C115.447 109.989 115.193 110.386 115.387 110.598V110.599ZM113.079 110.963C113.565 111.408 114.056 112.102 114.701 112.364C114.916 112.45 115.239 112.304 115.141 112.073C114.888 111.465 114.103 110.985 113.572 110.542C112.963 110.039 112.322 109.568 111.653 109.133C111.467 109.009 111.281 109.262 111.418 109.394C111.962 109.924 112.514 110.447 113.079 110.963V110.963ZM107.752 108.837C108.247 109.398 108.821 109.901 109.358 110.43C109.88 110.941 110.364 111.598 111.018 111.981C111.247 112.115 111.457 111.862 111.362 111.686C111.056 111.106 110.382 110.608 109.881 110.142C109.309 109.613 108.748 109.065 108.097 108.61C107.92 108.485 107.593 108.654 107.752 108.837V108.837ZM104.985 108.317C105.856 109.515 106.764 110.786 107.888 111.82C107.905 111.835 107.928 111.844 107.952 111.845C107.975 111.847 107.999 111.84 108.019 111.828C108.038 111.815 108.052 111.797 108.058 111.776C108.065 111.754 108.063 111.732 108.053 111.712C107.252 110.474 106.122 109.346 105.062 108.265C105.027 108.229 104.958 108.278 104.986 108.319L104.985 108.317ZM88.7182 110.599C88.9113 110.387 88.6593 109.991 88.3449 110.183C87.1286 110.926 86.2208 111.937 85.3242 112.948C85.1929 113.093 85.4607 113.239 85.6032 113.133C86.6935 112.333 87.8363 111.572 88.7193 110.598L88.7182 110.599ZM84.4264 112.269C84.4394 112.247 84.4449 112.221 84.4421 112.196C84.4393 112.17 84.4283 112.146 84.4105 112.126C84.3928 112.107 84.369 112.092 84.3423 112.085C84.3156 112.077 84.287 112.077 84.2603 112.085C83.359 112.317 82.6301 112.996 82.3246 113.76C82.2775 113.877 82.4547 113.996 82.5748 113.925C83.2984 113.498 83.9983 112.924 84.4275 112.269H84.4264ZM80.0027 115.448C79.2632 115.603 78.3101 115.879 77.6007 115.514C75.9993 114.692 79.202 113.497 79.8708 113.17C81.2947 112.471 82.7302 111.792 84.1773 111.132C86.982 109.811 89.8744 108.636 92.7139 107.376C93.6847 107.711 94.7826 107.632 95.7752 107.406C96.4264 107.259 97.2594 107.063 97.7822 106.641C98.8419 107.015 99.8757 107.552 101.071 107.87C101.201 107.937 101.343 107.983 101.49 108.005C101.633 108.015 101.774 108.023 101.917 108.032C101.962 108.032 102.008 108.032 102.055 108.027C102.102 108.022 102.146 108.032 102.191 108.032C102.191 108.038 102.191 108.044 102.191 108.05C102.25 108.052 102.309 108.057 102.368 108.06L102.363 108.029C102.599 108.029 102.833 107.975 103.04 107.87C104.237 107.552 105.271 107.015 106.328 106.641C106.852 107.063 107.682 107.259 108.336 107.406C109.327 107.632 110.424 107.711 111.397 107.376C114.237 108.636 117.128 109.811 119.934 111.132C121.381 111.792 122.816 112.471 124.241 113.17C124.91 113.497 128.112 114.692 126.511 115.514C125.801 115.878 124.848 115.603 124.111 115.448C121.796 114.95 119.46 114.523 117.101 114.216C113.908 113.8 110.693 113.541 107.47 113.441C106.008 113.396 104.249 113.365 103.172 112.387C102.878 112.228 102.76 111.92 102.68 111.644C102.315 110.759 102.249 109.816 102.15 108.891C101.914 110.055 101.966 111.486 100.961 112.372C99.8863 113.363 98.116 113.395 96.6466 113.441C91.0354 113.617 85.4425 114.246 80.0038 115.447L80.0027 115.448ZM99.1192 108.319C99.1487 108.28 99.0786 108.231 99.0433 108.268C97.9836 109.346 96.8538 110.478 96.0514 111.714C96.0421 111.734 96.0406 111.756 96.0471 111.777C96.0536 111.798 96.0677 111.816 96.087 111.829C96.1064 111.841 96.1299 111.847 96.1536 111.846C96.1773 111.845 96.1998 111.836 96.2174 111.821C97.3413 110.786 98.2491 109.515 99.1192 108.319ZM96.3522 108.839C96.5129 108.656 96.1844 108.487 96.0078 108.612C95.3567 109.068 94.7944 109.615 94.2228 110.144C93.7229 110.61 93.0488 111.108 92.7421 111.687C92.6479 111.864 92.8569 112.118 93.0859 111.983C93.7424 111.599 94.2245 110.943 94.7456 110.431C95.2854 109.9 95.8583 109.397 96.354 108.837L96.3522 108.839ZM92.6886 109.393C92.8228 109.261 92.6379 109.009 92.4531 109.132C91.7842 109.568 91.1432 110.038 90.5332 110.541C90.0034 110.984 89.2198 111.464 88.9649 112.072C88.8671 112.304 89.1903 112.449 89.4046 112.364C90.0522 112.103 90.5415 111.409 91.0272 110.963C91.5923 110.447 92.1446 109.924 92.6903 109.391L92.6886 109.393Z" fill="#2B1710"/>
<path d="M119.817 79.8035C119.694 79.8799 119.588 79.9772 119.505 80.0902C119.113 79.4495 119.575 78.7604 119.809 78.179C120.077 78.1908 120.343 78.2059 120.609 78.2204C120.618 78.2799 120.643 78.3365 120.681 78.3853C120.857 78.6068 121.202 79.1095 121.066 79.3919C120.892 79.7486 120.137 79.5999 119.817 79.8035Z" fill="white"/>
<path d="M119.845 112.085C120.746 112.317 121.476 112.996 121.781 113.76C121.828 113.877 121.651 113.996 121.531 113.925C120.808 113.499 120.108 112.925 119.679 112.27C119.666 112.247 119.661 112.221 119.664 112.196C119.666 112.171 119.677 112.147 119.695 112.127C119.713 112.107 119.736 112.093 119.763 112.085C119.79 112.078 119.818 112.078 119.845 112.085Z" fill="black"/>
<path d="M118.212 133.388C118.23 133.247 118.49 133.246 118.472 133.388C118.334 134.473 118.376 135.527 118.1 136.603C117.827 137.669 117.389 138.726 116.746 139.668C116.456 140.093 115.572 139.802 115.796 139.325C116.236 138.384 116.714 137.461 117.123 136.509C117.55 135.524 118.079 134.436 118.212 133.388Z" fill="black"/>
<path d="M115.385 110.598C115.192 110.386 115.444 109.991 115.759 110.182C116.975 110.925 117.883 111.936 118.781 112.947C118.911 113.093 118.643 113.238 118.5 113.132C117.414 112.333 116.269 111.572 115.385 110.598Z" fill="black"/>
<path d="M117.424 65.8113C117.217 65.9761 116.845 65.7606 117.015 65.5418C117.742 64.6086 119.065 63.9442 120.307 63.6662C120.503 63.6231 120.649 63.8817 120.45 63.9588C119.901 64.1655 119.372 64.414 118.868 64.7018C118.318 65.0203 117.903 65.4287 117.424 65.8113Z" fill="black"/>
<path d="M114.098 134.416C114.094 136.698 113.527 139.172 111.914 141.044C111.698 141.294 111.118 141.152 111.276 140.813C112.252 138.685 113.358 136.645 113.954 134.399C113.96 134.384 113.971 134.372 113.986 134.364C114 134.356 114.017 134.353 114.034 134.355C114.051 134.357 114.066 134.365 114.078 134.376C114.09 134.387 114.097 134.401 114.098 134.416V134.416Z" fill="black"/>
<path d="M130.926 121.917C131.564 123.401 130.949 124.763 130.671 126.232C130.612 126.553 131.053 126.722 131.279 126.452C132.424 125.088 131.833 123.273 131.146 121.865C131.09 121.752 130.874 121.796 130.926 121.917ZM127.841 123.73C128.003 124.655 128.028 125.597 127.917 126.528C127.823 127.382 127.495 128.256 127.547 129.112C127.568 129.439 128.018 129.519 128.229 129.274C129.507 127.774 129.005 125.238 128.451 123.587C128.336 123.24 127.779 123.39 127.841 123.73ZM124.757 126.23C124.967 127.196 125.001 128.186 124.858 129.162C124.718 130.149 124.241 131.013 123.943 131.958C123.866 132.207 124.278 132.46 124.486 132.228C125.983 130.576 125.924 128.015 125.211 126.119C125.117 125.872 124.7 125.974 124.757 126.229V126.23ZM103.139 142.211C103.135 142.549 103.63 142.621 103.835 142.373C104.55 141.498 104.74 140.263 105.053 139.245C105.407 138.101 105.576 136.95 105.802 135.786C105.807 135.76 105.802 135.733 105.787 135.711C105.772 135.688 105.748 135.672 105.72 135.665C105.692 135.658 105.662 135.661 105.637 135.674C105.611 135.686 105.592 135.707 105.583 135.732C105.118 136.837 104.578 137.911 104.161 139.032C103.786 140.043 103.145 141.142 103.139 142.211ZM100.427 133.854C100.852 134.077 101.27 133.647 101.074 133.301C100.749 132.736 100.233 132.263 99.8873 131.703C99.5235 131.116 99.1921 130.46 99.0896 129.801C99.0543 129.578 98.6463 129.639 98.6434 129.855C98.6092 131.261 98.8677 133.041 100.427 133.854ZM98.9683 142.592C99.1726 142.999 100.007 142.704 99.8143 142.286C98.7152 139.886 97.9192 137.428 97.6266 134.857C97.5995 134.612 97.1721 134.601 97.1721 134.857C97.1804 137.515 97.7391 140.144 98.9683 142.592ZM97.1704 132.392C97.39 132.656 97.9946 132.602 97.9581 132.21C97.8951 131.495 97.5895 130.813 97.4936 130.095C97.4031 129.38 97.3651 128.66 97.3799 127.94C97.3799 127.803 97.135 127.728 97.0632 127.865C96.3827 129.163 96.1472 131.166 97.1704 132.392ZM94.796 133.495C94.3333 136.071 94.2149 138.821 95.7268 141.184C95.9217 141.489 96.4886 141.283 96.3797 140.948C95.5873 138.523 94.7201 136.082 95.0998 133.53C95.121 133.384 94.8225 133.347 94.796 133.495ZM89.4875 138.324C89.723 139.716 90.0886 141.399 91.2537 142.449C91.5198 142.688 91.9048 142.431 91.8512 142.15C91.5898 140.807 90.8056 139.569 90.513 138.217C90.2112 136.821 90.1445 135.391 90.3152 133.976C90.3541 133.658 89.7336 133.585 89.6623 133.901C89.3285 135.368 89.2408 136.841 89.4875 138.324V138.324ZM86.4473 138.839C86.6475 139.092 87.1991 139.024 87.1732 138.669C87.1067 137.76 86.774 136.884 86.6504 135.975C86.5165 135.017 86.5165 134.047 86.6504 133.089C86.6898 132.824 86.2071 132.787 86.1247 133.028C85.5136 134.795 85.168 137.219 86.4473 138.839ZM83.2646 137.089C83.4318 137.309 83.9093 137.247 83.8846 136.945C83.8086 136.021 83.4819 135.128 83.4136 134.2C83.3388 133.2 83.3759 132.194 83.6114 131.211C83.6573 131.022 83.3647 130.96 83.2835 131.132C82.4445 132.907 81.9588 135.38 83.2646 137.089ZM78.7285 130.988C78.9092 131.425 79.6657 131.254 79.5439 130.795C79.1524 129.325 78.9187 127.67 79.4968 126.203C79.5715 126.013 79.2336 125.942 79.1524 126.122C78.7838 126.93 78.4624 127.638 78.3794 128.513C78.2934 129.352 78.4126 130.197 78.7285 130.988ZM76.0345 130.114C76.1599 130.332 76.5461 130.217 76.5496 129.995C76.5637 129.017 76.2847 128.06 76.3059 127.077C76.33 126.05 76.4825 124.958 76.884 123.986C76.9429 123.849 76.6939 123.795 76.6338 123.926C75.7831 125.765 74.9483 128.212 76.0345 130.114V130.114ZM73.4929 127.54C73.5577 127.743 73.865 127.678 73.8909 127.493C73.9998 126.748 73.9168 125.991 73.9869 125.241C74.0691 124.418 74.2494 123.607 74.5244 122.821C74.5833 122.654 74.2954 122.592 74.23 122.749C73.6148 124.175 73.0137 126.028 73.4929 127.54V127.54ZM60.3408 85.7808C60.7399 86.3196 61.3022 87.2787 62.1011 87.5018C62.4761 89.9987 62.8835 92.4913 63.408 94.9661C63.7024 98.3844 63.9297 101.814 64.35 105.225C64.6196 107.391 65.0129 109.576 65.8807 111.637C69.3836 120.42 78.3947 118.025 80.9721 123.989C82.1855 127.796 82.3138 130.449 87.6094 131.425C88.8905 131.645 90.5425 131.91 91.8218 131.59C93.3013 131.222 93.6733 129.826 93.9247 128.69C94.1743 127.592 94.2689 126.469 94.2061 125.349C95.9546 126.07 97.7414 126.569 99.6754 126.697C100.382 126.753 103.733 126.753 104.439 126.697C106.373 126.57 108.159 126.071 109.908 125.349C109.845 126.469 109.94 127.592 110.189 128.69C110.441 129.826 110.812 131.223 112.292 131.59C113.572 131.909 115.223 131.644 116.505 131.425C117.867 131.19 119.202 130.737 120.254 129.94C124.306 126.387 120.666 122.828 128.091 119.802C133.167 117.809 136.232 116.416 138.233 111.638C139.099 109.579 139.492 107.394 139.764 105.226C140.418 99.5224 140.777 93.7958 141.263 88.081C141.34 88.0729 141.411 88.0405 141.465 87.9895C141.519 87.9385 141.551 87.872 141.557 87.8014C141.7 86.5028 141.858 85.2021 141.996 83.903C142.792 83.7677 143.555 83.5387 144.309 83.2979C144.261 83.7116 144.248 84.128 144.268 84.5436C144.085 86.027 143.895 87.5115 143.762 89.0008C143.232 96.0594 142.511 103.114 141.195 110.1C140.43 114.149 139.276 118.137 137.133 121.823C135.146 125.239 132.541 128.362 129.673 131.269C127.777 133.193 125.605 134.997 123.727 136.971C123.739 136.656 123.705 136.342 123.627 136.035C123.568 135.816 123.179 135.709 123.002 135.894C122.354 136.578 121.952 137.406 121.468 138.18C119.926 140.75 117.282 142.703 114.27 143.946C112.123 144.848 109.796 145.447 107.488 145.964C105.696 146.372 103.887 146.733 102.058 146.993C100.228 146.733 98.4185 146.372 96.6258 145.964C94.318 145.447 91.9907 144.848 89.8437 143.946C86.8317 142.707 84.1878 140.752 82.6465 138.18C82.1625 137.406 81.7634 136.578 81.1117 135.894C80.935 135.709 80.5465 135.816 80.4882 136.035C80.409 136.342 80.3751 136.656 80.3875 136.971C78.5118 134.997 76.3406 133.193 74.4414 131.269C71.5719 128.362 68.9703 125.239 66.981 121.823C64.8357 118.137 63.6842 114.149 62.9188 110.1C61.6018 103.114 60.8824 96.0594 60.3514 89.0008C60.2378 87.7184 60.08 86.4387 59.921 85.159C60.0482 85.3653 60.1859 85.5733 60.3408 85.7802V85.7808ZM118.472 133.389C118.49 133.246 118.23 133.248 118.212 133.389C118.079 134.437 117.55 135.525 117.124 136.51C116.712 137.462 116.237 138.385 115.798 139.325C115.573 139.802 116.457 140.094 116.747 139.669C117.389 138.726 117.828 137.67 118.101 136.604C118.376 135.53 118.334 134.473 118.472 133.388V133.389ZM114.1 134.417C114.098 134.402 114.091 134.388 114.079 134.377C114.067 134.366 114.052 134.359 114.035 134.357C114.019 134.355 114.002 134.359 113.987 134.367C113.973 134.375 113.962 134.387 113.956 134.401C113.36 136.647 112.254 138.688 111.278 140.816C111.12 141.156 111.7 141.296 111.916 141.047C113.529 139.172 114.096 136.698 114.1 134.417V134.417ZM109.133 138.769C109.704 137.328 109.946 135.94 109.803 134.423C109.792 134.297 109.568 134.254 109.532 134.392C109.172 135.694 108.751 137.032 108.201 138.285C107.897 138.963 107.54 139.62 107.133 140.251C106.794 140.79 106.317 141.333 106.203 141.947C106.153 142.217 106.453 142.475 106.763 142.317C108.047 141.664 108.675 139.919 109.133 138.769V138.769ZM105.693 132.142C107.064 131.197 107.178 129.037 106.674 127.708C106.556 127.399 106.037 127.457 106.02 127.784C105.982 128.499 105.932 129.21 105.725 129.907C105.533 130.553 105.143 131.146 105.027 131.81C104.967 132.153 105.371 132.363 105.693 132.14V132.142ZM104.242 132.253C104.516 131.589 104.413 131.068 104.18 130.417C104.171 130.396 104.156 130.379 104.136 130.367C104.117 130.354 104.094 130.348 104.07 130.348C104.046 130.348 104.023 130.354 104.003 130.367C103.984 130.379 103.969 130.396 103.96 130.417C103.639 131.44 102.893 132.292 102.27 133.181C102.015 133.544 102.53 134.007 102.958 133.773C103.583 133.429 103.998 132.846 104.239 132.251L104.242 132.253Z" fill="#522D1C"/>
<path d="M113.08 110.962C112.515 110.447 111.961 109.924 111.417 109.391C111.282 109.259 111.467 109.007 111.652 109.13C112.321 109.566 112.962 110.036 113.571 110.539C114.101 110.982 114.887 111.462 115.14 112.07C115.238 112.301 114.915 112.447 114.7 112.361C114.057 112.101 113.565 111.407 113.08 110.962Z" fill="black"/>
<path d="M107.753 108.837C107.592 108.654 107.92 108.485 108.097 108.609C108.748 109.066 109.31 109.613 109.882 110.142C110.382 110.607 111.056 111.105 111.363 111.685C111.457 111.862 111.245 112.116 111.018 111.981C110.364 111.597 109.88 110.94 109.359 110.429C108.821 109.9 108.248 109.397 107.753 108.837Z" fill="black"/>
<path d="M106.762 142.319C106.452 142.477 106.152 142.217 106.202 141.949C106.316 141.335 106.791 140.792 107.132 140.253C107.539 139.622 107.896 138.965 108.2 138.287C108.75 137.033 109.17 135.696 109.531 134.394C109.568 134.256 109.791 134.299 109.802 134.425C109.945 135.941 109.703 137.329 109.132 138.771C108.674 139.919 108.045 141.664 106.762 142.319Z" fill="black"/>
<path d="M107.535 82.286C107.544 82.0926 107.848 82.1028 107.876 82.286C108.538 86.6732 108.7 91.1228 108.889 95.5411C108.912 96.0988 107.914 96.0945 107.882 95.5411C107.616 91.1309 107.32 86.6985 107.535 82.286Z" fill="black"/>
<path d="M106.673 127.706C107.176 129.035 107.062 131.195 105.692 132.14C105.37 132.363 104.966 132.153 105.026 131.808C105.144 131.146 105.532 130.552 105.724 129.905C105.93 129.207 105.981 128.497 106.018 127.782C106.036 127.455 106.555 127.397 106.673 127.706Z" fill="black"/>
<path d="M104.16 139.032C104.576 137.911 105.117 136.837 105.581 135.732C105.59 135.707 105.61 135.687 105.635 135.674C105.661 135.662 105.69 135.659 105.718 135.665C105.746 135.672 105.77 135.689 105.785 135.711C105.801 135.734 105.806 135.76 105.8 135.786C105.575 136.95 105.403 138.103 105.052 139.245C104.738 140.263 104.549 141.498 103.834 142.373C103.629 142.622 103.134 142.549 103.137 142.212C103.144 141.142 103.785 140.043 104.16 139.032Z" fill="black"/>
<path d="M105.061 108.265C106.121 109.343 107.25 110.474 108.053 111.711C108.062 111.731 108.064 111.753 108.058 111.774C108.052 111.795 108.038 111.814 108.018 111.826C107.999 111.839 107.975 111.845 107.951 111.844C107.927 111.842 107.905 111.833 107.887 111.818C106.763 110.783 105.856 109.512 104.985 108.316C104.957 108.278 105.027 108.229 105.061 108.265Z" fill="black"/>
<path d="M103.959 130.415C103.967 130.394 103.982 130.377 104.002 130.365C104.022 130.352 104.045 130.346 104.068 130.346C104.092 130.346 104.115 130.352 104.135 130.365C104.155 130.377 104.17 130.394 104.178 130.415C104.414 131.069 104.514 131.587 104.24 132.251C103.996 132.844 103.582 133.427 102.957 133.77C102.528 134.005 102.015 133.542 102.269 133.178C102.892 132.29 103.637 131.435 103.959 130.415Z" fill="black"/>
<path d="M84.0979 117.667C84.4064 117.08 85.0057 116.643 85.452 116.136C85.5003 116.09 85.5361 116.035 85.5565 115.974C85.577 115.913 85.5815 115.848 85.5697 115.786C89.5371 115.255 93.5075 115.168 97.5062 114.958C99.1151 114.874 100.874 114.619 102.056 113.611C103.237 114.617 104.995 114.873 106.605 114.958C110.603 115.168 114.574 115.255 118.541 115.786C118.53 115.849 118.534 115.913 118.555 115.974C118.575 116.036 118.611 116.092 118.659 116.138C119.102 116.643 119.702 117.08 120.013 117.667C119.576 117.489 119.214 117.376 118.694 117.358C117.606 117.328 116.525 117.531 115.495 117.816C114.454 117.321 113.301 117.036 112.164 116.746C110.86 116.411 109.553 116.095 108.228 115.826C106.979 115.572 105.781 115.491 104.527 115.772C103.804 115.934 102.811 116.193 102.054 116.587C101.299 116.193 100.305 115.936 99.5814 115.772C98.328 115.49 97.1294 115.57 95.8807 115.826C94.5555 116.095 93.2479 116.411 91.9439 116.746C90.807 117.036 89.6543 117.321 88.6134 117.816C87.5838 117.531 86.5023 117.328 85.4155 117.358C84.895 117.376 84.533 117.489 84.0979 117.667Z" fill="#F1DCCD"/>
<path d="M95.4993 117.35C96.7315 117.113 97.8748 116.898 99.1223 117.205C99.8447 117.384 100.522 117.761 101.225 118.014C101.368 118.241 101.737 118.299 102.054 118.229C102.369 118.298 102.737 118.239 102.878 118.014C103.581 117.761 104.258 117.383 104.981 117.205C106.228 116.898 107.371 117.113 108.604 117.35C110.494 117.695 112.435 118.055 114.359 118.155C113.912 118.298 113.466 118.444 113.016 118.576C111.019 119.169 108.954 119.325 106.835 119.223C106.948 119.077 106.959 118.819 106.707 118.772C105.876 118.637 105.006 118.934 104.2 119.096C103.531 119.228 102.744 119.203 102.054 119.344C101.362 119.203 100.574 119.228 99.9047 119.096C99.0993 118.938 98.2292 118.639 97.3973 118.772C97.146 118.819 97.1571 119.077 97.2708 119.223C96.579 119.227 95.879 119.277 95.2555 119.246C93.3669 119.178 91.4912 118.766 89.7439 118.157C91.6679 118.055 93.6089 117.695 95.4993 117.35Z" fill="#D8C6BA"/>
<path d="M98.6387 129.852C98.6387 129.64 99.0508 129.577 99.085 129.798C99.1874 130.458 99.5189 131.113 99.8827 131.7C100.228 132.261 100.745 132.733 101.07 133.298C101.268 133.644 100.851 134.074 100.422 133.851C98.866 133.04 98.6075 131.261 98.6387 129.852Z" fill="black"/>
<path d="M89.7438 118.155C91.4911 118.764 93.3668 119.176 95.2554 119.244C95.8789 119.274 96.5789 119.225 97.2707 119.221C97.157 119.075 97.1459 118.817 97.3972 118.77C98.2291 118.635 99.0992 118.932 99.9046 119.094C100.574 119.226 101.362 119.201 102.053 119.342C102.743 119.201 103.531 119.226 104.2 119.094C105.006 118.936 105.876 118.637 106.707 118.77C106.959 118.817 106.948 119.075 106.835 119.221C108.954 119.325 111.021 119.167 113.016 118.574C113.466 118.442 113.912 118.296 114.359 118.153C112.434 118.053 110.494 117.693 108.604 117.348C107.371 117.111 106.228 116.896 104.981 117.203C104.258 117.382 103.581 117.759 102.878 118.012C102.735 118.239 102.366 118.297 102.053 118.227C101.737 118.296 101.368 118.237 101.225 118.012C100.519 117.759 99.8446 117.381 99.1222 117.203C97.8747 116.896 96.7314 117.111 95.4992 117.348C93.6088 117.695 91.6678 118.054 89.7438 118.155ZM85.4155 117.359C86.5023 117.328 87.5838 117.531 88.6134 117.816C89.6543 117.321 90.807 117.036 91.9439 116.746C93.2479 116.411 94.5555 116.095 95.8807 115.826C97.1294 115.572 98.328 115.492 99.5814 115.772C100.304 115.934 101.298 116.193 102.054 116.587C102.808 116.193 103.801 115.936 104.527 115.772C105.781 115.49 106.979 115.57 108.228 115.826C109.553 116.096 110.86 116.411 112.164 116.746C113.301 117.036 114.454 117.321 115.495 117.816C116.525 117.531 117.606 117.328 118.694 117.359C119.214 117.376 119.578 117.489 120.013 117.667L120.026 118.044C117.29 118.123 114.932 119.131 112.481 120.088C111.291 120.551 109.982 120.741 108.694 120.878C107.372 121.002 105.602 121.349 104.447 120.647C103.731 120.912 102.849 121.234 102.057 121.198C101.263 121.234 100.381 120.912 99.665 120.647C98.5099 121.347 96.7402 121.002 95.4179 120.878C94.1304 120.741 92.8211 120.551 91.6307 120.088C89.1804 119.131 86.8225 118.123 84.0879 118.044L84.1008 117.667C84.5324 117.489 84.8944 117.376 85.4155 117.359V117.359Z" fill="black"/>
<path d="M97.1731 134.856C97.1731 134.6 97.6005 134.611 97.6276 134.856C97.922 137.428 98.7161 139.886 99.8153 142.285C100.008 142.704 99.1736 142.999 98.9693 142.591C97.7377 140.143 97.179 137.514 97.1731 134.856Z" fill="black"/>
<path d="M97.9565 132.209C97.9906 132.602 97.3883 132.656 97.1687 132.392C96.1455 131.165 96.381 129.162 97.0616 127.866C97.1334 127.729 97.3801 127.803 97.3783 127.94C97.3635 128.66 97.4015 129.38 97.4919 130.096C97.5879 130.812 97.8935 131.494 97.9565 132.209Z" fill="black"/>
<path d="M96.2301 82.286C96.2578 82.1028 96.561 82.0926 96.571 82.286C96.7835 86.6985 96.488 91.1309 96.2248 95.5411C96.1907 96.0945 95.1939 96.0988 95.2163 95.5411C95.4059 91.1206 95.5684 86.6732 96.2301 82.286Z" fill="black"/>
<path d="M96.2171 111.822C96.1995 111.836 96.177 111.845 96.1533 111.846C96.1296 111.848 96.1061 111.842 96.0868 111.829C96.0674 111.816 96.0533 111.798 96.0468 111.777C96.0403 111.756 96.0418 111.734 96.0511 111.714C96.8535 110.479 97.9821 109.348 99.043 108.269C99.0783 108.232 99.1484 108.281 99.1189 108.319C98.2488 109.515 97.341 110.786 96.2171 111.822Z" fill="black"/>
<path d="M95.7239 141.184C94.212 138.821 94.3304 136.071 94.7931 133.496C94.8196 133.347 95.1181 133.384 95.0969 133.53C94.7171 136.082 95.5843 138.525 96.3768 140.948C96.4857 141.283 95.9187 141.489 95.7239 141.184Z" fill="black"/>
<path d="M77.6006 115.512C78.3071 115.876 79.2632 115.601 80.0026 115.447C85.4413 114.247 91.0342 113.615 96.6418 113.439C98.1136 113.394 99.8798 113.361 100.957 112.37C101.962 111.484 101.908 110.053 102.145 108.889C102.242 109.815 102.308 110.757 102.675 111.642C102.755 111.918 102.875 112.226 103.167 112.385C104.244 113.363 106.003 113.394 107.465 113.439C110.688 113.539 113.903 113.798 117.097 114.214C119.456 114.521 121.792 114.949 124.106 115.447C124.843 115.601 125.796 115.878 126.506 115.512C128.107 114.69 124.905 113.495 124.236 113.168C122.811 112.47 121.376 111.791 119.929 111.131C117.124 109.809 114.234 108.635 111.392 107.374C110.421 107.709 109.324 107.63 108.331 107.404C107.68 107.257 106.847 107.061 106.323 106.639C105.267 107.013 104.232 107.55 103.035 107.868C102.828 107.973 102.595 108.028 102.358 108.027L102.363 108.058C102.304 108.055 102.245 108.051 102.186 108.048C102.186 108.042 102.186 108.036 102.186 108.03C102.141 108.03 102.096 108.029 102.05 108.025C102.003 108.029 101.957 108.03 101.912 108.03C101.77 108.021 101.628 108.014 101.485 108.003C101.338 107.981 101.196 107.935 101.066 107.868C99.871 107.55 98.8348 107.013 97.7774 106.639C97.2547 107.061 96.4234 107.257 95.7705 107.404C94.7796 107.63 93.6817 107.709 92.7091 107.374C89.8702 108.635 86.9778 109.809 84.1725 111.131C82.7259 111.79 81.2903 112.469 79.866 113.168C79.2019 113.495 75.9993 114.69 77.6006 115.512ZM79.7977 116.793C78.3359 117.065 76.5044 116.991 75.8138 115.63C75.1662 114.354 76.412 113.434 77.5664 112.85C82.0808 110.582 86.7253 108.503 91.5258 106.712C90.5838 105.957 89.9721 104.833 89.4882 103.856C88.7699 102.401 88.6775 100.537 90.2771 99.4785C91.3956 98.7371 93.7505 98.3831 94.8844 99.2721C95.1505 99.4817 95.0681 99.8648 94.7726 100.017C93.7782 100.525 92.4454 100.03 91.4675 100.632C90.2576 101.375 90.8634 102.876 91.3862 103.789C92.317 105.556 93.2943 106.666 95.7045 105.783C95.2434 105.569 94.7961 105.331 94.3646 105.071C94.1733 104.954 94.2086 104.616 94.5012 104.64C95.9465 104.766 97.2847 105.071 98.7023 105.328C99.8209 105.533 100.934 105.657 102.053 105.905C103.171 105.657 104.281 105.533 105.401 105.328C106.819 105.069 108.157 104.766 109.603 104.64C109.897 104.615 109.931 104.952 109.739 105.071C109.307 105.331 108.86 105.569 108.399 105.783C110.807 106.666 111.79 105.553 112.717 103.789C113.24 102.876 113.846 101.375 112.636 100.632C111.658 100.03 110.327 100.524 109.331 100.017C109.037 99.8665 108.953 99.4817 109.219 99.2721C110.351 98.3831 112.708 98.7371 113.826 99.4785C115.426 100.537 115.333 102.402 114.616 103.856C114.132 104.831 113.519 105.953 112.577 106.712C117.378 108.503 122.022 110.582 126.537 112.85C127.692 113.434 128.938 114.354 128.289 115.63C127.599 116.991 125.767 117.065 124.306 116.793C123.348 116.616 122.396 116.431 121.443 116.254C122.203 116.984 122.747 118.109 122.414 119.087C122.136 119.895 120.534 120.028 120.35 119.087C120.277 118.716 120.254 118.374 120.157 118.039C120.111 118.039 120.067 118.039 120.022 118.044L120.009 117.667C119.699 117.08 119.099 116.643 118.655 116.137C118.607 116.091 118.571 116.035 118.551 115.974C118.53 115.913 118.526 115.848 118.537 115.785C114.57 115.254 110.599 115.167 106.601 114.957C104.991 114.874 103.233 114.618 102.052 113.61C100.87 114.617 99.1086 114.872 97.5019 114.957C93.5033 115.167 89.5329 115.254 85.5655 115.785C85.5773 115.848 85.5727 115.912 85.5523 115.973C85.5318 116.034 85.496 116.09 85.4477 116.136C85.0044 116.643 84.4051 117.08 84.0937 117.667L84.0807 118.044C84.0348 118.041 83.9895 118.041 83.9441 118.039C83.8464 118.374 83.8264 118.716 83.751 119.087C83.5673 120.028 81.9642 119.895 81.6869 119.087C81.3537 118.109 81.8977 116.982 82.6578 116.254C81.7076 116.431 80.7556 116.617 79.7977 116.793V116.793Z" fill="black"/>
<path d="M93.0872 111.983C92.8582 112.117 92.6492 111.864 92.7434 111.687C93.0501 111.108 93.7242 110.61 94.224 110.144C94.7956 109.615 95.3579 109.067 96.009 108.612C96.1856 108.487 96.5141 108.657 96.3534 108.839C95.8577 109.4 95.2849 109.902 94.7468 110.431C94.2287 110.941 93.7436 111.597 93.0872 111.983Z" fill="black"/>
<path d="M69.4028 73.7911C69.2421 73.8832 69.062 73.7496 69.0667 73.6095C67.7303 73.1784 68.4191 71.6158 68.6705 70.7634C69.5718 67.2071 71.3339 63.3007 75.4997 61.765C77.5296 60.9939 79.7756 60.7412 81.9698 60.5866C84.5319 60.4066 87.2442 60.169 89.7952 60.5807C92.3791 60.9983 92.0188 63.5221 92.402 65.2474C92.621 66.2362 92.8342 67.4873 92.1289 68.3726C91.5525 69.0968 90.5617 69.3242 89.6038 69.4384C82.3578 70.2025 77.7551 68.1528 71.3604 72.5895C71.3376 72.6979 71.2802 72.7978 71.1954 72.8763C71.1106 72.9549 71.0023 73.0086 70.8841 73.0308C70.4296 73.1348 70.1405 73.6197 69.626 73.6569C69.5541 73.7032 69.4794 73.7479 69.4028 73.7911ZM90.3898 66.6004C90.5617 65.5508 90.7483 64.5373 90.6512 63.4752C90.5846 62.4676 90.6447 61.7779 89.1994 61.7855C86.888 61.6368 84.5596 61.793 82.2524 61.9563C80.3496 62.0915 78.4086 62.1998 76.6047 62.7812C72.1581 64.1606 70.7092 68.447 69.8933 72.0528C70.0235 71.9907 70.162 71.9443 70.3054 71.9149C74.8815 66.4269 82.0599 68.2315 88.7048 67.5773C89.0804 67.5342 89.6568 67.518 90 67.3472C90.3374 67.1856 90.3391 66.8989 90.3898 66.6004Z" fill="black"/>
<path d="M89.664 133.898C89.7352 133.583 90.3558 133.656 90.3169 133.974C90.1461 135.388 90.2129 136.818 90.5147 138.214C90.8091 139.568 91.5915 140.806 91.8529 142.148C91.9065 142.429 91.5214 142.686 91.2553 142.447C90.0879 141.397 89.7193 139.713 89.4891 138.322C89.2401 136.841 89.3278 135.368 89.664 133.898Z" fill="black"/>
<path d="M83.0445 79.392C83.2211 79.7487 83.9735 79.6016 84.2931 79.8036C84.416 79.8803 84.5219 79.9776 84.6052 80.0903C84.9961 79.4496 84.5351 78.7588 84.3014 78.1791C84.0347 78.1909 83.7668 78.206 83.5007 78.2206C83.4918 78.28 83.4674 78.3365 83.4295 78.3854C83.2476 78.6069 82.9049 79.1096 83.0445 79.392ZM74.5185 82.4315C74.3284 82.549 73.9645 82.5085 73.8185 82.3539C72.5586 81.0192 74.2812 78.497 75.444 77.491C76.2806 76.7668 77.2891 76.2975 78.3723 76.0254C81.8099 74.9596 86.651 74.6314 89.6217 76.4834C90.5566 77.0761 90.9564 77.7766 91.4061 78.6678C92.1191 79.5838 92.8273 81.1308 91.6204 81.9422C91.2436 82.1831 90.755 81.9708 90.5213 81.6954C90.151 81.2644 90.3882 80.8172 90.1722 80.3446C90.0992 80.2094 90.0309 80.0709 89.9579 79.9346C89.4704 79.2018 88.6038 78.6785 87.676 78.4318C88.5773 82.8609 81.8782 84.8395 79.6569 80.7714C79.3219 80.0639 79.2589 79.2163 79.5574 78.5083C78.7638 78.6926 78.0326 79.0072 77.2579 79.5067C76.6691 79.8871 76.1151 80.3451 75.7219 80.8845C75.3192 81.432 75.152 82.036 74.5156 82.4315H74.5185Z" fill="black"/>
<path d="M89.2003 61.788C90.6456 61.7804 90.5856 62.4701 90.6521 63.4777C90.7492 64.5376 90.5626 65.5511 90.3907 66.6029C90.3401 66.9014 90.3383 67.1881 90.0074 67.3519C89.663 67.5227 89.0867 67.5388 88.7122 67.582C82.0673 68.2361 74.8889 66.4316 70.3127 71.9195C70.1694 71.949 70.0309 71.9953 69.9006 72.0574C70.7154 68.4516 72.1643 64.1653 76.6121 62.7859C78.416 62.2045 80.357 62.0962 82.2598 61.9609C84.5605 61.7955 86.8889 61.6392 89.2003 61.788ZM85.2393 64.7009C85.788 65.0204 86.2025 65.4293 86.6847 65.8114C86.8907 65.9763 87.2628 65.7607 87.0921 65.542C86.3644 64.6087 85.0427 63.9443 83.8005 63.6663C83.6039 63.6232 83.4578 63.8818 83.6574 63.9589C84.2064 64.1654 84.7356 64.4135 85.2393 64.7009V64.7009ZM81.1271 65.612C81.7282 65.8679 82.2492 66.2322 82.842 66.4935C83.2353 66.6659 83.5891 66.2618 83.3048 65.9795C82.3534 65.0355 80.5848 64.5785 79.1801 64.5527C79.126 64.5511 79.0731 64.5679 79.0316 64.5998C78.9901 64.6317 78.9629 64.6765 78.9553 64.7256C78.9476 64.7747 78.96 64.8247 78.9901 64.866C79.0202 64.9072 79.0659 64.9369 79.1183 64.9492C79.7971 65.1335 80.4877 65.3399 81.1271 65.612ZM74.6364 66.7182C75.6254 66.5366 76.5544 66.8486 77.3339 67.3648C77.5788 67.5265 78.0516 67.3109 77.8178 67.0447C77.0395 66.1648 75.6902 65.9375 74.5062 66.3152C74.2154 66.4089 74.3261 66.7759 74.6364 66.7182V66.7182Z" fill="#2B1710"/>
<path d="M89.4045 112.36C89.1902 112.447 88.867 112.301 88.9647 112.069C89.2196 111.461 90.0021 110.981 90.5331 110.538C91.1431 110.035 91.7841 109.565 92.4529 109.129C92.6396 109.006 92.8244 109.258 92.6884 109.39C92.1427 109.923 91.5905 110.446 91.0253 110.962C90.5413 111.407 90.0492 112.101 89.4045 112.36Z" fill="black"/>
<path d="M86.6462 133.091C86.5122 134.049 86.5122 135.019 86.6462 135.978C86.7698 136.884 87.1025 137.76 87.169 138.672C87.1949 139.027 86.6432 139.094 86.4431 138.842C85.1638 137.221 85.5094 134.797 86.1187 133.033C86.2029 132.789 86.6856 132.827 86.6462 133.091Z" fill="black"/>
<path d="M85.6042 113.132C85.4618 113.24 85.1921 113.093 85.3252 112.947C86.2218 111.936 87.1296 110.925 88.3459 110.182C88.6591 109.991 88.9123 110.386 88.7192 110.598C87.8361 111.572 86.6934 112.333 85.6042 113.132Z" fill="black"/>
<path d="M83.4967 78.2204C83.7628 78.2059 84.0307 78.1908 84.2974 78.179C84.5329 78.7587 84.9921 79.4495 84.6011 80.0902C84.5178 79.9775 84.412 79.8802 84.2891 79.8035C83.9694 79.6015 83.2141 79.7497 83.0404 79.3919C82.9038 79.1095 83.2465 78.6068 83.4255 78.3853C83.4633 78.3364 83.4878 78.2799 83.4967 78.2204V78.2204Z" fill="white"/>
<path d="M83.6579 63.9575C83.4584 63.8816 83.6044 63.6218 83.801 63.665C85.0432 63.943 86.3649 64.6074 87.0926 65.5406C87.2633 65.7604 86.8912 65.976 86.6852 65.81C86.203 65.428 85.7885 65.019 85.2398 64.6995C84.7361 64.4122 84.2069 64.164 83.6579 63.9575V63.9575Z" fill="black"/>
<path d="M83.2614 137.089C81.9556 135.38 82.4413 132.907 83.279 131.132C83.3603 130.96 83.6529 131.024 83.607 131.211C83.3715 132.193 83.3344 133.199 83.4092 134.2C83.4786 135.127 83.8054 136.021 83.8801 136.945C83.906 137.247 83.4286 137.308 83.2614 137.089Z" fill="black"/>
<path d="M79.1174 64.9494C79.0649 64.937 79.0193 64.9074 78.9892 64.8661C78.9591 64.8249 78.9467 64.7749 78.9544 64.7258C78.962 64.6767 78.9892 64.6319 79.0307 64.6C79.0722 64.5681 79.1251 64.5513 79.1792 64.5528C80.5839 64.5765 82.3525 65.0378 83.3039 65.9796C83.5882 66.262 83.2344 66.6661 82.8411 66.4937C82.2483 66.2324 81.7272 65.8681 81.1262 65.6122C80.4868 65.3401 79.7962 65.1337 79.1174 64.9494Z" fill="black"/>
<path d="M82.326 113.762C82.6315 112.998 83.3604 112.319 84.2617 112.087C84.2884 112.079 84.3169 112.079 84.3437 112.087C84.3704 112.094 84.3941 112.109 84.4119 112.128C84.4297 112.148 84.4407 112.172 84.4435 112.198C84.4463 112.223 84.4408 112.249 84.4277 112.271C83.9985 112.926 83.2986 113.5 82.5762 113.927C82.4549 113.997 82.2783 113.877 82.326 113.762Z" fill="black"/>
<path d="M79.5423 130.794C79.6642 131.253 78.9077 131.425 78.7269 130.988C78.4111 130.197 78.2918 129.351 78.3778 128.513C78.4608 127.637 78.7823 126.927 79.1508 126.121C79.2321 125.942 79.57 126.013 79.4952 126.203C78.9171 127.667 79.1508 129.324 79.5423 130.794Z" fill="black"/>
<path d="M76.0317 130.114C74.9455 128.212 75.7804 125.765 76.6311 123.926C76.6899 123.795 76.9378 123.849 76.8813 123.986C76.4798 124.956 76.3273 126.05 76.3031 127.077C76.2819 128.06 76.561 129.017 76.5469 129.995C76.5433 130.217 76.1571 130.332 76.0317 130.114Z" fill="black"/>
<path d="M74.6363 66.7186C74.3261 66.7763 74.2154 66.4093 74.5062 66.3156C75.6902 65.9384 77.0378 66.1652 77.8178 67.0451C78.0533 67.3086 77.5788 67.5301 77.3339 67.3652C76.5544 66.849 75.6254 66.537 74.6363 66.7186Z" fill="black"/>
<path d="M73.4913 127.54C73.0121 126.028 73.6132 124.175 74.2255 122.749C74.2938 122.592 74.5787 122.654 74.5198 122.821C74.2448 123.607 74.0646 124.418 73.9823 125.24C73.9123 125.991 73.9953 126.749 73.8864 127.493C73.8634 127.678 73.5561 127.743 73.4913 127.54Z" fill="black"/>
<path d="M73.3944 75.5199C73.3866 75.5291 73.3751 75.5352 73.3624 75.5367C73.3497 75.5382 73.3368 75.5351 73.3267 75.5279C73.3166 75.5208 73.3099 75.5103 73.3083 75.4986C73.3066 75.487 73.3101 75.4753 73.3179 75.466C76.2121 70.873 85.6405 69.7927 90.391 72.6969C91.172 73.1889 91.8393 73.8171 92.3544 74.5457C92.7859 75.1685 93.3611 76.1524 93.0803 76.8777C92.9873 77.1169 92.5993 77.1794 92.4415 76.9488C92.206 76.6072 92.1966 76.2106 92.0488 75.8356C90.8048 72.7977 86.6802 71.7039 83.2403 71.7976C79.3788 71.8488 76.0378 73.1167 73.3944 75.5199Z" fill="black"/>
<path d="M54.806 81.0429C55.8068 81.7358 56.8006 82.696 58.0069 83.1076C58.2445 83.416 58.529 83.6918 58.8517 83.9267C58.5314 86.1515 58.4231 88.3897 58.4325 90.6296H58.124C58.124 88.372 56.4756 85.9774 53.8952 85.3265C53.2146 85.1557 52.5458 85.9968 53.1593 86.4101C54.219 87.1235 55.1021 87.9991 55.4718 89.1301C56.4627 92.134 52.9791 93.1713 54.6782 96.706C55.3505 98.053 56.5845 99.301 57.905 100.224C58.2066 100.442 58.5864 100.55 58.97 100.526C59.1215 102.123 59.305 103.718 59.5205 105.312C58.6763 105.249 57.8838 105.115 57.0796 104.727C54.5187 103.556 53.9959 100.902 53.4548 98.6797C51.8959 92.5188 51.7987 86.1175 53.0298 79.9119C53.6421 80.2675 54.2378 80.642 54.806 81.0429Z" fill="#F3D7C7"/>
<path d="M58.0896 91.1915C58.1124 91.0054 58.1238 90.8183 58.1237 90.6311H58.4322C58.4404 92.9308 58.5735 95.2332 58.7266 97.5248C57.9453 96.8545 57.223 96.1239 56.9904 95.1944C56.8138 94.5015 57.1158 93.9174 57.4161 93.2832C57.7422 92.5978 57.9971 91.9275 58.0896 91.1915Z" fill="#F3D7C7"/>
<path d="M55.8047 62.1193C56.4752 63.5342 57.2647 64.8808 58.2991 66.1265C59.048 67.0258 59.871 67.9337 60.8701 68.6428C60.8359 69.8676 60.8065 71.0967 60.7953 72.3289C59.1893 70.7475 57.4154 69.2296 56.3145 67.3405C56.2674 67.2602 56.1296 67.3303 56.1732 67.4105C57.3536 69.5836 58.5393 71.7314 60.79 73.2342C60.74 77.2527 61.0973 81.2169 61.7532 85.1675C61.354 84.7171 60.9625 84.2623 60.5645 83.8108C60.7482 82.6604 59.957 81.7358 59.3464 80.7605C51.4457 69.0141 53.1266 59.2209 55.7552 46.4912C57.1846 39.2628 59.0992 31.3065 65.9991 26.387C65.0618 28.8705 65.133 31.5964 65.9355 34.11C66.0314 34.4134 66.6178 34.3638 66.5901 34.034C66.3446 31.2041 66.5542 28.1738 68.3746 25.7135C69.4931 24.1902 71.2375 22.8658 73.2416 22.334C71.8357 27.4183 73.1332 33.007 77.2402 36.9502C75.8078 37.9578 74.1935 38.3651 72.2949 38.5316C67.4361 38.8452 64.7727 40.9725 63.5712 44.969C62.522 48.5597 62.233 52.2906 61.739 55.961C60.3336 54.6309 59.1113 53.1484 58.0995 51.5464C57.9818 51.3562 57.5879 51.4872 57.6839 51.6968C58.5852 53.6619 59.8115 55.7482 61.593 57.2822C61.447 58.6692 61.3214 60.057 61.2162 61.4457C59.5254 59.4806 57.7816 57.5543 56.2598 55.475C56.0307 55.163 55.4838 55.4378 55.6852 55.7633C57.2312 58.2769 58.9426 60.8687 61.1073 63.0584C61.0241 64.384 60.9607 65.7102 60.9172 67.0371C59.151 65.5015 57.5614 63.8042 56.2486 61.9598C56.1132 61.7647 55.6975 61.8935 55.8047 62.1193Z" fill="#3A1F14"/>
<path d="M145.609 87.8546C145.652 88.7792 145.668 89.7054 145.668 90.6295C145.668 92.9292 145.543 95.23 145.374 97.5233C146.155 96.853 146.878 96.1223 147.11 95.1928C147.284 94.4999 146.985 93.9158 146.684 93.2816C146.361 92.5979 146.106 91.9276 146.014 91.1915C145.991 91.0055 145.98 90.8184 145.98 90.6311C145.98 88.3735 147.628 85.9789 150.209 85.328C150.889 85.1572 151.558 85.9983 150.944 86.4116C149.884 87.125 149.001 88.0006 148.631 89.1316C147.642 92.1415 151.124 93.1669 149.426 96.7075C148.753 98.0545 147.519 99.3025 146.199 100.225C145.897 100.444 145.517 100.552 145.134 100.527C144.983 102.125 144.799 103.72 144.583 105.313C146.636 105.24 148.527 104.16 149.383 102.528C150.035 101.336 150.33 99.9609 150.65 98.6812C152.207 92.5203 152.307 86.119 151.074 79.9134C150.462 80.2674 149.866 80.6418 149.297 81.0449C148.448 81.6457 147.582 82.4114 146.614 82.8974C146.093 83.7832 146.09 84.9988 145.92 85.9633C145.814 86.5668 145.738 87.1778 145.625 87.7797C145.624 87.8045 145.614 87.8298 145.609 87.8546ZM75.4862 26.6644C75.545 31.6583 79.0509 36.6613 84.373 38.6129C80.5239 31.8366 85.4074 23.2564 91.7456 18.8509C91.8592 18.7723 92.0035 18.8924 91.9063 18.9878C86.9322 23.8582 82.6351 30.982 86.0809 37.3941C85.8666 36.2173 86.1851 34.9311 86.5324 33.8254C88.8974 26.4505 95.5294 20.0757 103.946 17.4791C104.164 17.4074 104.306 17.7092 104.104 17.797C97.5399 20.6625 92.3296 25.8255 89.7804 31.7326C89.1116 33.3604 88.0773 35.4414 88.5594 37.192C91.284 32.8491 96.1905 28.7325 101.499 26.8234C101.735 26.7415 101.954 27.0626 101.752 27.1963C97.9573 29.6749 94.3702 32.4821 91.8616 36.0001C91.4301 36.5928 90.9685 37.2039 90.6665 37.8548C90.4068 38.4135 90.4651 38.9427 90.431 39.5003C98.5513 39.1986 106.421 37.116 113.889 34.5184C117.87 33.0902 121.709 31.3536 125.367 29.3273C128.634 27.5142 132.066 24.6487 136.293 25.6633C136.491 25.7107 136.456 25.992 136.244 25.9785C133.636 25.8104 131.263 27.2178 129.238 28.4663C126.833 29.9545 124.452 31.4659 121.907 32.7769C125.55 31.9115 129.525 32.1842 132.951 33.563C143.627 37.8435 143.194 47.6932 142.8 56.3451C142.548 65.1 142.729 73.872 142.118 82.6145C142.662 82.4049 143.204 82.1867 143.737 81.9544C143.834 81.9264 143.932 81.8968 144.027 81.8623C144.403 81.8084 144.746 81.6026 145.059 81.4151C145.734 80.5637 146.748 79.8438 147.716 79.2059C147.737 78.9025 147.873 78.6099 148.018 78.2619C148.273 77.6465 148.52 77.0287 148.761 76.4083C150.226 72.7152 151.487 68.959 152.448 65.1436C152.469 63.7556 152.774 62.367 153.008 60.9946C153.549 57.6 154.48 54.2701 155.429 50.9466C155.439 50.9202 155.423 50.8653 155.454 50.8545C156.006 48.8333 156.493 46.8031 156.711 44.7221C157.455 38.3456 155.376 31.7703 150.778 26.6973C148.737 24.4278 145.751 20.9502 141.957 21.3689C141.571 21.412 141.452 20.9055 141.764 20.7594C143.177 20.0999 144.707 20.3095 146.09 20.8532C145.083 18.637 143.113 16.8492 140.986 15.376C133.417 10.1494 123.39 7.9106 113.779 8.32981C110.579 8.45428 107.432 8.92845 104.247 9.1693C104.029 9.18547 103.974 8.91982 104.141 8.832C105.606 8.06632 107.229 7.5178 108.91 7.12877C94.1694 3.59245 75.6569 12.7956 75.4862 26.6644ZM65.0474 97.6035C65.5008 102.073 65.4678 106.814 67.214 111.096C70.3466 118.919 77.5891 116.901 81.6495 122.076C82.8935 123.858 82.7864 126.041 83.9114 127.85C85.1213 129.795 87.7764 130.224 90.1296 130.329C90.8313 130.358 91.5666 130.436 91.9305 129.808C92.2131 129.323 92.3108 128.725 92.4209 128.192C92.6682 127.006 92.6682 125.809 92.5834 124.613C91.4189 124.016 90.3539 123.293 89.5873 122.392C89.4961 122.284 89.6651 122.187 89.7757 122.23C90.9497 122.679 92.0429 123.276 93.2492 123.671C93.5153 123.642 93.7897 123.709 93.9457 123.887C95.8885 124.44 97.9225 124.672 99.9542 124.761C100.315 124.773 103.795 124.773 104.155 124.761C106.187 124.672 108.223 124.438 110.165 123.887C110.32 123.709 110.595 123.642 110.861 123.671C112.064 123.276 113.157 122.679 114.334 122.23C114.445 122.187 114.614 122.284 114.523 122.392C113.758 123.293 112.691 124.016 111.526 124.613C111.442 125.809 111.442 127.006 111.689 128.192C111.799 128.723 111.897 129.32 112.179 129.808C112.543 130.435 113.279 130.358 113.98 130.329C116.335 130.225 118.99 129.795 120.199 127.85C121.324 126.041 121.217 123.858 122.461 122.076C126.531 116.895 133.755 118.927 136.896 111.096C138.642 106.814 138.609 102.073 139.063 97.6035C139.564 92.9395 139.972 88.2635 140.579 83.6086C140.49 82.1888 140.423 80.7679 140.41 79.3427C140.433 71.6273 140.705 63.9119 140.83 56.1964C140.919 51.7953 141.406 47.1441 139.933 42.8653C138.657 39.1598 135.498 36.0982 131.313 34.625C127.097 33.1417 122.691 33.7958 118.37 34.5108C111.33 37.7508 103.647 39.953 95.7672 41.0699C89.1181 42.125 82.4985 41.882 77.6415 37.3289C76.6477 38.476 74.8545 38.8376 73.3214 39.3473C71.3162 40.0117 68.9937 40.4605 67.5595 41.9396C66.1925 43.3486 65.731 45.3164 65.4242 47.0805C65.0121 49.4244 64.7666 51.8039 64.5129 54.1645C63.2577 64.9044 63.5909 75.7024 63.8847 86.4741C64.2697 90.1839 64.6771 93.8921 65.0474 97.6035ZM62.9151 110.097C63.6804 114.147 64.8332 118.135 66.9773 121.821C68.9666 125.237 71.5694 128.36 74.4376 131.267C76.3345 133.19 78.5057 134.994 80.3838 136.969C80.3714 136.654 80.4052 136.339 80.4845 136.033C80.5433 135.813 80.9313 135.707 81.1079 135.892C81.7555 136.576 82.1588 137.404 82.6427 138.178C84.184 140.748 86.828 142.701 89.8399 143.944C91.987 144.846 94.3142 145.445 96.622 145.962C98.4147 146.369 100.224 146.73 102.054 146.991C103.883 146.73 105.692 146.369 107.485 145.962C109.792 145.445 112.12 144.846 114.266 143.944C117.279 142.704 119.923 140.749 121.464 138.178C121.948 137.404 122.347 136.576 122.998 135.892C123.175 135.707 123.565 135.813 123.623 136.033C123.701 136.34 123.735 136.654 123.723 136.969C125.599 134.994 127.771 133.19 129.669 131.267C132.538 128.36 135.144 125.237 137.129 121.821C139.275 118.135 140.426 114.147 141.192 110.097C142.507 103.111 143.227 96.0571 143.758 88.9985C143.891 87.5092 144.081 86.0247 144.264 84.5413C144.244 84.1257 144.257 83.7093 144.305 83.2956C143.551 83.5364 142.788 83.7654 141.992 83.9007C141.855 85.1998 141.698 86.5005 141.554 87.7991C141.548 87.8697 141.515 87.9362 141.461 87.9872C141.408 88.0382 141.336 88.0706 141.259 88.0787C140.774 93.7935 140.414 99.5202 139.76 105.224C139.491 107.39 139.097 109.575 138.23 111.636C136.228 116.414 133.163 117.808 128.088 119.8C120.66 122.826 124.302 126.384 120.251 129.938C119.199 130.735 117.863 131.188 116.501 131.423C115.219 131.643 113.568 131.908 112.288 131.588C110.809 131.219 110.437 129.824 110.185 128.688C109.936 127.59 109.842 126.467 109.904 125.347C108.155 126.068 106.369 126.567 104.435 126.694C103.729 126.751 100.376 126.751 99.6716 126.694C97.7377 126.568 95.9509 126.069 94.2024 125.347C94.2651 126.467 94.1706 127.59 93.921 128.688C93.6696 129.824 93.2975 131.22 91.818 131.588C90.5387 131.906 88.8868 131.642 87.6057 131.423C82.3101 130.448 82.1817 127.795 80.9684 123.987C78.3909 118.023 69.3799 120.416 65.877 111.635C65.0115 109.576 64.6183 107.391 64.3463 105.223C63.9259 101.811 63.6987 98.3795 63.4043 94.9638C62.8798 92.489 62.4724 89.9964 62.0973 87.4995C61.2984 87.2764 60.7362 86.3141 60.337 85.7785C60.1822 85.5716 60.0427 85.3636 59.9161 85.1556C60.0751 86.4353 60.2328 87.715 60.3465 88.9974C60.8787 96.0577 61.5981 103.112 62.9151 110.097ZM55.8038 62.1186C55.6967 61.8929 56.1123 61.7646 56.2489 61.957C57.5594 63.8014 59.1508 65.4987 60.9175 67.0343C60.9599 65.7074 61.0233 64.3812 61.1077 63.0557C58.9429 60.8659 57.2315 58.2741 55.6855 55.7605C55.4842 55.4372 56.0311 55.1602 56.2601 55.4722C57.782 57.5515 59.5258 59.4779 61.2166 61.4429C61.3202 60.0546 61.4458 58.6667 61.5934 57.2794C59.8119 55.7454 58.5856 53.6591 57.6842 51.694C57.5883 51.4844 57.9786 51.3534 58.0999 51.5436C59.1117 53.1456 60.3339 54.6282 61.7394 55.9582C62.2333 52.2899 62.5224 48.5591 63.5715 44.9662C64.7731 40.9697 67.4365 38.8424 72.2953 38.5288C74.1921 38.3623 75.8064 37.955 77.2406 36.9474C73.1336 33.0043 71.8361 27.4156 73.2419 22.3312C71.2403 22.863 69.4906 24.1875 68.3749 25.7107C66.5546 28.171 66.345 31.2013 66.5905 34.0313C66.6182 34.361 66.0318 34.4084 65.9358 34.1072C65.1334 31.5936 65.0622 28.8677 65.9994 26.3842C59.1007 31.3037 57.1862 39.2622 55.7556 46.4884C53.1263 59.2171 51.4455 69.0075 59.3468 80.7577C59.9573 81.733 60.7486 82.6576 60.5649 83.808C60.9629 84.2595 61.3544 84.7143 61.7535 85.1648C61.0977 81.2141 60.7403 77.2499 60.7904 73.2314C58.5397 71.7286 57.354 69.5808 56.1736 67.4077C56.13 67.3275 56.2678 67.2574 56.3149 67.3377C57.4158 69.2268 59.1896 70.7447 60.7957 72.3262C60.8068 71.0939 60.8363 69.8648 60.8704 68.64C59.8696 67.9309 59.0483 67.0236 58.2995 66.1237C57.2639 64.8807 56.4744 63.5341 55.8038 62.1192V62.1186ZM53.1581 86.4111C52.5447 85.9978 53.2135 85.1567 53.894 85.3275C56.4726 85.9784 58.1228 88.3729 58.1228 90.6306C58.123 90.8178 58.1116 91.0049 58.0887 91.191C57.9963 91.927 57.7413 92.5973 57.4181 93.2811C57.1179 93.9153 56.8188 94.4994 56.9925 95.1923C57.228 96.1212 57.9474 96.8524 58.7286 97.5227C58.5726 95.2311 58.4396 92.9287 58.4343 90.629C58.4249 88.3891 58.5332 86.1508 58.8535 83.926C58.5307 83.6912 58.2462 83.4154 58.0086 83.107C56.8023 82.6953 55.8097 81.7351 54.8077 81.0422C54.2396 80.6413 53.6438 80.2668 53.0315 79.9107C51.8005 86.1163 51.8976 92.5192 53.4566 98.6785C53.9976 100.902 54.5204 103.555 57.0814 104.726C57.8856 105.114 58.678 105.248 59.5222 105.31C59.308 103.719 59.1245 102.123 58.9718 100.525C58.5881 100.549 58.2083 100.441 57.9068 100.223C56.5863 99.2998 55.3523 98.054 54.68 96.7048C52.9809 93.1717 56.4644 92.1328 55.4736 89.1289C55.0991 88.0006 54.2172 87.125 53.1581 86.4116V86.4111ZM152.362 25.3519C163.312 37.0864 159.549 48.4643 154.926 61.4952C154.019 67.0342 152.531 72.4804 150.484 77.7586C150.764 77.6013 151.047 77.4488 151.334 77.3011C151.975 76.9724 152.966 77.2623 153.125 77.9267C154.837 85.006 154.852 92.3408 153.169 99.4259C152.659 101.573 152.104 103.844 150.304 105.499C148.829 106.855 146.463 107.84 144.232 107.756C143.007 117.015 139.857 124.316 132.861 131.533C129.709 134.738 126.612 138.142 122.422 140.404C120.939 142.729 118.801 144.604 116.131 145.918C112.701 147.581 108.885 148.628 105.063 149.395C103.098 149.921 101.01 149.921 99.0458 149.395C95.2232 148.628 91.4083 147.581 87.9778 145.918C85.3079 144.604 83.169 142.727 81.686 140.404C77.4961 138.141 74.3994 134.738 71.2473 131.533C64.2515 124.313 61.1042 117.023 59.8761 107.756C57.6448 107.84 55.2787 106.855 53.8045 105.499C52.0066 103.846 51.4496 101.573 50.9398 99.4259C49.2573 92.3407 49.2722 85.0061 50.9834 77.9267C51.1423 77.2623 52.1331 76.9724 52.7749 77.3011C53.6406 77.7428 54.4734 78.2368 55.2675 78.7797C48.2617 68.16 50.9934 55.5056 53.7298 44.1736C55.3034 37.1688 57.8885 29.5175 65.0257 25.2096C65.6903 24.8055 66.3038 24.4698 67.0444 24.3523C68.4833 22.2267 71.129 20.4 74.0196 20.0687C79.1045 7.65574 97.3821 1.86983 111.217 6.69663C122.815 5.12002 135.313 8.12667 144.102 14.8372C145.325 15.8109 146.436 16.9106 147.31 18.1327C148.058 19.1791 149.364 20.9211 148.328 22.0445C149.812 22.9964 151.166 24.1066 152.362 25.3519V25.3519Z" fill="black"/>
</g>
<defs>
<linearGradient id="paint0_linear_150_1367" x1="53" y1="12" x2="152.936" y2="230.124" gradientUnits="userSpaceOnUse">
<stop stop-color="#3DDD4D" stop-opacity="0.12"/>
<stop offset="1" stop-color="#3DDD4D" stop-opacity="0.44"/>
</linearGradient>
</defs>
</svg>
