<svg width="200" height="215" viewBox="0 0 200 215" fill="none" xmlns="http://www.w3.org/2000/svg">
<mask id="mask0_150_1459" style="mask-type:alpha" maskUnits="userSpaceOnUse" x="0" y="0" width="200" height="215">
<path fill-rule="evenodd" clip-rule="evenodd" d="M200 0H0V124.283V127.911H0.078537C2.17814 176.331 46.1112 215 100 215C153.889 215 197.822 176.331 199.921 127.911H200V124.283V0Z" fill="#C4C4C4"/>
</mask>
<g mask="url(#mask0_150_1459)">
<ellipse cx="100" cy="113.5" rx="100" ry="101.5" fill="url(#paint0_linear_150_1459)"/>
<path d="M60.646 88.5259C59.9167 95.0041 59.9653 101.376 61.1066 107.888C57.2802 104.026 59.1934 95.6967 57.2681 90.5941L60.646 88.5259Z" fill="#FDE8DC"/>
<path d="M147.819 103.044C146.9 105.406 145.836 107.66 143.12 108.812C143.363 106.108 143.599 103.517 143.836 100.904L147.819 103.044Z" fill="#FDE8DC"/>
<path d="M127.009 163.935C129.01 167.834 129.139 172.435 128.154 176.676C119.793 202.742 71.4886 182.192 65.3516 163.309C70.8079 158.045 74.7656 150.89 75.845 143.441C77.9916 145.471 79.3177 148.422 81.4363 150.571C86.1938 155.839 93.6375 157.607 100.573 157.139C110.139 157.092 117.226 150.245 123.649 144.105C122.72 150.634 121.524 159.003 127.009 163.935Z" fill="#FDE8DC"/>
<path d="M106.764 113.663C105.66 113.328 104.531 113.082 103.386 112.928C104.084 112.557 104.886 112.424 105.669 112.548C105.681 112.495 105.694 112.443 105.706 112.389C100.367 109.666 99.5183 117.96 92.9656 112.426C92.1427 112.04 91.011 111.277 90.2319 112.16C90.5436 112.481 90.9204 112.735 91.338 112.905C87.8131 112.891 84.2662 113.77 81.2955 115.666C78.0577 117.754 75.7005 120.924 74.6613 124.59C74.5519 124.972 74.8133 125.239 75.1196 125.306C75.1589 125.368 75.2105 125.42 75.2713 125.461C75.3322 125.503 75.4009 125.531 75.4733 125.545C79.1989 126.407 83.0232 126.788 86.8492 126.678C88.5776 126.62 90.3206 126.334 92.0515 126.402C94.0632 126.481 95.6129 127.686 97.5322 127.865C99.1209 128.015 100.616 127.231 102.209 127.259C104.136 127.291 106.003 127.975 107.908 128.196C111.604 128.625 115.3 127.881 118.907 127.151C119.031 127.134 119.144 127.071 119.224 126.976C119.304 126.882 119.346 126.761 119.341 126.638C119.426 126.533 119.469 126.402 119.462 126.269C119.395 122.335 115.891 118.833 112.852 116.661C111.09 115.403 109.138 114.425 107.068 113.761C111.954 113.57 112.781 106.806 108.415 105.033C108.171 105.658 108.714 106.073 109.022 106.559C110.833 109.014 109.684 112.68 106.752 113.638L106.764 113.663ZM142.271 99.2845C142.501 99.5234 142.698 99.7276 142.575 100.12C140.105 108.665 140.516 118.145 135.632 125.891C128.299 136.448 118.122 148.528 106.165 153.954C99.539 155.935 91.118 155.374 85.5012 151.099C75.5499 142.27 70.6927 129.4 66.1188 117.336C63.3146 110.094 62.0809 102.48 62.2632 94.7492C62.5476 91.5847 61.6555 88.1193 63.0812 85.1769C64.2307 83.2427 64.6853 80.9852 64.3721 78.7667C64.3077 78.2747 64.552 78.1075 64.8838 77.9129C80.3839 67.2706 66.8554 59.3833 72.1088 52.0703C73.385 50.3173 73.932 49.5101 76.1941 49.3489C81.2372 48.6551 86.335 48.513 91.4036 48.0974C94.0936 48.1738 96.7604 46.7205 99.3518 47.0024C107.04 49.8432 115.569 46.5951 121.969 42.2007C121.885 45.1132 123.063 47.7165 124.366 50.2409C124.025 57.7354 127.217 64.8501 131.659 70.8149C132.565 72.5643 135.229 73.7334 135.21 75.7634C134.183 80.0743 135.125 84.5523 136.468 88.696C137.777 92.503 139.434 96.3195 142.271 99.2845ZM133.582 115.635C136.499 113.969 140.047 109.469 139.951 106.082C137.071 110.058 133.76 113.63 130.312 117.015C131.271 117.345 132.576 115.911 133.582 115.635ZM132.804 83.7176C133.29 82.1234 131.898 80.6487 130.926 79.5166C126.207 74.5549 119.471 72.464 112.647 72.261C108.11 72.1105 100.22 74.9478 102.967 80.6308C104.744 84.5714 114.499 77.4209 123.515 81.3675C125.105 81.5371 132.54 85.6426 132.804 83.7176ZM126.629 89.7027L126.783 89.5725C123.762 85.719 118.122 83.1456 113.089 83.8287C106.997 84.5392 106.542 90.8073 110.204 87.5508C111.44 92.3967 118.09 90.1457 117.043 85.9507C120.549 86.2277 123.49 88.3247 126.629 89.7027ZM123.478 84.6873C123.861 85.3632 124.87 84.9894 124.011 84.1845C119.696 79.3745 109.567 79.5023 106.548 85.4587C110.938 80.6714 118.703 79.8773 123.478 84.6873ZM85.1037 128.975C88.5351 136.483 105.767 134.833 108.32 130.028C102.623 131.426 94.8277 133.201 89.2887 130.914C87.8264 130.357 86.6948 129.144 85.1037 128.975ZM101.611 95.7499C101.993 94.2321 101.648 92.4612 101.759 90.8539C101.735 89.9272 100.786 90.3189 100.818 91.0521C100.956 92.6212 100.228 94.5605 101.611 95.7499V95.7499ZM96.6753 151.228H96.7044C96.4978 146.941 94.0862 151.983 96.4115 152.81C96.8065 152.349 96.6619 151.777 96.6753 151.228V151.228ZM93.9161 95.2853C94.9116 93.6243 94.7669 91.8784 94.3111 90.1254C93.9732 91.8414 93.9635 93.5646 93.9161 95.2853V95.2853ZM91.9616 107.195C91.1362 109.177 92.4259 111.774 94.8459 111.267C93.0446 109.975 92.3627 109.499 91.9616 107.195V107.195ZM88.6323 80.9854C92.4235 81.3998 93.6001 76.3545 90.6294 74.5084C83.7302 70.3659 73.3243 71.9099 67.2297 76.8811C65.6569 77.8365 63.689 83.0489 67.1082 82.0088C74.1192 77.3516 81.0233 79.445 88.6226 81.0714C88.6201 81.0439 88.6262 81.0177 88.6323 80.9854ZM87.6599 112.691C87.5943 112.094 87.6198 112.069 87.0339 111.319C85.0891 108.758 86.9683 105.566 88.8681 103.548C86.9014 103.556 85.3103 106.918 84.9007 108.605C84.468 110.302 85.4696 113.168 87.6672 112.696L87.6599 112.691ZM86.4784 88.3521C88.0027 89.0435 88.6846 86.9765 87.4508 86.1883C83.0386 82.459 75.2022 82.5856 71.151 86.7591C68.9995 90.3869 74.4158 85.7704 75.7297 86.1012C74.6467 91.316 82.4819 91.2754 82.3725 86.2504C83.9587 86.5215 85.2058 87.4744 86.4821 88.3569L86.4784 88.3521ZM87.023 84.292C87.3876 83.08 84.829 82.1425 83.8797 81.7222C79.7944 80.4492 73.1079 81.192 71.2154 85.3918C75.6435 82.256 81.3879 80.6081 86.1661 84.298C86.4967 84.5762 86.8321 84.5511 87.0266 84.2932L87.023 84.292Z" fill="#FDE8DC"/>
<path d="M131.558 83.2761L131.386 83.4373C123.912 78.7073 114.818 76.9638 106.357 80.0686C103.116 80.7517 104.474 75.9345 106.589 75.3744C114.637 71.9568 126.893 76.0611 131.558 83.2761Z" fill="#894B20"/>
<path d="M89.4605 76.1722C91.2837 77.555 89.9467 79.7546 87.811 79.1576C80.7125 77.6876 73.0597 76.337 66.795 80.9201C69.0182 74.572 80.6809 73.3815 86.5299 74.873C87.5798 75.1252 88.5733 75.5657 89.4605 76.1722V76.1722Z" fill="#894B20"/>
<path d="M56.3904 101.777C56.8316 103.664 57.2412 105.406 57.6667 107.229C55.0861 107.178 52.5518 106.913 50.2521 105.483C52.7281 104.974 54.8917 104.015 56.3904 101.777Z" fill="#BA6A3E"/>
<path d="M66.4464 124.529C65.5773 124.614 61.5941 123.382 60.6509 122.7C61.5491 121.017 64.2062 116.001 60.6509 116.028C59.5217 116.318 58.2369 117.09 57.1442 116.886C58.7742 114.885 60.0723 112.781 60.8235 110.311C61.2854 110.334 61.6743 110.412 61.808 110.982C62.8886 115.646 64.8638 120.048 66.4464 124.529Z" fill="#BA6A3E"/>
<path d="M62.5481 50.2321L62.8604 50.0016C67.4125 47.0461 72.1724 44.5169 77.5388 43.3586C72.0484 43.1938 67.0855 46.8742 62.8604 50.0016C62.7498 50.0721 62.6404 50.1437 62.531 50.2154L61.9415 50.6703L61.882 50.7217L61.4918 50.8996L61.5611 50.9999L61.882 50.7217L61.9585 50.6871L62.5456 50.2321H62.5481ZM124.963 15.7212C129.339 21.2848 127.609 29.2879 124.706 35.1416C120.517 42.5537 110.625 46.5147 102.262 45.4758C106.779 43.0624 110.357 37.7998 110.122 32.856C102.396 55.0051 74.8331 38.9116 62.4508 54.3507C65.4896 52.8138 68.4919 50.6703 71.9791 50.4196C64.6412 57.5761 74.6532 64.4902 68.109 72.1722C64.962 76.2096 60.0551 78.4665 55.0083 79.0839C54.0019 79.4195 51.628 79.0684 51.1187 79.9138C51.1296 80.21 51.4141 80.204 51.6353 80.2231C55.5249 80.6626 59.592 80.5503 63.1923 78.8761C63.1023 84.9531 57.8963 88.8365 52.948 91.515C53.117 92.3927 55.1068 91.2188 55.7704 91.1496C55.892 93.2047 56.005 95.1774 56.1241 97.2123C51.5891 97.918 44.0797 95.316 41.357 93.0638C43.9971 93.637 56.1642 88.3923 54.9196 85.5765C53.4026 85.2362 51.6669 87.1134 50.2217 87.6591C45.1591 88.6144 37.9269 85.2708 34.8711 81.2178C43.6968 82.8729 48.633 73.6947 48.9612 66.2695C49.9032 53.8504 60.2994 45.0507 71.8965 41.8074C69.8532 40.8365 67.3043 42.3388 65.2258 42.8427C57.116 45.8364 50.1986 52.1368 47.7481 60.4397H47.5536C46.4013 51.603 53.0428 44.0297 59.1143 38.3085C68.8614 29.2473 82.6695 25.0953 95.9355 26.8555L96.0084 26.6978C79.6514 20.7916 61.0299 30.8057 51.2427 43.8124L51.081 43.7288C54.7847 25.186 75.7727 11.2276 94.6519 15.4693C90.7064 11.9202 84.4526 13.1586 79.5237 13.3747C92.2221 7.11858 102.034 5.26048 111.674 17.2664C110.743 11.9191 105.659 8.36288 100.654 6.73167C104.834 5.65694 110.378 5.96981 112.906 9.88661C117.105 16.8437 117.996 25.5706 115.702 33.2919C115.478 33.9523 115.038 35.2467 116.26 34.5446C121.373 27.1815 119.192 16.6825 115.342 9.15818C124.059 11.5286 125.393 23.4294 124.094 30.9729C127.542 26.8793 126.452 20.4942 124.823 15.7773L124.963 15.7212ZM112.258 42.2958C120.159 39.3976 122.676 30.832 121.375 23.2563L121.304 23.2635C121.916 31.078 119.6 38.3551 112.258 42.2958ZM110.38 24.7418L110.534 24.7167C108.527 17.8002 101.725 13.1335 94.8026 11.7746C101.269 14.545 107.34 18.1418 110.38 24.7418ZM103.683 26.0757L103.768 25.9563C97.4305 19.3096 86.7791 19.066 78.6729 22.449L78.7094 22.5422C86.965 19.927 97.2227 19.6213 103.683 26.0805V26.0757ZM101.403 36.6499L101.341 36.4922C95.6547 38.5282 89.6939 39.0441 83.7428 39.7737C89.6647 39.4298 96.0995 39.6507 101.403 36.6499ZM81.4686 35.9226C87.2069 34.4502 92.9125 32.9074 98.9231 32.9253C93.0802 31.7443 86.9383 34.0323 81.46 35.9226H81.4686ZM85.662 17.5769C80.0634 17.3668 74.5317 19.9282 69.801 22.621C75.0969 20.536 80.0197 18.2779 85.662 17.5769ZM63.1522 39.1098C68.7775 35.5094 74.8368 32.8154 81.1805 30.6755C74.3481 31.2392 68.5952 35.3506 63.0598 38.9713L63.1522 39.1098ZM56.6784 74.7826C62.6344 72.2749 67.2533 66.4713 66.4024 59.8701C66.3769 59.5847 66.3562 59.2825 65.9284 59.1273C66.1617 66.2289 62.0145 70.6162 56.569 74.6106L56.6784 74.7826ZM53.6579 71.439C57.4101 68.8835 62.1907 65.6271 62.1591 60.663C60.1766 65.2461 56.4134 68.4249 52.6612 71.6563C53.1474 71.8593 53.4111 71.605 53.6579 71.4438V71.439ZM62.0205 56.5527C62.0096 56.5336 61.9986 56.5145 61.9865 56.4954C49.8315 62.287 53.0599 74.982 43.1462 81.8663C53.8767 77.4814 49.1289 64.0293 62.0205 56.5527ZM58.9319 82.4992L58.8578 82.3368C55.0326 83.5429 51.0458 83.9393 47.0492 84.1137V84.2641C51.0324 84.7083 55.4058 84.6045 58.9319 82.4992Z" fill="#BA6A3E"/>
<path d="M160.12 76.1834C161.667 81.9392 166.44 82.4956 171.555 80.9719C169.169 86.6644 164.984 92.5026 158.898 94.6867C157.283 95.2838 155.13 94.9649 153.736 95.845C154.372 97.6076 158.298 97.3138 159.903 96.983C157.61 117.642 145.249 101.14 151.209 118.555C147.744 117.294 143.871 117.038 141.1 119.838C141.668 116.841 142.206 114.002 142.739 111.187C146.727 110.38 148.622 107.127 149.668 103.571C150.553 103.722 154.951 104.799 153.588 102.836C152.145 102.049 150.515 101.641 148.986 101.044C139.572 97.0499 137.519 85.358 136.952 76.3386C143.104 80.825 150.687 85.9527 158.597 85.0822C158.526 84.6869 158.232 84.7454 158.001 84.6964C150.796 83.3686 144.556 79.3873 138.873 75.0071C132.51 69.7218 127.812 61.8799 126.971 53.7083C133.647 59.9537 143.33 64.3064 152.644 62.6644C153.919 62.3814 154.112 60.7681 152.506 61.0882C142.822 61.1037 132.472 57.4914 126.837 49.4022C125.014 46.9841 124.771 43.8172 122.978 41.4014C129.744 34.7703 132.493 23.3077 127.676 14.9463C143.842 16.5429 150.041 33.3481 142.858 46.5482L142.993 46.6294C144.853 43.8948 147.091 41.2366 147.945 37.9981C160.014 41.3238 164.786 50.7755 161.526 62.4781C160.813 66.9908 159.02 71.5979 160.12 76.1834ZM157.1 91.4517C159.115 91.2129 161.808 90.8248 162.879 88.9655C156.766 92.2136 149.344 90.5729 143.973 86.6728L143.89 86.7802C147.554 89.9101 152.15 92.0369 157.1 91.4517ZM145.996 95.0987C148.436 97.8357 152.045 100.97 155.963 100.404C152.277 99.2101 148.677 97.9825 145.996 95.0987V95.0987ZM154.94 67.6787C154.94 67.6476 154.94 67.6154 154.94 67.5843C147.305 67.1198 139.658 65.805 133.02 61.8691L132.947 62.0017C139.381 66.2708 147.361 67.2535 154.94 67.6787ZM151.617 74.8495C152.801 74.8889 154.299 75.8156 155.241 74.7755C148.174 73.7007 142.113 70.2019 136.534 66.0176L136.413 66.1143C140.593 70.2616 145.789 73.5156 151.617 74.8495V74.8495ZM136.678 50.2596C140.066 51.8216 150.375 50.434 154.397 47.8713C148.716 49.9491 142.9 51.0454 136.678 50.2596ZM135.396 52.5476C139.566 55.8041 145.364 56.4489 150.469 55.8184C145.268 55.7073 140.226 54.5048 135.475 52.4377L135.396 52.5476ZM141.688 32.7427L141.582 32.726C140.523 38.4674 138.248 43.9509 132.688 46.805C138.763 44.923 141.23 38.4937 141.688 32.7427ZM133.794 41.4528C137.218 39.2723 140.053 33.5917 139.352 30.235C138.588 34.6043 136.603 38.1163 133.794 41.4492V41.4528ZM128.642 41.4623C134.123 36.792 134.476 29.3179 133.869 22.6975C134.097 29.3358 133.13 36.14 128.501 41.3047L128.642 41.4623Z" fill="#BA6A3E"/>
<path d="M115.774 120.955C117 122.416 118.149 124.138 118.252 126.075C114.135 126.899 110.152 127.508 105.975 126.672C104.501 126.376 103.016 125.996 101.496 126.087C99.6731 126.194 98.3215 126.905 96.4435 126.312C95.1843 125.917 94.1122 125.37 92.7679 125.257C91.0662 125.113 89.3645 125.376 87.6627 125.461C83.7371 125.653 79.8034 125.311 75.9733 124.444C77.0134 121.176 79.2008 118.377 82.1456 116.547C85.2864 114.618 89.0241 113.893 92.6925 114.145C92.7858 114.158 92.8807 114.144 92.9666 114.106C93.0526 114.069 93.126 114.008 93.1787 113.931C93.3491 114.103 93.4896 114.302 93.5944 114.519C95.1515 116.285 98.3421 116.984 100.777 114.986C101.156 114.651 101.529 114.3 101.912 113.972C105.468 114.214 108.893 115.394 111.823 117.388C113.301 118.392 114.631 119.593 115.774 120.955V120.955ZM110.333 122.866C110.485 122.821 110.614 122.72 110.693 122.584C110.771 122.448 110.793 122.288 110.754 122.136C110.407 120.71 109.659 119.408 108.596 118.378C108.479 118.292 108.334 118.25 108.188 118.26C108.042 118.271 107.905 118.332 107.802 118.434C107.698 118.536 107.636 118.67 107.625 118.814C107.615 118.957 107.657 119.099 107.745 119.214C107.867 119.334 107.979 119.445 108.088 119.565C108.146 119.63 108.21 119.696 108.259 119.761L108.332 119.85C108.341 119.86 108.35 119.871 108.358 119.882V119.882C108.557 120.141 108.737 120.412 108.899 120.695C108.98 120.836 109.057 120.979 109.127 121.126C109.161 121.195 109.193 121.265 109.225 121.334L109.232 121.351V121.359V121.367V121.377C109.246 121.412 109.26 121.447 109.274 121.482C109.396 121.793 109.496 122.113 109.575 122.437C109.595 122.515 109.631 122.587 109.68 122.651C109.73 122.714 109.792 122.767 109.863 122.807C109.933 122.847 110.011 122.872 110.092 122.881C110.173 122.89 110.255 122.884 110.333 122.861V122.866ZM106.271 122.722C106.338 121.996 106.242 121.264 105.989 120.579C105.736 119.893 105.332 119.271 104.806 118.757C104.689 118.671 104.544 118.629 104.398 118.639C104.253 118.649 104.115 118.711 104.012 118.812C103.908 118.914 103.846 119.049 103.835 119.192C103.825 119.336 103.868 119.478 103.955 119.593C104.069 119.704 104.177 119.82 104.279 119.942C104.279 119.949 104.288 119.952 104.291 119.956C104.31 119.982 104.331 120.008 104.349 120.036C104.393 120.096 104.435 120.155 104.471 120.221C104.557 120.353 104.635 120.491 104.705 120.632C104.733 120.688 104.761 120.751 104.786 120.803C104.786 120.81 104.794 120.825 104.801 120.842L104.85 120.972C104.898 121.112 104.938 121.254 104.971 121.398C104.99 121.47 105.006 121.543 105.02 121.616C105.029 121.661 105.036 121.707 105.043 121.753C105.044 121.755 105.044 121.758 105.043 121.76V121.76V121.769C105.075 122.079 105.075 122.391 105.043 122.701C105.012 123.012 105.345 123.308 105.651 123.298C106.022 123.295 106.236 123.049 106.271 122.717V122.722ZM99.3145 118.452C99.3464 118.374 99.3611 118.291 99.3577 118.207C99.3543 118.123 99.3329 118.04 99.2949 117.965C99.2569 117.89 99.2031 117.823 99.1371 117.77C99.0711 117.716 98.9943 117.677 98.9119 117.655C98.8294 117.632 98.743 117.627 98.6585 117.64C98.5739 117.653 98.493 117.683 98.4211 117.729C98.3492 117.774 98.2879 117.834 98.2412 117.904C98.1945 117.975 98.1634 118.054 98.1501 118.137C97.6965 119.549 97.5232 121.034 97.6396 122.51C97.6424 122.668 97.7073 122.818 97.8207 122.929C97.9341 123.041 98.087 123.104 98.2473 123.107C98.5536 123.107 98.877 122.835 98.8551 122.51C98.7388 121.14 98.8948 119.76 99.3145 118.448V118.452ZM93.0195 118.436C93.0719 118.368 93.1091 118.291 93.1287 118.209C93.1482 118.126 93.1498 118.04 93.1331 117.957C93.1164 117.874 93.0819 117.796 93.0319 117.727C92.9819 117.658 92.9175 117.6 92.8431 117.557C92.7686 117.514 92.6858 117.488 92.6 117.479C92.5143 117.47 92.4276 117.479 92.3458 117.506C92.2639 117.533 92.1888 117.576 92.1253 117.633C92.0619 117.691 92.0116 117.761 91.9778 117.839C91.1756 119.262 90.8462 120.896 91.0358 122.513C91.0747 122.83 91.2789 123.11 91.6435 123.11C91.9401 123.11 92.2865 122.837 92.2513 122.513C92.06 121.107 92.3277 119.678 93.0158 118.431L93.0195 118.436ZM90.6808 116.076C90.9859 115.957 91.195 115.677 91.1026 115.346C91.0236 115.061 90.6663 114.817 90.3599 114.932C88.8908 115.486 87.5747 116.372 86.5178 117.518C85.4608 118.663 84.6927 120.037 84.2751 121.527C84.0734 122.267 85.2378 122.581 85.4384 121.843C86.1434 119.251 88.1271 117.034 90.6808 116.071V116.076Z" fill="#894B20"/>
<path d="M128.742 160.787C136.709 163.149 135.601 177.482 132.632 183.421C129.217 191.67 120.254 195.323 111.64 195.313C94.1041 195.273 75.8011 187.882 64.8154 174.194C62.653 171.373 58.7974 162.677 63.7433 161.07C62.275 164.848 65.2201 168.341 67.3801 171.188C76.9266 182.79 91.3437 189.283 106.225 191.074C125.34 193.587 136.315 177.765 128.742 160.787Z" fill="#FFD14C"/>
<path d="M175.449 196.001C177.012 205.435 177.469 215.098 176.533 224.608C120.267 224.376 64.0553 224.512 7.88088 224.477C3.41877 173.992 28.8458 187.661 58.9052 164.936C61.5355 185.995 93.3245 198.458 112.555 197.611C130.575 197.829 141.684 180.822 135.748 164.567C151.063 171.571 172.824 176.68 175.449 196.001Z" fill="#F7A718"/>
<path d="M175.185 187.603C179.345 198.398 179.616 210.479 178.604 221.875C178.239 223.659 179.177 226.852 176.423 226.795C119.89 227.153 63.3304 226.968 6.79504 226.795C4.05287 227.698 5.33644 212.181 5.09334 210.211C5.97093 181.671 23.2991 180.795 45.138 170.916C50.1923 168.725 54.9326 165.893 59.2378 162.491C60.5251 159.929 62.3167 158.084 65.4369 158.997C66.0872 159.162 66.0945 159.167 66.4798 158.631C69.8941 153.801 72.8211 148.534 73.9782 142.717C74.5386 141.43 74.4243 140.32 73.5163 139.222C71.1096 135.48 69.8771 130.955 67.31 127.407C65.2655 125.258 58.1937 126.113 58.9862 122.203C59.6621 120.757 60.4922 119.285 60.7414 117.702L60.5846 117.569C59.0871 118.524 54.1425 119.773 55.065 116.625C56.8956 114.656 58.5462 112.634 59.4882 110.097C59.7824 109.573 59.2731 109.356 59.002 109.004C58.6119 108.288 58.0625 108.224 57.3174 108.466C53.8118 109.482 50.0815 107.969 47.2481 105.948C44.01 102.951 51.3687 104.257 52.6596 102.844C54.3138 101.925 56.0168 100.374 56.142 98.4563C49.4494 100.451 40.6285 96.234 36.5104 91.1362C39.644 90.7337 43.5275 91.332 46.3766 89.4751C40.4109 88.6058 34.2848 85.335 32.1054 79.5398C31.6739 78.0172 34.2338 78.9678 35.0615 78.8758C40.4 80.0413 44.8597 75.2934 45.8163 70.4774C46.0995 68.3673 46.8786 66.1199 46.6574 64.0123C44.5631 59.4148 45.4419 53.9814 47.6626 49.5941C49.6208 47.2058 48.3603 44.5142 49.2428 41.7796C51.844 29.5766 62.0153 20.0354 73.3729 15.2265C80.3268 10.635 87.9346 6.12234 96.6352 6.27878C98.772 5.64588 100.578 4.07796 102.997 4.0899C106.772 3.75673 111.036 4.26186 113.754 7.10154C114.067 7.42396 114.372 7.56248 114.811 7.45143C117.559 7.18752 120.289 8.87366 122.084 10.8392C122.175 10.9491 122.302 11.084 122.428 11.1043C123.895 11.2512 124.789 12.6269 126.177 12.8299C139.845 13.0484 148.631 22.8321 148.4 36.0346C158.367 37.7553 166.382 46.7962 164.931 56.962C164.553 62.7059 162.256 68.1739 162.311 73.9536C162.125 77.9348 165.856 80.2157 169.591 79.7715C170.605 79.621 171.779 79.935 172.586 79.1481C174.424 78.2955 173.228 82.2362 172.93 83.0231C170.742 88.7097 166.941 93.1495 161.626 96.2841C162.63 102.767 158.941 110.934 151.56 111.322C150.813 113.678 155.802 121.853 151.836 121.174C150.091 120.646 148.433 119.828 146.561 119.79C143.4 119.688 140.969 122.638 139.011 124.74C137.087 128.536 134.579 131.95 131.813 135.181C129.929 137.689 127.218 139.719 125.698 142.415C124.914 147.95 124.514 153.803 126.306 159.167C129.332 156.99 132.395 159.662 134.62 161.595C148.988 168.264 167.832 172.293 175.185 187.603ZM176.54 224.609C177.476 215.098 177.019 205.432 175.456 196.002C172.831 176.68 151.07 171.572 135.755 164.568C141.691 180.823 130.582 197.83 112.562 197.611C93.3314 198.459 61.5424 185.996 58.9121 164.937C28.8527 187.662 3.42567 173.992 7.88778 224.477C64.0573 224.513 120.269 224.377 176.535 224.609H176.54ZM171.556 80.9716C166.437 82.4953 161.668 81.9388 160.121 76.183C159.027 71.5975 160.814 66.9881 161.536 62.4742C164.796 50.7656 160.024 41.3187 147.955 37.9942C147.104 41.2327 144.863 43.8909 143.003 46.6255L142.868 46.5443C150.046 33.3441 143.857 16.5389 127.685 14.9423C132.502 23.3014 129.752 34.7652 122.987 41.3975C124.779 43.8132 125.024 46.9801 126.846 49.3983C132.482 57.4874 142.832 61.1009 152.515 61.0842C154.121 60.7642 153.929 62.3775 152.654 62.6605C143.34 64.3036 133.657 59.951 126.98 53.7044C127.82 61.8759 132.519 69.7179 138.882 75.0032C144.566 79.3834 150.805 83.3623 158.011 84.6925C158.239 84.7415 158.536 84.683 158.606 85.0782C150.691 85.9488 143.114 80.8211 136.962 76.3347C137.522 85.3541 139.575 97.046 148.995 101.04C150.524 101.638 152.156 102.048 153.597 102.832C154.961 104.795 150.558 103.718 149.677 103.567C148.629 107.125 146.735 110.374 142.749 111.184C142.215 113.998 141.678 116.837 141.109 119.834C143.881 117.034 147.753 117.29 151.218 118.551C145.263 101.136 157.619 117.637 159.913 96.9791C158.307 97.3099 154.381 97.6037 153.746 95.8411C155.145 94.961 157.292 95.2787 158.908 94.6828C164.983 92.5023 169.168 86.6641 171.554 80.9716H171.556ZM143.12 108.81C145.835 107.657 146.9 105.404 147.819 103.042L143.836 100.902C143.599 103.517 143.364 106.108 143.12 108.81ZM142.576 100.116C142.698 99.7257 142.502 99.5191 142.272 99.2803C139.435 96.3152 137.775 92.4987 136.471 88.6917C135.134 84.548 134.186 80.07 135.213 75.7591C135.231 73.7291 132.568 72.56 131.661 70.8106C127.217 64.8398 124.025 57.731 124.368 50.2366C123.065 47.7121 121.887 45.1089 121.971 42.1964C115.571 46.5908 107.042 49.8389 99.3543 46.998C96.7628 46.7162 94.096 48.1695 91.4061 48.0931C86.3314 48.5051 81.2372 48.6555 76.1941 49.3493C73.932 49.5105 73.3851 50.3178 72.1088 52.0708C66.8566 59.3837 80.3851 67.2711 64.8814 77.9134C64.5496 78.108 64.3053 78.2716 64.3697 78.7672C64.6829 80.9856 64.2283 83.2432 63.0788 85.1774C61.6579 88.1197 62.5452 91.5852 62.2608 94.7497C62.0821 102.483 63.3159 110.094 66.1152 117.336C70.6891 129.397 75.5462 142.27 85.4975 151.098C91.1192 155.373 99.5402 155.934 106.161 153.953C118.118 148.526 128.295 136.446 135.628 125.891C140.517 118.143 140.106 108.663 142.576 100.119V100.116ZM132.642 183.421C135.608 177.483 136.715 163.149 128.752 160.787C136.325 177.766 125.349 193.587 106.239 191.074C91.3575 189.283 76.9453 182.791 67.3939 171.188C65.2339 168.341 62.2888 164.849 63.7571 161.07C58.8112 162.678 62.6631 171.373 64.8292 174.194C75.8149 187.882 94.1227 195.273 111.654 195.314C120.26 195.323 129.223 191.67 132.642 183.421ZM128.159 176.677C129.144 172.435 129.01 167.84 127.014 163.935C121.529 159.003 122.725 150.635 123.651 144.112C117.226 150.252 110.141 157.1 100.575 157.146C93.639 157.612 86.1952 155.843 81.4378 150.578C79.3228 148.429 77.9967 145.483 75.8465 143.448C74.7671 150.899 70.8094 158.053 65.353 163.316C71.4889 182.192 119.793 202.742 128.154 176.677H128.159ZM124.707 35.139C127.61 29.2876 129.339 21.2868 124.964 15.7185L124.819 15.783C126.447 20.4999 127.537 26.8886 124.09 30.9785C125.389 23.4351 124.054 11.5342 115.338 9.16384C119.188 16.687 121.369 27.1871 116.256 34.5502C115.04 35.2524 115.474 33.9532 115.698 33.2976C117.993 25.5702 117.102 16.8434 112.902 9.89227C110.379 5.97546 104.83 5.66618 100.65 6.73733C105.655 8.36854 110.739 11.9247 111.67 17.2721C102.03 5.26614 92.2217 7.12184 79.5197 13.3804C84.4534 13.1583 90.7023 11.9259 94.649 15.4737C75.7699 11.2261 54.7818 25.1845 51.0818 43.7285L51.2471 43.8132C61.0344 30.8066 79.6558 20.7925 96.0068 26.6939L95.9338 26.8516C82.6679 25.0914 68.8598 29.2399 59.1127 38.3046C53.0412 44.0258 46.3997 51.5931 47.552 60.4358H47.7465C50.1969 52.1329 57.1144 45.8326 65.2242 42.8388C67.3027 42.3349 69.8516 40.8327 71.8949 41.8035C60.2941 45.0504 49.8979 53.8548 48.9559 66.2692C48.6277 73.6992 43.6916 82.8679 34.8658 81.2176C37.9216 85.2777 45.1538 88.6153 50.2164 87.6588C51.6616 87.1131 53.3974 85.2359 54.9143 85.5762C56.159 88.392 43.9918 93.6367 41.3517 93.0635C44.0805 95.3157 51.5899 97.9177 56.1262 97.212C56.0046 95.1819 55.8928 93.2044 55.7725 91.1493C55.1088 91.2186 53.119 92.3924 52.9501 91.5147C57.8984 88.8362 63.1044 84.9529 63.1943 78.8758C59.594 80.5476 55.5366 80.6671 51.6373 80.2228C51.4161 80.2037 51.1317 80.2097 51.1207 79.9136C51.6288 79.0681 54.0027 79.4192 55.0103 79.0836C60.0571 78.4662 64.9641 76.2081 68.111 72.1743C74.6528 64.4923 64.6432 57.5782 71.9812 50.4217C68.4939 50.6724 65.4904 52.8159 62.4528 54.3528C74.8352 38.9089 102.398 55.0024 110.124 32.8581C110.359 37.8019 106.781 43.0645 102.264 45.4779C110.626 46.512 120.517 42.551 124.707 35.139ZM60.6503 122.7C61.5935 123.382 65.5767 124.611 66.4458 124.529C64.8656 120.048 62.888 115.646 61.8074 110.982C61.6676 110.412 61.2848 110.334 60.8229 110.311C60.0717 112.781 58.7735 114.885 57.1435 116.886C58.2375 117.09 59.5211 116.318 60.6503 116.028C64.2092 116.001 61.5497 121.017 60.6515 122.7H60.6503ZM61.1061 107.892C59.9647 101.381 59.921 95.0088 60.6454 88.5305L57.2687 90.594C59.1941 95.6966 57.2809 104.026 61.1073 107.888L61.1061 107.892ZM57.6638 107.233C57.2371 105.411 56.8287 103.669 56.3875 101.782C54.8888 104.02 52.7252 104.979 50.2468 105.484C52.5502 106.913 55.0845 107.178 57.665 107.229L57.6638 107.233Z" fill="black"/>
<path d="M162.878 88.9646C161.807 90.8239 159.11 91.212 157.099 91.4509C152.148 92.036 147.553 89.9092 143.889 86.7794L143.972 86.6719C149.343 90.572 156.765 92.2103 162.878 88.9646Z" fill="black"/>
<path d="M155.966 100.404C152.043 100.97 148.43 97.8356 145.999 95.0986C148.675 97.9825 152.276 99.2101 155.966 100.404Z" fill="black"/>
<path d="M154.946 67.5838C154.946 67.6149 154.946 67.6471 154.946 67.6782C147.366 67.2555 139.387 66.2703 132.958 62.0012L133.031 61.8687C139.663 65.8046 147.31 67.1193 154.946 67.5838Z" fill="black"/>
<path d="M155.239 74.7757C154.297 75.8158 152.799 74.8951 151.615 74.8498C145.787 73.5159 140.591 70.2618 136.421 66.1145L136.543 66.0178C142.122 70.2009 148.172 73.701 155.239 74.7757Z" fill="black"/>
<path d="M154.399 47.876C150.377 50.4338 140.069 51.8167 136.68 50.2643C142.898 51.0452 148.714 49.949 154.399 47.876Z" fill="black"/>
<path d="M150.464 55.8176C145.359 56.4482 139.565 55.8033 135.392 52.5469L135.467 52.437C140.221 54.5029 145.263 55.7066 150.464 55.8176Z" fill="black"/>
<path d="M141.581 32.7222L141.686 32.7389C141.228 38.4935 138.762 44.9192 132.692 46.8012C138.246 43.9484 140.522 38.4636 141.581 32.7222Z" fill="black"/>
<path d="M139.952 106.076C140.048 109.47 136.495 113.969 133.583 115.629C132.578 115.905 131.273 117.339 130.313 117.004C133.761 113.624 137.072 110.052 139.952 106.076Z" fill="black"/>
<path d="M139.352 30.2349C140.053 33.5916 137.219 39.2722 133.795 41.4527C136.604 38.1162 138.589 34.6043 139.352 30.2349Z" fill="black"/>
<path d="M133.867 22.6936C134.474 29.314 134.122 36.7845 128.64 41.4584L128.498 41.3008C133.129 36.1361 134.101 29.3319 133.867 22.6936Z" fill="black"/>
<path d="M130.928 79.5169C131.901 80.649 133.296 82.1238 132.806 83.718C132.542 85.6405 125.104 81.5374 123.517 81.3679C114.502 77.4212 104.746 84.5754 102.969 80.6311C100.222 74.9481 108.112 72.1108 112.65 72.2613C119.473 72.4643 126.21 74.5553 130.928 79.5169ZM131.388 83.4373L131.56 83.2761C126.895 76.0611 114.639 71.9568 106.592 75.3744C104.477 75.9345 103.118 80.7481 106.359 80.0686C114.82 76.9639 123.914 78.7073 131.388 83.4373V83.4373Z" fill="black"/>
<path d="M72.3228 87.9377C74.1363 89.3086 79.3156 92.3704 85.6143 88.5563C85.7472 88.475 85.8592 88.3647 85.9418 88.2341C86.0244 88.1034 86.0752 87.9559 86.0905 87.8028C86.1058 87.6498 86.085 87.4953 86.0299 87.3514C85.9747 87.2075 85.8866 87.078 85.7723 86.9729C84.3915 85.6927 81.5047 83.5827 78.0563 84.3171C74.8255 85.0061 73.125 85.6939 72.2973 86.365C72.1785 86.4611 72.0833 86.5822 72.0187 86.7194C71.9541 86.8566 71.9219 87.0063 71.9243 87.1574C71.9268 87.3086 71.9639 87.4572 72.0329 87.5923C72.1019 87.7274 72.201 87.8455 72.3228 87.9377V87.9377Z" fill="white"/>
<path d="M122.391 88.4538C120.578 89.8259 115.399 92.8865 109.1 89.0736C108.967 88.9922 108.855 88.8818 108.773 88.7512C108.69 88.6205 108.639 88.4729 108.624 88.3198C108.609 88.1668 108.63 88.0124 108.685 87.8685C108.741 87.7247 108.829 87.5952 108.943 87.4902C110.323 86.2088 113.211 84.0988 116.659 84.8344C119.89 85.5222 121.59 86.2112 122.417 86.8823C122.536 86.9781 122.631 87.0991 122.696 87.2362C122.761 87.3733 122.793 87.523 122.791 87.6741C122.788 87.8253 122.751 87.9739 122.682 88.1089C122.613 88.2439 122.513 88.3618 122.391 88.4538V88.4538Z" fill="white"/>
<path d="M126.783 89.5739L126.629 89.7041C123.49 88.3248 120.551 86.2279 117.043 85.9521C118.09 90.1471 111.44 92.4004 110.204 87.5522C106.541 90.8087 106.997 84.5406 113.089 83.8301C118.122 83.147 123.768 85.7204 126.783 89.5739ZM114.385 87.9487C115.1 87.4113 115.159 86.6351 114.548 85.8159C113.533 86.2733 113.456 87.262 114.383 87.9487H114.385Z" fill="black"/>
<path d="M124.011 84.1831C124.871 84.988 123.862 85.3617 123.479 84.6858C118.703 79.8782 110.939 80.6723 106.548 85.4573C109.568 79.5009 119.696 79.3731 124.011 84.1831Z" fill="black"/>
<path d="M121.369 23.2583C122.676 30.8328 120.154 39.3996 112.253 42.2978C119.595 38.3571 121.91 31.0728 121.294 23.2655L121.369 23.2583Z" fill="black"/>
<path d="M119.468 126.269C119.475 126.402 119.432 126.533 119.347 126.638C119.35 126.544 119.331 126.451 119.293 126.366C119.254 126.28 119.196 126.204 119.124 126.144C119.051 126.083 118.966 126.039 118.874 126.016C118.782 125.992 118.685 125.989 118.592 126.007C118.479 126.031 118.367 126.054 118.254 126.075C118.151 124.138 117.002 122.416 115.775 120.956C114.631 119.591 113.299 118.389 111.818 117.384C108.887 115.39 105.463 114.21 101.907 113.968C102.356 113.564 102.854 113.215 103.388 112.929C104.533 113.083 105.663 113.329 106.766 113.664C106.781 113.699 106.795 113.732 106.809 113.766C106.899 113.766 106.987 113.766 107.074 113.766C109.144 114.43 111.096 115.408 112.858 116.665C115.897 118.833 119.401 122.335 119.468 126.269Z" fill="black"/>
<path d="M119.345 126.637C119.351 126.761 119.309 126.881 119.229 126.976C119.149 127.071 119.036 127.133 118.912 127.151C115.305 127.881 111.609 128.624 107.912 128.196C106.008 127.976 104.144 127.291 102.214 127.258C100.621 127.231 99.1256 128.014 97.5369 127.865C95.6176 127.686 94.0679 126.481 92.0562 126.402C90.3253 126.334 88.5823 126.619 86.8539 126.678C83.0279 126.788 79.2037 126.407 75.478 125.545C75.4056 125.531 75.3369 125.502 75.276 125.461C75.2152 125.42 75.1636 125.367 75.1243 125.306C75.1975 125.326 75.2741 125.331 75.3495 125.321C75.4248 125.312 75.4975 125.288 75.5632 125.25C75.629 125.213 75.6864 125.163 75.7323 125.103C75.7782 125.044 75.8116 124.976 75.8305 124.903C75.8742 124.747 75.9229 124.591 75.9715 124.437C79.8016 125.304 83.7354 125.646 87.661 125.454C89.3627 125.367 91.0644 125.106 92.7661 125.25C94.1104 125.369 95.1825 125.91 96.4418 126.305C98.3197 126.902 99.6713 126.186 101.495 126.08C103.014 125.989 104.499 126.369 105.974 126.665C110.153 127.501 114.136 126.897 118.25 126.068C118.25 126.132 118.253 126.197 118.258 126.261C118.271 126.877 119.042 127 119.345 126.637Z" fill="black"/>
<path d="M119.345 126.637C119.041 126.995 118.27 126.876 118.259 126.268C118.259 126.204 118.257 126.139 118.252 126.075C118.365 126.053 118.477 126.03 118.59 126.007C118.683 125.989 118.78 125.991 118.872 126.015C118.964 126.039 119.05 126.082 119.122 126.143C119.195 126.204 119.252 126.279 119.291 126.365C119.329 126.451 119.348 126.543 119.345 126.637Z" fill="black"/>
<path d="M108.352 119.875L108.342 119.864L108.352 119.875ZM108.352 119.875C108.344 119.863 108.335 119.853 108.326 119.842L108.253 119.754C108.197 119.688 108.14 119.623 108.082 119.558C107.973 119.439 107.857 119.319 107.739 119.207C107.651 119.092 107.609 118.95 107.619 118.806C107.63 118.663 107.692 118.528 107.796 118.427C107.899 118.325 108.036 118.263 108.182 118.253C108.328 118.243 108.473 118.285 108.59 118.371C109.653 119.4 110.401 120.703 110.748 122.129C110.787 122.281 110.765 122.441 110.687 122.577C110.608 122.713 110.479 122.814 110.327 122.859C110.173 122.9 110.008 122.879 109.869 122.801C109.73 122.724 109.628 122.596 109.584 122.444C109.506 122.12 109.406 121.801 109.284 121.489C109.27 121.454 109.256 121.419 109.242 121.384V121.376V121.367L109.234 121.351C109.203 121.281 109.171 121.212 109.137 121.143C109.067 120.996 108.99 120.853 108.909 120.712C108.747 120.429 108.566 120.157 108.368 119.898L108.352 119.875Z" fill="black"/>
<path d="M110.533 24.7215L110.38 24.7465C107.341 18.1417 101.264 14.5449 94.8024 11.7793C101.725 13.1347 108.527 17.805 110.533 24.7215Z" fill="black"/>
<path d="M106.75 113.638C109.682 112.682 110.832 109.014 109.02 106.559C108.715 106.073 108.179 105.657 108.413 105.033C112.788 106.806 111.952 113.57 107.066 113.761C106.964 113.727 106.86 113.695 106.758 113.664L106.75 113.638Z" fill="black"/>
<path d="M108.353 119.873L108.343 119.864L108.353 119.873Z" fill="black"/>
<path d="M107.072 113.76C106.986 113.76 106.897 113.76 106.807 113.76C106.794 113.727 106.779 113.693 106.765 113.659C106.873 113.695 106.97 113.727 107.072 113.76Z" fill="black"/>
<path d="M104.794 120.817C104.769 120.759 104.741 120.697 104.713 120.646C104.643 120.505 104.565 120.368 104.479 120.235C104.439 120.172 104.396 120.11 104.357 120.05C104.339 120.023 104.318 119.996 104.299 119.97C104.299 119.97 104.278 119.942 104.273 119.938L104.29 119.959C104.29 119.959 104.283 119.952 104.278 119.945C104.177 119.823 104.069 119.707 103.955 119.596C103.867 119.481 103.825 119.339 103.835 119.196C103.845 119.052 103.908 118.917 104.011 118.816C104.115 118.714 104.252 118.653 104.398 118.642C104.544 118.632 104.689 118.674 104.806 118.76C105.331 119.274 105.735 119.895 105.989 120.58C106.242 121.264 106.339 121.995 106.273 122.72C106.238 123.052 106.03 123.298 105.665 123.317C105.362 123.33 105.029 123.034 105.057 122.72C105.089 122.41 105.089 122.098 105.057 121.787C105.057 121.833 105.063 121.821 105.057 121.781C105.058 121.779 105.058 121.777 105.057 121.774C105.05 121.728 105.043 121.682 105.034 121.637C105.02 121.564 105.004 121.491 104.986 121.42C104.953 121.276 104.912 121.133 104.864 120.993L104.815 120.863C104.807 120.839 104.796 120.824 104.794 120.817Z" fill="black"/>
<path d="M105.71 112.392C105.697 112.446 105.684 112.498 105.672 112.551C104.889 112.427 104.087 112.561 103.389 112.931C102.807 112.851 102.222 112.797 101.633 112.768C100.856 112.729 100.857 113.915 101.633 113.954L101.907 113.97C101.525 114.298 101.151 114.649 100.772 114.983C98.3412 116.981 95.1468 116.283 93.5898 114.517C93.4849 114.3 93.3445 114.101 93.1741 113.929C93.4001 113.597 93.2385 112.994 92.6879 112.957C92.2381 112.926 91.7876 112.91 91.3362 112.908C90.9186 112.738 90.5418 112.484 90.2301 112.163C91.0092 111.28 92.1409 112.043 92.9638 112.429C99.5214 117.96 100.37 109.667 105.71 112.392Z" fill="black"/>
<path d="M104.294 119.964L104.277 119.944C104.277 119.944 104.291 119.961 104.294 119.964Z" fill="black"/>
<path d="M108.323 130.028C105.771 134.834 88.5374 136.484 85.1073 128.975C86.702 129.145 87.83 130.358 89.2935 130.914C94.841 133.201 102.626 131.427 108.323 130.028Z" fill="black"/>
<path d="M103.768 25.962L103.683 26.0814C97.2224 19.6223 86.9648 19.928 78.714 22.5432L78.6775 22.45C86.7788 19.0658 97.4302 19.3094 103.768 25.962Z" fill="black"/>
<path d="M103.388 112.928C102.853 113.215 102.356 113.563 101.906 113.967L101.631 113.952C100.856 113.912 100.855 112.726 101.631 112.766C102.22 112.796 102.805 112.85 103.388 112.928Z" fill="black"/>
<path d="M101.76 90.8546C101.649 92.4619 101.994 94.2329 101.613 95.7506C100.229 94.5565 100.958 92.622 100.819 91.0528C100.796 90.3196 101.737 89.928 101.76 90.8546Z" fill="black"/>
<path d="M101.337 36.4919L101.399 36.6496C96.101 39.6505 89.6662 39.4319 83.7394 39.7735C89.6905 39.0438 95.6513 38.528 101.337 36.4919Z" fill="black"/>
<path d="M98.8938 117.718C99.0476 117.761 99.1781 117.861 99.2571 117.998C99.336 118.134 99.357 118.296 99.3155 118.448C98.8933 119.758 98.7343 121.137 98.8476 122.508C98.8743 122.829 98.551 123.105 98.2398 123.105C98.0795 123.102 97.9266 123.038 97.8132 122.927C97.6998 122.815 97.6349 122.665 97.6321 122.508C97.5157 121.031 97.689 119.547 98.1426 118.135C98.1638 118.059 98.2001 117.988 98.2494 117.926C98.2987 117.863 98.36 117.811 98.4299 117.773C98.4997 117.734 98.5766 117.709 98.6562 117.7C98.7359 117.69 98.8166 117.697 98.8938 117.718V117.718Z" fill="black"/>
<path d="M98.9141 32.9248C92.9034 32.9069 87.1979 34.4498 81.4595 35.9221C86.9377 34.0318 93.0797 31.7438 98.9141 32.9248Z" fill="black"/>
<path d="M96.707 151.226H96.6778C96.6633 151.775 96.8091 152.347 96.4141 152.806C94.0889 151.982 96.5004 146.939 96.707 151.226Z" fill="black"/>
<path d="M94.3128 90.1257C94.7674 91.8787 94.9132 93.6246 93.9177 95.2857C93.9651 93.5649 93.9749 91.8417 94.3128 90.1257Z" fill="black"/>
<path d="M94.8473 111.267C92.4272 111.775 91.1376 109.178 91.9629 107.195C92.364 109.5 93.0459 109.975 94.8473 111.267Z" fill="black"/>
<path d="M92.6926 112.955C93.2383 112.992 93.4 113.595 93.1788 113.927C92.6768 113.418 91.9864 113.198 91.3458 112.906C91.7931 112.907 92.242 112.924 92.6926 112.955Z" fill="black"/>
<path d="M92.804 117.619C92.9401 117.7 93.0387 117.83 93.0791 117.982C93.1195 118.133 93.0984 118.294 93.0203 118.431C92.3293 119.674 92.0574 121.101 92.2436 122.506C92.2825 122.826 91.9361 123.103 91.6359 123.103C91.2822 123.103 91.0719 122.829 91.0282 122.506C90.8386 120.89 91.168 119.256 91.9702 117.832C92.0105 117.764 92.0641 117.705 92.1278 117.657C92.1916 117.61 92.2644 117.575 92.3418 117.555C92.4193 117.535 92.5 117.531 92.5794 117.542C92.6587 117.553 92.735 117.579 92.804 117.619V117.619Z" fill="black"/>
<path d="M93.1731 113.927C93.1204 114.004 93.047 114.064 92.9611 114.102C92.8751 114.14 92.7802 114.153 92.6869 114.141C89.0185 113.889 85.2808 114.618 82.14 116.542C79.1952 118.373 77.0078 121.171 75.9677 124.439L75.7951 124.401C75.2092 124.268 74.8834 124.926 75.1205 125.308C74.8142 125.24 74.5528 124.973 74.6622 124.592C75.7005 120.927 78.0563 117.756 81.2928 115.668C84.2659 113.77 87.8152 112.892 91.3401 112.906C91.9807 113.199 92.6711 113.418 93.1731 113.927Z" fill="black"/>
<path d="M91.1029 115.341C91.1953 115.672 90.9814 115.956 90.6811 116.071C88.1286 117.033 86.1437 119.251 85.4387 121.837C85.2381 122.575 84.0737 122.261 84.2755 121.522C84.693 120.031 85.4612 118.658 86.5181 117.512C87.575 116.367 88.8911 115.481 90.3603 114.927C90.6666 114.812 91.0239 115.056 91.1029 115.341Z" fill="black"/>
<path d="M90.6326 74.5134C93.6033 76.3595 92.4267 81.4048 88.6355 80.9905C88.6294 81.0179 88.6233 81.0442 88.6185 81.0717C81.0228 79.4452 74.1187 77.3555 67.1041 82.0091C63.6885 83.0492 65.6564 77.8427 67.2256 76.8814C73.3274 71.9102 83.7334 70.3661 90.6326 74.5134ZM87.8138 79.1574C89.9446 79.7545 91.2865 77.5549 89.4633 76.1721C88.5761 75.5655 87.5826 75.1251 86.5327 74.8728C80.6837 73.3813 69.0209 74.5719 66.7978 80.92C73.0625 76.3369 80.7153 77.6874 87.8138 79.1574V79.1574Z" fill="black"/>
<path d="M87.0381 111.324C87.624 112.074 87.5984 112.094 87.6641 112.697C85.4701 113.174 84.4685 110.308 84.9049 108.61C85.3145 106.923 86.9056 103.561 88.8723 103.553C86.9724 105.571 85.0921 108.763 87.0381 111.324Z" fill="black"/>
<path d="M87.4507 86.1937C88.6893 86.9818 88.0074 89.0489 86.4783 88.3575C85.2021 87.475 83.955 86.5221 82.3675 86.2558C82.4769 91.2808 74.6418 91.3214 75.7248 86.1065C74.4108 85.7758 68.9946 90.3923 71.146 86.7645C75.2021 82.591 83.0385 82.4644 87.4507 86.1937ZM79.3069 87.5885C79.9499 87.2362 80.0362 87.0404 79.7809 86.4994C79.6035 86.171 79.3786 85.4772 78.9009 85.7352C78.2494 86.2821 78.8523 87.1395 79.3044 87.5885H79.3069Z" fill="black"/>
<path d="M83.8861 81.7237C84.8354 82.1428 87.3928 83.0814 87.0294 84.2935C86.8349 84.5514 86.4994 84.5765 86.1688 84.2935C81.3943 80.6036 75.6499 82.2515 71.2181 85.3873C73.1143 81.1935 79.8008 80.4507 83.8861 81.7237Z" fill="black"/>
<path d="M69.7998 22.618C74.5305 19.9251 80.0623 17.3637 85.6609 17.5739C80.0197 18.2772 75.097 20.5354 69.7998 22.618Z" fill="black"/>
<path d="M62.8616 50.0013C67.0867 46.8739 72.0495 43.1947 77.54 43.3583C72.1735 44.5166 67.4136 47.0458 62.8616 50.0013Z" fill="black"/>
<path d="M75.7992 124.4L75.9718 124.438C75.9232 124.592 75.8746 124.749 75.8308 124.905C75.8119 124.977 75.7786 125.045 75.7327 125.105C75.6868 125.164 75.6293 125.214 75.5636 125.252C75.4978 125.289 75.4252 125.313 75.3498 125.323C75.2744 125.332 75.1979 125.327 75.1246 125.307C74.8876 124.93 75.2133 124.267 75.7992 124.4Z" fill="black"/>
<path d="M81.1818 30.675C74.8381 32.815 68.7837 35.509 63.1535 39.1093L63.0612 38.9708C68.5965 35.3501 74.3495 31.2387 81.1818 30.675Z" fill="black"/>
<path d="M66.3981 59.8695C67.249 66.4707 62.6301 72.2707 56.6741 74.782L56.5684 74.61C62.0089 70.6156 66.1562 66.2283 65.9277 59.1267C66.3568 59.2819 66.3775 59.5841 66.3981 59.8695Z" fill="black"/>
<path d="M62.5316 50.215C62.641 50.1433 62.7504 50.0717 62.861 50.0012L62.5486 50.2317L62.5316 50.215Z" fill="black"/>
<path d="M62.5475 50.2311L61.9604 50.686L61.9434 50.6693L62.5329 50.2144L62.5475 50.2311Z" fill="black"/>
<path d="M62.1602 60.6672C62.1918 65.6313 57.4112 68.8878 53.6589 71.4433C53.4158 71.6045 53.1533 71.8588 52.6622 71.6606C56.4145 68.4292 60.1777 65.2504 62.1602 60.6672Z" fill="black"/>
<path d="M61.9925 56.4949C62.0047 56.514 62.0156 56.5331 62.0266 56.5522C49.1313 64.0287 53.879 77.4808 43.1583 81.8657C53.0659 74.9815 49.8314 62.2865 61.9925 56.4949Z" fill="black"/>
<path d="M61.9592 50.687L61.8823 50.7219L61.9421 50.6702L61.9592 50.687Z" fill="black"/>
<path d="M61.8817 50.7212L61.5609 50.9994L61.4916 50.8991L61.8817 50.7212Z" fill="black"/>
<path d="M58.8608 82.3367L58.935 82.4991C55.41 84.6043 51.0342 84.7082 47.0498 84.264V84.1135C51.0464 83.9392 55.0332 83.5427 58.8608 82.3367Z" fill="black"/>
</g>
<defs>
<linearGradient id="paint0_linear_150_1459" x1="28" y1="-2.21" x2="145.679" y2="213.539" gradientUnits="userSpaceOnUse">
<stop stop-color="#3DDDB7" stop-opacity="0.13"/>
<stop offset="1" stop-color="#3DDDB7" stop-opacity="0.54"/>
</linearGradient>
</defs>
</svg>
