<svg width="200" height="210" viewBox="0 0 200 210" fill="none" xmlns="http://www.w3.org/2000/svg">
<mask id="mask0_150_1542" style="mask-type:alpha" maskUnits="userSpaceOnUse" x="0" y="0" width="200" height="210">
<path fill-rule="evenodd" clip-rule="evenodd" d="M200 0H0V121.392V124.937H0.0785363C2.17813 172.23 46.1112 210 100 210C153.889 210 197.822 172.23 199.921 124.937H200V121.392V0Z" fill="#C4C4C4"/>
</mask>
<g mask="url(#mask0_150_1542)">
<ellipse cx="100" cy="110.86" rx="100" ry="99.1395" fill="url(#paint0_linear_150_1542)"/>
<path d="M165.618 146.718C166.14 148.153 165.741 149.151 164.64 150.145C163.568 151.113 162.349 151.909 161.082 152.598C158.6 153.946 155.905 154.835 153.193 155.601C153.219 155.565 153.249 155.528 153.274 155.49C154.507 153.692 154.214 151.483 153.223 149.656C152.215 147.789 150.597 146.188 148.927 144.894C147.746 143.978 146.337 142.932 144.837 142.432C144.224 139.683 143.504 136.961 142.678 134.265C142.608 134.038 142.537 133.81 142.467 133.582C142.895 133.742 143.323 133.901 143.76 134.036C144.644 134.309 145.557 134.501 146.445 134.759C148.271 135.296 150.081 135.906 151.865 136.567C154.84 137.667 157.791 138.973 160.408 140.779C162.502 142.221 164.73 144.276 165.618 146.718Z" fill="#871814"/>
<path d="M60.4909 133.576C60.4203 133.804 60.3491 134.031 60.2797 134.258C59.4527 136.952 58.733 139.675 58.1204 142.426C56.6201 142.926 55.2105 143.971 54.0306 144.887C52.3604 146.181 50.7452 147.783 49.7345 149.65C48.744 151.478 48.4532 153.688 49.6835 155.484C49.7099 155.522 49.7395 155.559 49.7653 155.595C47.0531 154.829 44.3577 153.94 41.8758 152.591C40.6085 151.903 39.3894 151.106 38.3181 150.139C37.2167 149.144 36.8178 148.146 37.3399 146.711C38.2285 144.272 40.4555 142.216 42.5503 140.771C45.1667 138.965 48.1182 137.66 51.0931 136.559C52.877 135.899 54.6866 135.289 56.5114 134.751C57.4005 134.49 58.3137 134.299 59.2006 134.029C59.6348 133.895 60.0629 133.735 60.4909 133.576Z" fill="#871814"/>
<path d="M174.696 145.481C176.068 148.517 176.068 151.964 174.354 154.863C172.738 157.594 170.025 159.507 167.228 160.919C163.723 162.688 159.824 163.693 155.993 164.49C151.787 165.364 147.519 165.9 143.251 166.373C138.715 166.876 134.168 167.272 129.609 167.56C122.227 168.031 114.824 168.198 107.427 168.116C108.727 167.857 110.024 167.578 111.311 167.338C114.147 166.815 116.984 166.298 119.816 165.754C124.752 164.805 129.688 163.84 134.579 162.68C136.372 162.254 138.174 161.814 139.965 161.339C142.872 160.758 145.77 160.126 148.649 159.415C154.806 157.897 161.601 156.269 166.402 151.887C171.836 146.923 164.497 140.237 160.143 137.655C157.453 136.059 154.502 134.898 151.544 133.896C149.831 133.325 148.089 132.841 146.326 132.447C145.478 132.252 144.623 132.039 143.754 131.968C143.144 131.918 142.531 131.89 141.918 131.857C141.668 131.091 141.409 130.325 141.141 129.56C145.56 130.997 150.187 131.788 154.653 133.096C158.925 134.346 163.303 135.586 167.199 137.782C170.399 139.589 173.169 142.103 174.696 145.481Z" fill="#BE1818"/>
<path d="M95.5282 168.116C88.1328 168.196 80.729 168.029 73.3465 167.561C68.7898 167.271 64.242 166.875 59.7031 166.373C55.4362 165.901 51.1682 165.364 46.9629 164.49C43.1319 163.694 39.2314 162.688 35.7275 160.919C32.9301 159.508 30.2179 157.595 28.6016 154.863C26.8878 151.964 26.8861 148.518 28.2582 145.481C29.7854 142.103 32.5565 139.591 35.7583 137.786C39.6527 135.589 44.0328 134.35 48.3042 133.099C52.7705 131.791 57.3977 131 61.8159 129.563C61.5469 130.327 61.2892 131.094 61.0371 131.86C60.4253 131.894 59.813 131.921 59.2028 131.971C58.3339 132.042 57.4795 132.255 56.6296 132.45C54.8666 132.845 53.1251 133.329 51.4119 133.899C48.4554 134.9 45.5023 136.063 42.8148 137.658C38.4627 140.24 31.1188 146.926 36.5556 151.89C41.3558 156.272 48.1495 157.9 54.3084 159.419C57.1859 160.129 60.0791 160.762 62.9924 161.342C64.7852 161.817 66.5837 162.257 68.3782 162.683C73.2692 163.844 78.2056 164.808 83.1415 165.757C85.973 166.301 88.8102 166.819 91.6462 167.341C92.932 167.578 94.2284 167.858 95.5282 168.116Z" fill="#BE1818"/>
<path d="M208.228 184.311C210.861 193.691 212.362 203.38 213.875 212.993C211.02 212.898 208.163 212.855 205.303 212.839C201.839 212.768 198.374 212.734 194.907 212.737C194.848 212.053 194.762 211.368 194.709 210.7C194.662 210.094 194.608 209.489 194.551 208.884C195.237 208.568 195.888 207.959 196.352 207.55C197.181 206.821 198.008 205.919 198.385 204.871C198.741 203.879 197.45 203.422 196.787 203.948C196.05 204.531 195.472 205.281 194.701 205.837C194.561 205.935 194.415 206.027 194.265 206.11C194.173 205.31 194.071 204.51 193.959 203.71C193.808 202.614 193.805 201.284 193.226 200.314C192.879 199.73 192.119 199.936 191.89 200.486C191.457 201.524 191.652 202.914 191.653 204.02C191.653 205.186 191.68 206.346 191.723 207.512C191.766 208.679 191.822 209.84 191.891 211.004C191.925 211.577 191.943 212.158 191.973 212.739C184.956 212.754 177.939 212.843 170.934 212.85C164.583 212.856 158.231 212.873 151.881 212.9C135.079 212.916 118.277 212.933 101.475 212.953C84.6727 212.939 67.8708 212.921 51.0691 212.9C44.7169 212.877 38.3656 212.86 32.0153 212.85C25.0121 212.845 17.9932 212.756 10.9754 212.739C11.0062 212.158 11.0247 211.577 11.0589 211.004C11.13 209.84 11.1844 208.677 11.227 207.512C11.2695 206.348 11.2948 205.186 11.2964 204.02C11.2964 202.914 11.4925 201.524 11.06 200.486C10.8309 199.936 10.0706 199.73 9.72323 200.314C9.15065 201.281 9.14785 202.615 8.99602 203.709C8.88397 204.509 8.78144 205.309 8.68844 206.109C8.539 206.026 8.39407 205.935 8.25424 205.837C7.48164 205.281 6.90346 204.532 6.16784 203.947C5.50338 203.422 4.2131 203.878 4.56999 204.87C4.94704 205.919 5.77398 206.82 6.60372 207.55C7.06593 207.957 7.71807 208.566 8.40439 208.883C8.34836 209.488 8.29233 210.094 8.24639 210.699C8.19373 211.366 8.10745 212.052 8.04862 212.736C4.5825 212.739 1.11713 212.773 -2.3475 212.839C-5.20481 212.854 -8.06212 212.897 -10.9194 212.992C-9.40674 203.38 -7.90413 193.691 -5.27092 184.311C-4.04508 179.945 -2.30156 175.778 1.07006 172.606C4.50276 169.378 8.80161 167.061 12.7492 164.522C15.1923 162.951 17.6387 161.389 20.0885 159.834C22.0993 158.556 24.1454 157.3 26.1063 155.941C29.0302 161.244 35.5399 164.159 41.1469 165.811C45.4447 167.077 49.8724 167.844 54.3074 168.443C59.0199 169.081 63.7464 169.594 68.4869 169.983C79.1043 170.875 123.848 170.875 134.465 169.983C139.203 169.586 143.93 169.073 148.647 168.443C153.082 167.845 157.509 167.078 161.806 165.812C167.413 164.16 173.924 161.245 176.846 155.942C178.807 157.301 180.855 158.553 182.866 159.834C185.317 161.393 187.764 162.956 190.208 164.523C194.155 167.061 198.453 169.379 201.885 172.606C205.257 175.778 207.002 179.945 208.228 184.311Z" fill="#BE1818"/>
<path d="M151.925 152.294C152.143 154.029 150.827 155.148 149.411 155.866C147.579 156.799 145.482 157.319 143.516 157.899C143.147 158.008 142.777 158.114 142.407 158.218C135.916 159.582 129.363 160.63 122.811 161.651C115.89 162.73 108.969 163.806 102.049 164.879C101.669 164.913 101.286 164.913 100.905 164.879C93.9849 163.805 87.0644 162.729 80.1438 161.651C73.5916 160.63 67.0388 159.582 60.5477 158.218C60.1768 158.113 59.8064 158.007 59.4367 157.899C57.4724 157.319 55.3754 156.799 53.5422 155.866C52.127 155.148 50.8098 154.029 51.0295 152.294C51.2939 150.202 53.099 148.39 54.5748 147.02C55.3744 146.277 56.2404 145.608 57.162 145.02C57.315 144.922 57.4724 144.828 57.6287 144.735C57.2455 146.651 56.9116 148.576 56.627 150.51C56.5205 151.242 56.8096 151.984 57.5945 152.199C58.2433 152.375 59.1896 151.976 59.296 151.239C60.6188 142.048 63.0173 132.819 66.7962 124.305C68.477 120.52 70.6239 116.777 73.9748 114.203C77.4999 111.497 81.9724 110.039 86.2113 108.865C88.8289 108.135 91.4882 107.561 94.1748 107.146C96.5688 106.781 99.1236 106.73 101.477 106.115C103.83 106.73 106.386 106.782 108.78 107.146C111.466 107.561 114.124 108.135 116.741 108.865C120.981 110.039 125.455 111.497 128.979 114.203C132.331 116.777 134.479 120.52 136.158 124.305C139.937 132.819 142.336 142.048 143.658 151.239C143.765 151.978 144.711 152.375 145.36 152.199C146.144 151.984 146.434 151.242 146.327 150.51C146.044 148.577 145.71 146.652 145.325 144.735C145.482 144.828 145.638 144.922 145.792 145.02C146.714 145.608 147.58 146.278 148.38 147.02C149.855 148.39 151.661 150.202 151.925 152.294Z" fill="#DFBBA8"/>
<path d="M217.131 214.271C217.332 214.81 217.091 215.493 216.403 215.681C216.293 215.745 216.175 215.794 216.052 215.829C215.818 215.985 215.542 216.068 215.259 216.067C198.545 216.329 181.812 216.132 165.097 216.128C143.891 216.122 122.684 216.117 101.476 216.113C80.2698 216.118 59.0627 216.123 37.8552 216.128C21.1382 216.132 4.40782 216.329 -12.3069 216.067C-12.5892 216.068 -12.8653 215.985 -13.0996 215.829C-13.2223 215.795 -13.3401 215.745 -13.4504 215.681C-14.1367 215.495 -14.3776 214.81 -14.1787 214.271C-14.1772 214.17 -14.1684 214.07 -14.1524 213.97C-13.1854 207.987 -12.2195 202.003 -11.0435 196.058C-10.053 191.057 -9.03106 185.978 -7.40184 181.134C-5.8516 176.526 -3.44978 172.467 0.368929 169.355C2.19256 167.868 4.15851 166.577 6.13957 165.313C8.40245 163.869 10.6631 162.429 12.9473 161.02C16.9329 158.563 20.9685 155.981 25.2583 154.045C25.1065 153.608 24.9785 153.163 24.8751 152.712C24.0112 148.933 25.0992 144.973 27.2691 141.812C29.5454 138.499 32.865 136.126 36.4921 134.437C40.3976 132.619 44.5889 131.381 48.7555 130.302C53.1429 129.167 57.7196 128.005 62.2812 128.268C63.1911 125.788 64.2113 123.348 65.3935 121.001C67.4009 117.015 70.1288 113.445 73.9536 111.026C77.9611 108.49 82.7609 106.996 87.3544 105.906C89.7781 105.33 92.233 104.892 94.7072 104.594C96.9034 104.332 99.2789 104.05 101.478 104.473C103.677 104.05 106.052 104.332 108.247 104.594C110.722 104.892 113.177 105.33 115.601 105.906C120.196 106.996 124.994 108.49 129.002 111.026C132.827 113.445 135.557 117.015 137.562 121.001C138.745 123.348 139.765 125.788 140.675 128.268C145.236 128.005 149.813 129.167 154.2 130.302C158.367 131.38 162.558 132.619 166.464 134.437C170.089 136.126 173.411 138.499 175.687 141.812C177.857 144.973 178.945 148.932 178.081 152.712C177.977 153.163 177.849 153.608 177.698 154.045C181.987 155.981 186.023 158.563 190.009 161.02C192.293 162.429 194.553 163.871 196.816 165.313C198.799 166.578 200.766 167.869 202.59 169.355C206.407 172.467 208.809 176.527 210.359 181.134C211.987 185.978 213.009 191.056 214 196.058C215.177 202.003 216.141 207.989 217.105 213.972C217.121 214.071 217.13 214.171 217.131 214.271V214.271ZM213.875 212.993C212.362 203.38 210.861 193.692 208.228 184.312C207.002 179.945 205.259 175.779 201.885 172.607C198.453 169.379 194.154 167.061 190.208 164.523C187.765 162.952 185.317 161.389 182.866 159.835C180.855 158.557 178.809 157.301 176.846 155.942C173.924 161.245 167.413 164.16 161.806 165.812C157.51 167.078 153.082 167.845 148.647 168.444C143.935 169.082 139.208 169.595 134.468 169.984C123.85 170.876 79.1069 170.876 68.4894 169.984C63.753 169.586 59.0265 169.073 54.3099 168.443C49.8749 167.844 45.4472 167.077 41.1495 165.812C35.5424 164.159 29.0328 161.244 26.1088 155.941C24.1479 157.3 22.1018 158.553 20.0911 159.834C17.6402 161.393 15.1937 162.956 12.7517 164.523C8.80416 167.061 4.50531 169.378 1.07261 172.606C-2.29789 175.779 -4.04253 179.945 -5.26838 184.311C-7.90158 193.691 -9.40251 203.379 -10.9169 212.992C-8.05958 212.897 -5.20227 212.854 -2.34496 212.839C1.11855 212.768 4.58393 212.734 8.05117 212.737C8.1072 212.053 8.19628 211.368 8.24894 210.7C8.29544 210.094 8.34979 209.488 8.40694 208.883C7.72062 208.568 7.06848 207.959 6.60627 207.55C5.77653 206.82 4.94959 205.919 4.57254 204.871C4.21565 203.879 5.50592 203.422 6.17039 203.948C6.90601 204.531 7.48419 205.281 8.25679 205.837C8.39662 205.935 8.54155 206.026 8.69099 206.11C8.78511 205.31 8.88764 204.509 8.99857 203.709C9.14984 202.614 9.1532 201.283 9.73138 200.313C10.0787 199.729 10.839 199.936 11.0682 200.486C11.5007 201.524 11.3057 202.914 11.3046 204.019C11.3046 205.186 11.2783 206.346 11.2351 207.512C11.192 208.678 11.1359 209.84 11.067 211.004C11.0329 211.577 11.0144 212.158 10.9836 212.738C18.0013 212.754 25.0191 212.843 32.0234 212.849C38.373 212.856 44.7243 212.873 51.0772 212.9C67.8789 212.916 84.6809 212.933 101.483 212.952C118.285 212.939 135.087 212.921 151.889 212.9C158.241 212.877 164.592 212.86 170.943 212.849C177.946 212.845 184.965 212.756 191.981 212.738C191.952 212.158 191.933 211.577 191.899 211.004C191.828 209.84 191.772 208.676 191.731 207.512C191.688 206.345 191.663 205.186 191.661 204.019C191.661 202.914 191.465 201.524 191.898 200.486C192.127 199.936 192.887 199.729 193.235 200.313C193.813 201.283 193.816 202.614 193.967 203.709C194.079 204.509 194.181 205.31 194.273 206.11C194.422 206.026 194.566 205.935 194.705 205.837C195.476 205.282 196.054 204.533 196.792 203.948C197.454 203.423 198.745 203.879 198.389 204.871C198.012 205.92 197.185 206.821 196.356 207.55C195.892 207.958 195.241 208.567 194.555 208.884C194.611 209.489 194.667 210.095 194.713 210.7C194.766 211.367 194.852 212.053 194.911 212.737C198.377 212.74 201.842 212.774 205.307 212.839C208.163 212.854 211.02 212.897 213.875 212.992V212.993ZM174.355 154.862C176.069 151.964 176.069 148.517 174.697 145.48C173.17 142.103 170.4 139.591 167.198 137.785C163.302 135.589 158.924 134.349 154.652 133.098C150.186 131.791 145.559 131 141.141 129.562C141.41 130.327 141.669 131.093 141.918 131.86C142.53 131.894 143.144 131.921 143.754 131.971C144.623 132.041 145.477 132.255 146.325 132.449C148.088 132.844 149.83 133.328 151.543 133.899C154.501 134.899 157.454 136.062 160.142 137.657C164.494 140.24 171.838 146.925 166.401 151.89C161.601 156.271 154.804 157.899 148.648 159.418C145.771 160.128 142.873 160.761 139.964 161.342C138.171 161.817 136.373 162.257 134.578 162.683C129.687 163.843 124.751 164.807 119.815 165.756C116.984 166.3 114.146 166.818 111.31 167.341C110.022 167.578 108.727 167.858 107.427 168.119C114.822 168.198 122.226 168.031 129.608 167.563C134.165 167.273 138.712 166.877 143.25 166.375C147.519 165.903 151.787 165.367 155.992 164.493C159.823 163.696 163.724 162.691 167.227 160.922C170.026 159.506 172.739 157.593 174.355 154.862ZM164.641 150.143C165.742 149.148 166.141 148.15 165.619 146.716C164.729 144.276 162.503 142.221 160.409 140.775C157.792 138.97 154.841 137.664 151.866 136.564C150.082 135.903 148.272 135.293 146.446 134.755C145.558 134.494 144.645 134.303 143.761 134.033C143.324 133.898 142.896 133.738 142.468 133.579C142.539 133.807 142.609 134.035 142.679 134.261C143.506 136.955 144.226 139.678 144.838 142.429C146.339 142.929 147.748 143.974 148.928 144.89C150.598 146.184 152.214 147.786 153.224 149.653C154.215 151.481 154.506 153.691 153.275 155.487C153.249 155.525 153.219 155.562 153.194 155.598C155.906 154.832 158.601 153.943 161.083 152.594C162.35 151.907 163.57 151.11 164.641 150.143ZM149.412 155.866C150.829 155.147 152.144 154.028 151.926 152.293C151.662 150.201 149.857 148.39 148.381 147.02C147.581 146.277 146.715 145.607 145.794 145.019C145.64 144.921 145.483 144.828 145.326 144.734C145.71 146.65 146.045 148.575 146.329 150.509C146.435 151.242 146.145 151.984 145.361 152.198C144.712 152.374 143.766 151.976 143.66 151.239C142.337 142.047 139.938 132.819 136.16 124.305C134.479 120.519 132.332 116.776 128.98 114.203C125.456 111.496 120.982 110.039 116.743 108.865C114.126 108.135 111.467 107.56 108.781 107.145C106.387 106.78 103.832 106.729 101.478 106.115C99.1254 106.729 96.5701 106.782 94.1761 107.145C91.4894 107.561 88.8302 108.135 86.2126 108.865C81.9737 110.039 77.5012 111.496 73.976 114.203C70.6251 116.776 68.4771 120.519 66.7975 124.305C63.0185 132.819 60.6201 142.047 59.2973 151.239C59.1909 151.978 58.2446 152.374 57.5958 152.198C56.8114 151.984 56.5218 151.242 56.6282 150.509C56.9114 148.576 57.2453 146.652 57.63 144.734C57.4737 144.828 57.3162 144.921 57.1633 145.019C56.2416 145.607 55.3756 146.277 54.576 147.02C53.1003 148.39 51.2952 150.201 51.0307 152.293C50.8111 154.028 52.1283 155.147 53.5435 155.866C55.3766 156.798 57.4737 157.319 59.4379 157.898C59.8073 158.007 60.1777 158.114 60.5489 158.217C67.0401 159.581 73.5928 160.63 80.145 161.651C87.0661 162.73 93.9866 163.805 100.906 164.878C101.287 164.912 101.67 164.912 102.051 164.878C108.971 163.804 115.891 162.728 122.812 161.651C129.364 160.63 135.917 159.581 142.408 158.217C142.779 158.113 143.149 158.007 143.517 157.898C145.483 157.319 147.58 156.798 149.412 155.866ZM73.3469 167.559C80.7294 168.029 88.132 168.196 95.5286 168.115C94.2288 167.856 92.9323 167.576 91.6449 167.337C88.8088 166.814 85.9717 166.296 83.1402 165.752C78.2043 164.803 73.2679 163.839 68.3768 162.679C66.584 162.253 64.7822 161.813 62.9911 161.338C60.0822 160.757 57.1863 160.124 54.3071 159.414C48.1482 157.896 41.3545 156.268 36.5542 151.886C31.1197 146.921 38.4591 140.236 42.8134 137.653C45.5027 136.058 48.4541 134.896 51.4106 133.895C53.1238 133.324 54.8653 132.84 56.6282 132.445C57.4782 132.251 58.3325 132.037 59.2015 131.967C59.8116 131.916 60.424 131.889 61.0358 131.856C61.2879 131.09 61.5456 130.323 61.8145 129.558C57.3964 130.996 52.7692 131.787 48.3028 133.094C44.0314 134.345 39.6513 135.585 35.757 137.781C32.5551 139.585 29.7841 142.099 28.2568 145.477C26.8848 148.513 26.8864 151.96 28.6003 154.858C30.2166 157.589 32.9288 159.502 35.7262 160.915C39.2311 162.684 43.1305 163.689 46.9616 164.486C51.1669 165.36 55.4349 165.896 59.7018 166.368C64.2403 166.873 68.7886 167.27 73.3469 167.559ZM60.2789 134.258C60.3483 134.032 60.4195 133.804 60.4901 133.576C60.0621 133.735 59.634 133.895 59.197 134.03C58.3129 134.303 57.3997 134.494 56.5078 134.752C54.683 135.29 52.8734 135.9 51.0895 136.561C48.1146 137.661 45.1631 138.967 42.5467 140.773C40.4508 142.217 38.2238 144.273 37.3364 146.713C36.8142 148.148 37.2131 149.145 38.3146 150.14C39.3858 151.107 40.6049 151.904 41.8722 152.593C44.3541 153.941 47.0495 154.83 49.7617 155.596C49.7354 155.56 49.7057 155.523 49.6799 155.485C48.4474 153.687 48.7404 151.477 49.7309 149.651C50.7394 147.784 52.3568 146.183 54.027 144.889C55.208 143.973 56.6176 142.927 58.1168 142.427C58.7324 139.678 59.4531 136.955 60.2789 134.258Z" fill="black"/>
<path d="M79.6585 137.233C79.4036 136.844 78.8428 137.015 78.8086 137.461C78.7436 138.29 78.8568 139.128 79.0854 139.949C78.5134 139.521 77.9542 139.078 77.4007 138.628C78.5817 137.705 78.863 136.618 79.2294 135.257C79.2306 135.25 79.2292 135.243 79.2253 135.237C79.2214 135.23 79.2153 135.226 79.2083 135.224C79.2013 135.222 79.1938 135.223 79.1873 135.226C79.1809 135.23 79.1759 135.235 79.1734 135.242C78.719 136.447 77.5217 137.118 76.5429 137.916C76.381 137.78 76.2202 137.645 76.0611 137.506C76.6778 137.033 77.1558 136.405 77.4455 135.688C77.6018 135.243 77.5727 134.788 77.6932 134.341C77.6952 134.328 77.6925 134.315 77.6856 134.305C77.6786 134.294 77.6679 134.286 77.6555 134.283C77.6432 134.28 77.63 134.281 77.6186 134.287C77.6072 134.293 77.5985 134.303 77.594 134.315C77.1508 135.315 76.1289 136.129 75.3081 136.839C74.8121 136.391 74.3234 135.935 73.842 135.47C74.7322 135.124 75.2897 134.282 75.7614 133.495C75.865 133.328 75.6393 133.177 75.5003 133.294C74.7966 133.887 73.9876 134.322 73.3904 135.028C73.015 134.655 72.6441 134.279 72.2794 133.896C73.1327 133.25 73.638 132.203 73.9406 131.197C73.9452 131.179 73.9437 131.16 73.9364 131.142C73.929 131.125 73.9162 131.11 73.8998 131.101C73.8835 131.091 73.8644 131.088 73.8456 131.09C73.8268 131.092 73.8092 131.1 73.7955 131.113C73.1047 131.824 72.2547 132.405 71.5421 133.104C71.1421 132.668 70.7486 132.226 70.3616 131.778C71.0227 131.635 71.6052 131.25 71.9937 130.7C72.1477 130.475 72.1679 130.176 72.3298 129.97C72.3808 129.902 72.2738 129.83 72.2178 129.882C72.0743 130.011 71.7993 130.04 71.62 130.114C70.9846 130.391 70.351 130.69 69.7913 131.099C69.4299 130.665 69.073 130.229 68.7268 129.784C69.2353 129.372 69.6966 128.907 70.1022 128.395C70.2384 128.222 70.0742 127.992 69.8658 128.09C69.2767 128.367 68.7206 128.708 68.2074 129.107C61.5113 120.347 57.5009 109.647 56.6662 98.6885C56.5009 96.5305 56.4684 94.3629 56.2594 92.211C56.2286 91.8848 55.7389 91.7664 55.6476 92.1298C54.9411 94.933 54.8767 97.9695 55.093 100.912C54.9503 100.899 54.8065 100.918 54.6722 100.968C53.8161 101.282 53.1085 101.513 52.3387 100.83C50.4938 98.963 52.0082 96.261 52.6749 94.2135C52.7445 94.0911 52.783 93.9538 52.7869 93.8134C53.3864 91.6798 52.5505 88.9672 50.3605 88.0731C48.9094 87.4847 47.2001 87.7698 46.3266 89.1322C46.1457 89.4145 46.5306 89.6395 46.7591 89.4656C48.8517 87.8809 51.7342 89.7923 51.416 92.2537C49.6383 91.6637 48.0421 92.5832 47.0718 94.0362C46.7222 94.4746 47.144 95.0363 47.6696 94.8024C48.5828 94.4452 49.8826 93.6356 50.8176 94.2307C49.4842 96.6232 48.6248 99.7637 50.5644 102.089C51.6429 103.385 53.8004 104.046 55.3042 103.139C55.5159 104.943 55.814 106.737 56.1961 108.512C53.5859 109.475 50.8115 109.001 48.6248 107.263C43.7321 103.274 43.4351 95.702 43.6654 89.8767C43.8738 87.0791 44.8739 84.0031 47.3172 82.3418C49.0624 81.0988 51.4916 80.9299 53.3338 82.064C54.6705 83.2058 55.5933 84.6538 55.7199 86.5896C55.7955 87.7392 57.6192 87.7425 57.5312 86.5896C56.5227 76.7604 65.2067 72.6071 66.4113 63.8875C66.6942 61.4277 66.3183 58.9496 66.5233 56.4831C67.5262 47.6058 72.3573 38.6334 80.4569 34.3005C82.4906 33.2187 84.6728 32.6303 86.8349 31.8896C93.1355 35.409 99.1751 39.9024 106.602 40.6259C112.625 41.2715 118.997 39.5502 123.728 35.7691C128.418 40.7965 138.491 39.9919 140.608 47.5402C140.832 48.5503 140.82 49.596 141.001 50.6145C141.182 51.6513 141.628 52.625 142.294 53.4438C143.439 54.8785 145.011 55.9147 145.82 57.6049C146.598 59.2268 146.694 61.1332 146.44 62.8901C146.037 66.1545 143.737 68.9332 143.873 72.2804C143.943 73.6233 144.346 74.9135 144.64 76.2181C144.936 77.5307 145.154 78.8593 145.294 80.197C145.431 81.5378 145.394 82.8991 145.544 84.2326C145.61 84.8132 145.995 85.3005 146.629 85.3066C147.181 85.3128 147.757 84.8105 147.712 84.2326C147.674 83.2102 148.528 82.3434 149.337 81.8367C149.807 81.5589 150.371 81.4355 150.898 81.345C152.308 81.1366 153.719 81.5489 154.881 82.3396C159.908 86.0212 158.808 94.2468 157.85 99.6159C156.887 105.197 152.147 110.742 146.003 108.51C146.385 106.735 146.684 104.941 146.894 103.136C148.398 104.044 150.556 103.383 151.636 102.087C153.574 99.7598 152.716 96.6227 151.381 94.2285C152.318 93.6323 153.614 94.4429 154.531 94.8002C155.055 95.0347 155.476 94.4724 155.127 94.034C154.156 92.581 152.559 91.6614 150.783 92.2515C150.464 89.7884 153.348 87.8787 155.441 89.4633C155.668 89.6395 156.053 89.4144 155.872 89.13C155 87.7675 153.291 87.4825 151.838 88.0709C149.649 88.9649 148.813 91.6775 149.412 93.8112C149.415 93.9516 149.454 94.089 149.524 94.2112C150.191 96.2554 151.709 98.9625 149.86 100.828C149.09 101.511 148.382 101.28 147.527 100.966C147.393 100.916 147.249 100.897 147.106 100.91C147.324 97.9651 147.257 94.9308 146.551 92.1276C146.46 91.7659 145.972 91.8826 145.939 92.2087C145.73 94.3607 145.698 96.5282 145.532 98.6863C144.703 109.605 140.719 120.268 134.066 129.009C133.589 128.651 133.076 128.342 132.536 128.088C132.327 127.989 132.163 128.219 132.299 128.393C132.671 128.863 133.091 129.294 133.552 129.678C133.203 130.126 132.848 130.568 132.488 131.004C131.946 130.659 131.375 130.36 130.782 130.111C130.603 130.037 130.326 130.008 130.184 129.879C130.125 129.827 130.016 129.899 130.072 129.967C130.232 130.174 130.251 130.472 130.408 130.697C130.765 131.197 131.281 131.563 131.873 131.737C131.507 132.163 131.133 132.584 130.753 133C130.062 132.344 129.261 131.786 128.603 131.111C128.589 131.098 128.572 131.09 128.553 131.087C128.534 131.085 128.515 131.089 128.499 131.099C128.482 131.108 128.47 131.123 128.462 131.14C128.455 131.157 128.453 131.177 128.458 131.195C128.748 132.156 129.223 133.154 130.008 133.804C129.649 134.182 129.283 134.553 128.914 134.921C128.324 134.279 127.569 133.854 126.9 133.292C126.761 133.175 126.535 133.324 126.637 133.492C127.085 134.231 127.606 135.044 128.421 135.405C127.951 135.862 127.473 136.311 126.985 136.752C126.207 136.066 125.223 135.272 124.805 134.312C124.801 134.3 124.793 134.289 124.781 134.282C124.769 134.275 124.756 134.274 124.743 134.277C124.73 134.281 124.719 134.289 124.712 134.301C124.705 134.312 124.704 134.326 124.707 134.339C124.828 134.786 124.798 135.243 124.954 135.685C125.228 136.361 125.668 136.958 126.234 137.422C126.075 137.56 125.914 137.695 125.755 137.83C124.797 137.068 123.666 136.402 123.226 135.24C123.214 135.204 123.159 135.218 123.17 135.255C123.521 136.555 123.793 137.638 124.9 138.544C124.314 139.023 123.719 139.493 123.113 139.947C123.342 139.125 123.455 138.288 123.39 137.459C123.386 137.356 123.347 137.257 123.28 137.178C123.212 137.1 123.12 137.046 123.017 137.026C122.915 137.005 122.809 137.02 122.716 137.067C122.623 137.114 122.549 137.191 122.506 137.285C122.194 136.282 121.525 135.427 120.623 134.878C120.387 134.737 120.179 135.05 120.343 135.238C121.24 136.268 121.535 137.396 121.68 138.645C121.618 138.756 121.555 138.864 121.493 138.973C121.278 137.227 120.36 135.654 118.652 135.045C118.152 134.844 117.884 135.614 118.3 135.873C120.182 137.043 119.816 139.377 120.179 141.238C120.087 141.386 119.991 141.533 119.895 141.677C119.727 139.539 119.055 137.443 117.501 135.935C117.109 135.563 116.513 136.035 116.763 136.501C117.364 137.627 117.931 138.759 118.206 140.013C118.444 141.092 118.206 142.339 118.58 143.374C118.263 143.734 117.938 144.084 117.605 144.425C118.093 141.476 117.121 138.294 115.257 136.046C115.056 135.816 114.738 136.069 114.786 136.319C115.449 139.225 116.918 141.588 116.027 144.696C116.022 142.184 115.271 139.874 114.044 137.712C113.733 137.148 112.894 137.646 113.18 138.212C114.58 141.017 114.656 144.245 114.192 147.269C113.643 147.636 113.074 147.975 112.489 148.283C113.9 144.997 113.105 141.633 111.806 138.528C111.635 138.135 110.987 138.421 111.117 138.816C111.901 141.346 112.268 144.637 111.279 147.148C111.05 147.759 110.089 148.657 110.339 149.298C110.233 149.342 110.126 149.387 110.019 149.43C110.927 146.651 110.905 143.818 110.106 141.06C110.004 140.698 109.372 140.759 109.423 141.152C109.862 144.233 109.126 147.323 107.949 150.158C107.76 150.217 107.569 150.274 107.378 150.33C108.355 146.096 109.227 141.051 106.442 137.308C106.246 137.06 105.882 137.336 105.944 137.595C107.159 142.166 106.654 146.41 105.216 150.874C105.048 150.911 104.88 150.948 104.715 150.981C106.499 145.96 106.185 139.837 103.604 135.158C103.394 134.787 102.799 135.041 102.916 135.446C104.137 139.463 104.582 143.739 103.636 147.864C103.431 149.007 102.872 150.165 102.844 151.315C102.569 151.354 102.289 151.384 102.003 151.41C102.115 149.087 102.357 146.82 102.339 144.5C102.305 142.25 101.887 140.139 101.492 137.944C101.612 137.392 100.772 137.392 100.891 137.944C100.496 140.14 100.077 142.25 100.045 144.5C100.029 146.826 100.273 149.098 100.381 151.429C100.098 151.404 99.8205 151.377 99.5404 151.342C99.528 150.181 98.9549 149.017 98.751 147.864C97.8047 143.739 98.2501 139.463 99.4709 135.446C99.5886 135.041 98.9936 134.787 98.7818 135.158C96.2085 139.794 95.8746 146.052 97.6954 151.026C97.5233 150.992 97.3516 150.957 97.1806 150.92C95.7446 146.41 95.2197 142.216 96.4422 137.595C96.5038 137.336 96.1407 137.06 95.9458 137.308C93.1445 141.073 94.0409 146.14 95.0247 150.391C94.8346 150.338 94.6456 150.282 94.4577 150.225C94.2812 149.578 93.9569 148.962 93.7451 148.326C92.9742 146.03 92.6464 143.559 92.9607 141.151C93.0134 140.759 92.3814 140.698 92.2778 141.06C91.4744 143.849 91.4525 146.723 92.3982 149.52C92.2654 149.469 92.1355 149.417 92.006 149.363C92.3982 148.769 91.3197 147.739 91.1063 147.147C90.1191 144.637 90.49 141.347 91.2687 138.815C91.3998 138.42 90.7511 138.135 90.5813 138.528C89.2703 141.669 88.4406 145.14 89.9785 148.432C89.3756 148.117 88.779 147.783 88.2075 147.409C88.0915 146.033 87.8237 144.692 87.9352 143.28C88.0697 141.571 88.4249 139.757 89.207 138.211C89.4933 137.646 88.654 137.148 88.3431 137.711C87.1161 139.874 86.3637 142.184 86.3587 144.696C85.4673 141.584 86.9385 139.225 87.6013 136.318C87.6478 136.068 87.3307 135.818 87.1285 136.045C85.2645 138.261 84.1675 141.801 84.8583 144.703C84.4751 144.325 84.1036 143.933 83.7439 143.529C84.2123 142.469 83.9294 141.146 84.1798 140.012C84.4549 138.758 85.0202 137.627 85.6247 136.501C85.8735 136.034 85.2802 135.563 84.8846 135.935C83.2772 137.513 82.5618 139.733 82.4923 141.974C82.3803 141.807 82.2682 141.64 82.1562 141.473C82.6044 139.577 82.1237 137.095 84.0851 135.874C84.5025 135.615 84.2347 134.846 83.7344 135.046C81.9214 135.687 81.0172 137.422 80.8564 139.266C80.7964 139.159 80.7359 139.051 80.6743 138.943C80.8087 137.574 81.0743 136.349 82.0436 135.24C82.2088 135.051 82.0004 134.74 81.7634 134.88C80.7945 135.469 80.0979 136.413 79.8238 137.507C79.7762 137.417 79.719 137.327 79.6585 137.233ZM101.004 111.579C101.046 111.453 100.874 111.405 100.805 111.496C100.029 112.502 99.5611 114.065 99.7247 115.334C99.751 115.533 100.085 115.634 100.124 115.389C100.226 114.739 100.247 114.088 100.397 113.445C100.547 112.801 100.8 112.199 101.006 111.579H101.004ZM101.595 111.496C101.525 111.405 101.353 111.453 101.395 111.579C101.601 112.199 101.856 112.801 102.003 113.442C102.149 114.083 102.174 114.737 102.276 115.387C102.315 115.634 102.649 115.533 102.675 115.331C102.839 114.065 102.372 112.502 101.597 111.496H101.595ZM134.628 89.2583C134.945 89.3694 135.3 88.9438 135.086 88.6666C134.183 87.4942 132.341 87.1047 130.947 87.3914C130.654 87.4525 130.646 87.9326 130.947 87.9876C131.589 88.1059 132.231 88.2437 132.848 88.4565C133.465 88.6693 134.012 89.0388 134.63 89.2583H134.628ZM133.521 90.5396C133.655 90.693 133.886 90.4663 133.745 90.3173C133.135 89.6571 132.39 89.134 131.56 88.7832C131.425 88.7249 131.306 88.9183 131.442 88.981C132.24 89.3468 132.949 89.8783 133.522 90.5396H133.521ZM131.652 77.6633C131.709 77.6085 131.753 77.5416 131.781 77.4677C131.809 77.3938 131.82 77.3147 131.813 77.2361C131.453 70.4907 125.662 64.6893 118.958 63.8814C117.582 63.7219 115.988 63.9442 115.298 65.2933C114.691 66.4779 114.87 68.1931 115.261 69.4266C115.709 70.849 116.737 71.6814 118.214 71.9097C121.609 72.3543 125.093 73.0166 127.884 75.1191C129.162 76.0403 130.139 77.2772 131.15 78.4635C131.406 78.764 131.836 78.4346 131.766 78.1062C131.737 77.9562 131.697 77.8089 131.654 77.6633H131.652ZM130.681 114.494C130.938 113.632 130.756 112.49 130.646 111.608C130.544 110.788 130.357 109.982 130.011 109.228C129.17 107.398 127.357 106.187 125.801 104.993C122.392 102.381 118.851 100.001 114.882 98.3101C114.866 98.3025 114.847 98.3012 114.83 98.3066C114.812 98.312 114.798 98.3237 114.789 98.3393C114.779 98.3549 114.777 98.3734 114.78 98.391C114.784 98.4087 114.795 98.4242 114.81 98.4346C118.083 100.657 121.454 102.76 124.611 105.143C126.145 106.3 128.065 107.519 129.037 109.217C129.519 110.061 129.738 111.029 129.839 111.987C129.922 112.794 129.782 113.718 130.013 114.494C130.036 114.565 130.08 114.627 130.14 114.671C130.201 114.714 130.273 114.738 130.348 114.738C130.423 114.738 130.496 114.714 130.556 114.671C130.616 114.627 130.661 114.565 130.683 114.494H130.681ZM128.838 82.3979C128.858 80.9533 127.675 79.5703 126.713 78.5829C123.565 75.3013 116.868 72.961 113.681 77.3311C113.425 77.7695 113.927 78.2201 114.354 77.9978C115.066 77.6317 115.565 76.9588 116.287 76.5832C118.35 75.5592 120.818 76.1615 122.815 77.0688C124.075 77.6437 125.224 78.4336 126.209 79.4025C127.153 80.3387 127.678 81.5561 128.576 82.5029C128.597 82.5245 128.625 82.5393 128.654 82.5455C128.684 82.5517 128.715 82.549 128.743 82.5378C128.772 82.5265 128.796 82.5072 128.813 82.4823C128.83 82.4574 128.839 82.428 128.84 82.3979H128.838ZM128.102 87.1997C128.57 82.9769 123.294 79.8459 119.647 79.1686C116.093 78.384 112.462 79.8136 111.032 83.2652C110.575 84.2937 110.098 85.5722 110.351 86.6985C110.604 87.8248 112.389 88.0993 112.906 87.0319C113.281 86.254 113.298 85.365 113.649 84.5676C113.829 84.154 114.06 83.7646 114.338 83.4086C114.17 84.2376 114.341 85.205 114.905 85.8489C115.103 86.2107 115.428 86.5585 115.818 86.8491C118.503 89.7073 123.115 87.1308 123.045 83.5075C123.938 84.1002 124.739 84.819 125.422 85.6411C125.907 86.2496 126.256 87.0024 126.823 87.537C127.221 87.9153 127.972 87.7759 128.104 87.1997H128.102ZM127.388 109.732C128.436 107.713 124.436 105.998 123.227 105.267C123.041 105.156 122.815 105.434 122.99 105.572C123.792 106.205 124.626 106.814 125.399 107.484C126.189 108.119 126.549 108.664 126.754 109.651C126.843 109.916 127.246 110.009 127.39 109.732H127.388ZM124.486 115.788C126.522 116.323 127.088 113.313 126.579 111.95C126.086 110.628 123.704 108.832 122.67 110.629C122.325 111.227 123.006 111.698 123.545 112.11C121.959 112.787 120.47 113.681 118.894 114.383C116.987 115.224 115.013 115.906 112.992 116.422C109.993 117.214 106.914 117.715 103.808 117.786C102.907 117.811 99.295 117.811 98.3941 117.786C95.288 117.715 92.2094 117.214 89.2098 116.422C87.1887 115.906 85.2145 115.224 83.3075 114.383C81.7298 113.681 80.2412 112.787 78.6574 112.11C79.1935 111.698 79.877 111.227 79.5325 110.629C78.4982 108.832 76.1149 110.629 75.6224 111.95C75.1137 113.313 75.6785 116.323 77.7161 115.788C77.8867 115.742 78.0422 115.652 78.1674 115.529C78.2926 115.405 78.3833 115.251 78.4305 115.082C78.645 114.254 77.7873 113.518 78.0641 112.771C79.4473 114.02 81.192 114.867 82.8722 115.65C86.706 117.463 90.8278 118.685 95.0533 119.151C96.0744 119.274 97.0995 119.357 98.1285 119.4C99.1006 119.442 103.105 119.442 104.077 119.4C105.105 119.357 106.13 119.274 107.152 119.151C111.379 118.688 115.5 117.466 119.334 115.65C121.014 114.867 122.76 114.02 124.143 112.771C124.418 113.518 123.56 114.254 123.775 115.082C123.822 115.251 123.912 115.405 124.037 115.529C124.162 115.654 124.317 115.744 124.487 115.79L124.486 115.788ZM123.968 108.268C124.279 108.514 124.849 108.182 124.571 107.806C123.61 106.507 121.948 105.812 120.4 105.473C120.186 105.425 120.115 105.715 120.311 105.792C121.763 106.348 122.778 107.318 123.968 108.268ZM121.13 108.829C121.511 108.962 121.786 108.567 121.727 108.237C121.45 106.908 118.902 105.719 117.623 105.855C117.252 105.881 117.012 106.431 117.414 106.619C118.086 106.931 118.788 107.18 119.414 107.583C120.004 107.963 120.46 108.592 121.13 108.828V108.829ZM120.196 110.157C120.252 109.259 118.925 108.543 118.262 108.104C117.301 107.467 116.372 107.16 115.266 106.912C114.954 106.842 114.744 107.28 115.042 107.436C116.366 108.168 117.669 109.048 118.777 110.077C119.097 110.376 119.301 110.6 119.76 110.587C119.874 110.584 119.983 110.538 120.064 110.458C120.145 110.378 120.192 110.27 120.196 110.157ZM117.47 111.51C117.644 110.545 116.349 109.653 115.663 109.121C114.791 108.451 113.886 107.818 112.759 107.743C112.454 107.723 112.342 108.111 112.524 108.307C113.21 109.051 114.124 109.52 114.884 110.186C115.287 110.536 115.67 110.907 116.032 111.298C116.348 111.641 116.508 111.859 116.995 111.868C117.196 111.874 117.434 111.716 117.47 111.511V111.51ZM116.573 103.85C117.12 102.534 116.586 101.238 115.751 100.179C115.141 99.3775 114.357 98.7046 113.407 98.3351C113.062 98.2051 112.72 98.3074 112.387 98.194C112.231 98.1423 112.156 98.3607 112.28 98.4441C112.451 98.5552 112.611 98.9025 112.762 99.0753C113.254 99.552 113.764 100.024 114.214 100.545C114.833 101.238 115.601 102.286 115.195 103.257C114.646 104.572 113.422 104.8 112.147 104.696C112.858 104.307 112.539 103.104 111.811 102.825C109.432 101.918 107.506 104.523 105.634 105.495C104.645 106.008 103.569 106.282 102.469 106.434C101.564 106.564 100.646 106.564 99.7409 106.434C98.6406 106.282 97.5666 106.008 96.5761 105.495C94.7042 104.523 92.7775 101.918 90.3987 102.825C89.6664 103.102 89.3493 104.305 90.0625 104.696C88.7879 104.8 87.5638 104.572 87.0153 103.257C86.6085 102.286 87.3766 101.238 87.9963 100.545C88.4445 100.024 88.956 99.552 89.4473 99.0753C89.5992 98.9025 89.7583 98.5557 89.9297 98.4441C90.0536 98.3629 89.979 98.1423 89.8233 98.194C89.4871 98.3051 89.1476 98.2051 88.8031 98.3351C87.8506 98.7046 87.0691 99.3775 86.4589 100.179C85.6242 101.239 85.0908 102.534 85.6365 103.85C86.7816 106.614 90.2653 106.598 92.7394 105.841C95.0236 107.812 98.2518 108.96 101.208 108.981C104.33 109.003 107.191 107.814 109.475 105.841C111.943 106.601 115.429 106.615 116.572 103.851L116.573 103.85ZM114.904 112.375C115.016 112.166 115.037 111.903 114.904 111.696C113.971 110.238 112.139 108.558 110.415 108.134C109.963 108.023 109.597 108.589 109.949 108.926C110.863 109.797 111.966 110.433 112.841 111.359C113.206 111.748 114.315 113.475 114.903 112.376L114.904 112.375ZM111.783 113.696C112.258 112.802 111.13 111.584 110.56 110.934C109.956 110.246 108.849 109.021 107.845 109.092C107.597 109.108 107.35 109.342 107.446 109.61C107.747 110.45 108.828 111.054 109.407 111.731C109.77 112.151 110.1 112.597 110.393 113.067C110.628 113.447 110.807 113.817 111.283 113.897C111.472 113.93 111.683 113.88 111.781 113.697L111.783 113.696ZM111.707 123.141C111.9 122.971 111.69 122.705 111.473 122.746C109.424 123.135 107.486 123.93 105.431 124.311C104.003 124.564 102.579 124.786 101.12 124.76C99.6508 124.789 98.2148 124.567 96.7749 124.311C94.7194 123.93 92.7814 123.134 90.732 122.746C90.5158 122.705 90.3057 122.971 90.4984 123.141C92.9775 125.197 96.3559 125.89 99.4871 126.299C99.9723 126.478 102.232 126.478 102.72 126.299C105.849 125.89 109.226 125.198 111.705 123.141H111.707ZM108.258 113.941C108.973 116.138 110.932 114.658 108.437 111.746C107.703 110.797 106.862 110.16 105.699 109.842C105.479 109.782 105.328 110.055 105.481 110.215C106.545 111.329 107.688 112.484 108.258 113.941ZM108.074 100.344C108.593 99.0414 107.824 97.495 106.708 96.7716C106.66 96.7394 106.62 96.8127 106.663 96.8449C107.816 97.6989 108.054 98.943 107.822 100.275C107.818 100.306 107.826 100.338 107.843 100.364C107.861 100.39 107.887 100.408 107.917 100.417C107.947 100.425 107.98 100.422 108.008 100.409C108.037 100.396 108.059 100.373 108.072 100.344H108.074ZM106.341 114.957C106.647 115.269 107.3 115.053 107.256 114.582C107.181 113.755 106.703 113.058 106.229 112.392C105.777 111.759 105.272 110.995 104.564 110.632C104.102 110.395 103.691 110.862 103.889 111.299C104.192 111.966 104.782 112.522 105.178 113.137C105.564 113.743 105.828 114.435 106.339 114.955L106.341 114.957ZM104.519 115.552C104.774 115.986 105.391 115.681 105.3 115.226C104.964 113.533 103.747 111.744 102.412 110.666C102.387 110.642 102.354 110.628 102.319 110.626C102.285 110.624 102.25 110.635 102.223 110.656C102.195 110.677 102.176 110.707 102.169 110.74C102.162 110.774 102.168 110.809 102.184 110.839C102.555 111.639 102.989 112.395 103.387 113.179C103.784 113.964 104.072 114.794 104.517 115.55L104.519 115.552ZM102.705 84.851C103.348 84.771 103.346 83.9392 102.705 83.8592C101.642 83.7153 100.564 83.7153 99.5012 83.8592C98.8602 83.9392 98.8585 84.771 99.5012 84.851C100.564 84.994 101.641 84.9932 102.703 84.8488L102.705 84.851ZM101.104 82.958C101.294 82.9841 102.569 82.9024 102.127 82.5613C101.8 82.4421 101.452 82.3914 101.104 82.4123C100.914 82.3846 99.6373 82.4679 100.079 82.8096C100.407 82.9261 100.755 82.9759 101.102 82.9558L101.104 82.958ZM100.223 110.839C100.239 110.809 100.244 110.774 100.236 110.741C100.229 110.707 100.21 110.677 100.182 110.657C100.155 110.636 100.121 110.626 100.087 110.627C100.052 110.629 100.019 110.643 99.9942 110.666C98.6608 111.744 97.4411 113.533 97.1061 115.226C97.0164 115.681 97.6316 115.986 97.8904 115.552C98.3353 114.796 98.626 113.963 99.0216 113.179C99.4171 112.396 99.8502 111.637 100.221 110.837L100.223 110.839ZM98.5168 111.3C98.7162 110.862 98.305 110.395 97.8445 110.634C97.1363 110.996 96.631 111.76 96.18 112.393C95.7037 113.059 95.2275 113.756 95.1519 114.583C95.1087 115.054 95.7609 115.27 96.0668 114.959C96.5772 114.441 96.8427 113.746 97.231 113.139C97.6215 112.518 98.2131 111.963 98.5146 111.298L98.5168 111.3ZM96.9268 110.217C97.0797 110.057 96.9268 109.785 96.7072 109.845C95.5452 110.162 94.7042 110.799 93.9703 111.748C93.4044 112.479 92.3725 113.823 92.8576 114.77C92.9697 114.993 93.2778 115.048 93.4818 114.931C93.8947 114.7 93.9826 114.363 94.1479 113.943C94.3447 113.454 94.5962 112.988 94.8975 112.554C95.4718 111.72 96.2231 110.944 96.9245 110.212L96.9268 110.217ZM95.5401 96.8449C95.5833 96.8127 95.5435 96.7394 95.4953 96.7716C94.3793 97.4939 93.6101 99.0414 94.1305 100.344C94.1404 100.377 94.1625 100.404 94.1923 100.42C94.222 100.436 94.257 100.44 94.2897 100.431C94.3224 100.422 94.3503 100.401 94.3674 100.372C94.3844 100.343 94.3893 100.308 94.381 100.275C94.1501 98.943 94.3883 97.6989 95.5401 96.8449ZM94.9575 109.611C95.0533 109.343 94.8062 109.111 94.5586 109.093C93.554 109.022 92.4475 110.247 91.8436 110.935C91.2732 111.585 90.1449 112.803 90.6194 113.697C90.7186 113.881 90.9304 113.93 91.1186 113.898C91.5931 113.818 91.7741 113.448 92.0088 113.068C92.3021 112.598 92.6318 112.151 92.9949 111.732C93.5792 111.058 94.6572 110.451 94.9586 109.611H94.9575ZM92.4537 108.927C92.8061 108.59 92.4402 108.023 91.9887 108.135C90.2625 108.559 88.4327 110.239 87.4993 111.697C87.3666 111.904 87.3873 112.167 87.4993 112.376C88.0848 113.475 89.1964 111.748 89.5622 111.36C90.4418 110.435 91.5399 109.798 92.4548 108.927H92.4537ZM91.8481 86.6985C92.1019 85.5722 91.6239 84.2937 91.1668 83.2652C89.737 79.8136 86.1082 78.3823 82.5523 79.1686C78.9106 79.8442 73.6257 82.9802 74.0974 87.1997C74.2285 87.7759 74.9798 87.9153 75.3799 87.5331C75.944 86.9986 76.2931 86.2457 76.7805 85.6372C77.52 84.7478 78.3957 83.9791 79.3756 83.3591C79.3698 83.4834 79.3713 83.6079 79.3801 83.732C79.3123 84.2115 79.3308 84.6849 79.4479 85.0788C80.2322 89.5667 88.1828 88.5582 87.9184 83.4792C88.1701 83.8159 88.3823 84.1799 88.5509 84.5643C88.9 85.3611 88.9185 86.2518 89.2938 87.0286C89.811 88.0981 91.5971 87.8203 91.8492 86.6985H91.8481ZM89.8776 108.313C90.0586 108.117 89.9454 107.729 89.6412 107.749C88.5162 107.824 87.6091 108.457 86.7374 109.127C86.0511 109.656 84.7574 110.547 84.9306 111.516C84.9681 111.721 85.2045 111.879 85.4068 111.874C85.892 111.865 86.0544 111.648 86.3693 111.304C86.7318 110.914 87.1152 110.543 87.5178 110.193C88.2792 109.523 89.1924 109.054 89.8815 108.311L89.8776 108.313ZM87.8439 78.0023C88.2719 78.2245 88.7745 77.7711 88.5162 77.3355C86.5609 74.3773 82.2598 74.5318 79.3672 75.9192C77.0141 76.9427 73.4755 79.6714 73.3601 82.4023C73.3608 82.4319 73.3701 82.4605 73.387 82.4849C73.4038 82.5092 73.4274 82.5282 73.455 82.5394C73.4825 82.5506 73.5128 82.5536 73.542 82.548C73.5712 82.5424 73.5982 82.5285 73.6195 82.5079C74.5159 81.5633 75.0443 80.3409 75.9872 79.4075C78.361 77.0994 82.6649 75.0641 85.9088 76.5904C86.6321 76.9616 87.1324 77.6344 87.845 78.0006L87.8439 78.0023ZM87.3906 98.4329C87.4055 98.4225 87.4159 98.407 87.4198 98.3893C87.4237 98.3717 87.4208 98.3533 87.4117 98.3376C87.4025 98.322 87.3878 98.3104 87.3705 98.305C87.3531 98.2996 87.3343 98.3008 87.3178 98.3085C83.3495 99.9993 79.8104 102.38 76.3995 104.991C74.0072 106.727 71.8004 108.446 71.5544 111.606C71.4424 112.489 71.2625 113.631 71.5191 114.492C71.5407 114.564 71.585 114.627 71.6456 114.672C71.7062 114.717 71.7797 114.741 71.8553 114.741C71.9308 114.741 72.0044 114.717 72.065 114.672C72.1255 114.627 72.1699 114.564 72.1914 114.492C72.4234 113.715 72.2828 112.793 72.3674 111.985C72.4665 111.027 72.6861 110.06 73.168 109.215C74.1372 107.517 76.0566 106.298 77.5912 105.141C80.7494 102.76 84.1176 100.655 87.3906 98.4329ZM87.3615 107.434C87.6596 107.278 87.4495 106.84 87.1374 106.91C86.0309 107.16 85.102 107.465 84.1389 108.102C83.4761 108.545 82.15 109.26 82.206 110.157C82.2085 110.27 82.255 110.378 82.3359 110.459C82.4168 110.539 82.5258 110.585 82.6402 110.587C83.1008 110.6 83.3036 110.376 83.6246 110.077C84.7322 109.048 86.0371 108.169 87.3604 107.438L87.3615 107.434ZM86.9396 69.4233C87.3318 68.1898 87.5111 66.4745 86.9021 65.2899C86.2102 63.9408 84.6179 63.7186 83.2425 63.8781C76.5385 64.6859 70.7488 70.4873 70.388 77.2327C70.3809 77.3113 70.3917 77.3904 70.4194 77.4643C70.4471 77.5382 70.4911 77.6051 70.5482 77.66C70.5051 77.8056 70.4647 77.9528 70.4362 78.1045C70.3667 78.4329 70.7964 78.7624 71.0524 78.4618C72.0609 77.2755 73.0397 76.0387 74.3182 75.1174C75.6632 74.1499 77.1602 73.4094 78.7487 72.926C80.4687 72.397 82.2167 72.1809 83.9876 71.9081C85.4634 71.6814 86.4881 70.849 86.9396 69.4288V69.4233ZM84.9888 106.614C85.3894 106.427 85.1513 105.877 84.7804 105.851C83.5025 105.715 80.9522 106.902 80.676 108.233C80.6171 108.562 80.8922 108.958 81.2721 108.824C81.9444 108.588 82.3971 107.96 82.9893 107.578C83.6151 107.179 84.3165 106.93 84.9888 106.617V106.614ZM82.094 105.788C82.2906 105.712 82.2195 105.422 82.0043 105.469C80.4558 105.811 78.7963 106.506 77.8349 107.803C77.5548 108.179 78.1268 108.511 78.4377 108.264C79.6232 107.318 80.6401 106.348 82.094 105.788ZM79.4143 105.572C79.5891 105.434 79.3633 105.154 79.1762 105.267C77.9677 105.998 73.9658 107.712 75.0163 109.732C75.1597 110.01 75.5631 109.916 75.651 109.649C75.8566 108.662 76.2169 108.121 77.0052 107.482C77.775 106.814 78.6081 106.205 79.4115 105.572H79.4143ZM71.253 87.987C71.5544 87.9315 71.5466 87.4519 71.253 87.3908C69.8574 87.1041 68.017 87.4936 67.1144 88.666C66.9015 88.9438 67.2567 89.3694 67.5732 89.2578C68.1895 89.0355 68.7279 88.6704 69.352 88.456C69.9762 88.2415 70.6121 88.1059 71.253 87.987ZM70.7572 88.9788C70.8933 88.916 70.774 88.7227 70.6395 88.781C69.8091 89.1318 69.0641 89.6549 68.4545 90.3151C68.3156 90.4657 68.5458 90.6924 68.6786 90.5374C69.2511 89.8765 69.9599 89.3452 70.7572 88.9794V88.9788Z" fill="#DFBBA8"/>
<path d="M75.0172 86.979C75.0172 86.979 85.5114 90.7484 90.0562 86.8967C90.0562 86.8967 90.7173 80.9148 86.2554 80.8325C81.7935 80.7503 75.7635 83.619 75.0172 86.979Z" fill="white"/>
<path d="M127.44 86.9777C127.44 86.9777 116.945 90.7472 112.401 86.8955C112.401 86.8955 111.74 80.9135 116.201 80.8313C120.663 80.7491 126.696 83.6178 127.44 86.9777Z" fill="white"/>
<path d="M120.175 65.9843C124.913 66.9989 128.398 70.4432 129.897 74.8188C126.944 71.8807 122.91 70.7677 118.912 70.2627C117.47 70.1554 116.976 69.5498 116.818 68.1585C116.75 67.6373 116.634 66.9166 116.811 66.4093C117.221 65.2447 119.316 65.7976 120.175 65.9843Z" fill="#311807"/>
<path d="M82.0246 65.984C84.1855 65.5028 85.9749 65.2455 85.3816 68.1576C85.3133 68.6832 85.19 69.3039 84.8174 69.7073C84.4297 70.1257 83.8252 70.1851 83.2874 70.2629C79.2894 70.7702 75.2555 71.8831 72.3024 74.8191C73.8005 70.4402 77.2864 66.9958 82.0246 65.984Z" fill="#311807"/>
<path d="M154.552 61.2948C156.323 63.0223 157.45 65.4854 157.146 67.9741C157.095 69.122 156.417 70.1183 156.211 71.219C154.985 70.1155 153.264 69.731 151.461 70.0099C151.141 70.0588 151.084 70.5705 151.371 70.7056C152.282 71.1345 153.395 71.4134 154.189 72.0391C155.674 73.2481 155.895 75.3729 155.463 77.1231C155.271 77.9766 154.871 78.8184 154.631 79.6718C152.301 78.795 149.457 79.1568 147.62 80.9253C147.503 79.6252 147.319 78.3319 147.066 77.0509C146.618 74.7534 145.609 72.4947 146.286 70.1494C146.874 68.103 147.929 66.2516 148.343 64.1441C149.199 60.1163 148.317 56.2996 145.149 53.5148C144.498 52.8897 143.831 52.2674 143.377 51.4812C142.823 50.526 142.761 49.3903 142.611 48.3224C141.204 39.4406 130.401 39.5062 124.325 35.2594C127.055 32.8252 129.528 29.1697 128.84 25.3692C128.592 24.1168 126.397 24.0434 126.213 25.3692C126.069 26.4099 125.984 27.4611 125.658 28.4668C124.131 32.9052 119.849 35.8051 115.563 37.3208C117.204 34.4443 118.724 30.3793 116.468 27.4506C116.392 27.3583 116.27 27.4611 116.287 27.5545C116.923 30.7044 115.576 33.7159 113.878 36.3079C113.635 36.668 113.352 37.0236 113.01 37.2981C112.632 37.6014 112.216 37.747 112.012 38.2254C111.533 38.3047 111.051 38.3684 110.565 38.4166C111.765 36.2663 112.364 34.0826 112.853 31.7251C113.581 28.3946 113.133 24.6457 110.6 22.1682C110.567 22.1326 110.504 22.1787 110.532 22.2198C112.391 24.9035 111.96 28.613 111.154 31.565C110.559 33.6431 109.926 35.824 108.618 37.5853C108.343 37.927 107.971 38.1965 107.674 38.5077C107.209 38.4927 106.742 38.4605 106.277 38.4143C109.717 33.8581 107.906 21.3386 102.268 18.8744C102.258 18.8685 102.246 18.8667 102.235 18.8694C102.224 18.8721 102.215 18.8791 102.209 18.8888C102.203 18.8985 102.201 18.9102 102.204 18.9212C102.206 18.9323 102.213 18.9418 102.223 18.9477C105.189 21.1275 105.85 24.7535 106.175 28.1762C106.521 31.5434 106.623 35.4639 104.085 38.0821C103.416 37.9454 102.754 37.7818 102.097 37.5914C104.446 30.2237 97.9473 21.1213 91.4825 17.8537C90.5508 17.3858 89.5989 17.118 88.6392 16.7329C88.6156 16.724 88.5988 16.7624 88.6218 16.7729C89.5216 17.1619 90.3855 17.7909 91.1922 18.3471C91.9994 18.8941 92.7757 19.4845 93.5179 20.1156C97.3383 23.4433 100.194 28.1973 100.542 33.2936C100.588 34.5355 100.245 35.6801 99.8465 36.8402C97.1433 35.8212 94.5577 34.4449 92.0931 33.0191C89.9911 31.8056 87.9187 30.391 85.5449 29.7453C79.4913 28.3279 68.0508 31.4678 63.6013 35.8429C63.5133 35.924 63.6321 36.0846 63.7324 36.0096C67.7337 33.1158 72.6236 31.9768 77.4374 31.2472C80.0017 30.8583 82.7038 30.5104 85.2283 31.2661C75.4731 33.1386 68.7831 42.0176 66.1062 51.0467C62.9385 51.0206 59.4055 53.0253 57.4222 55.409C57.1673 55.7335 57.4782 56.2274 57.8878 56.0063C59.2324 55.2839 60.4649 54.3694 61.8656 53.7382C63.1066 53.1786 64.3184 52.9336 65.6193 52.7664C65.2651 54.1211 65.0374 55.5053 64.9392 56.9014C63.111 56.8325 61.2252 57.2814 59.7557 58.3977C59.2072 58.8189 58.8822 59.3706 58.4111 59.8535C58.1959 60.0713 58.4867 60.488 58.7539 60.2935C59.5422 59.7157 60.8235 59.4106 61.7642 59.1606C62.7844 58.8878 63.7985 58.7483 64.8551 58.7944C64.863 61.7099 64.9913 64.6369 63.7072 67.339C61.2807 72.4214 56.7168 76.5475 55.9056 82.3244C54.9212 80.9492 53.5351 79.7096 51.8488 79.4351C50.4705 79.0873 48.9819 79.144 47.6592 79.6357C47.5589 78.2411 47.4692 76.8787 47.6222 75.4762C48.0519 71.6629 49.7439 67.9813 52.4331 65.2165C53.0079 64.623 53.6494 63.9168 54.4439 63.6257C54.9117 63.4551 54.8086 62.8478 54.3318 62.7922C51.879 62.4505 48.6396 67.8318 47.7544 69.8071C47.388 62.9684 50.8974 56.3302 56.4009 52.293C56.4281 52.2744 56.4473 52.2462 56.4544 52.2141C56.4615 52.1821 56.4561 52.1485 56.4392 52.1203C56.4223 52.0921 56.3953 52.0712 56.3635 52.062C56.3317 52.0528 56.2976 52.0559 56.2681 52.0707C52.7166 53.7504 50.0772 56.6886 48.3057 60.1274C46.6927 52.7447 50.4739 45.3281 56.6081 41.1514C56.6722 41.1101 56.7178 41.0459 56.7355 40.9721C56.7531 40.8983 56.7415 40.8207 56.7029 40.7552C56.6644 40.6897 56.6019 40.6415 56.5284 40.6205C56.455 40.5995 56.3762 40.6074 56.3084 40.6424C53.1665 42.126 50.6549 44.5874 48.9382 47.5534C47.5936 36.5885 56.472 27.4811 66.3275 24.0818C68.6469 23.1839 71.0628 22.5754 73.464 21.9409C74.2814 21.7075 75.0821 21.4103 75.9292 21.2908C75.9695 21.2864 75.96 21.2158 75.9185 21.2202C74.3543 21.3903 72.7951 21.3064 71.228 21.5536C70.0661 21.7375 68.9052 21.9765 67.7617 22.2704C69.4632 18.4465 71.3222 14.7788 74.2232 11.6578C80.8701 4.49565 91.4841 1.01794 101.084 3.27993C109.193 5.1763 117.22 13.4725 120.044 21.1036C120.492 22.4249 120.62 23.8262 121.091 25.1252C121.436 26.082 123.122 26.3476 123.326 25.1252C124.026 17.902 115.914 8.79626 110.373 4.7268C124.357 1.16185 133.903 8.54512 132.671 23.0133C132.476 25.547 131.878 28.0668 130.783 30.3688C130.402 31.1533 129.942 31.8784 129.698 32.7213C129.401 33.7437 130.668 34.3476 131.404 33.707C132.64 32.6313 133.279 30.7721 133.791 29.2619C135.182 25.0391 135.348 20.4612 134.538 16.0934C140.507 18.5565 143.912 24.494 141.774 30.7566C141.443 31.79 140.982 32.7781 140.403 33.6976C139.761 34.7233 138.97 35.5445 138.559 36.698C138.347 37.2925 139.023 37.9809 139.629 37.7587C142.29 36.6641 143.472 33.4247 144.264 30.8738C145.732 32.4052 147.452 33.6953 148.837 35.3156C154.948 42.0387 157.95 51.5162 156.148 60.4563C155.485 59.889 154.768 59.3834 153.98 59C153.295 58.6705 152.541 58.5344 151.819 58.306C151.442 58.1849 151.184 58.77 151.545 58.9478C152.632 59.4834 153.693 60.4413 154.552 61.2948Z" fill="#522D1C"/>
<path d="M135.087 88.6663C135.301 88.9442 134.947 89.3698 134.63 89.2581C134.013 89.0358 133.474 88.6708 132.85 88.4563C132.226 88.2419 131.59 88.1057 130.949 87.9874C130.647 87.9318 130.655 87.4523 130.949 87.3912C132.344 87.1045 134.185 87.494 135.087 88.6663Z" fill="black"/>
<path d="M131.814 77.2366C131.821 77.3152 131.81 77.3943 131.783 77.4682C131.755 77.5422 131.711 77.609 131.653 77.6639C131.697 77.8094 131.737 77.9567 131.766 78.1084C131.835 78.4368 131.405 78.7662 131.149 78.4656C130.141 77.2794 129.162 76.0425 127.884 75.1213C125.093 73.0187 121.609 72.3548 118.214 71.9119C116.737 71.6836 115.712 70.8512 115.261 69.4288C114.869 68.1953 114.691 66.48 115.298 65.2954C115.99 63.9463 117.582 63.7241 118.957 63.8835C125.663 64.6898 131.452 70.4912 131.814 77.2366ZM129.898 74.819C128.398 70.4417 124.911 66.9973 120.175 65.9844C119.316 65.8005 117.219 65.2476 116.814 66.4089C116.637 66.9162 116.753 67.6369 116.821 68.158C116.979 69.5471 117.473 70.155 118.915 70.2622C122.911 70.7668 126.944 71.8797 129.898 74.819Z" fill="black"/>
<path d="M133.522 90.5394C132.95 89.8778 132.241 89.3458 131.444 88.9792C131.309 88.9164 131.428 88.723 131.562 88.7813C132.392 89.1321 133.137 89.6552 133.747 90.3155C133.888 90.4661 133.656 90.6928 133.522 90.5394Z" fill="black"/>
<path d="M126.715 78.583C127.678 79.5704 128.86 80.9556 128.841 82.398C128.84 82.4275 128.83 82.4561 128.813 82.4804C128.796 82.5047 128.773 82.5236 128.745 82.5348C128.718 82.546 128.687 82.549 128.658 82.5435C128.629 82.5379 128.602 82.524 128.581 82.5036C127.684 81.559 127.158 80.3366 126.213 79.4031C125.228 78.4342 124.08 77.6443 122.819 77.0694C120.823 76.1621 118.354 75.5598 116.291 76.5838C115.57 76.9594 115.071 77.6323 114.358 77.9985C113.93 78.2207 113.428 77.7673 113.686 77.3317C116.871 72.9611 123.567 75.3014 126.715 78.583Z" fill="black"/>
<path d="M119.649 79.1688C123.296 79.8461 128.572 82.9794 128.105 87.2C127.973 87.7762 127.222 87.9156 126.822 87.5334C126.257 86.9988 125.908 86.246 125.421 85.6375C124.737 84.8154 123.937 84.0966 123.044 83.5039C123.115 87.1272 118.506 89.7037 115.816 86.8455C115.424 86.5543 115.102 86.2065 114.904 85.8453C114.34 85.2014 114.169 84.234 114.337 83.405C114.059 83.7609 113.828 84.1504 113.648 84.564C113.299 85.3608 113.28 86.2515 112.905 87.0283C112.388 88.0979 110.602 87.8206 110.35 86.6949C110.098 85.5692 110.574 84.2901 111.031 83.2616C112.464 79.8139 116.095 78.3843 119.649 79.1688Z" fill="black"/>
<path d="M126.581 111.952C127.09 113.315 126.525 116.325 124.488 115.79C124.317 115.744 124.162 115.654 124.036 115.531C123.911 115.407 123.82 115.253 123.773 115.084C123.559 114.256 124.416 113.52 124.141 112.772C122.758 114.022 121.012 114.869 119.332 115.652C115.498 117.465 111.376 118.687 107.15 119.153C106.129 119.276 105.104 119.359 104.075 119.402C103.103 119.444 99.0989 119.444 98.1268 119.402C97.0993 119.359 96.0743 119.276 95.0516 119.153C90.8245 118.69 86.7038 117.468 82.8705 115.652C81.1897 114.869 79.4456 114.022 78.0624 112.772C77.7856 113.52 78.6433 114.256 78.4288 115.084C78.3816 115.253 78.2909 115.407 78.1657 115.531C78.0405 115.654 77.885 115.744 77.7144 115.79C75.6779 116.325 75.112 113.315 75.6208 111.952C76.1149 110.63 78.4966 108.834 79.5308 110.631C79.8753 111.229 79.1918 111.7 78.6557 112.112C80.2412 112.789 81.7298 113.683 83.3058 114.385C85.2132 115.226 87.1878 115.908 89.2092 116.424C92.2089 117.216 95.2875 117.717 98.3935 117.788C99.2944 117.813 102.906 117.813 103.807 117.788C106.913 117.717 109.992 117.216 112.992 116.424C115.013 115.908 116.987 115.226 118.894 114.385C120.472 113.683 121.96 112.789 123.544 112.112C123.008 111.7 122.324 111.229 122.669 110.631C123.705 108.834 126.088 110.63 126.581 111.952Z" fill="black"/>
<path d="M123.227 105.267C124.435 105.998 128.437 107.712 127.387 109.731C127.244 110.009 126.84 109.915 126.752 109.649C126.547 108.663 126.187 108.119 125.397 107.482C124.626 106.812 123.791 106.204 122.988 105.57C122.814 105.434 123.04 105.156 123.227 105.267Z" fill="black"/>
<path d="M121.728 108.236C121.787 108.566 121.511 108.961 121.131 108.828C120.459 108.592 120.004 107.963 119.414 107.582C118.789 107.179 118.085 106.93 117.414 106.618C117.013 106.43 117.252 105.88 117.623 105.854C118.904 105.718 121.451 106.907 121.728 108.236Z" fill="black"/>
<path d="M120.398 105.47C121.947 105.812 123.608 106.506 124.569 107.804C124.849 108.179 124.277 108.511 123.966 108.265C122.776 107.316 121.761 106.346 120.31 105.787C120.114 105.712 120.185 105.422 120.398 105.47Z" fill="black"/>
<path d="M118.261 108.105C118.924 108.543 120.25 109.26 120.195 110.157C120.191 110.271 120.144 110.379 120.063 110.459C119.982 110.539 119.873 110.585 119.759 110.588C119.299 110.6 119.096 110.376 118.776 110.078C117.667 109.046 116.366 108.168 115.04 107.437C114.742 107.28 114.952 106.843 115.264 106.913C116.371 107.163 117.3 107.468 118.261 108.105Z" fill="black"/>
<path d="M115.664 109.125C116.35 109.654 117.645 110.546 117.471 111.514C117.435 111.719 117.197 111.877 116.996 111.873C116.509 111.864 116.349 111.646 116.033 111.302C115.671 110.912 115.288 110.541 114.885 110.191C114.125 109.524 113.211 109.055 112.525 108.312C112.343 108.116 112.455 107.728 112.76 107.748C113.887 107.823 114.792 108.455 115.664 109.125Z" fill="black"/>
<path d="M115.749 100.18C116.584 101.24 117.118 102.535 116.571 103.851C115.426 106.615 111.942 106.599 109.468 105.842C107.184 107.813 104.324 109.004 101.202 108.982C98.2453 108.961 95.0171 107.815 92.7329 105.842C90.2588 106.599 86.7752 106.615 85.63 103.851C85.0843 102.535 85.6177 101.239 86.4524 100.18C87.0626 99.3786 87.8464 98.7057 88.7965 98.3362C89.1411 98.2062 89.4829 98.3084 89.8168 98.1951C89.9725 98.1434 90.047 98.3618 89.9232 98.4451C89.7518 98.5562 89.5927 98.9035 89.4408 99.0763C88.9495 99.553 88.4397 100.025 87.9898 100.547C87.3701 101.239 86.602 102.287 87.0088 103.258C87.5573 104.573 88.7814 104.801 90.056 104.697C89.3451 104.308 89.6638 103.105 90.3922 102.826C92.771 101.919 94.6977 104.524 96.5695 105.496C97.5601 106.009 98.6341 106.283 99.7345 106.435C100.639 106.565 101.558 106.565 102.462 106.435C103.563 106.283 104.638 106.009 105.627 105.496C107.499 104.524 109.426 101.919 111.805 102.826C112.537 103.104 112.854 104.306 112.141 104.697C113.416 104.801 114.64 104.573 115.188 103.258C115.595 102.287 114.827 101.239 114.207 100.547C113.759 100.025 113.247 99.553 112.756 99.0763C112.604 98.9035 112.445 98.5568 112.274 98.4451C112.15 98.364 112.224 98.1434 112.38 98.1951C112.716 98.3062 113.056 98.2062 113.4 98.3362C114.355 98.7057 115.139 99.3775 115.749 100.18Z" fill="black"/>
<path d="M124.611 105.142C121.454 102.759 118.083 100.655 114.812 98.4325C114.797 98.4221 114.787 98.4066 114.783 98.3889C114.779 98.3713 114.782 98.3529 114.791 98.3372C114.8 98.3216 114.815 98.31 114.832 98.3046C114.85 98.2992 114.868 98.3004 114.885 98.3081C118.853 99.9989 122.392 102.379 125.803 104.991C127.36 106.185 129.171 107.395 130.013 109.226C130.359 109.98 130.546 110.786 130.648 111.606C130.76 112.488 130.94 113.63 130.684 114.492C130.662 114.564 130.618 114.627 130.557 114.672C130.497 114.716 130.423 114.741 130.347 114.741C130.272 114.741 130.198 114.716 130.138 114.672C130.077 114.627 130.033 114.564 130.011 114.492C129.779 113.714 129.92 112.792 129.836 111.984C129.736 111.027 129.517 110.059 129.035 109.215C128.066 107.518 126.146 106.3 124.611 105.142Z" fill="black"/>
<path d="M114.901 111.697C115.034 111.903 115.013 112.167 114.901 112.376C114.314 113.474 113.204 111.747 112.838 111.359C111.961 110.434 110.86 109.797 109.946 108.927C109.594 108.59 109.96 108.023 110.412 108.134C112.136 108.559 113.968 110.239 114.901 111.697Z" fill="black"/>
<path d="M110.558 110.935C111.129 111.584 112.257 112.803 111.781 113.696C111.683 113.88 111.472 113.93 111.283 113.898C110.807 113.818 110.628 113.448 110.393 113.068C110.1 112.598 109.77 112.151 109.407 111.732C108.826 111.057 107.745 110.45 107.446 109.61C107.35 109.342 107.598 109.11 107.845 109.092C108.847 109.022 109.954 110.247 110.558 110.935Z" fill="black"/>
<path d="M111.471 122.746C111.687 122.705 111.898 122.971 111.705 123.141C109.226 125.197 105.846 125.889 102.718 126.298C102.231 126.478 99.9724 126.478 99.485 126.298C96.3537 125.889 92.9753 125.198 90.4962 123.141C90.3034 122.971 90.5135 122.705 90.7298 122.746C92.7792 123.135 94.7171 123.93 96.7727 124.311C98.2126 124.566 99.6486 124.789 101.118 124.76C102.575 124.786 104.001 124.564 105.429 124.311C107.484 123.93 109.422 123.134 111.471 122.746Z" fill="black"/>
<path d="M108.434 111.746C110.929 114.658 108.97 116.138 108.255 113.94C107.687 112.484 106.544 111.329 105.478 110.214C105.325 110.055 105.478 109.782 105.696 109.842C106.859 110.159 107.7 110.797 108.434 111.746Z" fill="black"/>
<path d="M107.252 114.58C107.296 115.051 106.643 115.267 106.338 114.956C105.826 114.438 105.562 113.743 105.174 113.136C104.778 112.519 104.188 111.964 103.885 111.298C103.688 110.86 104.098 110.393 104.56 110.632C105.268 110.994 105.773 111.758 106.225 112.391C106.7 113.056 107.177 113.753 107.252 114.58Z" fill="black"/>
<path d="M107.82 100.276C108.051 98.942 107.813 97.699 106.66 96.845C106.617 96.8128 106.66 96.7395 106.705 96.7717C107.821 97.494 108.59 99.0414 108.072 100.344C108.061 100.375 108.038 100.401 108.009 100.416C107.979 100.431 107.945 100.435 107.913 100.426C107.881 100.418 107.854 100.397 107.837 100.369C107.819 100.341 107.813 100.308 107.82 100.276V100.276Z" fill="black"/>
<path d="M102.7 83.857C103.341 83.937 103.343 84.7688 102.7 84.8488C101.637 84.9927 100.559 84.9927 99.4963 84.8488C98.8537 84.7688 98.8554 83.937 99.4963 83.857C100.559 83.713 101.637 83.713 102.7 83.857V83.857Z" fill="black"/>
<path d="M102.409 110.664C103.744 111.742 104.963 113.531 105.297 115.224C105.389 115.679 104.772 115.984 104.517 115.55C104.072 114.794 103.781 113.961 103.384 113.177C102.987 112.394 102.553 111.637 102.182 110.837C102.165 110.807 102.16 110.772 102.167 110.738C102.174 110.705 102.193 110.675 102.221 110.654C102.248 110.633 102.282 110.622 102.317 110.624C102.351 110.626 102.384 110.64 102.409 110.664Z" fill="black"/>
<path d="M102.122 82.5591C102.564 82.8991 101.289 82.9819 101.099 82.9558C100.751 82.9755 100.403 82.925 100.075 82.8075C99.6326 82.4669 100.909 82.3824 101.099 82.4102C101.447 82.3892 101.795 82.4399 102.122 82.5591Z" fill="black"/>
<path d="M101.597 111.496C102.373 112.502 102.839 114.065 102.677 115.334C102.651 115.533 102.317 115.634 102.279 115.389C102.177 114.739 102.154 114.088 102.005 113.445C101.857 112.801 101.603 112.202 101.398 111.581C101.356 111.453 101.528 111.405 101.597 111.496Z" fill="black"/>
<path d="M100.221 110.837C99.85 111.637 99.4152 112.393 99.0169 113.177C98.6185 113.962 98.3305 114.794 97.8857 115.55C97.6291 115.984 97.0139 115.679 97.1013 115.224C97.4375 113.531 98.656 111.742 99.9895 110.664C100.014 110.639 100.048 110.623 100.083 110.621C100.118 110.618 100.154 110.628 100.182 110.65C100.21 110.671 100.23 110.702 100.237 110.736C100.244 110.771 100.238 110.806 100.221 110.837V110.837Z" fill="black"/>
<path d="M100.397 113.442C100.247 114.086 100.226 114.737 100.124 115.387C100.085 115.634 99.7511 115.533 99.7248 115.331C99.5612 114.062 100.029 112.498 100.805 111.494C100.874 111.403 101.046 111.451 101.004 111.576C100.799 112.199 100.544 112.802 100.397 113.442Z" fill="black"/>
<path d="M97.8399 110.631C98.3016 110.393 98.7128 110.86 98.5122 111.297C98.2108 111.964 97.6192 112.52 97.2236 113.136C96.8354 113.742 96.5698 114.437 96.0594 114.955C95.7535 115.266 95.1014 115.05 95.1445 114.579C95.2207 113.752 95.6964 113.055 96.1726 112.389C96.6264 111.757 97.1317 110.993 97.8399 110.631Z" fill="black"/>
<path d="M96.7033 109.842C96.9246 109.782 97.0758 110.055 96.9229 110.214C96.2214 110.944 95.4701 111.719 94.8936 112.552C94.5923 112.986 94.3408 113.452 94.144 113.941C93.9759 114.361 93.8908 114.698 93.4779 114.929C93.2739 115.046 92.9664 114.988 92.8538 114.768C92.3686 113.824 93.4006 112.477 93.9664 111.746C94.6981 110.797 95.5413 110.159 96.7033 109.842Z" fill="black"/>
<path d="M94.5587 109.093C94.8064 109.11 95.0534 109.343 94.9576 109.611C94.6562 110.451 93.5761 111.056 92.9967 111.732C92.6336 112.152 92.3039 112.598 92.0107 113.069C91.776 113.449 91.595 113.818 91.1204 113.898C90.9322 113.93 90.7204 113.881 90.6213 113.697C90.1467 112.804 91.2751 111.586 91.8454 110.935C92.4477 110.247 93.5542 109.022 94.5587 109.093Z" fill="black"/>
<path d="M94.1308 100.344C93.6103 99.0414 94.3795 97.4951 95.4956 96.7717C95.5438 96.7395 95.5836 96.8128 95.5404 96.845C94.3874 97.699 94.1493 98.9431 94.3812 100.276C94.3896 100.308 94.3847 100.343 94.3676 100.372C94.3506 100.401 94.3227 100.422 94.29 100.431C94.2572 100.44 94.2222 100.436 94.1925 100.42C94.1627 100.404 94.1406 100.377 94.1308 100.344V100.344Z" fill="black"/>
<path d="M91.9888 108.135C92.4404 108.024 92.8062 108.59 92.4538 108.928C91.5389 109.798 90.4369 110.434 89.5623 111.36C89.1965 111.749 88.0849 113.475 87.4994 112.376C87.3874 112.167 87.3667 111.904 87.4994 111.697C88.4328 110.239 90.2626 108.56 91.9888 108.135Z" fill="black"/>
<path d="M91.1697 83.265C91.6269 84.2935 92.1048 85.572 91.851 86.6983C91.5972 87.8245 89.8128 88.099 89.2962 87.0316C88.9209 86.2537 88.9041 85.3647 88.5533 84.5674C88.3847 84.183 88.1725 83.819 87.9208 83.4822C88.1852 88.5613 80.2341 89.5698 79.4503 85.0819C79.3332 84.688 79.3147 84.2146 79.3825 83.735C79.3737 83.611 79.3722 83.4865 79.378 83.3622C78.3981 83.9822 77.5224 84.7509 76.7829 85.6403C76.2961 86.2487 75.947 87.0016 75.3823 87.5362C74.9823 87.9162 74.2309 87.7767 74.0998 87.2028C73.6281 82.9833 78.9108 79.8473 82.5547 79.1716C86.1089 78.3832 89.7377 79.8145 91.1697 83.265Z" fill="black"/>
<path d="M89.6421 107.747C89.9463 107.727 90.0595 108.115 89.8785 108.311C89.1922 109.054 88.279 109.523 87.5187 110.19C87.1161 110.54 86.7327 110.911 86.3702 111.301C86.0553 111.645 85.8928 111.862 85.4077 111.871C85.2054 111.876 84.969 111.718 84.9314 111.513C84.7583 110.547 86.052 109.655 86.7383 109.124C87.61 108.455 88.5171 107.823 89.6421 107.747Z" fill="black"/>
<path d="M128.423 135.408C127.609 135.046 127.088 134.233 126.64 133.495C126.538 133.328 126.763 133.177 126.902 133.294C127.572 133.856 128.326 134.281 128.916 134.923C129.286 134.555 129.651 134.184 130.01 133.806C129.226 133.156 128.751 132.158 128.46 131.197C128.456 131.179 128.457 131.159 128.465 131.142C128.472 131.125 128.485 131.11 128.501 131.101C128.517 131.091 128.536 131.087 128.555 131.09C128.574 131.092 128.592 131.1 128.605 131.113C129.264 131.789 130.062 132.347 130.755 133.002C131.134 132.587 131.507 132.166 131.876 131.739C131.284 131.565 130.768 131.199 130.411 130.7C130.255 130.475 130.236 130.176 130.074 129.969C130.023 129.901 130.13 129.83 130.186 129.881C130.328 130.01 130.605 130.04 130.784 130.113C131.378 130.362 131.948 130.661 132.49 131.006C132.852 130.57 133.207 130.128 133.555 129.681C133.093 129.297 132.673 128.866 132.301 128.395C132.165 128.222 132.329 127.992 132.538 128.09C133.078 128.344 133.591 128.653 134.068 129.011C140.721 120.27 144.705 109.607 145.535 98.6885C145.703 96.5304 145.733 94.3629 145.941 92.2109C145.974 91.8847 146.462 91.7664 146.553 92.1298C147.26 94.933 147.326 97.9695 147.108 100.912C147.251 100.899 147.395 100.918 147.53 100.968C148.385 101.282 149.092 101.513 149.862 100.83C151.711 98.9646 150.193 96.2576 149.526 94.2134C149.456 94.0912 149.418 93.9538 149.414 93.8134C148.814 91.6797 149.651 88.9671 151.84 88.0731C153.291 87.4847 155.001 87.7697 155.874 89.1321C156.055 89.4144 155.67 89.6394 155.443 89.4655C153.35 87.8809 150.467 89.7906 150.785 92.2537C152.561 91.6636 154.159 92.5832 155.129 94.0362C155.479 94.4746 155.057 95.0363 154.533 94.8024C153.616 94.4451 152.32 93.6356 151.383 94.2306C152.718 96.6249 153.576 99.762 151.638 102.089C150.558 103.385 148.4 104.046 146.897 103.139C146.687 104.943 146.387 106.737 146.005 108.512C152.15 110.744 156.889 105.199 157.853 99.6181C158.811 94.249 159.911 86.0234 154.883 82.3417C153.721 81.5511 152.31 81.1388 150.9 81.3471C150.374 81.4377 149.81 81.5616 149.339 81.8389C148.528 82.3434 147.674 83.2124 147.715 84.2348C147.76 84.8126 147.183 85.3149 146.631 85.3088C145.998 85.3027 145.613 84.8154 145.547 84.2348C145.396 82.9013 145.434 81.5399 145.296 80.1992C145.156 78.8614 144.938 77.5329 144.642 76.2203C144.349 74.9157 143.945 73.6255 143.876 72.2825C143.74 68.9337 146.04 66.155 146.442 62.8923C146.696 61.1354 146.6 59.229 145.823 57.6071C145.013 55.9169 143.442 54.8806 142.296 53.446C141.63 52.6271 141.185 51.6534 141.003 50.6167C140.822 49.5993 140.835 48.5525 140.611 47.5424C138.493 39.9952 128.42 40.7986 123.73 35.7713C118.999 39.5496 112.627 41.272 106.605 40.6281C99.1774 39.9057 93.1378 35.4112 86.8372 31.8918C84.6751 32.6325 82.493 33.2209 80.4592 34.3027C72.3596 38.6367 67.5285 47.6079 66.5256 56.4853C66.3228 58.9518 66.6987 61.4304 66.4136 63.8897C65.2068 72.6092 56.5245 76.7626 57.5335 86.5918C57.6215 87.7447 55.7967 87.7414 55.7222 86.5918C55.5956 84.6559 54.6728 83.208 53.3361 82.0661C51.4939 80.9315 49.0647 81.1004 47.3195 82.344C44.8762 84.0053 43.8761 87.0813 43.6677 89.8789C43.4374 95.7042 43.7344 103.276 48.6271 107.265C50.8121 109.003 53.5882 109.477 56.1984 108.514C55.8163 106.74 55.5183 104.945 55.3065 103.141C53.8028 104.048 51.6452 103.387 50.5667 102.091C48.6271 99.7659 49.4865 96.6254 50.8199 94.2328C49.8849 93.6367 48.5851 94.4473 47.6719 94.8046C47.1463 95.0391 46.7245 94.4768 47.0741 94.0384C48.0444 92.5854 49.6406 91.6658 51.4183 92.2559C51.7365 89.7945 48.854 87.8831 46.7614 89.4677C46.5329 89.6439 46.148 89.4188 46.3289 89.1344C47.2007 87.7719 48.91 87.4869 50.3628 88.0753C52.5528 88.9693 53.3882 91.6819 52.7892 93.8156C52.7853 93.956 52.7468 94.0933 52.6772 94.2156C52.0094 96.2631 50.495 98.9652 52.341 100.832C53.1108 101.516 53.8184 101.284 54.6745 100.97C54.8088 100.92 54.9526 100.901 55.0953 100.914C54.879 97.9695 54.9434 94.9352 55.6499 92.132C55.7412 91.7703 56.2309 91.887 56.2617 92.2131C56.4707 94.3651 56.5032 96.5326 56.6685 98.6907C57.5016 109.649 61.5119 120.349 68.2098 129.109C68.7229 128.71 69.2791 128.369 69.8681 128.092C70.0765 127.994 70.2407 128.224 70.1046 128.397C69.6989 128.909 69.2376 129.375 68.7291 129.786C69.077 130.231 69.4339 130.667 69.7936 131.101C70.3539 130.692 70.987 130.395 71.6223 130.116C71.8016 130.042 72.0767 130.013 72.2201 129.884C72.2761 129.832 72.3854 129.904 72.3321 129.972C72.1713 130.178 72.1512 130.477 71.996 130.702C71.6075 131.252 71.025 131.637 70.3639 131.78C70.7502 132.229 71.1436 132.671 71.5444 133.106C72.2571 132.407 73.107 131.828 73.7978 131.115C73.8115 131.102 73.8291 131.094 73.8479 131.092C73.8667 131.09 73.8858 131.094 73.9022 131.103C73.9185 131.113 73.9314 131.127 73.9387 131.144C73.9461 131.162 73.9475 131.181 73.9429 131.199C73.6403 132.205 73.135 133.252 72.2817 133.898C72.6464 134.281 73.0173 134.657 73.3927 135.03C73.991 134.325 74.7989 133.889 75.5026 133.296C75.6416 133.179 75.8674 133.328 75.7637 133.497C75.292 134.285 74.7345 135.126 73.8443 135.473C74.325 135.937 74.8137 136.393 75.3105 136.841C76.1312 136.132 77.1531 135.318 77.5963 134.317C77.6008 134.305 77.6096 134.295 77.6209 134.289C77.6323 134.283 77.6455 134.282 77.6578 134.285C77.6702 134.289 77.6809 134.296 77.6879 134.307C77.6948 134.318 77.6975 134.33 77.6955 134.343C77.575 134.79 77.6042 135.247 77.4478 135.69C77.1581 136.407 76.6801 137.035 76.0634 137.508C76.2226 137.647 76.3833 137.782 76.5453 137.918C77.524 137.12 78.7213 136.449 79.1757 135.244C79.1782 135.237 79.1832 135.232 79.1896 135.229C79.1961 135.225 79.2036 135.224 79.2106 135.226C79.2176 135.228 79.2237 135.233 79.2276 135.239C79.2315 135.245 79.2329 135.252 79.2317 135.259C78.8653 136.621 78.584 137.707 77.403 138.63C77.9566 139.08 78.5157 139.523 79.0877 139.951C78.8591 139.129 78.7459 138.292 78.8109 137.463C78.8451 137.019 79.4059 136.846 79.6609 137.235C79.7214 137.327 79.7785 137.419 79.8373 137.51C80.1107 136.416 80.8062 135.472 81.7741 134.882C82.0123 134.741 82.2223 135.054 82.0543 135.243C81.085 136.354 80.8217 137.576 80.685 138.945C80.7466 139.056 80.8071 139.161 80.8671 139.269C81.0279 137.425 81.9316 135.69 83.7451 135.049C84.2454 134.849 84.5132 135.618 84.0958 135.877C82.1349 137.099 82.6151 139.58 82.1669 141.476C82.2789 141.643 82.391 141.813 82.503 141.976C82.5725 139.736 83.2874 137.516 84.8953 135.938C85.2909 135.565 85.8842 136.037 85.6354 136.503C85.0326 137.63 84.4656 138.761 84.1905 140.015C83.9401 141.149 84.223 142.471 83.7546 143.532C84.1151 143.937 84.4865 144.328 84.869 144.706C84.1782 141.803 85.2752 138.264 87.1392 136.048C87.3414 135.818 87.6585 136.071 87.612 136.321C86.9492 139.228 85.478 141.587 86.3694 144.698C86.3744 142.186 87.1268 139.877 88.3538 137.714C88.6647 137.15 89.504 137.648 89.2177 138.214C88.4333 139.759 88.0804 141.574 87.9459 143.283C87.8339 144.694 88.1022 146.036 88.2182 147.412C88.7897 147.786 89.3863 148.12 89.9892 148.434C88.4513 145.142 89.281 141.672 90.592 138.53C90.7601 138.137 91.4106 138.423 91.2795 138.818C90.499 141.35 90.1298 144.639 91.117 147.15C91.3304 147.742 92.4089 148.772 92.0168 149.366C92.1479 149.422 92.2778 149.472 92.4089 149.522C91.4632 146.725 91.4851 143.852 92.2885 141.062C92.3921 140.701 93.0241 140.762 92.9714 141.154C92.6549 143.562 92.9826 146.032 93.7558 148.328C93.9676 148.964 94.292 149.581 94.4684 150.227C94.6552 150.284 94.8442 150.34 95.0354 150.394C94.0494 146.142 93.158 141.076 95.9565 137.311C96.1515 137.063 96.5167 137.339 96.4529 137.598C95.2304 142.219 95.7554 146.412 97.1913 150.923C97.3627 150.96 97.5344 150.995 97.7062 151.029C95.8853 146.055 96.2192 139.797 98.7925 135.161C99.0043 134.79 99.5993 135.044 99.4816 135.449C98.2608 139.466 97.8154 143.742 98.7617 147.867C98.9656 149.019 99.5388 150.184 99.5511 151.344C99.8312 151.38 100.111 151.407 100.391 151.431C100.279 149.101 100.037 146.829 100.055 144.503C100.088 142.252 100.504 140.142 100.902 137.946C100.783 137.394 101.622 137.394 101.503 137.946C101.895 140.143 102.316 142.253 102.35 144.503C102.366 146.823 102.122 149.09 102.014 151.413C102.297 151.387 102.574 151.358 102.854 151.318C102.882 150.167 103.442 149.01 103.647 147.867C104.593 143.742 104.148 139.466 102.927 135.449C102.81 135.044 103.405 134.79 103.615 135.161C106.196 139.84 106.509 145.963 104.726 150.984C104.894 150.95 105.062 150.914 105.226 150.877C106.664 146.414 107.169 142.17 105.955 137.597C105.895 137.338 106.256 137.062 106.453 137.311C109.237 141.053 108.366 146.099 107.389 150.332C107.58 150.277 107.771 150.221 107.959 150.161C109.136 147.327 109.873 144.235 109.434 141.154C109.383 140.762 110.015 140.701 110.117 141.063C110.916 143.823 110.938 146.657 110.03 149.432C110.137 149.39 110.244 149.345 110.35 149.301C110.1 148.66 111.061 147.762 111.29 147.15C112.279 144.64 111.91 141.349 111.128 138.819C110.998 138.424 111.645 138.138 111.817 138.531C113.118 141.636 113.911 145 112.5 148.286C113.083 147.978 113.649 147.64 114.196 147.273C114.66 144.249 114.588 141.021 113.184 138.216C112.898 137.651 113.737 137.153 114.048 137.716C115.275 139.879 116.026 142.189 116.031 144.701C116.922 141.592 115.453 139.229 114.79 136.323C114.742 136.073 115.06 135.823 115.261 136.05C117.125 138.299 118.097 141.481 117.609 144.429C117.943 144.089 118.268 143.739 118.584 143.378C118.21 142.344 118.448 141.096 118.21 140.017C117.935 138.763 117.369 137.632 116.767 136.505C116.517 136.039 117.111 135.568 117.505 135.94C119.06 137.448 119.734 139.543 119.899 141.681C119.995 141.537 120.091 141.39 120.183 141.243C119.82 139.381 120.186 137.048 118.304 135.877C117.888 135.618 118.156 134.849 118.656 135.049C120.364 135.66 121.282 137.232 121.497 138.977C121.559 138.866 121.622 138.76 121.684 138.65C121.539 137.401 121.245 136.273 120.347 135.243C120.179 135.054 120.39 134.742 120.627 134.882C121.529 135.432 122.198 136.287 122.51 137.289C122.553 137.195 122.627 137.118 122.72 137.071C122.813 137.024 122.919 137.01 123.021 137.03C123.124 137.05 123.216 137.104 123.284 137.183C123.351 137.261 123.39 137.36 123.394 137.463C123.459 138.292 123.346 139.13 123.117 139.951C123.723 139.497 124.318 139.027 124.904 138.549C123.797 137.643 123.525 136.559 123.174 135.259C123.162 135.223 123.217 135.209 123.23 135.244C123.67 136.406 124.799 137.073 125.759 137.835C125.918 137.7 126.079 137.565 126.238 137.427C125.672 136.963 125.232 136.366 124.958 135.69C124.802 135.245 124.832 134.79 124.711 134.343C124.708 134.33 124.709 134.316 124.716 134.305C124.723 134.293 124.734 134.285 124.747 134.282C124.76 134.278 124.773 134.28 124.785 134.286C124.797 134.293 124.805 134.304 124.809 134.317C125.227 135.276 126.209 136.07 126.989 136.757C127.475 136.314 127.953 135.864 128.423 135.408ZM106.177 28.1746C105.852 24.7519 105.191 21.1259 102.225 18.9461C102.215 18.9402 102.208 18.9307 102.205 18.9197C102.202 18.9086 102.204 18.8969 102.21 18.8872C102.216 18.8775 102.226 18.8705 102.237 18.8678C102.248 18.8651 102.26 18.8669 102.269 18.8728C107.907 21.337 109.721 33.856 106.279 38.4127C106.744 38.4589 107.21 38.4911 107.675 38.5061C107.972 38.1922 108.345 37.9255 108.62 37.5837C109.927 35.8224 110.561 33.6415 111.156 31.5634C111.961 28.6114 112.392 24.902 110.533 22.2182C110.505 22.1771 110.569 22.131 110.601 22.1666C113.137 24.6464 113.582 28.3952 112.854 31.7235C112.366 34.081 111.766 36.2647 110.567 38.415C111.052 38.3679 111.535 38.3042 112.013 38.2238C112.217 37.7454 112.633 37.5999 113.012 37.2965C113.354 37.022 113.637 36.6664 113.879 36.3063C115.579 33.7143 116.926 30.7028 116.288 27.5529C116.271 27.4595 116.394 27.3567 116.469 27.449C118.725 30.3777 117.206 34.4427 115.565 37.3193C119.85 35.8035 124.133 32.9036 125.66 28.4652C125.986 27.4595 126.071 26.4094 126.214 25.3676C126.399 24.0418 128.593 24.1152 128.842 25.3676C129.529 29.1653 127.057 32.8208 124.326 35.2579C130.403 39.5046 141.205 39.439 142.613 48.3208C142.765 49.3887 142.825 50.5245 143.378 51.4796C143.833 52.2658 144.499 52.8881 145.151 53.5132C148.316 56.2981 149.198 60.1147 148.344 64.1425C147.93 66.25 146.876 68.1014 146.287 70.1478C145.612 72.4959 146.619 74.7518 147.068 77.0493C147.32 78.3304 147.505 79.6236 147.621 80.9238C149.459 79.1552 152.302 78.7934 154.633 79.6702C154.873 78.8168 155.273 77.975 155.464 77.1215C155.897 75.3713 155.676 73.2466 154.191 72.0375C153.396 71.4135 152.286 71.1346 151.372 70.704C151.086 70.569 151.143 70.0572 151.463 70.0083C153.265 69.7305 154.987 70.1139 156.212 71.2174C156.419 70.1167 157.096 69.1204 157.147 67.9725C157.451 65.4838 156.325 63.0207 154.554 61.2932C153.695 60.4397 152.633 59.4818 151.54 58.9434C151.179 58.7656 151.437 58.1805 151.814 58.3017C152.536 58.53 153.29 58.6662 153.974 58.9957C154.763 59.379 155.48 59.8847 156.143 60.452C157.944 51.5118 154.943 42.0321 148.831 35.3112C147.446 33.691 145.726 32.4008 144.258 30.8695C143.467 33.4215 142.285 36.6597 139.623 37.7543C139.018 37.9766 138.342 37.2881 138.554 36.6936C138.965 35.5423 139.756 34.7211 140.398 33.6932C140.977 32.7737 141.438 31.7856 141.769 30.7522C143.907 24.4897 140.501 18.5522 134.533 16.089C135.343 20.4585 135.177 25.0347 133.786 29.2576C133.274 30.7661 132.635 32.6253 131.399 33.7026C130.663 34.3433 129.396 33.7393 129.692 32.7169C129.937 31.874 130.397 31.1489 130.778 30.3644C131.873 28.0624 132.471 25.5426 132.666 23.0089C133.898 8.54075 124.353 1.15749 110.367 4.72244C115.909 8.7919 124.021 17.9004 123.321 25.1209C123.117 26.3433 121.431 26.0777 121.086 25.1209C120.615 23.8201 120.485 22.4205 120.039 21.0992C117.213 13.4681 109.188 5.17194 101.079 3.27556C91.4789 1.01358 80.8648 4.49129 74.218 11.6534C71.3169 14.7739 69.4558 18.4416 67.7565 22.266C68.9 21.9721 70.0608 21.7332 71.2228 21.5493C72.7915 21.3009 74.3491 21.3826 75.9133 21.2159C75.9547 21.2114 75.9643 21.282 75.9239 21.2864C75.0785 21.4059 74.2779 21.7032 73.4588 21.9365C71.0575 22.5711 68.6406 23.1795 66.3223 24.0774C56.4668 27.4768 47.5912 36.5842 48.933 47.549C50.6496 44.5803 53.1613 42.1216 56.3032 40.6381C56.371 40.603 56.4497 40.5951 56.5232 40.6161C56.5967 40.6371 56.6591 40.6854 56.6977 40.7508C56.7362 40.8163 56.7479 40.894 56.7303 40.9677C56.7126 41.0415 56.667 41.1057 56.6029 41.147C50.4687 45.3237 46.6864 52.7403 48.3005 60.123C50.072 56.687 52.7114 53.7488 56.2628 52.0663C56.2924 52.0516 56.3265 52.0484 56.3583 52.0576C56.39 52.0669 56.4171 52.0877 56.434 52.1159C56.4508 52.1442 56.4563 52.1777 56.4491 52.2098C56.442 52.2418 56.4229 52.27 56.3956 52.2886C50.8922 56.3258 47.3828 62.964 47.7492 69.8027C48.6344 67.8275 51.8738 62.4461 54.3266 62.7879C54.8056 62.8434 54.9087 63.4496 54.4386 63.6213C53.6442 63.9125 53.0027 64.6215 52.4279 65.2121C49.7386 67.9769 48.0467 71.6574 47.617 75.4719C47.464 76.8743 47.5536 78.2367 47.6539 79.6313C48.9767 79.1396 50.4653 79.0829 51.8435 79.4308C53.5299 79.7052 54.916 80.9449 55.9004 82.3201C56.7116 76.5415 61.2755 72.417 63.7019 67.3346C64.986 64.6326 64.8577 61.7055 64.8499 58.7901C63.7933 58.744 62.777 58.8834 61.759 59.1562C60.8183 59.4063 59.537 59.7119 58.7487 60.2892C58.4815 60.4836 58.1884 60.0669 58.4058 59.8491C58.8798 59.3663 59.2047 58.8145 59.7504 58.3934C61.22 57.2771 63.1058 56.8281 64.9339 56.897C65.0322 55.5009 65.2598 54.1167 65.6141 52.762C64.3143 52.9287 63.1025 53.1743 61.8604 53.7338C60.4597 54.365 59.2272 55.2773 57.8825 56.0019C57.4713 56.2241 57.1621 55.7291 57.417 55.4046C59.3986 53.0209 62.9316 51.0151 66.101 51.0423C68.7779 42.0133 75.4679 33.1342 85.2231 31.2617C82.6991 30.5061 79.9964 30.8539 77.4322 31.2428C72.6184 31.9724 67.7285 33.1114 63.7271 36.0052C63.6269 36.0785 63.5081 35.9179 63.596 35.8385C68.0456 31.4657 79.4861 28.3235 85.5396 29.741C87.9134 30.3866 89.9858 31.8013 92.0879 33.0148C94.553 34.4405 97.1381 35.8168 99.8413 36.8359C100.24 35.6757 100.583 34.5311 100.537 33.2892C100.189 28.193 97.333 23.439 93.5126 20.1113C92.7705 19.4802 91.9941 18.8898 91.187 18.3427C90.3803 17.7871 89.5163 17.1581 88.6166 16.7686C88.5936 16.758 88.6104 16.7197 88.6339 16.7286C89.5936 17.1136 90.5455 17.3814 91.4772 17.8493C97.9488 21.1198 104.448 30.2221 102.098 37.591C102.755 37.781 103.418 37.9445 104.087 38.0816C106.625 35.4623 106.521 31.5418 106.177 28.1746ZM160.318 86.674C161.815 92.9471 160.984 103.804 156.045 108.443C153.306 111.051 149.057 112.572 145.418 110.972C141.893 124.355 133.555 136.587 121.844 144.211C121.494 144.441 121.031 144.155 120.844 144.407C116.234 150.551 107.641 153.03 103.938 153.996C102.499 154.374 100.129 154.413 98.4015 153.976C91.9708 152.344 85.2948 149.858 81.3568 144.408C81.0537 144.486 80.7074 144.442 80.3567 144.212C68.6473 136.587 60.3079 124.356 56.7828 110.972C53.145 112.573 48.8949 111.052 46.1564 108.443C43.4627 105.874 42.2435 102.17 41.7303 98.5868C40.8491 92.3887 40.3936 84.2942 46.2768 80.3187C45.6897 77.9155 46.0001 75.273 46.6556 72.8359C46.0281 72.0581 46.0393 71.0151 46.0001 70.0267C45.8931 67.3972 46.339 64.7744 47.3094 62.325C46.6931 61.5471 46.6415 60.2742 46.525 59.3301C46.1171 56.0992 46.5635 52.8186 47.8203 49.8105C46.9654 48.3497 46.7648 46.8756 46.8119 45.2032C46.9138 34.0838 56.2959 25.1648 66.72 22.5533C69.783 4.41239 93.9569 -6.35357 109.459 4.0979C119.863 -0.236041 132.174 3.40669 134.387 15.3712C141.549 15.5934 146.029 23.7412 144.416 30.2166C146.811 30.9389 148.935 32.9664 150.653 34.7072C155.948 40.0302 158.867 47.4546 158.936 54.9051C158.955 56.1965 158.888 57.4878 158.737 58.7706C158.614 59.8263 158.572 61.4327 157.819 62.2989C158.987 64.0075 159.586 66.1428 159.373 68.2075C159.254 69.2866 158.966 70.8668 158.105 71.7247C157.891 72.0723 157.617 72.3799 157.296 72.6337C158.626 75.2546 157.886 78.3662 156.775 80.9365C158.528 82.3856 159.74 84.5543 160.318 86.674V86.674Z" fill="black"/>
<path d="M88.5191 77.3311C88.7757 77.7695 88.2732 78.2201 87.8468 77.9978C87.1342 77.6317 86.635 76.9588 85.9134 76.5832C82.6695 75.0568 78.3656 77.0921 75.9918 79.4003C75.0489 80.3365 74.5222 81.5539 73.6241 82.5007C73.6028 82.5213 73.5758 82.5352 73.5466 82.5408C73.5174 82.5464 73.4871 82.5434 73.4596 82.5322C73.4321 82.5209 73.4084 82.502 73.3916 82.4777C73.3747 82.4533 73.3654 82.4246 73.3647 82.3951C73.4802 79.6642 77.021 76.9355 79.3718 75.912C82.2622 74.5273 86.5638 74.374 88.5191 77.3311Z" fill="black"/>
<path d="M87.1368 106.913C87.4489 106.843 87.659 107.28 87.3609 107.437C86.0365 108.168 84.7316 109.048 83.6251 110.078C83.3041 110.376 83.1013 110.6 82.6408 110.588C82.5262 110.586 82.417 110.539 82.336 110.459C82.2551 110.378 82.2087 110.27 82.2066 110.156C82.1505 109.258 83.4755 108.542 84.1383 108.104C85.1025 107.468 86.0314 107.163 87.1368 106.913Z" fill="black"/>
<path d="M87.3896 98.4334C84.1166 100.656 80.7455 102.758 77.5885 105.142C76.0539 106.299 74.1345 107.518 73.1652 109.216C72.6834 110.06 72.4638 111.027 72.3646 111.985C72.28 112.793 72.4207 113.717 72.1887 114.493C72.1672 114.565 72.1228 114.628 72.0622 114.673C72.0017 114.717 71.9281 114.742 71.8526 114.742C71.777 114.742 71.7035 114.717 71.6429 114.673C71.5823 114.628 71.538 114.565 71.5164 114.493C71.2598 113.631 71.4419 112.489 71.5517 111.607C71.7977 108.447 74.0045 106.728 76.3968 104.992C79.806 102.38 83.344 99.9998 87.3151 98.309C87.3317 98.2992 87.3516 98.2963 87.3704 98.3011C87.3891 98.3058 87.4052 98.3177 87.4151 98.3343C87.425 98.3508 87.4278 98.3705 87.423 98.3891C87.4183 98.4077 87.4062 98.4236 87.3896 98.4334Z" fill="black"/>
<path d="M86.9002 65.2927C87.5092 66.4773 87.3283 68.1925 86.9378 69.426C86.4862 70.8485 85.4615 71.6808 83.9841 71.9092C82.2131 72.182 80.4651 72.3981 78.7451 72.9271C77.1567 73.4105 75.6597 74.151 74.3146 75.1185C73.0361 76.0397 72.0596 77.2766 71.0489 78.4629C70.7923 78.7635 70.3626 78.434 70.4326 78.1056C70.4634 77.9556 70.5037 77.8083 70.5446 77.6611C70.4876 77.6062 70.4436 77.5393 70.4158 77.4654C70.3881 77.3915 70.3774 77.3124 70.3844 77.2338C70.7441 70.4884 76.5349 64.687 83.239 63.8791C84.6161 63.7213 86.2083 63.9436 86.9002 65.2927ZM85.3814 68.1542C85.9747 65.2421 84.1852 65.4994 82.0243 65.9805C77.2862 66.9951 73.8014 70.4395 72.3022 74.8151C75.2553 71.8769 79.2891 70.764 83.2871 70.2589C83.825 70.1822 84.4295 70.1228 84.8172 69.7033C85.1898 69.3005 85.313 68.6798 85.3814 68.1542Z" fill="black"/>
<path d="M84.7823 105.854C85.1532 105.88 85.3913 106.43 84.9908 106.617C84.3184 106.93 83.617 107.178 82.9912 107.581C82.399 107.963 81.9446 108.591 81.274 108.827C80.8941 108.961 80.619 108.565 80.6779 108.236C80.9513 106.905 83.5016 105.718 84.7823 105.854Z" fill="black"/>
<path d="M77.832 107.805C78.7934 106.506 80.4529 105.811 82.0015 105.472C82.2166 105.424 82.2878 105.714 82.0911 105.791C80.64 106.35 79.626 107.32 78.4348 108.269C78.1239 108.513 77.5558 108.181 77.832 107.805Z" fill="black"/>
<path d="M79.4101 105.572C78.6067 106.205 77.7736 106.813 77.001 107.484C76.2127 108.121 75.8524 108.662 75.6468 109.651C75.5589 109.917 75.1555 110.011 75.012 109.733C73.9638 107.715 77.9635 106 79.172 105.269C79.3591 105.156 79.5849 105.434 79.4101 105.572Z" fill="black"/>
<path d="M71.2525 87.3912C71.5461 87.4523 71.5539 87.9324 71.2525 87.9874C70.6116 88.1057 69.9684 88.2435 69.3516 88.4563C68.7347 88.6692 68.1896 89.0386 67.5727 89.2581C67.2562 89.3692 66.9004 88.9436 67.1139 88.6664C68.0165 87.494 69.8569 87.1045 71.2525 87.3912Z" fill="black"/>
<path d="M68.4526 90.3155C69.0622 89.6552 69.8072 89.1321 70.6376 88.7813C70.7721 88.723 70.8914 88.9164 70.7553 88.9792C69.9582 89.3458 69.2497 89.8778 68.6778 90.5394C68.5439 90.6928 68.3137 90.4661 68.4526 90.3155Z" fill="black"/>
<path d="M84.2181 86.1155C84.9112 86.1155 85.4731 85.5893 85.4731 84.9403C85.4731 84.2913 84.9112 83.7651 84.2181 83.7651C83.525 83.7651 82.9631 84.2913 82.9631 84.9403C82.9631 85.5893 83.525 86.1155 84.2181 86.1155Z" fill="white"/>
<path d="M119.621 86.1155C120.314 86.1155 120.876 85.5893 120.876 84.9403C120.876 84.2913 120.314 83.7651 119.621 83.7651C118.928 83.7651 118.366 84.2913 118.366 84.9403C118.366 85.5893 118.928 86.1155 119.621 86.1155Z" fill="white"/>
</g>
<defs>
<linearGradient id="paint0_linear_150_1542" x1="9.49999" y1="11.7209" x2="173.849" y2="204.96" gradientUnits="userSpaceOnUse">
<stop stop-color="#DD3DCD" stop-opacity="0.11"/>
<stop offset="1" stop-color="#DD3DCD" stop-opacity="0.55"/>
</linearGradient>
</defs>
</svg>
