<svg width="200" height="215" viewBox="0 0 200 215" fill="none" xmlns="http://www.w3.org/2000/svg">
<mask id="mask0_150_1613" style="mask-type:alpha" maskUnits="userSpaceOnUse" x="0" y="0" width="200" height="215">
<path fill-rule="evenodd" clip-rule="evenodd" d="M200 0H0V124.283V127.911H0.078538C2.17815 176.331 46.1112 215 100 215C153.889 215 197.822 176.331 199.921 127.911H200V124.283V0Z" fill="#C4C4C4"/>
</mask>
<g mask="url(#mask0_150_1613)">
<ellipse cx="100" cy="113.5" rx="100" ry="101.5" fill="url(#paint0_linear_150_1613)"/>
<path d="M194.394 224.069C194.406 224.432 194.394 224.796 194.394 225.198H176.879C177.025 224.471 177.191 223.825 177.272 223.162C177.35 222.459 177.391 221.753 177.395 221.046C177.4 220.771 177.354 220.498 177.261 220.24C176.994 219.489 176.37 219.391 175.966 220.052C175.758 220.418 175.602 220.81 175.5 221.218C175.254 222.128 175.046 223.054 174.808 223.964C174.702 224.372 174.562 224.767 174.432 225.176H36.5409C36.3024 224.298 36.0627 223.424 35.8279 222.549C35.6706 221.958 35.5452 221.36 35.3633 220.78C35.2715 220.467 35.126 220.171 34.9331 219.906C34.5889 219.45 34.0431 219.523 33.8084 220.066C33.6562 220.398 33.5838 220.76 33.5969 221.124C33.683 222.226 33.828 223.319 33.9657 224.414C33.9977 224.649 34.0751 224.881 34.1476 225.188H16.6021C16.6021 224.841 16.5899 224.513 16.6021 224.186C16.773 218.947 16.8947 213.706 17.1405 208.476C17.2499 206.236 17.5535 204.005 17.878 201.789C18.4004 198.3 19.9431 195.417 22.0647 192.922C23.7696 190.91 25.7166 189.233 27.7042 187.629C32.498 183.75 37.4787 180.251 42.5676 176.94C50.0005 172.102 57.281 166.976 64.4791 161.69C65.8226 160.703 67.192 159.765 68.5883 158.781C68.6006 159.065 68.6092 159.348 68.6129 159.623C68.6449 161.052 68.6449 162.394 68.7874 163.72C69.5397 170.827 71.5888 177.333 75.827 182.687C79.7789 187.673 84.6219 191.123 90.1926 193.18C93.9122 194.557 97.816 195.391 101.78 195.655C104.553 195.843 107.323 195.866 110.088 195.591C116.278 194.985 122.23 193.347 127.639 189.658C130.967 187.386 133.971 184.636 136.356 181.075C139.097 176.978 140.781 172.327 141.708 167.281C142.19 164.641 142.469 161.991 142.323 159.293V159.237C142.323 159.136 142.334 159.021 142.346 158.833C142.626 159 142.861 159.12 143.083 159.277C145.193 160.777 147.314 162.258 149.403 163.799C156.163 168.79 163.103 173.437 170.068 178.032C174.42 180.903 178.708 183.909 182.796 187.259C184.64 188.772 186.444 190.373 188.157 192.082C191.445 195.354 193.097 199.618 193.554 204.582C193.93 208.665 194.068 212.757 194.19 216.858C194.26 219.262 194.328 221.665 194.394 224.069Z" fill="#40152A"/>
<path d="M140.396 162.018C140.716 161.679 140.465 161.472 140.319 161.305C139.545 160.426 138.769 159.552 137.962 158.713C137.711 158.46 137.409 158.261 137.076 158.13C136.975 158.11 136.871 158.119 136.776 158.154C136.68 158.189 136.595 158.25 136.533 158.33C136.448 158.469 136.488 158.815 136.586 158.973C136.751 159.2 136.955 159.397 137.189 159.556C138.241 160.366 139.301 161.176 140.396 162.018ZM135.265 162.147C135.189 162.243 135.299 162.566 135.359 162.77C135.387 162.873 135.496 162.953 135.578 163.029C136.695 164.067 137.809 165.101 138.93 166.131C138.958 166.159 139.027 166.131 139.157 166.131C139.096 165.92 139.08 165.701 138.982 165.56C138.335 164.667 137.699 163.76 136.999 162.925C136.679 162.538 136.241 162.263 135.821 162.011C135.683 161.931 135.375 162.011 135.265 162.147ZM78.8922 180.963C79.7985 179.601 80.704 178.238 81.6087 176.875C81.6945 176.755 81.7741 176.631 81.8472 176.503C81.9493 176.322 82.0412 176.135 82.1225 175.944C82.2454 175.653 82.195 175.357 81.9566 175.23C81.798 175.145 81.5116 175.15 81.3862 175.262C81.1042 175.514 80.8732 175.816 80.7053 176.153C80.0378 177.578 79.4023 179.032 78.7705 180.487C78.714 180.608 78.7496 180.798 78.7459 180.954C78.7951 180.958 78.843 180.958 78.8922 180.963ZM71.3573 169.88C70.4002 166.532 69.8579 163.081 69.7421 159.604C69.7335 159.362 69.7249 159.136 69.7212 158.901C69.7089 158.278 69.8441 157.895 70.3358 157.568C71.2159 156.965 72.0533 156.303 72.8421 155.587C73.4666 155.02 74.0123 154.338 74.563 153.671C75.0448 153.088 75.5353 152.533 76.2605 152.216C76.0983 152.775 75.8635 153.27 75.8266 153.792C75.7426 154.8 75.7373 155.813 75.8106 156.822C76.1388 160.323 76.9882 163.645 78.4952 166.719C79.3677 168.477 80.4807 170.108 81.8029 171.567C86.2846 176.594 91.5922 179.915 97.6165 181.723C99.2894 182.226 100.973 182.705 102.673 183.032C104.884 183.454 107.162 183.394 109.347 182.858C112.767 182.035 116.128 180.989 119.322 179.32C123.271 177.245 126.777 174.438 129.647 171.052C132.228 168.038 133.826 164.393 134.654 160.284C134.9 159.086 135.051 157.86 135.21 156.648C135.399 155.17 135.371 153.708 134.718 152.344C134.775 152.292 134.841 152.244 134.893 152.192C135.322 152.591 135.828 152.919 136.172 153.404C137.423 155.136 139 156.402 140.633 157.559C141.103 157.891 141.265 158.255 141.248 158.885C141.248 158.997 141.248 159.108 141.24 159.221C141.038 166.766 139.098 173.645 135.227 179.769C133.656 182.257 131.685 184.281 129.515 186.049C126.005 188.9 122.114 190.756 117.961 191.93C115.523 192.616 113.061 193.152 110.567 193.351C107.911 193.563 105.251 193.686 102.577 193.499C100.101 193.342 97.6391 193.003 95.2134 192.485C90.0803 191.344 85.2901 189.259 81.015 185.698C76.2433 181.686 73.2035 176.276 71.3573 169.88ZM70.6603 161.32C70.5374 161.456 70.5153 161.708 70.4145 161.999C70.6296 161.963 70.7181 161.98 70.7746 161.935C71.8317 161.113 72.886 160.287 73.9373 159.456C74.107 159.317 74.3135 159.176 74.4106 158.971C74.5003 158.791 74.5446 158.463 74.4597 158.32C74.3942 158.243 74.3089 158.185 74.2127 158.151C74.1165 158.117 74.013 158.11 73.9128 158.129C73.6471 158.207 73.4079 158.354 73.2207 158.556C72.3537 159.461 71.5003 160.383 70.6603 161.32ZM75.6926 162.686C75.7738 162.565 75.8229 162.283 75.7615 162.201C75.6607 162.066 75.4296 161.934 75.3042 161.982C74.9956 162.095 74.7112 162.264 74.4659 162.48C73.442 163.383 72.6971 164.584 71.9153 165.747C71.8588 165.83 71.8588 165.961 71.7985 166.222C72.0051 166.142 72.0899 166.137 72.1464 166.086C73.1224 165.192 74.0943 164.291 75.062 163.383C75.296 163.173 75.5073 162.939 75.6926 162.686V162.686ZM136.917 172.515L137.163 172.371C137.11 172.128 137.107 171.845 137.002 171.644C136.577 170.829 136.159 170.002 135.666 169.247C135.333 168.741 134.892 168.325 134.471 167.914C134.225 167.672 133.884 167.47 133.621 167.834C133.39 168.153 133.608 168.497 133.803 168.736C134.833 170.004 135.877 171.253 136.917 172.515V172.515ZM133.662 174.79C134.088 175.344 134.497 175.915 135.015 176.608C134.892 174.669 132.736 171.573 131.262 171.242C131.35 172.2 131.933 172.628 132.358 173.166C132.784 173.704 133.237 174.244 133.662 174.79ZM132.258 181.093C132.27 180.821 132.307 180.717 132.273 180.649C131.557 179.045 130.84 177.44 130.104 175.847C129.997 175.612 129.827 175.41 129.612 175.264C129.459 175.168 129.171 175.136 129.046 175.24C128.92 175.344 128.839 175.675 128.876 175.866C128.954 176.152 129.081 176.422 129.252 176.665C130.143 178.042 131.046 179.408 131.949 180.777C132.042 180.891 132.146 180.997 132.258 181.093V181.093ZM127.772 183.484C127.772 183.168 127.82 182.954 127.764 182.785C127.403 181.694 127.051 180.603 126.63 179.556C126.431 179.064 126.104 178.641 125.808 178.211C125.646 177.968 125.432 177.715 125.136 177.927C124.839 178.139 124.982 178.462 125.091 178.737C125.155 178.903 125.229 179.065 125.314 179.222C126.03 180.544 126.751 181.865 127.476 183.183C127.564 183.291 127.663 183.39 127.772 183.478V183.484ZM122.751 187.568C122.844 187.352 122.966 187.204 122.945 187.101C122.646 185.526 122.562 183.871 121.897 182.402C121.769 182.11 121.593 181.842 121.374 181.608C121.265 181.487 120.994 181.412 120.883 181.487C120.795 181.554 120.722 181.638 120.669 181.734C120.615 181.83 120.583 181.936 120.574 182.046C120.612 182.467 120.709 182.88 120.863 183.275C121.355 184.536 121.871 185.779 122.39 187.02C122.461 187.191 122.594 187.33 122.751 187.562V187.568ZM117.974 189.884C118.01 189.472 118.059 189.289 118.035 189.113C117.856 187.808 117.694 186.498 117.452 185.204C117.362 184.745 117.103 184.31 116.864 183.911C116.698 183.64 116.432 183.448 116.14 183.732C116.072 184.686 116.788 187.549 117.556 189.392C117.613 189.522 117.747 189.619 117.974 189.878V189.884ZM112.229 191.529C112.286 191.217 112.402 190.906 112.386 190.598C112.314 189.281 112.22 187.965 112.104 186.65C112.057 186.29 111.956 185.939 111.804 185.608C111.681 185.296 111.391 185.152 111.131 185.3C110.923 185.445 110.777 185.661 110.722 185.906C110.67 186.149 110.752 186.449 110.812 186.712C111.128 188.141 111.453 189.566 111.788 190.988C111.843 191.179 111.911 191.365 111.989 191.547C112.071 191.53 112.148 191.527 112.229 191.523V191.529ZM107.771 191.31C108.006 190.008 108.2 188.702 108.042 187.369C107.945 186.558 107.674 186.157 107.322 186.255C106.985 186.342 106.83 186.786 106.921 187.516C107.022 188.339 107.156 189.157 107.266 189.98C107.338 190.487 107.389 190.993 107.483 191.708C107.682 191.434 107.759 191.375 107.771 191.304V191.31ZM104.091 187.453C104.133 187.21 104.119 186.962 104.05 186.726C103.974 186.53 103.775 186.29 103.617 186.275C103.46 186.259 103.27 186.487 103.12 186.638C103.053 186.739 103.015 186.857 103.01 186.978C102.832 188.443 102.915 189.928 103.256 191.365C103.268 191.413 103.333 191.44 103.431 191.533C103.503 191.425 103.584 191.361 103.596 191.29C103.767 190.002 103.937 188.729 104.091 187.447V187.453ZM100.228 186.566C100.294 186.328 100.305 186.08 100.26 185.838C100.208 185.631 100.042 185.353 99.8917 185.316C99.7776 185.301 99.6616 185.311 99.5521 185.346C99.4427 185.382 99.3428 185.441 99.2599 185.519C99.1051 185.703 99.0146 185.932 99.0018 186.17C98.8641 187.755 98.7453 189.342 98.6453 190.933C98.633 191.129 98.7621 191.336 98.8235 191.539L99.0337 191.499C99.0873 191.399 99.1321 191.295 99.1677 191.187C99.5242 189.647 99.8843 188.105 100.228 186.559V186.566ZM94.8041 184.951C94.9209 184.54 95.0389 184.069 94.8041 183.649C94.3751 183.494 94.1526 183.793 93.999 184.105C93.7553 184.551 93.5742 185.028 93.4606 185.522C93.2492 186.627 93.1041 187.75 92.9689 188.872C92.932 189.147 92.8349 189.487 93.1791 189.734C93.2762 189.613 93.4102 189.511 93.4581 189.37C93.9129 187.898 94.3739 186.432 94.8041 184.951ZM90.4269 182.284C90.5044 181.966 90.4515 181.67 90.1811 181.491C89.8861 181.287 89.6353 181.478 89.4977 181.726C89.2223 182.211 88.9261 182.707 88.7933 183.25C88.5094 184.397 88.3189 185.57 88.1087 186.736C88.0718 186.952 88.1247 187.187 88.1369 187.415C88.2021 187.435 88.2599 187.45 88.3312 187.471C88.4452 187.314 88.5455 187.149 88.6311 186.975C89.1228 185.794 89.6099 184.606 90.0926 183.41C90.2258 183.043 90.3358 182.669 90.422 182.288L90.4269 182.284ZM85.9047 178.727C86.0277 178.452 86.1641 178.144 85.8605 177.917C85.6048 177.729 85.4032 177.925 85.2373 178.133C84.0622 179.597 83.6295 181.454 83.1231 183.271C83.1919 183.318 83.2571 183.362 83.3222 183.41C83.4272 183.291 83.5233 183.164 83.6098 183.031C84.1888 182.001 84.7591 180.971 85.3221 179.929C85.5274 179.545 85.7142 179.138 85.8998 178.731L85.9047 178.727ZM79.6457 171.805C79.7022 171.665 79.6297 171.441 79.6137 171.246C78.1682 171.705 75.9655 174.962 76.0417 176.476C76.1337 176.403 76.2192 176.321 76.2974 176.234C77.2611 175.009 78.2219 173.778 79.1798 172.542C79.3642 172.317 79.5191 172.071 79.6408 171.808L79.6457 171.805ZM77.411 168.312C77.5487 167.864 77.3176 167.549 76.9292 167.685C76.6734 167.791 76.4419 167.947 76.2482 168.143C75.2206 169.113 74.5482 170.399 73.9533 171.744C73.8722 171.932 73.9005 172.184 73.8562 172.593C74.0296 172.457 74.1957 172.313 74.354 172.161C74.7584 171.718 75.1641 171.275 75.5488 170.807C76.0946 170.145 76.6293 169.462 77.164 168.776C77.2712 168.637 77.3532 168.481 77.4061 168.315L77.411 168.312Z" fill="#731530"/>
<path d="M132.89 153.343C133.522 153.828 133.562 154.541 133.505 155.3C133.189 159.835 132.096 164.002 129.678 167.728C126.383 172.819 121.926 175.912 116.961 178.196C114.941 179.122 112.836 179.832 110.747 180.539C109.864 180.838 108.917 180.923 107.994 181.007C107.172 181.082 106.342 181.022 105.516 181.022C103.73 181.031 101.937 181.174 100.2 180.537C98.356 179.866 96.4913 179.211 94.6573 178.477C91.754 177.299 89.062 175.614 86.5189 173.618C83.7544 171.451 81.6365 168.56 79.9083 165.31C78.6975 163.03 78.0903 160.462 77.7375 157.821C77.5925 156.759 77.5556 155.677 77.5113 154.603C77.5027 154.327 77.5875 153.964 77.7461 153.776C78.8954 152.451 79.5518 150.817 79.9882 149.049C80.5843 146.65 81.1141 144.231 81.7299 141.843C82.4646 139.032 83.4133 136.28 84.5681 133.611C85.4602 131.545 86.5689 129.577 87.8759 127.738C90.204 124.448 93.2438 122.526 96.7752 121.634C98.6421 121.165 100.534 120.801 102.443 120.543C103.597 120.383 104.778 120.531 105.957 120.479C109.153 120.336 112.273 121.018 115.334 121.972C118.394 122.926 120.988 124.792 123.038 127.625C125.088 130.459 126.577 133.694 127.791 137.099C129.021 140.557 129.89 144.142 130.682 147.759C131.071 149.528 131.553 151.252 132.497 152.753C132.627 152.964 132.724 153.215 132.89 153.343Z" fill="#F3D7C7"/>
<path d="M142.323 159.293C142.472 161.991 142.193 164.642 141.708 167.281C140.785 172.327 139.097 176.978 136.356 181.075C133.972 184.636 130.968 187.386 127.639 189.658C122.23 193.347 116.279 194.984 110.089 195.591C107.323 195.866 104.557 195.843 101.78 195.655C97.8162 195.391 93.9124 194.557 90.1928 193.18C84.6221 191.119 79.7791 187.673 75.8273 182.687C71.589 177.333 69.54 170.827 68.7877 163.72C68.6451 162.394 68.6451 161.054 68.6132 159.623L69.7391 159.604C69.8549 163.081 70.3972 166.532 71.3543 169.88C73.198 176.276 76.2403 181.686 81.0268 185.682C85.3019 189.247 90.092 191.332 95.2251 192.47C97.6509 192.988 100.112 193.326 102.589 193.483C105.261 193.671 107.921 193.547 110.579 193.335C113.073 193.136 115.535 192.601 117.973 191.915C122.122 190.74 126.013 188.884 129.527 186.034C131.696 184.265 133.668 182.241 135.239 179.754C139.11 173.629 141.049 166.751 141.252 159.205L142.325 159.233L142.323 159.293Z" fill="black"/>
<path d="M70.3333 157.564C69.8514 157.895 69.7101 158.278 69.7187 158.897C69.7187 159.133 69.731 159.364 69.7396 159.6L68.6136 159.62C68.6136 159.345 68.6013 159.061 68.589 158.777C67.1927 159.768 65.8234 160.706 64.4798 161.686C57.2817 166.972 50.0012 172.098 42.5683 176.937C37.4794 180.247 32.4951 183.752 27.7049 187.625C25.7173 189.23 23.7715 190.906 22.0654 192.918C19.9475 195.423 18.4049 198.305 17.8824 201.795C17.5543 204.011 17.2506 206.242 17.1449 208.482C16.8991 213.712 16.7762 218.954 16.6065 224.192C16.5943 224.519 16.6065 224.847 16.6065 225.195H34.1422C34.0697 224.887 33.9922 224.655 33.9603 224.42C33.8263 223.329 33.6812 222.238 33.5915 221.13C33.5784 220.766 33.6507 220.404 33.8029 220.072C34.0377 219.529 34.5835 219.457 34.9276 219.912C35.1206 220.177 35.2661 220.473 35.3579 220.786C35.5398 221.366 35.6652 221.964 35.8225 222.555C36.0573 223.43 36.297 224.304 36.5354 225.182H174.435C174.558 224.767 174.705 224.372 174.811 223.97C175.049 223.06 175.252 222.134 175.503 221.224C175.605 220.816 175.762 220.424 175.969 220.058C176.373 219.395 176.998 219.495 177.264 220.246C177.357 220.504 177.403 220.777 177.398 221.052C177.394 221.759 177.353 222.465 177.275 223.168C177.194 223.831 177.029 224.477 176.882 225.204H194.394C194.394 224.797 194.407 224.433 194.394 224.075C194.33 221.671 194.261 219.268 194.188 216.864C194.065 212.763 193.928 208.671 193.552 204.588C193.095 199.618 191.443 195.365 188.155 192.088C186.443 190.379 184.641 188.778 182.794 187.265C178.706 183.915 174.419 180.909 170.066 178.039C163.102 173.444 156.163 168.796 149.401 163.805C147.311 162.265 145.191 160.783 143.082 159.283C142.863 159.126 142.628 159.006 142.344 158.839C142.332 159.027 142.321 159.142 142.321 159.243L141.248 159.215C141.248 159.102 141.248 158.991 141.255 158.879C141.267 158.249 141.105 157.885 140.641 157.553C139.001 156.396 137.43 155.129 136.18 153.398C135.836 152.913 135.329 152.591 134.9 152.186C134.844 152.238 134.777 152.285 134.726 152.338C135.377 153.702 135.405 155.164 135.217 156.642C135.059 157.854 134.905 159.08 134.662 160.278C133.836 164.387 132.241 168.035 129.654 171.046C126.784 174.432 123.278 177.239 119.329 179.314C116.133 180.983 112.775 182.029 109.354 182.852C107.167 183.392 104.886 183.453 102.672 183.032C100.972 182.705 99.2881 182.226 97.6152 181.723C91.5921 179.915 86.2832 176.594 81.8016 171.567C80.4794 170.108 79.3664 168.477 78.4939 166.719C76.9869 163.645 76.1375 160.323 75.8093 156.822C75.736 155.813 75.7413 154.8 75.8253 153.792C75.8622 153.272 76.0969 152.778 76.2592 152.216C75.534 152.532 75.0435 153.087 74.5617 153.671C74.0073 154.338 73.4554 155.02 72.8408 155.587C72.0515 156.302 71.2137 156.962 70.3333 157.564V157.564ZM197.098 224.871C197.132 225.805 196.835 226.619 196.625 227.466C196.579 227.691 196.467 227.899 196.303 228.062C196.139 228.226 195.93 228.339 195.702 228.388C195.285 228.474 194.861 228.52 194.435 228.524C175.613 228.556 156.792 228.584 137.972 228.608C98.8935 228.608 59.8138 228.589 20.7329 228.552C19.2399 228.552 17.7472 228.541 16.255 228.519C15.9108 228.512 15.5347 228.512 15.2385 228.352C14.9189 228.185 14.539 227.893 14.4247 227.55C14.1617 226.759 13.8704 225.964 13.8986 225.066C14.0486 220.259 14.1445 215.453 14.3276 210.642C14.4296 208.124 14.6275 205.6 14.8746 203.092C15.3442 198.266 17.0613 194.114 20.0815 190.712C20.862 189.83 21.6364 188.932 22.4378 188.07C24.0001 186.389 25.6767 184.888 27.539 183.642C32.6844 180.208 37.7941 176.703 42.9284 173.25C46.5681 170.802 50.2397 168.423 53.8682 165.964C56.5122 164.171 59.0874 162.251 61.7351 160.462C64.1492 158.826 66.5977 157.268 69.0512 155.719C70.3317 154.917 71.5326 153.997 72.638 152.973C73.5439 152.124 74.569 151.448 75.5807 150.769C75.8874 150.556 76.2394 150.414 76.61 150.355C76.9806 150.295 77.3601 150.32 77.7195 150.427C78.055 148.638 78.3759 146.926 78.7028 145.215C79.7476 139.738 81.3222 134.487 83.8249 129.653C85.1487 127.098 86.7159 124.763 88.7601 122.909C91.0683 120.789 93.9131 119.32 96.9956 118.658C98.8247 118.259 100.659 117.792 102.51 117.644C104.575 117.476 106.663 117.544 108.732 117.668C110.972 117.808 113.166 118.37 115.331 119.014C119.296 120.191 122.607 122.563 125.174 126.303C127.386 129.525 128.94 133.154 130.213 136.97C131.456 140.691 132.222 144.563 132.91 148.459C133.02 149.087 133.173 149.709 133.315 150.368C135.198 150.104 136.594 151.31 137.854 152.516C139.789 154.373 141.971 155.667 144.141 157.047C146.826 158.752 149.465 160.552 152.068 162.417C157.664 166.426 163.397 170.166 169.11 173.943C172.899 176.45 176.64 179.06 180.406 181.624C181.349 182.263 182.288 182.905 183.248 183.516C186.826 185.804 189.682 189.073 192.354 192.575C194.58 195.497 195.662 199.018 196.094 202.816C196.366 205.195 196.556 207.594 196.654 209.994C196.84 214.95 196.929 219.912 197.098 224.871V224.871ZM133.51 155.297C133.563 154.539 133.522 153.828 132.895 153.341C132.729 153.22 132.632 152.962 132.507 152.762C131.563 151.261 131.081 149.536 130.693 147.768C129.9 144.151 129.037 140.566 127.802 137.108C126.587 133.703 125.11 130.481 123.048 127.634C120.987 124.787 118.401 122.931 115.344 121.981C112.287 121.031 109.17 120.345 105.968 120.488C104.794 120.54 103.607 120.392 102.453 120.552C100.545 120.81 98.6524 121.174 96.7855 121.643C93.254 122.537 90.2142 124.457 87.8861 127.747C86.5791 129.585 85.4705 131.554 84.5784 133.619C83.4235 136.289 82.4748 139.041 81.7402 141.852C81.1256 144.24 80.5945 146.659 79.9984 149.058C79.562 150.822 78.9056 152.452 77.7563 153.785C77.5978 153.973 77.5105 154.336 77.5216 154.611C77.5658 155.685 77.6027 156.768 77.7477 157.83C78.1005 160.465 78.7077 163.041 79.9185 165.319C81.6467 168.569 83.7646 171.459 86.5291 173.627C89.0723 175.623 91.7642 177.308 94.6676 178.486C96.5015 179.224 98.3551 179.878 100.21 180.546C101.947 181.177 103.74 181.031 105.526 181.031C106.352 181.031 107.182 181.091 108.004 181.015C108.927 180.932 109.874 180.847 110.758 180.548C112.847 179.841 114.952 179.131 116.971 178.205C121.936 175.921 126.393 172.827 129.688 167.737C132.101 164.003 133.194 159.836 133.51 155.3V155.297Z" fill="black"/>
<path d="M140.397 162.018C139.303 161.17 138.242 160.37 137.19 159.555C136.956 159.397 136.751 159.2 136.586 158.972C136.489 158.813 136.449 158.469 136.533 158.33C136.596 158.25 136.68 158.189 136.776 158.154C136.872 158.118 136.976 158.11 137.077 158.13C137.41 158.261 137.712 158.46 137.963 158.713C138.769 159.552 139.546 160.425 140.319 161.304C140.466 161.472 140.716 161.679 140.397 162.018Z" fill="black"/>
<path d="M135.823 162.015C136.243 162.267 136.684 162.542 137.001 162.929C137.701 163.764 138.337 164.67 138.985 165.564C139.082 165.704 139.098 165.927 139.159 166.135C139.029 166.135 138.96 166.159 138.932 166.135C137.811 165.104 136.697 164.074 135.58 163.033C135.499 162.957 135.389 162.877 135.361 162.774C135.301 162.57 135.191 162.246 135.268 162.151C135.377 162.011 135.685 161.931 135.823 162.015Z" fill="black"/>
<path d="M134.474 167.908C134.895 168.323 135.335 168.738 135.669 169.241C136.161 169.997 136.58 170.817 137.005 171.638C137.11 171.841 137.114 172.123 137.166 172.365L136.921 172.509C135.881 171.247 134.831 169.998 133.807 168.724C133.613 168.481 133.394 168.141 133.625 167.822C133.887 167.465 134.231 167.668 134.474 167.908Z" fill="black"/>
<path d="M135.013 176.615C134.499 175.92 134.09 175.349 133.661 174.797C133.232 174.246 132.787 173.719 132.353 173.176C131.919 172.633 131.345 172.206 131.256 171.252C132.734 171.58 134.884 174.669 135.013 176.615Z" fill="black"/>
<path d="M132.276 180.643C132.31 180.711 132.276 180.815 132.26 181.087C132.148 180.99 132.043 180.885 131.949 180.77C131.046 179.402 130.144 178.036 129.253 176.659C129.081 176.416 128.954 176.146 128.876 175.86C128.84 175.669 128.921 175.341 129.046 175.234C129.171 175.126 129.459 175.162 129.613 175.258C129.828 175.404 129.998 175.606 130.104 175.841C130.843 177.434 131.56 179.038 132.276 180.643Z" fill="black"/>
<path d="M125.807 178.204C126.103 178.635 126.43 179.053 126.63 179.55C127.05 180.603 127.403 181.693 127.763 182.779C127.819 182.947 127.771 183.162 127.771 183.478C127.662 183.39 127.563 183.291 127.475 183.182C126.752 181.864 126.031 180.544 125.313 179.221C125.229 179.065 125.154 178.903 125.091 178.736C124.981 178.461 124.824 178.15 125.135 177.927C125.446 177.704 125.645 177.968 125.807 178.204Z" fill="black"/>
<path d="M122.948 187.095C122.969 187.203 122.847 187.346 122.754 187.562C122.597 187.33 122.459 187.191 122.385 187.015C121.867 185.774 121.348 184.531 120.859 183.27C120.707 182.875 120.611 182.461 120.575 182.041C120.584 181.931 120.616 181.825 120.669 181.729C120.722 181.633 120.795 181.549 120.883 181.482C120.996 181.405 121.267 181.482 121.375 181.603C121.593 181.837 121.77 182.105 121.897 182.397C122.565 183.865 122.65 185.513 122.948 187.095Z" fill="black"/>
<path d="M118.037 189.107C118.062 189.283 118.012 189.471 117.977 189.878C117.749 189.619 117.615 189.522 117.559 189.386C116.791 187.542 116.074 184.679 116.143 183.726C116.434 183.442 116.701 183.633 116.867 183.905C117.105 184.304 117.358 184.739 117.454 185.198C117.695 186.492 117.857 187.802 118.037 189.107Z" fill="black"/>
<path d="M112.382 190.592C112.398 190.9 112.281 191.211 112.225 191.523C112.143 191.523 112.066 191.53 111.979 191.538C111.9 191.356 111.833 191.17 111.777 190.98C111.445 189.558 111.12 188.132 110.801 186.703C110.741 186.44 110.66 186.145 110.712 185.897C110.767 185.652 110.913 185.436 111.121 185.291C111.38 185.144 111.668 185.291 111.793 185.599C111.945 185.93 112.046 186.281 112.093 186.642C112.218 187.952 112.314 189.269 112.382 190.592Z" fill="black"/>
<path d="M108.043 187.363C108.201 188.696 108.006 190.002 107.772 191.303C107.759 191.375 107.683 191.434 107.484 191.702C107.395 190.987 107.339 190.48 107.266 189.974C107.157 189.151 107.021 188.333 106.922 187.51C106.829 186.782 106.986 186.336 107.323 186.249C107.679 186.157 107.946 186.547 108.043 187.363Z" fill="black"/>
<path d="M104.05 186.72C104.119 186.956 104.133 187.205 104.091 187.447C103.937 188.725 103.768 190.002 103.599 191.28C103.587 191.355 103.506 191.419 103.433 191.522C103.336 191.43 103.271 191.401 103.259 191.355C102.918 189.918 102.835 188.433 103.013 186.967C103.018 186.846 103.055 186.729 103.122 186.628C103.272 186.476 103.462 186.252 103.62 186.264C103.779 186.276 103.974 186.525 104.05 186.72Z" fill="black"/>
<path d="M100.262 185.837C100.307 186.078 100.296 186.327 100.23 186.564C99.8862 188.109 99.5261 189.651 99.1659 191.192C99.1303 191.299 99.0855 191.403 99.0319 191.503L98.8218 191.543C98.7603 191.339 98.6312 191.132 98.6435 190.937C98.7443 189.348 98.8631 187.76 99 186.175C99.0128 185.936 99.1033 185.708 99.2581 185.524C99.341 185.445 99.441 185.386 99.5504 185.351C99.6598 185.315 99.7759 185.305 99.8899 185.32C100.044 185.354 100.214 185.629 100.262 185.837Z" fill="black"/>
<path d="M94.8047 183.649C95.0358 184.069 94.9178 184.54 94.8047 184.951C94.3794 186.432 93.9185 187.898 93.4526 189.367C93.4047 189.511 93.2707 189.609 93.1736 189.73C92.8294 189.488 92.9277 189.144 92.9634 188.868C93.1048 187.746 93.2498 186.624 93.4551 185.518C93.5687 185.024 93.7498 184.547 93.9935 184.101C94.152 183.793 94.3745 183.494 94.8047 183.649Z" fill="black"/>
<path d="M90.0867 183.414C89.609 184.607 89.1218 185.796 88.6252 186.979C88.5397 187.152 88.4393 187.318 88.3253 187.474C88.2602 187.454 88.2024 187.438 88.1311 187.419C88.1188 187.191 88.066 186.956 88.1028 186.74C88.313 185.574 88.5035 184.401 88.7875 183.254C88.9202 182.711 89.2165 182.213 89.4918 181.729C89.6295 181.487 89.8802 181.29 90.1753 181.494C90.4469 181.673 90.4998 181.969 90.4211 182.288C90.3334 182.67 90.2218 183.046 90.0867 183.414Z" fill="black"/>
<path d="M85.8563 177.921C86.1599 178.148 86.0259 178.456 85.9006 178.731C85.7149 179.138 85.5318 179.545 85.3179 179.933C84.7549 180.974 84.1846 182.005 83.6057 183.035C83.5192 183.168 83.423 183.295 83.318 183.414C83.2529 183.366 83.1877 183.322 83.1189 183.275C83.6253 181.457 84.058 179.601 85.2331 178.137C85.399 177.928 85.6006 177.733 85.8563 177.921Z" fill="black"/>
<path d="M79.6097 171.25C79.6257 171.449 79.6982 171.669 79.6417 171.809C79.5192 172.075 79.3626 172.324 79.1758 172.552C78.2211 173.789 77.2603 175.021 76.2934 176.245C76.2152 176.332 76.1296 176.414 76.0377 176.487C75.9615 174.966 78.1642 171.709 79.6097 171.25Z" fill="black"/>
<path d="M81.9571 175.23C82.1955 175.351 82.2447 175.653 82.123 175.944C82.0417 176.135 81.9497 176.322 81.8477 176.503C81.7746 176.631 81.695 176.755 81.6092 176.875C80.7078 178.237 79.8023 179.599 78.8927 180.963C78.8435 180.963 78.7956 180.963 78.7464 180.955C78.7464 180.8 78.7145 180.615 78.771 180.488C79.4028 179.034 80.0383 177.579 80.7057 176.153C80.8737 175.816 81.1047 175.514 81.3867 175.262C81.5121 175.154 81.7985 175.145 81.9571 175.23Z" fill="black"/>
<path d="M77.4071 168.315C77.3533 168.483 77.2701 168.64 77.1613 168.778C76.6266 169.465 76.0919 170.148 75.5461 170.81C75.1614 171.278 74.7557 171.72 74.3513 172.164C74.193 172.316 74.0269 172.46 73.8535 172.595C73.8978 172.188 73.8695 171.936 73.9506 171.747C74.5456 170.401 75.2179 169.117 76.2455 168.146C76.4392 167.95 76.6707 167.794 76.9265 167.688C77.3137 167.553 77.5448 167.868 77.4071 168.315Z" fill="black"/>
<path d="M75.6944 162.686C75.5089 162.938 75.2976 163.171 75.0638 163.38C74.0952 164.291 73.1233 165.192 72.1481 166.083C72.0916 166.134 72.0068 166.139 71.8003 166.219C71.8605 165.959 71.8605 165.828 71.9171 165.744C72.6988 164.582 73.4437 163.38 74.4676 162.477C74.7129 162.261 74.9973 162.092 75.3059 161.979C75.4289 161.931 75.6624 162.063 75.7632 162.199C75.8247 162.282 75.7755 162.566 75.6944 162.686Z" fill="black"/>
<path d="M74.4596 158.326C74.5444 158.469 74.5001 158.797 74.4104 158.977C74.3133 159.176 74.1068 159.316 73.9372 159.462C72.885 160.292 71.8307 161.118 70.7745 161.941C70.7179 161.985 70.6294 161.969 70.4143 162.005C70.5163 161.714 70.5372 161.462 70.6601 161.326C71.4985 160.392 72.3515 159.472 73.2193 158.567C73.4065 158.366 73.6457 158.219 73.9114 158.141C74.0112 158.121 74.1147 158.127 74.2111 158.16C74.3075 158.192 74.3932 158.25 74.4596 158.326V158.326Z" fill="black"/>
<path d="M60.1288 70.3529L59.0754 70.4486C58.966 69.9262 58.6341 69.7699 57.797 69.6547C57.797 68.8717 57.7601 68.079 57.8044 67.2912C57.8486 66.5966 57.9949 65.9009 58.076 65.2064C58.1203 64.827 58.2665 64.5555 58.6267 64.381C60.9388 63.2428 63.2423 62.0962 65.5532 60.9593C65.6306 60.9193 65.7314 60.9265 65.9429 60.895C65.7523 61.1944 65.6024 61.4102 65.477 61.6417C64.8489 62.7556 64.2134 63.8731 63.6098 65.0028L62.5454 64.444C62.5577 64.4197 62.4888 64.3482 62.4606 64.301C61.857 64.6876 60.8331 66.4003 59.9628 68.4729C60.0066 68.5006 60.0542 68.5218 60.1042 68.536C60.1288 68.5445 60.1693 68.5166 60.1853 68.4923C60.5369 67.8863 60.8933 67.2803 61.2461 66.6742L61.7194 66.9457C61.0725 68.0248 60.5395 69.1665 60.1288 70.3529V70.3529Z" fill="#7A3927"/>
<path d="M61.7999 69.0665C61.1275 69.961 60.6936 70.9512 60.6457 72.0967C60.8608 71.5779 61.0955 71.0664 61.2775 70.5355C61.452 70.0446 61.9179 69.6616 61.7999 69.0665ZM63.5293 65.1539C63.2835 65.6132 63.1889 66.1405 63.4642 66.6278C63.7395 67.115 63.6301 67.5417 63.5011 68.0095C63.1077 69.4228 62.6984 70.8312 62.3542 72.2518C61.7649 74.6382 61.5358 77.0974 61.6745 79.5497C61.7641 81.214 61.6883 82.8829 61.4483 84.5326C61.0353 83.826 60.5658 83.1508 60.2326 82.4163C60.0434 82.0018 60.0151 81.4866 60.0261 81.0188C60.063 79.6503 60.1601 78.2807 60.2326 76.9147C60.2412 76.6917 60.2658 76.4674 60.2695 76.2444C60.2941 75.282 60.0839 74.4554 58.9088 74.2117C58.9543 73.6057 58.9985 73.0384 59.0428 72.4676C59.0747 72.0239 59.1276 71.5815 59.1276 71.1343C59.1342 70.9028 59.1165 70.6713 59.0748 70.4434L60.1282 70.3476C60.1884 70.3719 60.2511 70.3997 60.3101 70.4276C60.9386 69.2422 61.5676 68.0564 62.1969 66.8702L62.0838 66.7587C61.9609 66.8181 61.7753 66.8423 61.715 66.9417L61.2492 66.6726C61.6868 65.9308 62.1199 65.187 62.5484 64.4412L63.6129 64.9999C63.5846 65.0545 63.5576 65.103 63.5293 65.1539V65.1539Z" fill="#7A3927"/>
<path d="M145.889 75.1908C145.723 74.4442 144.484 72.2818 143.933 71.7655C144.01 72.4079 145.204 74.5048 145.889 75.1908ZM147.95 73.7654C147.04 78.4925 146.126 83.2196 145.209 87.9468C145.144 88.2861 145.038 88.617 144.953 88.9528C144.881 88.9249 144.803 88.9007 144.727 88.8728C144.69 88.3382 144.69 87.7989 144.618 87.268C144.436 85.9747 144.33 84.6572 143.99 83.4027C143.415 81.2876 143.232 79.1398 143.043 76.9786C142.666 72.7145 141.46 68.7219 138.909 65.1887C138.295 64.3306 137.706 63.4482 137.123 62.5658C136.791 62.0617 136.509 61.5271 136.281 60.9695C140.669 62.6664 144.856 64.6821 148.804 67.185C148.558 68.8735 149.533 70.3946 149.472 72.1437C148.354 72.1267 148.116 72.8988 147.95 73.7654ZM145.86 70.4237C146.205 70.9546 146.525 71.5025 146.967 72.2321C146.756 70.8831 143.793 66.3475 142.683 65.5657C142.711 66.3087 143.266 66.7038 143.597 67.2068C143.966 67.7656 144.391 68.2892 144.776 68.8395C145.156 69.3583 145.52 69.8855 145.864 70.4298L145.86 70.4237ZM142.775 68.3086C144.06 70.1728 145.345 72.0358 146.63 73.8975C145.769 71.7618 144.508 69.8855 143.031 68.1486C142.95 68.2008 142.868 68.2565 142.779 68.3086H142.775Z" fill="#7A3927"/>
<path d="M120.216 75.894C120.661 76.78 122.183 78.1812 122.84 78.3012C121.815 76.94 120.782 75.9897 120.216 75.894ZM113.099 72.8638C116.163 73.1353 119.13 73.9013 121.933 75.431C123.316 76.1953 124.634 77.0672 125.876 78.0381C127.856 79.5666 129.751 81.2041 131.682 82.7968C131.637 82.8925 131.593 82.9883 131.548 83.084C129.673 82.4332 127.788 81.7944 125.92 81.1241C123.771 80.3447 121.653 79.4708 119.483 78.7557C119.01 78.6005 118.536 78.4612 118.059 78.3412L118.207 77.7775C117.196 76.3691 114.01 73.7862 113.037 73.5583L113.099 72.8638ZM120.637 77.9254C120.062 76.8564 118.159 75.0237 117.503 74.8201C117.793 75.3994 119.325 76.9436 120.637 77.9254V77.9254Z" fill="#5E2C20"/>
<path d="M115.075 76.8285C113.772 75.6261 112.459 74.4371 110.895 73.5668C111.152 74.2128 114.102 76.5049 115.075 76.8285ZM113.091 76.9752C111.761 75.7829 110.365 74.6633 108.911 73.6213L108.876 72.7729C110.281 72.7123 111.689 72.7443 113.091 72.8686L113.029 73.5632C114.762 75.1522 116.471 76.4819 118.199 77.7824L118.05 78.346C116.372 77.929 114.657 77.6725 112.928 77.58L112.957 77.1437C113.006 77.083 113.05 77.0273 113.091 76.9752Z" fill="#5E2C20"/>
<path d="M112.961 77.1386L112.933 77.5749C111.775 77.4986 110.605 77.4828 109.435 77.4986C108.402 77.5107 107.366 77.4865 106.333 77.4271C105.548 77.3822 105.281 77.2065 105.253 76.4841C105.237 75.5968 105.312 74.7102 105.479 73.8381C105.52 73.6054 105.892 73.3424 106.167 73.2587C106.84 73.0466 107.54 72.8272 108.236 72.7921C108.451 72.7799 108.665 72.7715 108.88 72.7678L108.916 73.6163L108.714 73.8405C110.127 74.9395 111.543 76.0388 112.961 77.1386Z" fill="#5E2C20"/>
<path d="M78.5249 76.5886L82.2211 75.0917C82.1732 75.0081 82.124 74.9232 82.0798 74.8396C80.869 75.3669 79.598 75.7547 78.5249 76.5886ZM75.7593 76.7886C77.2138 76.1422 78.6688 75.5018 80.1241 74.8675C79.2539 74.7936 76.6701 75.9293 75.7593 76.7886V76.7886ZM70.7515 78.0007C72.1565 77.0989 73.5615 76.1959 75.0746 75.2129C74.1552 75.2154 72.2487 76.4129 70.7515 78.0056V78.0007ZM72.926 77.2068C74.5129 76.5086 75.9621 75.8978 77.3265 75.1075C76.4685 75.2154 73.5406 76.6117 72.926 77.2068ZM65.5975 80.6528C68.1075 76.5971 71.6624 74.2287 76.4759 73.6784C79.4972 73.3306 82.5124 73.0639 85.5535 73.1475C86.1026 73.1627 86.6489 73.2309 87.1846 73.3512C87.7918 73.4869 87.9344 73.7148 87.8287 74.3124C87.7581 74.6546 87.6661 74.9922 87.5534 75.3232C87.2497 76.2929 86.5614 76.7777 85.5448 76.8044C83.7355 76.8602 81.9298 76.9438 80.1204 76.9595C77.1605 76.9838 74.2781 77.3874 71.5038 78.4565C69.5654 79.2031 67.6048 79.9098 65.6012 80.6528H65.5975ZM68.7934 78.4492C69.5785 77.8504 70.3623 77.2517 71.1449 76.6529C71.0883 76.585 71.0367 76.5171 70.9789 76.4444C70.1935 77.0432 69.4129 77.6468 68.6275 78.2456C68.6865 78.3086 68.7394 78.3813 68.7959 78.4492H68.7934Z" fill="#5E2C20"/>
<path d="M99.2537 140.689C99.9138 139.998 100.048 139.156 99.926 138.265C99.8449 138.249 99.7638 138.234 99.6802 138.213C99.5376 139.041 99.395 139.867 99.2537 140.689ZM100.764 137.364C100.703 138.362 100.65 139.156 100.598 139.963C101.229 139.337 101.347 138.338 100.764 137.364ZM98.0872 141.016C98.4272 140.693 98.6686 140.283 98.784 139.831C98.8994 139.379 98.8841 138.905 98.7399 138.461C98.3146 139.232 98.3232 140.094 98.0872 141.016V141.016ZM93.7395 139.562C94.096 138.436 94.1243 137.581 93.7027 137.043C93.6301 137.977 93.5699 138.763 93.5084 139.555C93.5859 139.556 93.6621 139.56 93.7395 139.56V139.562ZM94.8249 139.602C94.8765 138.855 94.9257 138.169 94.9749 137.482C94.391 138.064 94.3836 138.937 94.8249 139.6V139.602ZM95.4887 138.368C95.3658 138.892 95.3989 139.374 96.0639 139.898C95.9336 139.255 95.8365 138.784 95.7394 138.312C95.6546 138.331 95.5698 138.346 95.4887 138.366V138.368ZM91.1078 139.729C90.5731 139.111 91.2652 137.911 89.9696 137.586C90.2499 136.911 90.5252 136.253 90.83 135.51C95.3682 137.207 99.8953 136.915 104.523 135.857C104.701 136.495 104.855 136.979 104.968 137.47C105.053 137.841 105.085 138.22 105.146 138.632C104.871 138.676 104.567 138.644 104.418 138.775C104.268 138.906 104.207 139.219 104.146 139.458C104.033 139.917 103.944 140.385 103.823 140.947C103.547 140.712 103.348 140.544 103.053 140.297C102.649 141.043 102.28 141.726 101.915 142.397C101.777 142.349 101.701 142.341 101.669 142.305C100.956 141.527 100.855 141.539 100.301 142.426C100.034 142.853 99.7466 143.275 99.4405 143.735C98.3515 142.929 98.2113 144.083 97.6828 144.462C97.4369 144.196 97.2132 143.924 96.9662 143.676C96.3712 143.086 96.2655 143.07 95.383 143.401C95.1236 142.95 94.8483 142.487 94.5975 142.015C94.0395 140.966 93.9092 140.924 92.8361 141.616C92.5976 141.093 92.3665 140.583 92.1318 140.08C91.865 139.5 91.7839 139.476 91.1078 139.727V139.729Z" fill="#5E2C20"/>
<path d="M114.129 81.3156C115.189 81.3629 116.258 81.295 117.325 81.3714C119.294 81.5168 121.218 82.0189 123.002 82.8525C124.488 83.5386 125.715 84.5688 126.904 85.6512C127.229 85.947 127.519 86.3094 128.022 86.2936C128.318 85.9021 128.103 85.5834 127.872 85.3312C127.497 84.8929 127.076 84.4944 126.617 84.1422C124.036 82.2901 121.265 80.8126 118.07 80.2635C116.208 79.9484 114.346 79.7884 112.548 80.5787C112.398 80.6429 112.281 80.7787 111.949 81.0344C112.822 81.1556 113.473 81.2829 114.129 81.3156ZM126.129 85.8233C122.226 82.9204 117.919 81.7592 113.099 82.7289C111.176 83.1168 109.398 83.8913 107.945 85.2403C107.6 85.5693 107.316 85.9558 107.107 86.3821C106.908 86.7773 107.017 87.2088 107.353 87.5239C107.689 87.839 108.09 87.959 108.515 87.7918C108.873 87.6472 109.218 87.4733 109.547 87.2718C110.352 86.787 111.127 86.2706 111.944 85.8173C112.579 85.4658 113.227 85.1058 114.016 85.0622C114.05 87.5615 115.098 89.3335 117.539 90.2159C116.438 89.9889 115.337 89.7626 114.235 89.5372C116.523 91.2498 121.956 90.7953 124.524 88.8026C123.114 89.1348 121.782 89.7965 120.3 89.9044C122.014 89.1141 123.127 87.8924 123.398 85.793C124.627 86.547 125.669 87.2306 126.755 87.8536C127.56 88.313 128.405 88.7202 129.252 89.0996C129.554 89.2142 129.879 89.2558 130.2 89.2208C130.649 89.1844 130.799 88.7893 130.483 88.4814C130.256 88.2621 129.953 88.1263 129.678 87.9627C128.485 87.256 127.23 86.6451 126.129 85.8233ZM109.412 78.9145C111.678 78.7933 113.93 78.8818 116.165 79.3569C120.027 80.1799 123.764 81.3811 127.456 82.7422C128.879 83.2659 130.335 83.6974 131.793 84.1034C132.197 84.2246 132.679 84.1434 133.113 84.0719C133.505 84.004 133.652 83.6925 133.429 83.3446C133.138 82.8937 132.841 82.4259 132.457 82.055C131.441 81.0684 130.352 80.1581 129.343 79.169C127.435 77.299 125.278 75.694 122.931 74.3983C118.809 72.1135 114.372 71.0287 109.655 71.0675C108.266 71.0796 106.881 71.2432 105.55 71.6832C104.452 72.0468 103.706 72.6965 103.601 73.9231C103.561 74.4298 103.367 74.9243 103.347 75.4322C103.322 76.0261 103.319 76.6443 103.464 77.2248C103.735 78.3266 104.375 78.8454 105.533 78.8975C106.817 78.9642 108.113 78.9205 109.408 78.9205L109.412 78.9145ZM87.2336 114.084C87.6822 114.512 88.1001 114.904 88.5168 115.296C87.5937 115.237 86.7185 115.105 86.3227 114.191C85.9843 113.428 85.8772 112.584 86.0142 111.762C86.249 110.349 87.0467 109.235 87.8691 108.126C88.0879 107.83 88.2858 107.52 88.5045 107.203C87.8605 106.657 87.4806 107.088 87.0713 107.372C84.6301 109.048 84.1889 113.443 85.4279 115.571C85.6079 115.892 85.8596 116.168 86.164 116.379C86.4683 116.59 86.8173 116.729 87.1844 116.787C88.0448 116.944 88.9212 116.991 89.6538 116.424C90.5241 117.203 91.2973 118.033 92.2081 118.679C93.9093 119.891 95.8563 120.317 97.9054 119.854C98.6909 119.673 99.4235 119.179 100.128 118.74C101.357 117.981 102.541 117.154 103.715 116.376C104.913 117.003 105.213 117.047 106.075 116.923C107.739 116.688 108.743 115.693 109.245 114.192C110.132 111.557 109.027 109.249 107.229 107.404C107.137 107.315 107.03 107.243 106.913 107.189C106.484 106.977 105.974 107.067 105.78 107.387C105.598 107.68 105.723 108.082 106.205 108.315C106.425 108.415 106.622 108.558 106.786 108.734C106.95 108.91 107.077 109.116 107.16 109.34C107.492 110.235 107.873 111.133 108.027 112.059C108.237 113.329 107.646 114.351 106.63 115.133C106.237 115.432 105.824 115.46 105.298 115.218C105.504 115.096 105.633 115.005 105.767 114.934C106.103 114.758 106.259 114.482 106.092 114.142C105.925 113.803 105.622 113.832 105.257 113.9C103.622 114.18 102.108 114.93 100.905 116.056C100.193 116.707 99.4324 117.303 98.6294 117.84C98.1764 118.138 97.6644 118.337 97.1273 118.423C95.9498 118.623 94.8238 118.324 93.7311 117.88C92.7268 117.47 91.9451 116.754 91.119 116.084C90.2915 115.428 89.4295 114.815 88.5365 114.248C88.2009 114.028 87.8076 113.801 87.2336 114.084ZM89.4363 138.538L90.1812 138.19C90.5413 138.942 90.2291 139.824 90.9506 140.406L91.5972 140.031C91.7717 140.43 91.8725 140.773 92.0631 141.061C92.2659 141.373 92.5043 141.744 92.8166 141.876C93.055 141.972 93.4398 141.732 93.7999 141.634C94.0912 142.105 94.3789 142.603 94.6948 143.075C95.1963 143.821 95.3302 143.854 96.2005 143.534C96.7868 143.981 97.415 144.404 97.5157 145.335C97.7714 145.064 97.9497 144.888 98.1156 144.7C98.3061 144.484 98.4844 144.265 98.6577 144.058C99.5329 144.265 99.8033 144.173 100.306 143.47C100.552 143.115 100.772 142.735 101.002 142.361C101.933 143.147 102.241 143.088 102.779 142.061C102.909 141.819 103.039 141.566 103.164 141.327C104.024 141.658 104.2 141.59 104.488 140.8C104.638 140.384 104.719 139.951 104.832 139.519C105.569 139.386 105.711 139.315 105.662 138.648C105.598 137.709 105.399 136.783 105.25 135.801C105.808 135.585 106.509 135.354 107.181 135.054C107.88 134.739 108.508 134.32 108.634 133.462C107.773 133.206 107.594 133.194 106.731 133.637C104.149 134.975 101.286 135.702 98.37 135.761C94.6689 135.836 91.2039 134.987 88.0657 132.982C87.8113 132.822 87.5273 132.703 87.2569 132.567C87.1758 132.675 87.0947 132.783 87.0111 132.894C87.6908 134.148 89.1523 134.515 90.2869 135.262C89.9218 136.31 89.3969 137.292 89.4363 138.538V138.538ZM79.0877 90.1105C76.9256 89.9153 74.8851 89.2887 72.8274 88.7008C75.63 90.8208 82.9978 91.3516 85.3541 89.096C83.2854 89.9553 81.2536 90.308 79.0877 90.1105ZM63.5237 89.3117C63.3221 85.7434 63.2041 82.1701 63.0468 78.6006C62.9779 77.0152 63.3295 75.4904 63.7056 73.9692C64.1149 72.2965 64.5931 70.6396 65.0307 68.9754C65.1438 68.5439 65.2851 68.0967 65.2765 67.6615C65.2691 67.207 65.2163 66.6713 64.9655 66.3161C64.6533 65.8652 64.6496 65.4931 64.8844 65.0859C65.5113 63.9732 66.0829 62.8193 66.8278 61.7854C68.2733 59.7721 68.3175 59.8012 70.6493 58.9903C75.689 57.2292 80.8688 56.0401 86.1605 55.2656C92.7613 54.3218 99.4422 54.042 106.1 54.4305C113.789 54.8591 121.396 56.2105 128.753 58.4546C130.388 58.9503 132.033 59.4242 133.67 59.9091C134.006 60.0085 134.337 60.1333 134.653 60.2412C134.808 61.5345 135.439 62.5756 136.051 63.6217C136.65 64.6447 137.28 65.6458 137.909 66.6519C140.14 70.2214 141.12 74.1534 141.293 78.2939C141.362 79.8696 141.561 81.4005 142.051 82.8998C142.449 84.1148 142.666 85.3806 142.695 86.6573C142.776 89.7832 142.857 92.9128 143.039 96.0351C143.132 97.692 142.76 99.2605 142.48 100.862C141.373 107.178 140.021 113.45 138.585 119.702C138.016 122.159 137.262 124.57 136.33 126.917C134.732 130.956 132.237 134.431 129.496 137.763C124.467 143.888 118.714 149.313 112.798 154.575C110.022 157.043 106.79 158.759 103.26 159.953C100.75 160.801 98.3123 160.559 95.8711 159.629C92.2278 158.237 89.2113 156.028 86.7419 153.042C83.7291 149.397 81.1097 145.488 78.6292 141.48C74.4869 134.801 70.8067 127.895 67.8062 120.632C65.9817 116.186 64.8923 111.48 64.5796 106.693C64.1801 100.91 63.8433 95.1127 63.5237 89.3117ZM64.0756 81.5471C63.9662 82.2744 64.3915 82.6053 65.1008 82.3616C65.3744 82.2683 65.6431 82.1615 65.9059 82.0417C70.9947 79.7787 76.354 78.7799 81.9062 78.66C83.2018 78.6321 84.4937 78.5812 85.7856 78.4963C87.7646 78.3751 88.9434 77.3824 89.4166 75.5061C89.4891 75.2273 89.558 74.9473 89.6034 74.6577C89.8222 73.1886 89.145 72.1123 87.6724 71.819C86.4125 71.5681 85.1169 71.4796 83.8422 71.3208C83.8336 71.3523 83.8299 71.3887 83.8213 71.4202C82.854 71.4759 81.8866 71.5414 80.9143 71.5923C78.5223 71.7135 76.1573 72.0274 73.8415 72.6614C69.3955 73.8831 66.4406 76.8055 64.3669 80.7302C64.2261 80.9853 64.1277 81.2612 64.0756 81.5471V81.5471ZM72.4206 84.2537C70.9222 85.2161 69.918 86.5409 69.0723 88.0269C68.8854 88.3542 68.8449 88.7457 69.1362 89.0051C69.3671 89.2067 69.6661 89.3161 69.9745 89.3117C70.2203 89.296 70.4772 89.0523 70.6837 88.8608C71.2467 88.3336 71.7679 87.759 72.3358 87.2403C73.2663 86.3918 74.2705 85.6512 75.6755 85.3555C75.8131 86.7373 76.2139 87.9784 77.3066 88.9093C78.4571 89.879 79.7244 90.1383 81.1896 89.799C83.267 89.3141 84.2552 87.9542 84.4372 84.9846C85.2546 85.6112 85.9429 86.1264 86.619 86.6609C87.1451 87.0803 87.6429 87.5397 88.1739 87.9542C88.5267 88.2342 88.9225 88.3542 89.3318 88.0499C89.6797 87.7906 89.7325 87.3518 89.4891 86.8294C89.434 86.7144 89.3708 86.6034 89.2998 86.4973C87.9182 84.581 86.158 83.1434 83.7685 82.7531C82.1085 82.4947 80.4288 82.3795 78.7485 82.4089C76.4904 82.4295 74.3578 83.004 72.4194 84.2537H72.4206ZM68.4146 86.8682C68.9334 86.633 69.1927 86.1409 69.4963 85.7191C70.2765 84.613 71.3467 83.7365 72.5927 83.1834C73.53 82.7538 74.5057 82.4106 75.5071 82.158C78.0221 81.5673 80.5937 81.2423 83.1785 81.1884C83.6038 81.1799 84.0782 81.2514 84.4138 80.849C83.9221 80.386 83.6161 80.2223 82.8552 80.2429C81.5965 80.2708 80.3366 80.3023 79.0853 80.4417C76.6413 80.6915 74.2551 81.3335 72.0211 82.3423C70.3531 83.1047 69.3242 84.4828 68.4011 85.9555C68.2364 86.21 68.0705 86.5215 68.4146 86.8682ZM136.052 81.0041C136.064 80.7861 136.064 80.5676 136.052 80.3496C135.842 78.7084 135.599 77.077 135.408 75.431C135.076 72.5086 134.975 69.59 135.603 66.6834C135.64 66.4308 135.66 66.1761 135.664 65.921C135.429 66.0289 135.328 66.1561 135.307 66.2967C135.104 67.6773 134.816 69.0591 134.749 70.4481C134.612 73.0347 135.02 75.5897 135.401 78.1412C135.546 79.1108 135.712 80.0732 135.867 81.0356C135.927 81.0284 135.983 81.0162 136.052 81.0041ZM135.651 109.58C135.591 109.568 135.528 109.552 135.469 109.54C133.915 113.968 131.392 117.924 129.336 122.115C129.505 121.865 129.705 121.621 129.85 121.353C131.094 119.193 132.389 117.061 133.537 114.854C134.331 113.333 134.923 111.702 135.59 110.127C135.66 109.961 135.635 109.761 135.651 109.58ZM118.529 122.616C118.537 121.076 117.821 119.722 117.136 118.374C115.752 115.643 115.258 114.988 114.399 114.677C116.096 117.222 117.683 119.709 118.529 122.616ZM117.157 128.636C117.853 127.623 117.198 125.51 116.015 125.112C115.695 125.004 115.237 125.08 114.93 125.233C114.561 125.421 114.508 125.839 114.638 126.251C114.691 126.43 114.732 126.615 114.78 126.798C113.747 127.609 112.589 128.091 111.399 128.495C108.071 129.609 104.639 130.131 101.132 130.211C97.1433 130.298 93.1927 129.96 89.2445 129.464C87.5765 129.253 85.9257 129.01 84.3278 128.518C83.5669 128.283 82.8171 128.004 82.0882 127.752C82.0882 127.153 82.141 126.646 82.0722 126.15C81.9874 125.536 81.6395 125.36 81.036 125.52C79.5216 125.927 78.9464 128.066 80.044 129.186C80.5136 129.656 81.1417 129.588 81.5092 129.013C81.6321 128.829 81.7034 128.626 81.83 128.371C82.7605 128.71 83.6738 129.021 84.5662 129.365C85.9515 129.896 87.3073 130.495 88.7086 130.97C93.028 132.424 97.4654 132.463 101.927 131.836C103.361 131.636 104.778 131.313 106.186 130.988C107.47 130.689 108.746 130.333 110.004 129.958C111.822 129.415 113.628 128.828 115.455 128.253C115.629 128.453 115.816 128.641 116.013 128.819C116.439 129.16 116.853 129.084 117.162 128.636H117.157ZM101.229 87.399C101.262 87.1474 101.266 86.8929 101.241 86.6403C101.222 86.5009 101.06 86.3845 100.95 86.2451C99.5537 87.8536 98.9342 94.657 100.09 96.2181C100.248 95.926 100.402 95.7503 100.438 95.5551C100.566 94.9646 100.661 94.3673 100.721 93.7661C100.91 91.6474 101.063 89.5275 101.229 87.399ZM93.5762 91.9274C93.9007 90.5141 93.9523 89.0887 93.8724 87.6548C93.7348 85.1955 92.7256 83.1701 90.6409 81.7471C90.3778 81.5665 90.0988 81.3593 89.7989 81.2999C89.5199 81.2441 89.1228 81.2671 88.9286 81.4308C88.641 81.6732 88.8057 82.0259 89.0417 82.2792C89.3256 82.5822 89.6698 82.8331 89.928 83.1531C90.4504 83.7955 91.1104 84.3992 91.3907 85.1373C92.0139 86.8027 92.4748 88.5311 92.5437 90.3311C92.6088 91.9201 92.7256 93.5055 92.819 95.0897C92.8633 95.1103 92.9038 95.1261 92.9419 95.1467C93.0149 94.9872 93.0722 94.8212 93.1128 94.6509C93.2738 93.7431 93.3746 92.8255 93.5762 91.9274ZM82.484 113.438C82.5688 113.27 82.5934 113.075 82.6905 112.735C81.4072 113.947 78.6464 120.371 78.6944 121.862C78.7755 121.789 78.8849 121.741 78.9046 121.666C79.7306 118.768 81.1319 116.113 82.484 113.438Z" fill="#F3D7C7"/>
<path d="M71.5641 87.4491C71.5641 87.4491 73.1891 89.8515 77.5687 90.1302C81.9483 90.409 85.5855 90.4793 87.4219 86.8576C87.4219 86.8576 84.5947 83.0274 80.9231 83.585C77.2516 84.1426 74.0016 83.6177 71.5641 87.4491Z" fill="white"/>
<path d="M109.672 86.4028C109.672 86.4028 113.275 90.8256 119.209 90.3723C125.142 89.919 126.166 86.89 126.166 86.89C126.166 86.89 122.246 83.7556 119.703 83.5471C117.16 83.3386 111.368 83.8598 109.672 86.4028Z" fill="white"/>
<path d="M122 86.717C121.748 86.574 121.497 86.433 121.247 86.294C121.615 86.2067 121.923 86.2225 122 86.717Z" fill="#7BB6D1"/>
<path d="M120.588 86.873C120.956 87.0161 121.248 87.1324 121.539 87.2476C120.801 89.033 117.495 89.4996 115.786 87.747C116.166 87.5118 116.524 87.2924 116.75 87.1518C117.518 87.3942 118.138 87.6948 118.782 87.7579C119.474 87.8306 120.081 87.4633 120.588 86.873Z" fill="#7BB6D1"/>
<path d="M115.003 86.6608C115.542 86.4814 115.987 86.0827 116.765 86.3421C115.732 87.1723 115.425 87.2281 115.003 86.6608Z" fill="#7BB6D1"/>
<path d="M82.9632 86.7612C82.8169 87.0036 82.7173 87.16 82.5821 87.3915C82.3363 87.2 82.1162 87.04 81.8987 86.8727C82.2183 86.4291 82.5293 86.5576 82.9632 86.7612Z" fill="#7BB6D1"/>
<path d="M82.1846 87.703C81.1078 89.2157 78.9887 89.2157 77.5001 87.7551L78.3839 87C79.2087 87.5309 79.9745 87.7103 80.8656 87.5309C81.2541 87.4509 81.699 87.6315 82.1846 87.703Z" fill="#7BB6D1"/>
<path d="M77.8806 86.3655L77.99 86.5812C77.6863 86.7449 77.3754 86.9085 77.0754 87.0661C77.1676 86.534 77.5204 86.4418 77.8806 86.3655Z" fill="#7BB6D1"/>
<path d="M58.816 83.2781C59.3077 83.7217 59.6764 84.2332 59.6531 84.9471C59.3581 84.4017 58.8074 83.9787 58.816 83.2781Z" fill="#F3D7C7"/>
<path d="M57.8184 70.8706C57.709 71.7288 57.6119 72.4803 57.5148 73.2378C56.5314 72.8148 54.4787 70.4319 53.1622 68.1883C54.4135 67.2623 55.6772 66.3241 57.1387 65.2454C56.9801 66.4574 56.8424 67.4174 56.738 68.3798C56.6876 68.8224 56.674 69.2683 56.6974 69.7131C56.7293 70.3361 56.9641 70.8355 57.8184 70.8706Z" fill="#271922"/>
<path d="M56.128 72.8992C56.3246 73.1108 56.5389 73.3058 56.7684 73.4822C57.485 74.0653 57.485 74.0616 57.2748 75.144C57.0786 75.037 56.8893 74.918 56.7082 74.7877C54.9578 73.3606 53.4915 71.6254 52.3839 69.6703C52.0754 69.1345 52.084 69.1309 52.5695 68.7563C53.7926 70.1878 54.9541 71.5466 56.128 72.8992Z" fill="#40152A"/>
<path d="M57.1353 81.4117C56.9928 81.2759 56.608 81.208 56.463 81.3038C56.3179 81.3995 56.2171 81.7547 56.2639 81.9547L55.9246 82.0068C55.8558 81.5947 55.7906 81.1802 55.7255 80.7644C55.5878 79.8905 55.6124 78.9839 55.621 78.0978C55.621 77.7342 55.7832 77.3791 55.884 76.9561C56.9116 77.1633 57.568 77.8142 58.3215 78.2772C58.4444 78.3572 58.4444 78.6845 58.4543 78.9002C58.4875 79.9184 58.4789 80.9402 58.5354 81.9583C58.56 82.3934 58.7013 82.8068 58.7874 83.2431C58.3535 83.3037 58.3658 82.8686 58.1728 82.6613C57.8188 82.2541 57.5201 81.791 57.1353 81.4117Z" fill="#F3D7C7"/>
<path d="M57.7991 93.2177C57.1181 89.4893 56.5158 85.7477 55.9246 82.0035L56.2638 81.9514C56.3658 82.315 56.6006 82.6302 56.7666 82.9768C57.2115 83.892 57.6577 84.8095 58.0904 85.7355C58.1506 85.9051 58.1918 86.0807 58.2133 86.2592C58.154 86.3055 58.0882 86.3431 58.0179 86.3707C57.2214 86.5185 57.0997 86.7779 57.5262 87.4324C57.7524 87.7803 57.9798 88.1318 58.2342 88.4591C58.571 88.8979 58.6398 89.3766 58.5784 89.9039C58.4739 90.8541 58.3522 91.8044 58.2871 92.7583C58.218 93.5625 58.2594 94.3722 58.41 95.1655L58.1875 95.2104C58.0523 94.551 57.9208 93.888 57.7991 93.2177Z" fill="#F3D7C7"/>
<path d="M58.9566 96.6704C59.2885 97.2765 59.7703 97.8037 60.2362 98.3188C60.3653 98.4631 60.718 98.5261 60.9196 98.4631C61.2478 98.3625 61.2601 98.0316 61.1876 97.7358C61.1209 97.3931 61.0289 97.0556 60.9122 96.7262C60.1588 94.8535 60.1551 92.9445 60.6283 91.0088C61.8108 95.7638 61.6928 100.642 62.1033 105.675C61.7997 105.399 61.6006 105.287 61.5084 105.12C61.0905 104.37 60.6332 103.627 60.3222 102.831C59.3462 100.361 58.7058 97.7976 58.1884 95.2111L58.4108 95.1662C58.5164 95.6915 58.7003 96.1984 58.9566 96.6704V96.6704Z" fill="#F3D7C7"/>
<path d="M147.559 91.6197C147.823 92.5021 147.62 93.3288 147.22 94.1069C146.701 95.1214 146.122 96.1032 145.531 97.1614C145.324 95.9638 146.065 90.4816 146.676 88.5095C146.989 89.6077 147.26 90.6173 147.559 91.6197Z" fill="#F3D7C7"/>
<path d="M153.176 79.5073C153.56 81.4866 153.273 83.4671 152.913 85.4077C151.852 91.1602 150.366 96.8012 148.119 102.228C147.39 103.984 146.419 105.597 145.106 106.995C144.762 107.358 144.358 107.665 143.976 107.996C143.9 107.952 143.823 107.912 143.742 107.875C144.11 105.428 144.476 102.978 144.839 100.525C144.962 100.544 145.046 100.533 145.085 100.568C145.368 100.873 145.631 101.247 146.129 101.092C146.651 100.928 146.903 100.486 146.944 100.001C147.036 98.8836 147.505 97.9212 148.061 96.9709C149.231 94.9576 149.352 92.7941 148.91 90.5711C148.818 90.096 148.87 89.736 149.194 89.3445C149.802 88.6027 150.34 87.8039 150.915 87.0331C151.134 86.7422 151.333 86.45 151.081 86.0791C150.843 85.7313 150.479 85.6961 150.13 85.7798C149.822 85.8645 149.528 85.991 149.256 86.1555C148.999 86.3165 148.752 86.4938 148.518 86.6864C149.02 84.878 149.883 83.4962 151.138 82.3423C151.373 82.1266 151.648 81.9387 151.842 81.6878C151.955 81.5399 152.033 81.2442 151.965 81.1011C151.901 81.0163 151.817 80.9485 151.72 80.9039C151.623 80.8592 151.516 80.8391 151.409 80.8454C151.012 80.9448 150.567 81.0684 150.285 81.3302C149.604 81.9569 148.996 82.6635 148.377 83.358C148.175 83.5859 148.025 83.8647 147.713 84.0683C147.863 83.3665 148.013 82.6599 148.167 81.9569C148.264 81.5217 148.421 81.0939 148.467 80.6515C148.617 79.0418 149.786 78.2358 151.021 77.517C151.859 77.0322 152.228 77.1534 152.677 77.98C152.918 78.4623 153.086 78.9768 153.176 79.5073V79.5073Z" fill="#F3D7C7"/>
<path d="M115.38 17.485C116.008 20.7952 115.356 23.9769 113.376 26.7962C110.275 31.2154 105.975 33.7184 100.581 34.4093C100.453 34.427 100.323 34.4351 100.193 34.4335C99.6755 34.4335 99.1567 34.4335 98.6429 34.4335C93.9659 34.4335 89.8849 32.9281 86.5858 29.6179C84.3732 27.395 83.2375 24.6763 83.0101 21.554C82.6708 16.9626 84.608 13.3215 87.9908 10.4307C92.9825 6.15932 98.8728 4.74967 105.199 6.52294C110.695 8.06713 114.307 11.804 115.38 17.485Z" fill="#EA533C"/>
<path d="M148.492 52.8416C148.489 52.9756 148.477 53.1093 148.455 53.2416C148.209 53.1204 148.066 53.0573 147.932 52.9822C142.032 49.5605 135.649 47.3363 129.078 45.5885C123.835 44.1995 118.499 43.1804 113.109 42.5389C108.486 41.9838 103.842 41.6638 99.1826 41.4965C94.4895 41.3292 89.7977 41.2892 85.1096 41.5644C81.7907 41.7607 78.4719 42.1038 75.1617 42.4553C68.8781 43.1219 62.7604 44.5703 56.7398 46.4551C56.4972 46.5198 56.251 46.5704 56.0023 46.6066C56.0957 45.1218 56.1486 43.6976 56.2777 42.2674C56.5616 39.2166 56.8369 36.167 57.1971 33.1247C57.6298 29.4678 58.3992 25.9031 60.1816 22.5929C61.562 20.0378 63.5618 18.0937 65.9059 16.4525C68.2851 14.7921 70.7977 13.3259 73.4187 12.0684C76.2323 10.7024 79.0632 9.36547 81.8768 8.0043C86.0634 5.98013 90.427 4.39473 94.8079 2.84205C95.0537 2.75357 95.318 2.71357 95.5454 2.59964C97.6018 1.57422 99.748 1.76088 101.898 2.1645C106.913 3.10963 111.837 4.47743 116.615 6.25285C122.515 8.43459 128.397 10.6769 134.081 13.375C136.239 14.4017 138.304 15.5907 140.126 17.1604C141.969 18.753 143.255 20.7008 144.085 22.9723C145.068 25.6595 145.603 28.4388 145.98 31.2605C146.385 34.2992 146.841 37.3209 147.248 40.3632C147.493 42.2638 147.705 44.1679 147.895 46.0721C148.115 48.3266 148.297 50.5859 148.492 52.8416ZM116.761 25.1237C119.357 18.7955 117.442 11.8163 111.867 7.76795C107.669 4.71472 102.907 3.45658 97.7051 3.95595C92.6396 4.44079 88.3313 6.51102 84.9031 10.2357C82.2222 13.1544 80.7853 16.6598 80.5505 20.5554C80.3231 24.3844 81.6752 27.7697 84.1864 30.6763C87.8543 34.9185 92.6679 36.653 98.1906 36.7767C100.2 36.7914 102.2 36.5116 104.126 35.9464C109.992 34.2301 114.413 30.852 116.761 25.1237Z" fill="#CD202D"/>
<path d="M156.912 62.8228C157.237 63.4531 157.196 64.024 156.799 64.6591C152.613 59.1817 146.758 56.1636 140.64 53.5249C135.045 51.1129 129.199 49.536 123.215 48.4342C119.915 47.8281 116.603 47.2645 113.28 46.7809C111.109 46.4658 108.915 46.2815 106.721 46.1264C103.109 45.8706 99.4931 45.6416 95.8744 45.4876C91.437 45.2997 87.0119 45.5191 82.5905 45.9022C80.9471 46.0464 79.2987 46.1446 77.659 46.3143C72.1203 46.8694 66.6504 47.7869 61.2825 49.2681C57.3257 50.359 53.428 51.5917 49.6617 53.2207C45.4751 55.0327 41.5884 57.269 38.4109 60.5744C38.3514 60.6224 38.2862 60.6631 38.2167 60.6956C38.1147 60.6035 38.0508 60.5744 38.0225 60.5162C37.2125 59.0508 37.2407 58.8593 38.4761 57.7648C40.7267 55.7648 43.2933 54.2364 45.941 52.8025C52.3905 49.3093 59.3268 47.2488 66.5164 45.9518C69.918 45.341 73.3298 44.7887 76.7519 44.2949C78.9644 43.9834 81.1856 43.7919 83.4079 43.6368C86.4121 43.4283 89.4162 43.2525 92.424 43.1519C94.5223 43.0841 96.6316 43.1725 98.7323 43.2041C103.073 43.2683 107.385 43.655 111.693 44.1737C118.632 45.004 125.482 46.2621 132.191 48.2257C137.936 49.9105 143.531 51.9832 148.662 55.0934C150.367 56.1273 151.981 57.3212 153.549 58.5466C155.01 59.6811 156.074 61.1744 156.912 62.8228Z" fill="#731530"/>
<path d="M153.119 62.5834C154.18 63.5021 155.127 64.5482 156.24 65.6499C155.748 65.8923 155.426 66.1008 155.078 66.2245C153.985 66.616 152.888 66.9953 151.783 67.3384C151.665 67.3712 151.542 67.38 151.421 67.3642C151.3 67.3483 151.183 67.3082 151.078 67.2462C145.891 63.3421 140.066 60.6271 134.098 58.1168C129.102 56.0127 123.911 54.6588 118.611 53.6091C112.505 52.397 106.326 51.8443 100.108 51.791C96.2568 51.7523 92.4076 51.9645 88.5852 52.4261C81.9475 53.22 75.4795 54.6927 69.2205 57.0163C62.9614 59.3398 57.2973 62.6937 52.0942 66.822C51.7819 67.0644 51.5275 67.2608 51.0653 67.1372C47.1626 66.1069 43.5476 64.4306 40.053 62.4743C39.8072 62.3349 39.5798 62.1507 39.2196 61.9034C40.2558 61.0695 41.1863 60.2344 42.2029 59.512C47.1258 55.9969 52.6166 53.6309 58.4024 51.8759C62.2682 50.7026 66.22 49.8832 70.2026 49.2214C73.7673 48.6226 77.3565 48.1511 80.9482 47.7281C82.9997 47.4857 85.0734 47.3887 87.1421 47.3087C92.446 47.1051 97.7574 47.0057 103.061 47.3087C111.532 47.7936 119.909 48.9014 128.111 51.1086C132.942 52.4067 137.723 53.8794 142.298 55.9194C146.203 57.6575 149.88 59.7895 153.119 62.5834Z" fill="#40152A"/>
<path d="M146.631 73.8976C145.345 72.0334 144.06 70.1704 142.777 68.3087C142.863 68.2566 142.948 68.2008 143.032 68.1487C144.51 69.8856 145.774 71.7631 146.631 73.8976Z" fill="black"/>
<path d="M143.931 71.7629C144.482 72.2781 145.721 74.4416 145.887 75.1883C145.202 74.5047 144.009 72.4078 143.931 71.7629Z" fill="black"/>
<path d="M146.971 72.2323C146.526 71.5051 146.206 70.9548 145.865 70.4239C145.525 69.893 145.157 69.3585 144.785 68.8349C144.4 68.2846 143.978 67.761 143.606 67.2022C143.274 66.6992 142.72 66.304 142.691 65.561C143.798 66.3477 146.761 70.8833 146.971 72.2323Z" fill="black"/>
<path d="M135.471 109.538C135.532 109.55 135.594 109.565 135.653 109.578C135.637 109.761 135.661 109.961 135.592 110.121C134.925 111.705 134.334 113.33 133.54 114.848C132.39 117.055 131.095 119.187 129.852 121.347C129.703 121.615 129.508 121.858 129.338 122.109C131.394 117.922 133.916 113.965 135.471 109.538Z" fill="black"/>
<path d="M136.049 80.3498C136.061 80.5678 136.061 80.7863 136.049 81.0043C135.985 81.0164 135.926 81.0285 135.86 81.0358C135.705 80.0734 135.539 79.1122 135.394 78.1413C135.013 75.596 134.605 73.0348 134.743 70.4483C134.815 69.0592 135.098 67.6775 135.301 66.2969C135.321 66.1563 135.423 66.029 135.657 65.9211C135.653 66.1763 135.633 66.4309 135.597 66.6835C134.969 69.5925 135.069 72.5088 135.401 75.4311C135.596 77.0759 135.839 78.7086 136.049 80.3498Z" fill="black"/>
<path d="M131.682 82.7936C129.751 81.2009 127.856 79.5634 125.876 78.035C124.634 77.064 123.315 76.1922 121.933 75.4278C119.13 73.8982 116.163 73.1321 113.099 72.8606C111.697 72.7363 110.289 72.7043 108.884 72.7649C108.669 72.7649 108.455 72.777 108.24 72.7891C107.544 72.8243 106.843 73.0436 106.171 73.2558C105.896 73.3394 105.523 73.6024 105.483 73.8351C105.314 74.7103 105.238 75.6002 105.254 76.4908C105.282 77.218 105.549 77.389 106.334 77.4338C107.367 77.4932 108.403 77.5174 109.436 77.5053C110.606 77.4896 111.771 77.5053 112.934 77.5817C114.662 77.6742 116.378 77.9307 118.056 78.3477C118.533 78.4689 119.007 78.6071 119.481 78.7622C121.65 79.4774 123.768 80.3513 125.918 81.1306C127.785 81.8009 129.671 82.4397 131.545 83.0906C131.592 82.9888 131.636 82.893 131.682 82.7936ZM127.454 82.7451C123.767 81.384 120.025 80.1828 116.163 79.3598C113.928 78.8847 111.677 78.801 109.41 78.9174C108.114 78.9174 106.819 78.961 105.531 78.9053C104.373 78.8531 103.733 78.3344 103.462 77.2326C103.317 76.6569 103.32 76.0338 103.345 75.4399C103.365 74.9321 103.559 74.4375 103.6 73.9309C103.702 72.7043 104.45 72.0497 105.548 71.691C106.879 71.251 108.264 71.0849 109.653 71.0752C114.37 71.0364 118.807 72.1212 122.929 74.406C125.278 75.7025 127.437 77.3088 129.346 79.1804C130.355 80.1695 131.444 81.0797 132.46 82.0664C132.844 82.4373 133.141 82.9051 133.432 83.356C133.654 83.699 133.508 84.0105 133.116 84.0833C132.682 84.1548 132.2 84.2311 131.796 84.1148C130.33 83.7039 128.875 83.2785 127.453 82.7488L127.454 82.7451Z" fill="black"/>
<path d="M122.84 78.3007C122.187 78.1795 120.66 76.7796 120.215 75.8936C120.782 75.9893 121.814 76.9396 122.84 78.3007Z" fill="black"/>
<path d="M117.502 74.8201C118.159 75.0237 120.061 76.8564 120.637 77.9254C119.324 76.9436 117.792 75.3994 117.502 74.8201Z" fill="black"/>
<path d="M126.897 85.6514C125.708 84.569 124.481 83.5388 122.995 82.8527C121.211 82.0191 119.287 81.517 117.318 81.3716C116.258 81.2952 115.188 81.3631 114.123 81.3158C113.466 81.2831 112.815 81.1558 111.936 81.0407C112.268 80.7849 112.384 80.6492 112.534 80.5849C114.333 79.7946 116.195 79.9546 118.057 80.2698C121.253 80.8128 124.021 82.2903 126.604 84.1484C127.063 84.5007 127.483 84.8992 127.859 85.3375C128.09 85.5896 128.305 85.9084 128.009 86.2999C127.513 86.3084 127.222 85.9447 126.897 85.6514Z" fill="black"/>
<path d="M117.142 118.376C117.826 119.722 118.543 121.076 118.534 122.619C117.684 119.71 116.097 117.225 114.404 114.682C115.264 114.991 115.758 115.641 117.142 118.376Z" fill="black"/>
<path d="M118.207 77.7774C116.486 76.4768 114.766 75.1471 113.037 73.5581C114.01 73.786 117.196 76.3689 118.207 77.7774Z" fill="black"/>
<path d="M111.865 7.76532C117.441 11.8137 119.356 18.7953 116.76 25.1211C114.412 30.8494 109.99 34.2275 104.125 35.9438C102.199 36.509 100.198 36.7888 98.189 36.774C92.6663 36.6528 87.8527 34.9159 84.1848 30.6736C81.6736 27.7647 80.3215 24.3817 80.5489 20.5528C80.7837 16.6523 82.2206 13.1518 84.9014 10.2331C88.3297 6.50839 92.638 4.43574 97.7035 3.95333C102.905 3.45637 107.667 4.71451 111.865 7.76532ZM113.376 26.795C115.356 23.9757 116.007 20.794 115.379 17.4838C114.306 11.8028 110.695 8.06592 105.197 6.52173C98.8724 4.74845 92.9821 6.1581 87.9879 10.4295C84.6064 13.3203 82.668 16.9614 83.0073 21.5527C83.2347 24.6751 84.368 27.3938 86.583 29.6167C89.8883 32.9281 93.9655 34.4311 98.6426 34.4311C99.1564 34.4311 99.6751 34.4311 100.193 34.4311C100.322 34.4327 100.452 34.4246 100.581 34.4069C105.975 33.7184 110.274 31.2154 113.376 26.795Z" fill="black"/>
<path d="M121.248 86.2938C121.499 86.4336 121.75 86.5746 122.001 86.7168C121.924 86.2222 121.617 86.2065 121.248 86.2938ZM117.539 90.2221C115.098 89.3397 114.05 87.5677 114.017 85.0683C113.227 85.112 112.58 85.472 111.944 85.8235C111.127 86.2744 110.346 86.7931 109.547 87.278C109.218 87.4795 108.873 87.6534 108.515 87.7979C108.086 87.9652 107.676 87.838 107.353 87.5301C107.03 87.2222 106.907 86.7834 107.107 86.3883C107.316 85.962 107.6 85.5755 107.946 85.2465C109.399 83.8975 111.176 83.123 113.1 82.7351C117.922 81.7654 122.229 82.9266 126.129 85.8295C127.235 86.6477 128.49 87.2586 129.676 87.9689C129.952 88.1325 130.255 88.2682 130.482 88.4876C130.798 88.7955 130.648 89.1906 130.199 89.227C129.878 89.262 129.553 89.2204 129.251 89.1058C128.404 88.7264 127.559 88.3191 126.753 87.8598C125.668 87.238 124.62 86.5544 123.397 85.7992C123.125 87.8986 122.012 89.1203 120.299 89.9106C121.781 89.8027 123.113 89.1409 124.522 88.8088C121.955 90.8015 116.522 91.256 114.234 89.5433C115.336 89.7712 116.438 89.9975 117.539 90.2221V90.2221ZM115.005 86.661C115.426 87.2283 115.734 87.1725 116.766 86.3422C115.993 86.0829 115.543 86.4816 115.005 86.661ZM116.75 87.1519C116.527 87.2925 116.166 87.5155 115.787 87.747C117.495 89.4997 120.807 89.0331 121.539 87.2477C121.248 87.1265 120.957 87.0162 120.588 86.8731C120.081 87.4634 119.474 87.8307 118.782 87.7592C118.138 87.6949 117.519 87.3919 116.75 87.1568V87.1519ZM119.078 84.7011C119.201 85.5495 119.292 85.5992 120.078 85.2599C119.952 84.6974 119.568 84.6296 119.078 84.7011V84.7011Z" fill="black"/>
<path d="M110.895 73.5662C112.461 74.4364 113.774 75.6267 115.074 76.8279C114.104 76.5042 111.154 74.2122 110.895 73.5662Z" fill="black"/>
<path d="M113.092 76.9752C113.051 77.0309 113.007 77.0867 112.969 77.1424C111.552 76.0451 110.137 74.9461 108.722 73.8456L108.924 73.6213C110.374 74.6636 111.765 75.7832 113.092 76.9752V76.9752Z" fill="black"/>
<path d="M100.6 139.964C100.652 139.156 100.705 138.363 100.766 137.365C101.349 138.338 101.231 139.337 100.6 139.964Z" fill="black"/>
<path d="M101.229 87.3993C101.063 89.5228 100.91 91.6416 100.728 93.7663C100.667 94.3675 100.573 94.9648 100.444 95.5554C100.408 95.7505 100.254 95.9263 100.096 96.2184C98.9342 94.6572 99.5537 87.855 100.956 86.2454C101.066 86.3848 101.228 86.5011 101.248 86.6405C101.27 86.8933 101.264 87.1478 101.229 87.3993Z" fill="black"/>
<path d="M99.9263 138.266C100.049 139.156 99.914 139.998 99.2539 140.69C99.3953 139.869 99.5379 139.042 99.6792 138.215C99.764 138.235 99.8451 138.25 99.9263 138.266Z" fill="black"/>
<path d="M98.088 141.017C98.324 140.094 98.3154 139.233 98.7407 138.462C98.8849 138.905 98.9002 139.38 98.7848 139.831C98.6695 140.283 98.4281 140.694 98.088 141.017Z" fill="black"/>
<path d="M95.7397 138.307C95.8368 138.778 95.9339 139.25 96.0642 139.892C95.3992 139.368 95.3636 138.886 95.4889 138.362C95.5701 138.347 95.6549 138.331 95.7397 138.307Z" fill="black"/>
<path d="M94.9758 137.479C94.9267 138.167 94.8775 138.853 94.8259 139.599C94.3846 138.936 94.392 138.064 94.9758 137.479Z" fill="black"/>
<path d="M93.6997 137.041C94.1213 137.579 94.093 138.433 93.7366 139.559C93.6591 139.559 93.5829 139.559 93.5055 139.552C93.5768 138.76 93.6309 137.974 93.6997 137.041Z" fill="black"/>
<path d="M92.821 95.0884C92.7276 93.5042 92.6108 91.9188 92.5456 90.3298C92.4768 88.5298 92.0159 86.8014 91.3927 85.136C91.1124 84.3978 90.4523 83.7942 89.9299 83.1518C89.6718 82.8318 89.3276 82.5809 89.0437 82.2779C88.8126 82.0258 88.643 81.6719 88.9306 81.4295C89.1248 81.2658 89.5218 81.2428 89.8009 81.2985C90.1008 81.3579 90.3798 81.5652 90.6429 81.7458C92.7325 83.1748 93.7367 85.1942 93.8744 87.6535C93.9543 89.0874 93.9027 90.5128 93.5782 91.9261C93.3754 92.8242 93.2746 93.7442 93.1172 94.6484C93.0766 94.8187 93.0194 94.9847 92.9464 95.1441C92.9058 95.1247 92.8652 95.109 92.821 95.0884Z" fill="black"/>
<path d="M90.2897 135.265C89.1552 134.518 87.6937 134.151 87.0139 132.897C87.095 132.786 87.1762 132.678 87.2598 132.57C87.5302 132.706 87.8141 132.825 88.0686 132.985C91.2067 134.989 94.6718 135.839 98.3729 135.764C101.289 135.702 104.151 134.972 106.731 133.632C107.592 133.188 107.773 133.2 108.634 133.456C108.511 134.314 107.881 134.734 107.181 135.049C106.509 135.348 105.808 135.58 105.25 135.795C105.399 136.777 105.598 137.703 105.662 138.643C105.711 139.309 105.565 139.381 104.832 139.513C104.719 139.94 104.638 140.378 104.488 140.794C104.2 141.584 104.019 141.652 103.164 141.321C103.041 141.564 102.91 141.806 102.78 142.056C102.241 143.081 101.934 143.147 101.002 142.355C100.772 142.73 100.557 143.109 100.306 143.464C99.8037 144.167 99.5332 144.259 98.658 144.052C98.4847 144.259 98.3065 144.479 98.116 144.695C97.95 144.882 97.7718 145.058 97.5161 145.33C97.4153 144.399 96.7872 143.976 96.2009 143.528C95.3306 143.848 95.1966 143.816 94.6951 143.069C94.3792 142.594 94.0916 142.099 93.8003 141.628C93.4315 141.732 93.0505 141.972 92.8169 141.87C92.5047 141.738 92.2663 141.367 92.0634 141.056C91.8729 140.767 91.7721 140.424 91.5976 140.026L90.951 140.4C90.2295 139.818 90.5417 138.936 90.1815 138.184L89.4367 138.532C89.3961 137.292 89.921 136.311 90.2897 135.265ZM91.1071 139.727C91.7832 139.476 91.8643 139.501 92.131 140.072C92.3658 140.575 92.5969 141.085 92.8354 141.609C93.9084 140.918 94.0387 140.958 94.5968 142.007C94.8426 142.479 95.1229 142.942 95.3823 143.393C96.2648 143.062 96.3656 143.078 96.9655 143.668C97.2113 143.91 97.4387 144.188 97.6821 144.455C98.2131 144.08 98.3508 142.926 99.4398 143.727C99.7434 143.261 100.031 142.845 100.3 142.418C100.855 141.532 100.955 141.52 101.668 142.297C101.705 142.333 101.781 142.341 101.914 142.389C102.283 141.718 102.652 141.035 103.052 140.289C103.347 140.531 103.544 140.704 103.822 140.939C103.945 140.377 104.032 139.909 104.145 139.45C104.207 139.207 104.255 138.915 104.417 138.767C104.579 138.62 104.87 138.668 105.146 138.624C105.084 138.212 105.052 137.833 104.967 137.462C104.854 136.977 104.701 136.492 104.523 135.849C99.8946 136.907 95.3675 137.199 90.8293 135.502C90.522 136.245 90.2467 136.903 89.9689 137.578C91.2645 137.915 90.5724 139.109 91.1071 139.727Z" fill="black"/>
<path d="M64.3665 80.7331C66.4401 76.8084 69.3951 73.8861 73.8411 72.6643C76.1569 72.0304 78.5219 71.7152 80.9139 71.5952C81.8861 71.5431 82.8535 71.474 83.8209 71.4231C83.8295 71.3916 83.8332 71.3552 83.8418 71.3237C85.1165 71.4825 86.412 71.5661 87.672 71.8219C89.147 72.114 89.8218 73.1916 89.603 74.6606C89.5575 74.9442 89.4887 75.2242 89.4162 75.509C88.9429 77.3854 87.7641 78.372 85.7851 78.4993C84.4933 78.5841 83.2038 78.635 81.9058 78.6629C76.3548 78.7841 70.9943 79.7816 65.9054 82.0446C65.6426 82.1644 65.3739 82.2712 65.1003 82.3646C64.3911 82.607 63.9658 82.2761 64.0752 81.5501C64.1273 81.2641 64.2256 80.9883 64.3665 80.7331V80.7331ZM65.5957 80.6495C67.5993 79.9065 69.5598 79.195 71.4958 78.4532C74.2701 77.3841 77.1501 76.9805 80.1124 76.9563C81.9218 76.9405 83.7275 76.8569 85.5369 76.8011C86.5534 76.7684 87.2417 76.2933 87.5453 75.32C87.6581 74.9889 87.7501 74.6513 87.8207 74.3091C87.9264 73.7152 87.7838 73.4837 87.1766 73.3479C86.6421 73.2278 86.0971 73.1596 85.5491 73.1443C82.5081 73.0606 79.4929 73.3273 76.4716 73.6752C71.6667 74.2291 68.1118 76.5975 65.6018 80.6531L65.5957 80.6495Z" fill="black"/>
<path d="M87.8678 108.116C87.0454 109.229 86.2477 110.343 86.0129 111.752C85.8753 112.576 85.9829 113.421 86.3227 114.186C86.7185 115.1 87.5936 115.232 88.5168 115.291C88.1001 114.901 87.6821 114.509 87.2335 114.079C87.8075 113.795 88.2009 114.023 88.5327 114.243C89.4285 114.807 90.2934 115.417 91.1239 116.072C91.9499 116.742 92.7317 117.457 93.7359 117.868C94.8287 118.312 95.9546 118.611 97.1322 118.411C97.6692 118.324 98.1813 118.125 98.6342 117.828C99.4372 117.291 100.198 116.694 100.909 116.044C102.113 114.918 103.627 114.167 105.262 113.887C105.631 113.824 105.931 113.807 106.097 114.13C106.263 114.452 106.108 114.746 105.772 114.921C105.638 114.993 105.509 115.08 105.303 115.205C105.829 115.447 106.242 115.42 106.635 115.12C107.65 114.338 108.242 113.317 108.031 112.046C107.878 111.12 107.497 110.228 107.165 109.328C107.082 109.103 106.955 108.897 106.791 108.721C106.627 108.545 106.429 108.403 106.21 108.302C105.728 108.069 105.603 107.667 105.784 107.375C105.979 107.056 106.489 106.964 106.918 107.176C107.035 107.23 107.141 107.303 107.234 107.392C109.032 109.235 110.137 111.543 109.25 114.18C108.748 115.68 107.744 116.675 106.079 116.91C105.219 117.032 104.918 116.99 103.719 116.364C102.546 117.142 101.359 117.969 100.133 118.727C99.4283 119.166 98.6957 119.661 97.9102 119.841C95.8612 120.304 93.9141 119.876 92.2129 118.667C91.3021 118.021 90.529 117.19 89.6587 116.411C88.9212 116.982 88.0607 116.935 87.1892 116.775C86.8203 116.716 86.4698 116.576 86.1645 116.363C85.8592 116.151 85.6072 115.872 85.4278 115.549C84.1888 113.421 84.6301 109.026 87.0712 107.349C87.4806 107.066 87.8604 106.634 88.5045 107.181C88.2894 107.519 88.0866 107.82 87.8678 108.116Z" fill="black"/>
<path d="M82.6913 112.732C82.5942 113.071 82.5684 113.266 82.4848 113.435C81.1327 116.11 79.7314 118.768 78.9054 121.662C78.8857 121.739 78.7825 121.783 78.6952 121.859C78.6473 120.368 81.408 113.944 82.6913 112.732Z" fill="black"/>
<path d="M82.0787 74.8396C82.123 74.9232 82.1722 75.0081 82.2201 75.0917L78.5239 76.5886C79.597 75.7547 80.868 75.3669 82.0787 74.8396Z" fill="black"/>
<path d="M84.3283 128.517C85.9263 129.009 87.5832 129.253 89.2451 129.464C93.1932 129.959 97.1439 130.297 101.133 130.21C104.642 130.13 108.071 129.604 111.4 128.494C112.59 128.094 113.748 127.611 114.78 126.797C114.732 126.609 114.692 126.433 114.639 126.25C114.509 125.843 114.561 125.42 114.93 125.232C115.238 125.077 115.696 125.001 116.016 125.111C117.198 125.51 117.859 127.622 117.158 128.636C116.849 129.083 116.432 129.159 116.007 128.815C115.813 128.636 115.63 128.446 115.458 128.247C113.631 128.821 111.825 129.408 110.007 129.951C108.749 130.327 107.473 130.678 106.189 130.981C104.781 131.308 103.362 131.632 101.93 131.83C97.4684 132.456 93.031 132.423 88.7116 130.963C87.3103 130.488 85.9545 129.889 84.5692 129.358C83.6707 129.014 82.7636 128.704 81.8331 128.364C81.7101 128.619 81.6302 128.822 81.5122 129.007C81.1435 129.581 80.5166 129.649 80.047 129.179C78.9408 128.065 79.5246 125.921 81.039 125.513C81.6425 125.353 81.9904 125.529 82.0752 126.144C82.144 126.639 82.0912 127.146 82.0912 127.745C82.8176 128.004 83.5675 128.282 84.3283 128.517Z" fill="black"/>
<path d="M79.0884 90.1106C81.2542 90.3057 83.2861 89.9554 85.3573 89.0961C83.0009 91.3517 75.6368 90.8209 72.8306 88.7009C74.8858 89.2888 76.9262 89.9154 79.0884 90.1106Z" fill="black"/>
<path d="M80.1246 74.8674C78.6709 75.5058 77.2159 76.1462 75.7598 76.7886C76.6706 75.9292 79.2544 74.7935 80.1246 74.8674Z" fill="black"/>
<path d="M82.9616 86.7619C82.5277 86.5582 82.2167 86.4297 81.8971 86.8734C82.1147 87.0406 82.3298 87.2006 82.5805 87.3921C82.7182 87.157 82.8153 87.0043 82.9616 86.7619ZM77.075 87.0685C77.3786 86.9085 77.6896 86.7449 77.9895 86.5837L77.8801 86.3679C77.52 86.4419 77.1672 86.534 77.075 87.0685ZM77.4991 87.7558C78.9938 89.2103 81.1067 89.2103 82.1835 87.7036C81.6918 87.6321 81.253 87.4515 80.8646 87.5315C79.9734 87.7109 79.2076 87.5315 78.3829 87.0006L77.4991 87.7558ZM77.3049 88.9097C76.2121 87.9788 75.8114 86.7376 75.6737 85.3558C74.2687 85.6516 73.2645 86.3897 72.334 87.2406C71.7661 87.7594 71.2449 88.3315 70.682 88.8612C70.4755 89.0527 70.2247 89.2963 69.9727 89.3121C69.6643 89.3164 69.3653 89.2071 69.1344 89.0054C68.8431 88.746 68.8886 88.3545 69.0705 88.0273C69.9162 86.5413 70.9204 85.2165 72.4188 84.2541C74.3573 83.0044 76.4874 82.4359 78.7467 82.4093C80.427 82.3799 82.1067 82.495 83.7667 82.7535C86.1563 83.1438 87.9165 84.5813 89.2981 86.4976C89.369 86.6038 89.4323 86.7148 89.4874 86.8297C89.7332 87.3521 89.6779 87.7909 89.33 88.0503C88.9207 88.3545 88.5249 88.2345 88.1721 87.9545C87.6411 87.54 87.1433 87.0806 86.6172 86.6613C85.9411 86.1267 85.2528 85.6116 84.4354 84.9849C84.2535 87.9545 83.2652 89.3169 81.1879 89.7993C79.7227 90.1387 78.4566 89.883 77.3049 88.9097V88.9097ZM81.2383 85.7073C81.4202 84.6698 81.3845 84.6092 80.5094 84.7607C80.6925 85.1243 80.8584 85.4552 81.0281 85.7873C81.103 85.7631 81.1756 85.7352 81.2444 85.7025L81.2383 85.7073Z" fill="black"/>
<path d="M77.3296 75.1072C75.9652 75.8975 74.516 76.5083 72.9291 77.2065C73.54 76.6114 76.4679 75.2151 77.3296 75.1072Z" fill="black"/>
<path d="M70.9825 76.4443C71.0403 76.5171 71.092 76.5849 71.1485 76.6528C70.3643 77.2516 69.5805 77.8503 68.797 78.4491C68.7405 78.3812 68.6876 78.3134 68.6311 78.2455C69.4166 77.6467 70.1971 77.0431 70.9825 76.4443Z" fill="black"/>
<path d="M75.0738 75.2224C73.5607 76.2006 72.1557 77.1036 70.7507 78.0102C72.2479 76.4127 74.1544 75.2152 75.0738 75.2224Z" fill="black"/>
<path d="M72.5939 83.1837C71.3479 83.7368 70.2777 84.6133 69.4976 85.7194C69.1939 86.1388 68.9346 86.6333 68.4159 86.8685C68.0717 86.5218 68.2376 86.2103 68.3999 85.9545C69.323 84.4819 70.3518 83.1037 72.0199 82.3413C74.2539 81.3326 76.64 80.6906 79.084 80.4408C80.3353 80.3014 81.5953 80.2699 82.854 80.242C83.6148 80.2262 83.9221 80.3899 84.4126 80.848C84.077 81.2504 83.6025 81.1789 83.1772 81.1874C80.5925 81.2413 78.0208 81.5664 75.5058 82.1571C74.5052 82.4102 73.5304 82.7538 72.5939 83.1837V83.1837Z" fill="black"/>
<path d="M61.7996 69.0659C61.9225 69.6611 61.4517 70.0441 61.2772 70.5313C61.0953 71.0622 60.8605 71.5737 60.6454 72.0925C60.6982 70.9507 61.126 69.9604 61.7996 69.0659Z" fill="black"/>
<path d="M61.7203 66.9467C61.7769 66.8473 61.96 66.8255 62.0891 66.7637L62.2022 66.8752C61.5679 68.0606 60.9377 69.2456 60.3117 70.4302C60.2514 70.4023 60.1888 70.3745 60.1298 70.3502C60.5407 69.1651 61.0737 68.0247 61.7203 66.9467V66.9467Z" fill="black"/>
<path d="M61.2481 66.6731C60.8953 67.2791 60.5389 67.8851 60.1873 68.4912C60.1713 68.5154 60.1308 68.5433 60.1062 68.5348C60.0562 68.5207 60.0086 68.4995 59.9648 68.4718C60.8351 66.3991 61.859 64.6865 62.4626 64.2998C62.4908 64.3471 62.5597 64.421 62.5474 64.4428C62.1155 65.1903 61.6824 65.9337 61.2481 66.6731Z" fill="black"/>
<path d="M58.8166 83.2355V83.2792L58.7913 83.2555C58.7913 83.2555 58.7913 83.243 58.7913 83.238C58.7913 83.233 58.8039 83.2355 58.8166 83.2355Z" fill="black"/>
<path d="M156.24 65.6496C155.134 64.5478 154.18 63.5018 153.119 62.5831C149.881 59.7953 146.204 57.6572 142.303 55.9166C137.727 53.8767 132.946 52.4016 128.115 51.1059C119.913 48.8987 111.536 47.7884 103.066 47.306C97.7616 47.0066 92.4502 47.106 87.1463 47.306C85.0776 47.386 83.0039 47.4781 80.9524 47.7254C77.3607 48.1484 73.769 48.6199 70.2068 49.2187C66.2267 49.8805 62.2748 50.6998 58.4066 51.8731C52.6208 53.6294 47.13 55.9942 42.2071 59.5092C41.1905 60.2365 40.26 61.0667 39.2238 61.9007C39.584 62.1431 39.8064 62.3322 40.0572 62.4715C43.5518 64.4278 47.1668 66.1078 51.0695 67.1344C51.5317 67.2556 51.7861 67.0665 52.0984 66.8193C57.3003 62.6909 62.9644 59.3371 69.2247 57.0135C75.4849 54.69 81.9468 53.2185 88.5869 52.4234C92.4093 51.9617 96.2585 51.7496 100.109 51.7883C106.328 51.844 112.507 52.3943 118.612 53.6064C123.911 54.656 129.102 56.0099 134.1 58.1141C140.068 60.6243 145.893 63.3394 151.08 67.2435C151.185 67.3055 151.302 67.3456 151.423 67.3614C151.544 67.3773 151.667 67.3685 151.785 67.3356C152.891 66.9926 153.987 66.6084 155.08 66.2217C155.427 66.1005 155.747 65.8969 156.24 65.6496ZM156.8 64.6594C157.197 64.0242 157.237 63.4533 156.913 62.823C156.074 61.1746 155.01 59.6813 153.548 58.5432C151.978 57.3178 150.366 56.119 148.661 55.09C143.532 51.9761 137.936 49.9071 132.19 48.2223C125.481 46.2588 118.631 45.0006 111.692 44.1703C107.384 43.6552 103.072 43.2686 98.7314 43.2007C96.6307 43.1692 94.5214 43.0795 92.4232 43.1486C89.4154 43.2443 86.4112 43.4201 83.4071 43.6334C81.1847 43.7885 78.9574 43.98 76.751 44.2915C73.3306 44.7764 69.9188 45.3287 66.5155 45.9485C59.326 47.2454 52.3897 49.3059 45.9401 52.7991C43.2937 54.2318 40.7222 55.7639 38.4765 57.7602C37.2411 58.8511 37.2129 59.0462 38.0229 60.5116C38.0512 60.5637 38.1151 60.5989 38.2171 60.691C38.2866 60.6585 38.3518 60.6178 38.4113 60.5698C41.5888 57.2644 45.4755 55.0282 49.6621 53.2161C53.4283 51.5871 57.3261 50.3532 61.2829 49.2635C66.6507 47.7823 72.1206 46.8648 77.6594 46.3097C79.2991 46.1412 80.9475 46.0418 82.5909 45.8976C87.016 45.5145 91.4411 45.2915 95.8748 45.483C99.4935 45.6345 103.11 45.866 106.721 46.1218C108.915 46.2769 111.109 46.4612 113.28 46.7763C116.599 47.2611 119.918 47.8187 123.216 48.4296C129.199 49.535 135.045 51.1119 140.641 53.5203C146.758 56.1639 152.613 59.182 156.8 64.6594ZM64.8819 65.086C64.6472 65.4933 64.6509 65.8654 64.9631 66.3163C65.2089 66.6714 65.2667 67.2071 65.2741 67.6617C65.2863 68.0968 65.1511 68.5441 65.0282 68.9756C64.5906 70.6398 64.1125 72.2967 63.7031 73.9693C63.327 75.4905 62.9755 77.0153 63.0443 78.6007C63.2016 82.1703 63.3196 85.7435 63.5212 89.3119C63.8408 95.1129 64.1776 100.91 64.582 106.703C64.8947 111.489 65.9841 116.195 67.8086 120.642C70.8091 127.901 74.4893 134.807 78.6317 141.489C81.1134 145.498 83.7328 149.407 86.7443 153.052C89.2138 156.038 92.2302 158.246 95.8735 159.639C98.3147 160.574 100.752 160.809 103.262 159.963C106.792 158.769 110.023 157.054 112.801 154.585C118.717 149.323 124.469 143.898 129.498 137.773C132.239 134.435 134.737 130.966 136.332 126.926C137.265 124.58 138.018 122.169 138.588 119.712C140.021 113.46 141.373 107.188 142.482 100.871C142.762 99.2703 143.135 97.7019 143.041 96.045C142.859 92.9226 142.778 89.7931 142.697 86.6671C142.668 85.3904 142.451 84.1247 142.053 82.9096C141.561 81.4091 141.365 79.8794 141.296 78.3037C141.123 74.1633 140.143 70.2313 137.912 66.6617C137.284 65.6557 136.652 64.6545 136.053 63.6315C135.439 62.5855 134.811 61.5443 134.656 60.251C134.336 60.1431 134.004 60.0183 133.672 59.9189C132.033 59.4341 130.388 58.9614 128.756 58.4644C121.399 56.2169 113.791 54.8623 106.102 54.4306C99.4421 54.0431 92.7599 54.3241 86.158 55.2694C80.8725 56.0439 75.6878 57.2329 70.6469 58.9941C68.3114 59.805 68.2708 59.7759 66.8253 61.7891C66.0804 62.8194 65.5088 63.9733 64.8819 65.086ZM56.4644 81.3036C56.6095 81.2079 56.9942 81.2758 57.1368 81.4115C57.5215 81.7909 57.8202 82.2539 58.1804 82.6575C58.3672 82.8648 58.3549 83.2999 58.795 83.2393C58.795 83.2393 58.795 83.2515 58.795 83.2563L58.8196 83.2793C58.811 83.9787 59.3616 84.4017 59.6566 84.9484C59.6812 84.2345 59.3174 83.723 58.8196 83.2793V83.2357C58.8073 83.2357 58.7987 83.2357 58.7913 83.2357C58.7053 82.8054 58.5639 82.3872 58.5393 81.9509C58.4828 80.9327 58.4914 79.911 58.4582 78.8928C58.4508 78.6771 58.4508 78.3498 58.3254 78.2698C57.5719 77.8068 56.9156 77.1559 55.888 76.9486C55.7872 77.3717 55.6286 77.7304 55.6249 78.0904C55.6163 78.9801 55.5917 79.8867 55.7294 80.757C55.7945 81.1727 55.8597 81.5873 55.9285 81.9994C56.5198 85.7435 57.1221 89.4852 57.803 93.2135C57.926 93.8802 58.0489 94.5468 58.1878 95.2062C58.7053 97.7928 59.3457 100.356 60.3216 102.827C60.6326 103.622 61.0899 104.365 61.5078 105.115C61.6 105.282 61.7991 105.394 62.1027 105.67C61.6971 100.631 61.8151 95.7528 60.6277 91.0039C60.1545 92.9432 60.1582 94.8486 60.9117 96.7213C61.0283 97.0508 61.1203 97.3882 61.187 97.731C61.2595 98.0303 61.2472 98.3612 60.919 98.4582C60.7174 98.5212 60.3647 98.4582 60.2356 98.314C59.7697 97.7988 59.2879 97.2679 58.956 96.6655C58.6982 96.1945 58.5126 95.6884 58.4053 95.1638C58.2547 94.3705 58.2134 93.5608 58.2824 92.7566C58.3476 91.8027 58.4692 90.8524 58.5737 89.9021C58.6352 89.3749 58.5664 88.8961 58.2296 88.4573C57.9751 88.1301 57.7477 87.7786 57.5215 87.4307C57.0926 86.7762 57.2142 86.5168 58.0132 86.3689C58.0835 86.3414 58.1494 86.3038 58.2087 86.2574C58.1872 86.079 58.146 85.9034 58.0857 85.7338C57.6531 84.8078 57.2069 83.8902 56.7619 82.9751C56.596 82.6284 56.3612 82.3084 56.2592 81.9497C56.21 81.7545 56.3108 81.3994 56.4644 81.3036V81.3036ZM58.0759 65.206C57.9948 65.9005 57.8485 66.5963 57.8043 67.2908C57.76 68.0774 57.7969 68.8665 57.7969 69.6543C58.634 69.7695 58.9658 69.9258 59.0752 70.4482C59.117 70.6761 59.1347 70.9077 59.1281 71.1391C59.1281 71.5864 59.0752 72.0288 59.0433 72.4724C58.999 73.0433 58.9548 73.6106 58.9093 74.2166C60.0844 74.459 60.2946 75.2869 60.27 76.2493C60.27 76.4723 60.2417 76.6965 60.2331 76.9195C60.1606 78.2856 60.0635 79.6552 60.0266 81.0237C60.0156 81.4915 60.0438 82.0066 60.2331 82.4212C60.5662 83.1557 61.0358 83.8308 61.4488 84.5375C61.6888 82.8878 61.7646 81.2189 61.675 79.5546C61.5367 77.1022 61.7662 74.643 62.356 72.2567C62.7001 70.8313 63.1094 69.4228 63.5028 68.0144C63.6257 67.5465 63.7327 67.1041 63.4659 66.6326C63.1992 66.1611 63.2877 65.6181 63.5311 65.1587C63.5593 65.1078 63.5827 65.0593 63.611 65.0072C64.2145 63.8776 64.85 62.76 65.4781 61.6461C65.601 61.4146 65.7534 61.1989 65.944 60.8995C65.7325 60.931 65.6317 60.9237 65.5543 60.9637C63.2434 62.1006 60.9399 63.2473 58.6278 64.3854C58.2664 64.5551 58.1202 64.8266 58.0759 65.206ZM55.0189 74.9802C54.4879 74.3742 53.9212 73.8142 53.4566 73.1827C52.6539 72.1015 51.8685 71.001 51.1765 69.858C50.8323 69.2907 50.4389 68.9707 49.8084 68.7841C46.1122 67.6859 42.609 66.1284 39.225 64.2994C37.4071 63.3164 36.275 61.8158 35.7464 59.8959C35.1601 57.7553 35.9775 56.8329 37.1514 56.1069C38.0794 55.5312 38.9497 54.8609 39.8359 54.2185C43.2777 51.7155 47.0636 49.8744 51.0597 48.4211C51.9336 48.1023 52.8088 47.7751 53.641 47.4636C53.7258 45.3667 53.7639 43.3231 53.9077 41.2904C54.2359 36.7354 54.6821 32.1926 55.6569 27.7151C56.414 24.2377 57.835 21.0354 60.1803 18.2924C61.5852 16.6404 63.2938 15.3022 65.1155 14.1411C67.0662 12.8914 69.0489 11.6854 71.1078 10.6115C77.1726 7.44188 83.4157 4.66258 89.9538 2.57902C92.1319 1.88449 94.3715 1.37785 96.5816 0.782714C96.7045 0.749988 96.8495 0.766957 96.9626 0.709989C99.1321 -0.327552 101.388 -0.0475609 103.6 0.415454C114.644 2.74185 125.342 6.44588 135.436 11.4381C137.318 12.3641 139.153 13.3774 140.829 14.6513C143.35 16.5307 145.272 19.0831 146.367 22.0062C147.25 24.3528 147.707 26.7964 148.072 29.2593C148.521 32.2617 148.962 35.2603 149.34 38.2663C149.635 40.642 149.85 43.0261 150.051 45.4176C150.222 47.386 150.349 49.3597 150.432 51.3386C150.473 52.3204 150.376 53.3106 150.335 54.4209C150.643 54.6282 151.036 54.8997 151.428 55.1675C153.149 56.3214 154.781 57.5917 156.137 59.1432C157.02 60.154 157.773 61.2752 158.571 62.3576C158.677 62.5179 158.751 62.6969 158.788 62.8849C159.219 64.629 158.328 66.7635 156.672 67.5199C155.509 68.0508 154.231 68.3344 152.992 68.6774C152.218 68.8931 151.421 69.0131 150.558 69.1925C150.681 70.1064 150.804 71.0107 150.902 71.9149C151.015 73.0688 150.813 73.3694 149.691 73.819C149.594 74.6142 149.497 75.4323 149.384 76.3947C149.688 76.2311 149.894 76.1305 150.088 76.0153C152.263 74.7063 154.416 75.4808 155.064 77.9159C155.358 79.0263 155.483 80.1739 155.433 81.3206C155.339 83.3254 155.101 85.329 154.829 87.318C154.349 90.7002 153.601 94.04 152.591 97.3067C151.688 100.34 150.473 103.275 148.965 106.065C147.828 108.145 146.188 109.823 144.216 111.167C143.9 111.383 143.528 111.522 143.152 111.715C142.537 114.389 141.923 117.092 141.308 119.794C140.595 122.877 139.71 125.907 138.493 128.838C136.871 132.746 134.478 136.179 131.846 139.477C127.525 144.891 122.602 149.733 117.521 154.432C115.554 156.25 113.574 158.03 111.375 159.563C108.824 161.335 105.998 162.465 102.994 163.211C102.529 163.343 102.044 163.394 101.561 163.363C99.5685 163.16 97.5612 163.04 95.6695 162.282C95.5226 162.217 95.3714 162.162 95.2172 162.118C90.3422 160.9 86.8685 157.754 83.9086 153.978C80.8958 150.136 78.2322 146.06 75.7591 141.857C71.8109 135.137 68.3286 128.194 65.4621 120.957C64.3214 118.078 63.1918 115.184 62.7505 112.093C62.5551 110.737 62.4064 109.371 62.2281 107.942C60.8072 107.503 59.9639 106.525 59.3211 105.343C58.2443 103.354 57.6076 101.206 57.0495 99.04C55.5261 93.1024 54.3137 87.0915 53.4173 81.0309C53.2833 80.0184 53.2524 78.9951 53.3251 77.9765C53.3915 76.7486 53.8745 75.682 55.0189 74.9802ZM53.1641 68.1926C54.4805 70.4361 56.537 72.8191 57.5166 73.2421C57.6137 72.4845 57.7108 71.733 57.8202 70.8749C56.9598 70.8397 56.7312 70.3404 56.6992 69.7174C56.6758 69.2726 56.6894 68.8267 56.7398 68.3841C56.8443 67.4217 56.9856 66.4641 57.1405 65.2496C55.679 66.3247 54.4154 67.2629 53.1641 68.1889V68.1926ZM56.768 73.4857C56.5385 73.3093 56.3243 73.1143 56.1276 72.9027C54.9538 71.55 53.7922 70.1889 52.563 68.7598C52.0713 69.1343 52.0713 69.138 52.3774 69.6737C53.4866 71.6303 54.955 73.3664 56.7078 74.7936C56.889 74.9239 57.0782 75.0429 57.2745 75.1499C57.4847 74.0663 57.4847 74.0663 56.768 73.4821V73.4857ZM152.913 85.4114C153.273 83.472 153.561 81.4903 153.176 79.511C153.084 78.9794 152.914 78.4639 152.67 77.9813C152.221 77.151 151.852 77.0311 151.014 77.5183C149.785 78.2371 148.61 79.0431 148.46 80.6528C148.414 81.0952 148.257 81.523 148.16 81.9582C148.006 82.6612 147.856 83.3678 147.706 84.0696C148.018 83.866 148.168 83.5848 148.37 83.3593C148.984 82.6648 149.599 81.9582 150.278 81.3315C150.56 81.0673 151.005 80.9437 151.402 80.8467C151.51 80.8387 151.617 80.8574 151.715 80.901C151.813 80.9446 151.899 81.0118 151.964 81.0964C152.037 81.2394 151.964 81.5351 151.841 81.683C151.647 81.9339 151.372 82.1218 151.137 82.3375C149.882 83.4914 149.019 84.8732 148.517 86.6816C148.751 86.4891 148.998 86.3117 149.255 86.1507C149.527 85.9862 149.821 85.8597 150.129 85.775C150.478 85.6914 150.842 85.7265 151.08 86.0744C151.326 86.4453 151.133 86.7374 150.914 87.0283C150.344 87.7992 149.808 88.5979 149.193 89.3397C148.869 89.7312 148.817 90.0912 148.909 90.5664C149.351 92.7893 149.23 94.9529 148.06 96.9661C147.504 97.9116 147.035 98.874 146.943 99.9963C146.902 100.481 146.65 100.927 146.128 101.087C145.636 101.242 145.367 100.868 145.084 100.564C145.047 100.528 144.961 100.539 144.838 100.52C144.475 102.971 144.109 105.421 143.741 107.87C143.822 107.914 143.899 107.954 143.975 107.991C144.357 107.66 144.761 107.352 145.105 106.99C146.418 105.593 147.389 103.979 148.118 102.223C150.366 96.8013 151.852 91.1566 152.913 85.4077V85.4114ZM149.471 72.1488C149.533 70.3998 148.552 68.8762 148.804 67.1902C144.856 64.6872 140.669 62.6667 136.281 60.9746C136.509 61.5323 136.791 62.0668 137.123 62.5709C137.705 63.4533 138.289 64.3357 138.909 65.1939C141.459 68.7271 142.665 72.7197 143.043 76.9838C143.232 79.1437 143.411 81.2915 143.989 83.4078C144.329 84.6623 144.435 85.9798 144.617 87.2731C144.69 87.804 144.69 88.3434 144.727 88.8779C144.803 88.9058 144.88 88.93 144.953 88.9579C145.037 88.6222 145.143 88.2913 145.208 87.9519C146.123 83.2248 147.037 78.4977 147.949 73.7706C148.115 72.8991 148.354 72.127 149.471 72.1452V72.1488ZM148.455 53.2403C148.477 53.108 148.489 52.9744 148.492 52.8404C148.297 50.5847 148.115 48.3254 147.893 46.0733C147.702 44.1691 147.496 42.265 147.245 40.3644C146.843 37.3269 146.385 34.304 145.978 31.2617C145.6 28.44 145.066 25.6607 144.082 22.9735C143.253 20.702 141.973 18.7542 140.123 17.1616C138.302 15.5919 136.236 14.4029 134.078 13.3762C128.394 10.6781 122.515 8.43336 116.612 6.25404C111.834 4.47904 106.911 3.11165 101.895 2.16691C99.7455 1.76329 97.5993 1.57663 95.5429 2.60205C95.3155 2.71356 95.0512 2.75356 94.8054 2.84446C90.4245 4.39714 86.0609 5.98254 81.8743 8.00671C79.0607 9.36546 76.2298 10.7024 73.4187 12.0684C70.7987 13.3244 68.2869 14.789 65.9083 16.4476C63.5643 18.0888 61.5644 20.033 60.184 22.588C58.3992 25.8982 57.6297 29.4617 57.1934 33.1198C56.8332 36.1621 56.5579 39.2117 56.2739 42.2625C56.151 43.6879 56.092 45.117 55.9986 46.6018C56.2472 46.5656 56.4935 46.515 56.7361 46.4503C62.7591 44.5655 68.8744 43.117 75.158 42.4504C78.4694 42.0989 81.7858 41.7559 85.1058 41.5595C89.794 41.2844 94.4858 41.3244 99.1788 41.4916C103.839 41.6589 108.483 41.9765 113.106 42.534C118.496 43.175 123.834 44.1937 129.078 45.5824C135.649 47.3351 142.033 49.5592 147.932 52.9761C148.066 53.0573 148.212 53.1216 148.455 53.2416V53.2403ZM147.225 94.1056C147.626 93.3275 147.829 92.5008 147.565 91.6184C147.266 90.6161 146.994 89.6064 146.682 88.5082C146.068 90.4803 145.33 95.9625 145.537 97.1601C146.123 96.1031 146.702 95.1214 147.221 94.1068L147.225 94.1056Z" fill="black"/>
</g>
<defs>
<linearGradient id="paint0_linear_150_1613" x1="30.5" y1="36.8675" x2="156.975" y2="213.225" gradientUnits="userSpaceOnUse">
<stop stop-color="#673DDD" stop-opacity="0.23"/>
<stop offset="1" stop-color="#673DDD" stop-opacity="0.61"/>
</linearGradient>
</defs>
</svg>
